<?xml version="1.0" encoding="UTF-8" standalone="no"?>
<svg
   version="1.1"
   x="0px"
   y="0px"
   width="1620"
   height="400"
   viewBox="0.21 -0.077 1620 400"
   enable-background="new 0.21 -0.077 110 110"
   xml:space="preserve"
   id="svg4"
   sodipodi:docname="asterinas.svg"
   inkscape:version="1.4.3 (0d15f75042, 2025-12-25)"
   inkscape:export-filename="asterinas.png"
   inkscape:export-xdpi="96"
   inkscape:export-ydpi="96"
   xmlns:inkscape="http://www.inkscape.org/namespaces/inkscape"
   xmlns:sodipodi="http://sodipodi.sourceforge.net/DTD/sodipodi-0.dtd"
   xmlns="http://www.w3.org/2000/svg"
   xmlns:svg="http://www.w3.org/2000/svg"><defs
     id="defs4"><linearGradient
       id="linearGradient3993"><stop
         offset="0"
         style="stop-color:#a3c0d0;stop-opacity:1"
         id="stop3995" /><stop
         offset="1"
         style="stop-color:#427da1;stop-opacity:1"
         id="stop4001" /></linearGradient><linearGradient
       id="linearGradient2508"><stop
         offset="0"
         style="stop-color:#2e4a5a;stop-opacity:1"
         id="stop2510" /><stop
         offset="1"
         style="stop-color:#6e8796;stop-opacity:1"
         id="stop2512" /></linearGradient><linearGradient
       id="linearGradient3308-4-6-931-761-0"><stop
         id="stop2919-2"
         style="stop-color:#ffffff;stop-opacity:1"
         offset="0" /><stop
         id="stop2921-76"
         style="stop-color:#ffffff;stop-opacity:0"
         offset="1" /></linearGradient><linearGradient
       id="linearGradient3575"><stop
         id="stop3577"
         style="stop-color:#fafafa;stop-opacity:1"
         offset="0" /><stop
         id="stop3579"
         style="stop-color:#e6e6e6;stop-opacity:1"
         offset="1" /></linearGradient><linearGradient
       id="SVGID_2_-3"
       gradientUnits="userSpaceOnUse"
       x1="40.741299"
       y1="104.3706"
       x2="88.484802"
       y2="104.3706"
       gradientTransform="matrix(0.11091436,0,0,0.11091436,70.964949,45.705921)">
	<stop
   offset="0.3045"
   style="stop-color:#1937FF"
   id="stop3-6" />
	<stop
   offset="1"
   style="stop-color:#00C3FF"
   id="stop4-7" />
</linearGradient><linearGradient
       id="SVGID_1_-5"
       gradientUnits="userSpaceOnUse"
       x1="39.481701"
       y1="63.022701"
       x2="162.5183"
       y2="63.022701"
       gradientTransform="matrix(0.11091436,0,0,0.11091436,70.964949,45.705921)">
	<stop
   offset="0.3045"
   style="stop-color:#1937FF"
   id="stop1-3" />
	<stop
   offset="1"
   style="stop-color:#00F7FF"
   id="stop2-5" />
</linearGradient><linearGradient
       id="SVGID_1_-3"
       gradientUnits="userSpaceOnUse"
       x1="100.2239"
       y1="62.8811"
       x2="429.17221"
       y2="62.8811"
       gradientTransform="matrix(3.7519932,0,0,3.7519932,308.60344,247.54142)">
		<stop
   offset="0"
   style="stop-color:#176BFF"
   id="stop1-6" />
		<stop
   offset="1"
   style="stop-color:#00F7FF"
   id="stop2-7" />
	</linearGradient><linearGradient
       id="SVGID_3_"
       gradientUnits="userSpaceOnUse"
       x1="3.6234"
       y1="87.870102"
       x2="45.743099"
       y2="87.870102"
       gradientTransform="matrix(3.7519932,0,0,3.7519932,308.60344,247.54142)">
		<stop
   offset="0.3045"
   style="stop-color:#1937FF"
   id="stop5" />
		<stop
   offset="1"
   style="stop-color:#00C3FF"
   id="stop6" />
	</linearGradient><linearGradient
       id="SVGID_2_-5"
       gradientUnits="userSpaceOnUse"
       x1="2.5122001"
       y1="51.3927"
       x2="111.0561"
       y2="51.3927"
       gradientTransform="matrix(3.7519932,0,0,3.7519932,308.60344,247.54142)">
		<stop
   offset="0.3045"
   style="stop-color:#1937FF"
   id="stop3-3" />
		<stop
   offset="1"
   style="stop-color:#00F7FF"
   id="stop4-5" />
	</linearGradient></defs><sodipodi:namedview
     id="namedview4"
     pagecolor="#ffffff"
     bordercolor="#000000"
     borderopacity="0.25"
     inkscape:showpageshadow="2"
     inkscape:pageopacity="0.0"
     inkscape:pagecheckerboard="0"
     inkscape:deskcolor="#d1d1d1"
     inkscape:zoom="0.43083793"
     inkscape:cx="675.42799"
     inkscape:cy="374.85093"
     inkscape:window-width="1920"
     inkscape:window-height="980"
     inkscape:window-x="0"
     inkscape:window-y="0"
     inkscape:window-maximized="1"
     inkscape:current-layer="layer1"
     showgrid="true"><inkscape:grid
       id="grid1"
       units="px"
       originx="0"
       originy="0"
       spacingx="10"
       spacingy="10"
       empcolor="#0099e5"
       empopacity="0.30196078"
       color="#0099e5"
       opacity="0.14901961"
       empspacing="5"
       enabled="true"
       visible="true" /></sodipodi:namedview><linearGradient
     id="SVGID_1_"
     gradientUnits="userSpaceOnUse"
     x1="63.815899"
     y1="56.682899"
     x2="118.4934"
     y2="1.8225"
     gradientTransform="matrix(1,0,0,-1,-53.2974,66.4321)"> <stop
   offset="0"
   style="stop-color:#387EB8"
   id="stop1" /> <stop
   offset="1"
   style="stop-color:#366994"
   id="stop2" /></linearGradient><linearGradient
     id="SVGID_2_"
     gradientUnits="userSpaceOnUse"
     x1="97.044403"
     y1="21.632099"
     x2="155.6665"
     y2="-34.5308"
     gradientTransform="matrix(1,0,0,-1,-53.2974,66.4321)"> <stop
   offset="0"
   style="stop-color:#FFE052"
   id="stop3" /> <stop
   offset="1"
   style="stop-color:#FFC331"
   id="stop4" /></linearGradient><g
     inkscape:groupmode="layer"
     id="layer1"
     inkscape:label="Logo"><g
       id="g1"
       transform="translate(-308.22368,-260)"
       sodipodi:insensitive="true"><path
         class="st16"
         d="m 995.1432,571.75116 c -1.2757,7.24135 -1.3883,14.10749 -0.2627,20.48588 1.0881,6.34087 3.2268,11.8563 6.3784,16.47125 3.1517,4.61495 7.1288,8.32943 11.8563,11.06838 1.6509,0.97552 3.4143,1.65088 5.2528,2.17616 h 201.4445 l 23.6376,-133.15824 1.2382,-1.38824 c 12.269,-13.80733 28.8903,-16.62133 47.1625,-16.73389 4.2398,-0.0375 7.8792,0.41272 11.8563,1.35072 l 7.3164,-42.02233 c -3.3018,0 -6.9037,0.0375 -10.8433,0.0375 -14.22,0.075 -30.3536,-2.43879 -42.6226,10.39303 l -7.6916,9.11734 3.4143,-19.54789 -41.4595,0.1876 -26.339,150.64253 -137.6606,0.63784 c -4.3148,0.0375 -7.8042,-1.876 -10.3931,-5.62799 -2.5888,-3.75199 -3.4143,-8.40446 -2.4763,-13.76981 l 2.3263,-13.1695 101.1162,-0.48776 c 4.0521,-0.0375 8.1793,-1.08808 12.344,-3.18919 4.1648,-2.10112 8.1043,-4.95263 11.6312,-8.47951 3.5644,-3.52687 6.641,-7.61654 9.1924,-12.15646 2.5514,-4.50239 4.2773,-9.26742 5.1402,-14.10749 l 7.5791,-42.69768 c 0.8629,-4.80256 0.8254,-9.53007 -0.1126,-13.95742 -0.938,-4.46487 -2.5514,-8.44198 -4.8026,-11.8563 -2.2511,-3.41431 -5.1027,-6.19079 -8.4795,-8.21686 -3.3392,-2.02608 -7.0912,-3.03912 -11.1059,-3.03912 l -98.1896,0.45024 c -6.0407,0.0375 -11.9314,1.3132 -17.4093,3.78951 -5.5154,2.47632 -10.5431,5.96567 -14.9329,10.43055 -4.4274,4.46487 -8.2169,9.7927 -11.3685,15.90845 -3.1142,6.07823 -5.3654,12.83181 -6.6411,20.07316 z m 53.0907,-85.17025 c 0.6378,-3.60191 2.3262,-6.82863 5.0652,-9.53006 2.7389,-2.70144 5.628,-4.08967 8.6671,-4.08967 l 74.1769,-0.33768 c 2.5138,0 4.4649,0.97552 5.7781,2.96407 1.3132,1.98856 1.6884,4.50239 1.1631,7.50399 l -2.2137,12.6067 c -0.5253,2.88903 -1.7259,5.32783 -3.6019,7.1663 -1.876,1.876 -4.0522,2.814 -6.491,2.814 l -85.9956,0.41272 z m 314.6046,134.99672 33.6179,-192.28965 126.6298,-0.60032 c 5.9656,-0.0375 11.331,1.35071 15.9084,4.08967 4.5774,2.73895 8.3294,6.45343 11.1434,11.03086 2.814,4.57743 4.7275,10.13038 5.628,16.47125 0.9005,6.34087 0.5628,13.20702 -1.013,20.41084 l -24.6131,140.09943 -38.1953,0.1876 22.512,-130.56936 c 1.2006,-5.36536 0.6003,-9.98031 -1.6884,-13.7323 -2.3263,-3.75199 -5.6655,-5.66551 -9.9428,-5.62799 l -75.6027,0.33768 -26.2264,150.00469 z m 19.2102,-230.82263 -43.1104,0.1876 8.6671,-45.73679 42.4726,-0.1876 z m -83.2192,231.16031 33.6929,-192.32718 41.8723,-0.1876 -33.6929,192.5523 h -41.8723 z m 587.187,-99.12766 c -5.8532,-5.92815 -14.7829,-10.43054 -27.3521,-13.80734 l -26.9393,-7.24135 c -12.344,-3.26423 -17.0716,-5.44039 -18.8725,-6.75358 -3.1142,-2.10112 -4.0897,-4.87759 -3.2642,-9.26743 1.0505,-5.55295 3.9771,-9.7927 8.8922,-12.98189 5.0277,-3.26424 14.145,-3.71448 22.4369,-3.752 l 70.8001,-0.33768 7.1288,-41.7972 -71.6256,0.33768 c -21.5739,0.11256 -39.2833,5.81559 -52.6779,16.95901 -13.5447,11.2935 -22.0618,25.62611 -25.326,42.69768 -3.6769,19.28525 -0.075,33.76794 10.7307,43.03536 6.1158,5.32783 17.3717,10.01783 34.4058,14.2951 l 16.6213,4.12719 c 9.1924,2.2512 15.6458,4.99015 19.4353,7.54151 1.9136,1.31319 3.7145,5.06519 2.5514,9.15486 -1.3882,4.80255 -4.8401,12.38158 -33.7679,12.49414 l -87.2714,0.41272 c 0.7504,-2.6264 1.4258,-5.29031 1.9135,-8.06679 l 16.0585,-90.46056 c 1.2757,-7.24134 1.3883,-14.10749 0.2627,-20.48588 -1.0881,-6.34087 -3.2267,-11.8563 -6.3784,-16.47125 -3.1517,-4.61495 -7.1288,-8.32942 -11.8563,-11.06838 -4.7275,-2.73895 -10.1679,-3.37679 -16.1711,-3.33927 l -152.7061,0.71288 c 0.4877,0.71287 0.938,1.42575 1.3882,2.13863 4.3898,7.12879 7.3164,15.57077 8.6671,25.06332 0.6754,4.65247 0.9005,9.45502 0.6754,14.33261 l 123.4781,-0.5628 c 4.3148,-0.0375 7.8041,1.876 10.393,5.62799 2.5889,3.752 3.4143,8.40447 2.4763,13.76982 l -2.3262,13.16949 -101.1162,0.48776 c -4.0522,0.0375 -8.1794,1.08808 -12.3441,3.1892 -4.1647,2.10111 -8.1043,4.95263 -11.6312,8.4795 -3.5644,3.52688 -6.641,7.61655 -9.1924,12.15646 -2.5513,4.50239 -4.2772,9.26742 -5.1402,14.10749 l -7.579,42.69769 c -0.863,4.80255 -0.8255,9.53006 0.1125,13.95741 0.938,4.46487 2.5514,8.44199 4.8026,11.8563 2.2512,3.41432 5.1027,6.19079 8.4795,8.21687 3.3393,2.02607 7.0913,3.03911 11.1059,3.03911 l 96.914,-0.45024 134.8466,-0.63784 4.1272,-0.0375 v -0.0375 c 18.0096,-0.30016 33.9931,-1.95103 47.125,-12.41909 14.4077,-11.4811 23.375,-26.11388 26.7142,-43.52313 3.3768,-17.44676 0.3377,-31.10402 -9.0047,-40.55904 z m -189.2131,41.83472 c -0.6378,3.60192 -2.3262,6.82863 -5.0652,9.53006 -2.5138,2.51384 -5.2152,3.82704 -7.9917,4.01464 h -0.3752 v 0.0375 c -0.1126,0 -0.2251,0.0375 -0.3377,0.0375 l -74.1769,0.33768 c -2.5138,0 -4.4649,-0.97552 -5.7781,-2.96408 -1.3132,-1.98855 -1.6884,-4.50239 -1.1631,-7.50398 l 2.2137,-12.6067 c 0.5253,-2.88904 1.7259,-5.32783 3.6019,-7.16631 1.876,-1.876 4.0522,-2.81399 6.491,-2.81399 l 85.9957,-0.41272 z m -754.0005,-19.9606 35.3438,-0.15008 -6.1908,35.00609 c -1.0881,6.15327 -3.0767,11.96886 -5.9282,17.33421 -2.8515,5.36535 -6.3784,10.20543 -10.4305,14.33262 -4.0522,4.12719 -8.5921,7.3539 -13.4697,9.68014 -0.8629,0.41272 -1.7634,0.7504 -2.6264,1.08808 H 867.763 c -0.4877,-0.22512 -1.013,-0.41272 -1.5008,-0.71288 -4.0146,-2.21368 -7.3914,-5.40287 -10.0178,-9.4175 -2.6639,-4.01464 -4.4649,-8.74215 -5.4029,-14.03246 -0.938,-5.29031 -0.8629,-11.06838 0.2251,-17.18413 l 18.835,-107.08188 -15.5332,0.075 -75.0399,0.33767 c -8.2544,0.0375 -17.3717,0.52528 -22.4369,3.752 -4.9526,3.18919 -7.8417,7.42894 -8.8922,12.98189 -0.863,4.38984 0.1125,7.16631 3.2642,9.26743 1.8385,1.27568 6.5285,3.45183 18.8725,6.75359 l 26.9394,7.24134 c 12.5691,3.3768 21.5364,7.87919 27.352,13.80734 9.3425,9.45502 12.344,23.1498 9.0048,40.6716 -3.3393,17.40925 -12.3066,32.07955 -26.7142,43.52313 -6.566,5.25279 -13.8449,8.25438 -21.7616,10.01782 H 684.6282 l 6.5285,-39.17081 66.4103,-0.30016 c 28.9278,-0.15008 32.3797,-7.72911 33.7679,-12.49414 1.2006,-4.08967 -0.6003,-7.87918 -2.5513,-9.15486 -3.7896,-2.55136 -10.243,-5.29031 -19.4354,-7.54151 l -16.6213,-4.12719 c -17.0341,-4.27727 -28.29,-8.96726 -34.4058,-14.29509 -10.8057,-9.26743 -14.4076,-23.75012 -10.7307,-43.03537 3.2643,-17.07157 11.7813,-31.40418 25.326,-42.69768 13.3946,-11.14342 31.1415,-16.84645 52.678,-16.95901 l 91.6612,-0.41272 7.0537,-40.33393 37.5199,-0.1876 -7.2413,40.70913 106.2189,-0.3752 c -12.6817,10.28046 -21.724,24.8382 -25.0258,41.49705 l -88.5095,0.30016 -16.5838,94.25007 c -0.7504,4.35231 -0.1501,8.02926 1.8009,10.99334 1.9511,3.00159 4.8026,4.50239 8.442,4.46487 l 22.512,-0.11256 c 3.5269,0 6.7911,-1.46328 9.6801,-4.35231 2.8891,-2.85152 4.7275,-6.45343 5.4779,-10.69318 z"
         id="path2-6"
         style="fill:url(#SVGID_1_-3);stroke-width:3.75199"
         sodipodi:insensitive="true" /><path
         class="st17"
         d="m 725.2998,431.53917 h -82.5063 c 3.0391,-62.54573 6.0782,-125.76681 8.2919,-171.61617 H 604.7858 L 480.4072,431.53917 H 318.02096 l 2.66392,0.60032 C 441.0863,454.31377 544.0786,522.90021 608.3502,617.60052 l 2.2137,3.18919 23.1873,-0.0375 c 1.6884,-34.6309 4.2773,-91.17344 7.0913,-148.69149 h 53.2032 c 6.9037,-16.02101 17.7094,-29.90339 31.2541,-40.52153 z M 591.8414,530.44171 C 575.5953,507.62959 554.8093,487.81907 530.7215,472.0607 h 64.5342 z m 5.7781,-98.90254 h -61.4201 l 66.973,-94.06247 z"
         id="path4-2"
         style="fill:url(#SVGID_2_-5);stroke-width:3.75199"
         sodipodi:insensitive="true" /><path
         class="st18"
         d="M 322.18567,659.923 480.2196,519.52341 c -12.3815,-9.83022 -25.9638,-18.2722 -40.4465,-25.02579 z"
         id="path6-9"
         style="fill:url(#SVGID_3_);stroke-width:3.75199"
         sodipodi:insensitive="true" /></g></g></svg>
