<?xml version="1.0" encoding="UTF-8" standalone="no"?>
<svg
   version="1.1"
   x="0px"
   y="0px"
   width="1420"
   height="400"
   viewBox="0.21 -0.077 1420 400"
   enable-background="new 0.21 -0.077 110 110"
   xml:space="preserve"
   id="svg4"
   sodipodi:docname="cmake-light.svg"
   inkscape:version="1.4.3 (0d15f75042, 2025-12-25)"
   inkscape:export-filename="cmake-light.png"
   inkscape:export-xdpi="96"
   inkscape:export-ydpi="96"
   xmlns:inkscape="http://www.inkscape.org/namespaces/inkscape"
   xmlns:sodipodi="http://sodipodi.sourceforge.net/DTD/sodipodi-0.dtd"
   xmlns="http://www.w3.org/2000/svg"
   xmlns:svg="http://www.w3.org/2000/svg"><defs
     id="defs4"><linearGradient
       id="linearGradient3993"><stop
         offset="0"
         style="stop-color:#a3c0d0;stop-opacity:1"
         id="stop3995" /><stop
         offset="1"
         style="stop-color:#427da1;stop-opacity:1"
         id="stop4001" /></linearGradient><linearGradient
       id="linearGradient2508"><stop
         offset="0"
         style="stop-color:#2e4a5a;stop-opacity:1"
         id="stop2510" /><stop
         offset="1"
         style="stop-color:#6e8796;stop-opacity:1"
         id="stop2512" /></linearGradient><linearGradient
       id="linearGradient3308-4-6-931-761-0"><stop
         id="stop2919-2"
         style="stop-color:#ffffff;stop-opacity:1"
         offset="0" /><stop
         id="stop2921-76"
         style="stop-color:#ffffff;stop-opacity:0"
         offset="1" /></linearGradient><linearGradient
       id="linearGradient3575"><stop
         id="stop3577"
         style="stop-color:#fafafa;stop-opacity:1"
         offset="0" /><stop
         id="stop3579"
         style="stop-color:#e6e6e6;stop-opacity:1"
         offset="1" /></linearGradient><linearGradient
       id="SVGID_2_-3"
       gradientUnits="userSpaceOnUse"
       x1="40.741299"
       y1="104.3706"
       x2="88.484802"
       y2="104.3706"
       gradientTransform="matrix(0.11091436,0,0,0.11091436,70.964949,45.705921)">
	<stop
   offset="0.3045"
   style="stop-color:#1937FF"
   id="stop3-6" />
	<stop
   offset="1"
   style="stop-color:#00C3FF"
   id="stop4-7" />
</linearGradient><linearGradient
       id="SVGID_1_-5"
       gradientUnits="userSpaceOnUse"
       x1="39.481701"
       y1="63.022701"
       x2="162.5183"
       y2="63.022701"
       gradientTransform="matrix(0.11091436,0,0,0.11091436,70.964949,45.705921)">
	<stop
   offset="0.3045"
   style="stop-color:#1937FF"
   id="stop1-3" />
	<stop
   offset="1"
   style="stop-color:#00F7FF"
   id="stop2-5" />
</linearGradient><clipPath
       id="clip-1"><path
         clip-rule="nonzero"
         d="M 296,0 H 427 V 139.71875 H 296 Z m 0,0"
         id="path6-3" /></clipPath><clipPath
       id="clip-0"><path
         clip-rule="nonzero"
         d="M 13,0 H 283 V 139.71875 H 13 Z m 0,0"
         id="path5-6" /></clipPath><clipPath
       id="clip-1-3"><path
         clip-rule="nonzero"
         d="M 296,0 H 427 V 139.71875 H 296 Z m 0,0"
         id="path6" /></clipPath><clipPath
       id="clip-0-6"><path
         clip-rule="nonzero"
         d="M 13,0 H 283 V 139.71875 H 13 Z m 0,0"
         id="path5" /></clipPath></defs><sodipodi:namedview
     id="namedview4"
     pagecolor="#ffffff"
     bordercolor="#000000"
     borderopacity="0.25"
     inkscape:showpageshadow="2"
     inkscape:pageopacity="0.0"
     inkscape:pagecheckerboard="0"
     inkscape:deskcolor="#d1d1d1"
     inkscape:zoom="0.6092969"
     inkscape:cx="731.17063"
     inkscape:cy="197.76894"
     inkscape:window-width="1920"
     inkscape:window-height="980"
     inkscape:window-x="0"
     inkscape:window-y="0"
     inkscape:window-maximized="1"
     inkscape:current-layer="g1"
     showgrid="true"><inkscape:grid
       id="grid1"
       units="px"
       originx="0"
       originy="0"
       spacingx="10"
       spacingy="10"
       empcolor="#0099e5"
       empopacity="0.30196078"
       color="#0099e5"
       opacity="0.14901961"
       empspacing="5"
       enabled="true"
       visible="true" /></sodipodi:namedview><linearGradient
     id="SVGID_1_"
     gradientUnits="userSpaceOnUse"
     x1="63.815899"
     y1="56.682899"
     x2="118.4934"
     y2="1.8225"
     gradientTransform="matrix(1,0,0,-1,-53.2974,66.4321)"> <stop
   offset="0"
   style="stop-color:#387EB8"
   id="stop1" /> <stop
   offset="1"
   style="stop-color:#366994"
   id="stop2" /></linearGradient><linearGradient
     id="SVGID_2_"
     gradientUnits="userSpaceOnUse"
     x1="97.044403"
     y1="21.632099"
     x2="155.6665"
     y2="-34.5308"
     gradientTransform="matrix(1,0,0,-1,-53.2974,66.4321)"> <stop
   offset="0"
   style="stop-color:#FFE052"
   id="stop3" /> <stop
   offset="1"
   style="stop-color:#FFC331"
   id="stop4" /></linearGradient><g
     inkscape:groupmode="layer"
     id="layer1"
     inkscape:label="Logo"><g
       id="g1"
       transform="matrix(2.8628942,0,0,2.8628942,-709.89269,-850.13972)"
       sodipodi:insensitive="true"><polygon
         points="43.3,41.8 39.53,0 0,78.6 "
         style="fill:#0068c7"
         id="polygon1"
         transform="matrix(1.7009831,0,0,1.7009831,249.23329,296.92425)" /><polygon
         points="0.22,82.14 78.98,82.14 25.56,60.62 "
         style="fill:#3dae2b"
         id="polygon2"
         transform="matrix(1.7009831,0,0,1.7009831,249.23329,296.92425)" /><polygon
         points="48.29,66.68 82.09,80.3 42.4,1.34 "
         style="fill:#f32735"
         id="polygon3"
         transform="matrix(1.7009831,0,0,1.7009831,249.23329,296.92425)" /><polygon
         points="45.6,65.56 43.78,45.03 27.95,58.46 "
         style="fill:#dce3eb"
         id="polygon4"
         transform="matrix(1.7009831,0,0,1.7009831,249.23329,296.92425)" /><g
         id="g8"
         transform="matrix(1.7009831,0,0,1.7009831,249.23329,296.92425)"
         style="fill:#2a292f;fill-opacity:1"><path
           d="m 116.11,65.92 c 5.82,0 10.56,-1.91 12.86,-3.6 l 0.84,5.43 c -2.98,1.91 -6.81,3.6 -13.47,3.6 -14.39,0 -20.43,-7.65 -20.43,-24.49 0,-16.84 5.59,-25.33 20.2,-25.33 6.43,0 10.03,1.76 13.24,3.52 l -0.84,5.51 c -3.37,-1.99 -7.42,-3.6 -12.63,-3.6 -10.64,0 -14.08,6.5 -14.08,19.59 0,12.17 2.98,19.36 14.31,19.36 z"
           style="fill:#2a292f;fill-opacity:1"
           id="path4" /><path
           d="m 137.4,22.22 h 5.66 l 16,26.02 16,-26.02 h 5.66 V 70.59 H 174.9 V 32.63 L 159.59,57.5 h -1.15 L 143.21,32.7 v 37.88 h -5.82 V 22.22 Z"
           style="fill:#2a292f;fill-opacity:1"
           id="path5-67" /><path
           d="m 217.08,69.05 c -3.44,1.22 -8.88,2.14 -14.01,2.14 -8.88,0 -14.77,-2.98 -14.77,-11.33 0,-8.35 5.89,-11.4 15.92,-11.4 h 7.27 v -3.6 c 0,-5.05 -3.52,-6.66 -9.34,-6.66 -4.29,0 -7.81,0.77 -10.1,1.61 l -0.84,-5.13 c 2.98,-0.84 6.73,-1.61 11.17,-1.61 8.42,0 14.69,3.06 14.69,12.24 V 69.03 Z M 211.49,52.9 h -7.19 c -6.81,0 -10.41,1.68 -10.41,6.89 0,5.21 3.6,6.58 9.03,6.58 2.68,0 6.2,-0.31 8.57,-1.07 z"
           style="fill:#2a292f;fill-opacity:1"
           id="path6-5" /><path
           d="m 225.44,18.39 h 5.59 v 52.19 h -5.59 z m 22.58,15.31 h 7.12 l -15.31,17.45 16.84,19.44 h -7.12 L 232.71,51.15 Z"
           style="fill:#2a292f;fill-opacity:1"
           id="path7" /><path
           d="m 289.57,54.36 h -25.18 v 0.31 c 0,7.81 4.52,11.25 12.17,11.25 4.29,0 8.8,-1.07 11.56,-2.53 l 0.84,5.28 c -3.6,1.61 -7.96,2.53 -12.47,2.53 -11.79,0 -17.76,-5.89 -17.76,-18.98 0,-10.64 3.9,-19.13 16,-19.13 9.72,0 15.46,5.43 15.46,16.15 0,1.53 -0.15,3.52 -0.61,5.13 z m -25.18,-4.74 h 20.43 v -0.46 c 0,-7.88 -3.98,-11.1 -10.25,-11.1 -6.27,0 -10.18,3.14 -10.18,11.1 z"
           style="fill:#2a292f;fill-opacity:1"
           id="path8" /></g></g></g></svg>
