<?xml version="1.0" encoding="UTF-8" standalone="no"?>
<svg
   version="1.1"
   x="0px"
   y="0px"
   width="1840"
   height="400"
   viewBox="0.21 -0.077 1840 400"
   enable-background="new 0.21 -0.077 110 110"
   xml:space="preserve"
   id="svg4"
   sodipodi:docname="flatpak.svg"
   inkscape:version="1.4.4 (dcaf3e7, 2026-05-05)"
   inkscape:export-filename="flatpak.png"
   inkscape:export-xdpi="96"
   inkscape:export-ydpi="96"
   xmlns:inkscape="http://www.inkscape.org/namespaces/inkscape"
   xmlns:sodipodi="http://sodipodi.sourceforge.net/DTD/sodipodi-0.dtd"
   xmlns="http://www.w3.org/2000/svg"
   xmlns:svg="http://www.w3.org/2000/svg"><defs
     id="defs4"><linearGradient
       id="linearGradient3993"><stop
         offset="0"
         style="stop-color:#a3c0d0;stop-opacity:1"
         id="stop3995" /><stop
         offset="1"
         style="stop-color:#427da1;stop-opacity:1"
         id="stop4001" /></linearGradient><linearGradient
       id="linearGradient2508"><stop
         offset="0"
         style="stop-color:#2e4a5a;stop-opacity:1"
         id="stop2510" /><stop
         offset="1"
         style="stop-color:#6e8796;stop-opacity:1"
         id="stop2512" /></linearGradient><linearGradient
       id="linearGradient3308-4-6-931-761-0"><stop
         id="stop2919-2"
         style="stop-color:#ffffff;stop-opacity:1"
         offset="0" /><stop
         id="stop2921-76"
         style="stop-color:#ffffff;stop-opacity:0"
         offset="1" /></linearGradient><linearGradient
       id="linearGradient3575"><stop
         id="stop3577"
         style="stop-color:#fafafa;stop-opacity:1"
         offset="0" /><stop
         id="stop3579"
         style="stop-color:#e6e6e6;stop-opacity:1"
         offset="1" /></linearGradient><linearGradient
       id="SVGID_2_-3"
       gradientUnits="userSpaceOnUse"
       x1="40.741299"
       y1="104.3706"
       x2="88.484802"
       y2="104.3706"
       gradientTransform="matrix(0.11091436,0,0,0.11091436,70.964949,45.705921)">
	<stop
   offset="0.3045"
   style="stop-color:#1937FF"
   id="stop3-6" />
	<stop
   offset="1"
   style="stop-color:#00C3FF"
   id="stop4-7" />
</linearGradient><linearGradient
       id="SVGID_1_-5"
       gradientUnits="userSpaceOnUse"
       x1="39.481701"
       y1="63.022701"
       x2="162.5183"
       y2="63.022701"
       gradientTransform="matrix(0.11091436,0,0,0.11091436,70.964949,45.705921)">
	<stop
   offset="0.3045"
   style="stop-color:#1937FF"
   id="stop1-3" />
	<stop
   offset="1"
   style="stop-color:#00F7FF"
   id="stop2-5" />
</linearGradient><linearGradient
       id="SVGID_1_-3"
       gradientUnits="userSpaceOnUse"
       x1="100.2239"
       y1="62.8811"
       x2="429.17221"
       y2="62.8811"
       gradientTransform="matrix(3.7519932,0,0,3.7519932,308.60344,247.54142)">
		<stop
   offset="0"
   style="stop-color:#176BFF"
   id="stop1-6" />
		<stop
   offset="1"
   style="stop-color:#00F7FF"
   id="stop2-7" />
	</linearGradient><linearGradient
       id="SVGID_3_"
       gradientUnits="userSpaceOnUse"
       x1="3.6234"
       y1="87.870102"
       x2="45.743099"
       y2="87.870102"
       gradientTransform="matrix(3.7519932,0,0,3.7519932,308.60344,247.54142)">
		<stop
   offset="0.3045"
   style="stop-color:#1937FF"
   id="stop5" />
		<stop
   offset="1"
   style="stop-color:#00C3FF"
   id="stop6" />
	</linearGradient><linearGradient
       id="SVGID_2_-5"
       gradientUnits="userSpaceOnUse"
       x1="2.5122001"
       y1="51.3927"
       x2="111.0561"
       y2="51.3927"
       gradientTransform="matrix(3.7519932,0,0,3.7519932,308.60344,247.54142)">
		<stop
   offset="0.3045"
   style="stop-color:#1937FF"
   id="stop3-3" />
		<stop
   offset="1"
   style="stop-color:#00F7FF"
   id="stop4-5" />
	</linearGradient></defs><sodipodi:namedview
     id="namedview4"
     pagecolor="#ffffff"
     bordercolor="#000000"
     borderopacity="0.25"
     inkscape:showpageshadow="2"
     inkscape:pageopacity="0.0"
     inkscape:pagecheckerboard="0"
     inkscape:deskcolor="#d1d1d1"
     inkscape:zoom="0.43083793"
     inkscape:cx="859.95215"
     inkscape:cy="142.74509"
     inkscape:window-width="1920"
     inkscape:window-height="980"
     inkscape:window-x="0"
     inkscape:window-y="0"
     inkscape:window-maximized="1"
     inkscape:current-layer="g981"
     showgrid="true"><inkscape:grid
       id="grid1"
       units="px"
       originx="0"
       originy="0"
       spacingx="10"
       spacingy="10"
       empcolor="#0099e5"
       empopacity="0.30196078"
       color="#0099e5"
       opacity="0.14901961"
       empspacing="5"
       enabled="true"
       visible="true" /></sodipodi:namedview><linearGradient
     id="SVGID_1_"
     gradientUnits="userSpaceOnUse"
     x1="63.815899"
     y1="56.682899"
     x2="118.4934"
     y2="1.8225"
     gradientTransform="matrix(1,0,0,-1,-53.2974,66.4321)"> <stop
   offset="0"
   style="stop-color:#387EB8"
   id="stop1" /> <stop
   offset="1"
   style="stop-color:#366994"
   id="stop2" /></linearGradient><linearGradient
     id="SVGID_2_"
     gradientUnits="userSpaceOnUse"
     x1="97.044403"
     y1="21.632099"
     x2="155.6665"
     y2="-34.5308"
     gradientTransform="matrix(1,0,0,-1,-53.2974,66.4321)"> <stop
   offset="0"
   style="stop-color:#FFE052"
   id="stop3" /> <stop
   offset="1"
   style="stop-color:#FFC331"
   id="stop4" /></linearGradient><g
     inkscape:groupmode="layer"
     id="layer1"
     inkscape:label="Logo"><g
       id="g981"
       transform="matrix(7.6120851,0,0,7.6120851,-8693.4427,-4605.3885)"
       style="fill:#000000"
       inkscape:label="g1"
       sodipodi:insensitive="true"><g
         aria-label="Flatpak"
         id="text47286"
         style="font-weight:bold;font-size:48.2186px;line-height:1.25;font-family:Inter;-inkscape-font-specification:'Inter, Bold';text-align:center;letter-spacing:0px;word-spacing:0px;text-anchor:middle;fill:#4a90d9;fill-opacity:1;stroke-width:1.69387"><path
           d="m 1212.1156,647.68512 h 7.4143 v -14.48613 h 14.2635 v -6.11294 h -14.2635 v -8.35606 h 15.8046 v -6.11294 h -23.2189 z"
           id="path1059"
           style="fill:#4a90d9;fill-opacity:1" /><path
           d="m 1247.4747,612.61705 h -7.2944 v 35.06807 h 7.2944 z"
           id="path1056"
           style="fill:#4a90d9;fill-opacity:1" /><path
           d="m 1260.7964,648.18169 c 3.887,0 6.4041,-1.69519 7.6883,-4.14379 h 0.2055 v 3.64722 h 6.9177 v -17.73951 c 0,-6.26705 -5.3081,-8.90401 -11.1642,-8.90401 -6.3013,0 -10.4451,3.01367 -11.4554,7.80813 l 6.7465,0.54794 c 0.4966,-1.74656 2.0548,-3.03079 4.6746,-3.03079 2.4829,0 3.9041,1.24999 3.9041,3.40749 v 0.10274 c 0,1.69519 -1.7979,1.91779 -6.3698,2.36299 -5.2054,0.47945 -9.88,2.226 -9.88,8.09922 0,5.20541 3.7157,7.84237 8.7327,7.84237 z m 2.0891,-5.03419 c -2.2432,0 -3.8527,-1.04451 -3.8527,-3.04791 0,-2.05477 1.6952,-3.06503 4.2636,-3.42461 1.5925,-0.2226 4.1952,-0.59931 5.0684,-1.1815 v 2.79107 c 0,2.75681 -2.2773,4.86295 -5.4793,4.86295 z"
           id="path1053"
           style="fill:#4a90d9;fill-opacity:1" /><path
           d="m 1295.2652,621.38406 h -4.9486 v -6.30129 h -7.2944 v 6.30129 h -3.5958 v 5.47939 h 3.5958 v 13.69847 c -0.034,5.15405 3.476,7.70538 8.767,7.48278 1.8836,-0.0685 3.2192,-0.4452 3.9554,-0.68492 l -1.1472,-5.42802 c -0.3596,0.0685 -1.1301,0.23973 -1.815,0.23973 -1.4555,0 -2.4658,-0.54794 -2.4658,-2.56847 v -12.73957 h 4.9486 z"
           id="path1050"
           style="fill:#4a90d9;fill-opacity:1" /><path
           d="m 1300.0082,657.54802 h 7.2944 v -14.07518 h 0.2226 c 1.0103,2.19176 3.2192,4.64036 7.4657,4.64036 5.9931,0 10.6677,-4.7431 10.6677,-13.54436 0,-9.04099 -4.8801,-13.52724 -10.6506,-13.52724 -4.4006,0 -6.5067,2.61983 -7.4828,4.76022 h -0.3253 v -4.41776 h -7.1917 z m 7.1403,-23.01343 c 0,-4.69172 1.9863,-7.68826 5.5308,-7.68826 3.613,0 5.5307,3.13352 5.5307,7.68826 0,4.58899 -1.952,7.77388 -5.5307,7.77388 -3.5102,0 -5.5308,-3.08215 -5.5308,-7.77388 z"
           id="path1047"
           style="fill:#4a90d9;fill-opacity:1" /><path
           d="m 1338.0043,648.18169 c 3.8869,0 6.404,-1.69519 7.6882,-4.14379 h 0.2055 v 3.64722 h 6.9177 v -17.73951 c 0,-6.26705 -5.3081,-8.90401 -11.1642,-8.90401 -6.3013,0 -10.4451,3.01367 -11.4554,7.80813 l 6.7465,0.54794 c 0.4966,-1.74656 2.0548,-3.03079 4.6746,-3.03079 2.4829,0 3.9041,1.24999 3.9041,3.40749 v 0.10274 c 0,1.69519 -1.7979,1.91779 -6.3698,2.36299 -5.2054,0.47945 -9.88,2.226 -9.88,8.09922 0,5.20541 3.7157,7.84237 8.7328,7.84237 z m 2.089,-5.03419 c -2.2432,0 -3.8527,-1.04451 -3.8527,-3.04791 0,-2.05477 1.6952,-3.06503 4.2636,-3.42461 1.5925,-0.2226 4.1952,-0.59931 5.0685,-1.1815 v 2.79107 c 0,2.75681 -2.2774,4.86295 -5.4794,4.86295 z"
           id="path1044"
           style="fill:#4a90d9;fill-opacity:1" /><path
           d="m 1358.4835,647.68512 h 7.2944 v -8.35606 l 1.9691,-2.24313 7.1746,10.59919 h 8.5444 l -10.2567,-14.91421 9.7602,-11.38685 h -8.3732 l -8.4246,9.98276 h -0.3938 v -18.74977 h -7.2944 z"
           id="path1041"
           style="fill:#4a90d9;fill-opacity:1" /></g><g
         id="g47294"
         transform="matrix(0.15364057,0,0,0.15364057,1112.1964,579.21793)"
         style="mix-blend-mode:normal;fill:#4a90d9;fill-opacity:1"><path
           style="fill:#4a90d9;fill-opacity:1;stroke:none;stroke-width:1px;stroke-linecap:butt;stroke-linejoin:miter;stroke-opacity:1"
           d="m 474.6092,255.1181 1e-5,151.18111 -130.92667,75.59055 v -151.1811 z"
           id="path47288"
           sodipodi:nodetypes="ccccc" /><path
           style="fill:#4a90d9;fill-opacity:1;stroke:none;stroke-width:1px;stroke-linecap:butt;stroke-linejoin:miter;stroke-opacity:1"
           d="M 343.68252,330.70866 V 179.52756 L 212.75586,255.1181 Z"
           id="path47290" /><path
           style="fill:#4a90d9;fill-opacity:1;fill-rule:nonzero;stroke:none;stroke-width:82.9362;stroke-linecap:round;stroke-linejoin:round;stroke-dasharray:none;stroke-opacity:1"
           d="m 218.61226,233.26169 c -13.54108,7.81795 -21.85641,22.22052 -21.85641,37.85641 v 119.18111 c 0,15.63589 8.31533,30.03846 21.85641,37.85641 l 103.21385,59.59055 c 13.54108,7.81794 30.17174,7.81794 43.71282,0 l 103.21386,-59.59055 c 13.54108,-7.81795 21.85641,-22.22052 21.85641,-37.85641 V 271.1181 c 0,-15.63589 -8.31533,-30.03846 -21.85641,-37.85641 L 365.53893,173.67115 c -13.54108,-7.81794 -30.17174,-7.81794 -43.71282,0 z m 130.92667,-31.87772 103.21386,59.59054 c 3.60767,2.08289 5.85641,5.97781 5.85641,10.14359 v 119.18111 c 0,4.16578 -2.24874,8.0607 -5.85641,10.14359 l -103.21386,59.59055 c -3.60767,2.08289 -8.10515,2.08289 -11.71282,0 L 234.61226,400.4428 c -3.60767,-2.08289 -5.85641,-5.97781 -5.85641,-10.14359 V 271.1181 c 0,-4.16578 2.24874,-8.0607 5.85641,-10.14359 l 103.21385,-59.59054 c 3.60767,-2.08289 8.10515,-2.08289 11.71282,0 z"
           id="path47292" /></g></g></g></svg>
