<?xml version="1.0" encoding="UTF-8" standalone="no"?>
<svg
   version="1.1"
   x="0px"
   y="0px"
   width="940"
   height="400"
   viewBox="0.21 -0.077 940 400"
   enable-background="new 0.21 -0.077 110 110"
   xml:space="preserve"
   id="svg4"
   sodipodi:docname="helix-dark.svg"
   inkscape:version="1.4.3 (0d15f75042, 2025-12-25)"
   inkscape:export-filename="helix-dark.png"
   inkscape:export-xdpi="96"
   inkscape:export-ydpi="96"
   xmlns:inkscape="http://www.inkscape.org/namespaces/inkscape"
   xmlns:sodipodi="http://sodipodi.sourceforge.net/DTD/sodipodi-0.dtd"
   xmlns="http://www.w3.org/2000/svg"
   xmlns:svg="http://www.w3.org/2000/svg"><defs
     id="defs4"><linearGradient
       id="linearGradient3993"><stop
         offset="0"
         style="stop-color:#a3c0d0;stop-opacity:1"
         id="stop3995" /><stop
         offset="1"
         style="stop-color:#427da1;stop-opacity:1"
         id="stop4001" /></linearGradient><linearGradient
       id="linearGradient2508"><stop
         offset="0"
         style="stop-color:#2e4a5a;stop-opacity:1"
         id="stop2510" /><stop
         offset="1"
         style="stop-color:#6e8796;stop-opacity:1"
         id="stop2512" /></linearGradient><linearGradient
       id="linearGradient3308-4-6-931-761-0"><stop
         id="stop2919-2"
         style="stop-color:#ffffff;stop-opacity:1"
         offset="0" /><stop
         id="stop2921-76"
         style="stop-color:#ffffff;stop-opacity:0"
         offset="1" /></linearGradient><linearGradient
       id="linearGradient3575"><stop
         id="stop3577"
         style="stop-color:#fafafa;stop-opacity:1"
         offset="0" /><stop
         id="stop3579"
         style="stop-color:#e6e6e6;stop-opacity:1"
         offset="1" /></linearGradient><linearGradient
       id="SVGID_2_-3"
       gradientUnits="userSpaceOnUse"
       x1="40.741299"
       y1="104.3706"
       x2="88.484802"
       y2="104.3706"
       gradientTransform="matrix(0.11091436,0,0,0.11091436,70.964949,45.705921)">
	<stop
   offset="0.3045"
   style="stop-color:#1937FF"
   id="stop3-6" />
	<stop
   offset="1"
   style="stop-color:#00C3FF"
   id="stop4-7" />
</linearGradient><linearGradient
       id="SVGID_1_-5"
       gradientUnits="userSpaceOnUse"
       x1="39.481701"
       y1="63.022701"
       x2="162.5183"
       y2="63.022701"
       gradientTransform="matrix(0.11091436,0,0,0.11091436,70.964949,45.705921)">
	<stop
   offset="0.3045"
   style="stop-color:#1937FF"
   id="stop1-3" />
	<stop
   offset="1"
   style="stop-color:#00F7FF"
   id="stop2-5" />
</linearGradient></defs><sodipodi:namedview
     id="namedview4"
     pagecolor="#ffffff"
     bordercolor="#000000"
     borderopacity="0.25"
     inkscape:showpageshadow="2"
     inkscape:pageopacity="0.0"
     inkscape:pagecheckerboard="0"
     inkscape:deskcolor="#d1d1d1"
     inkscape:zoom="0.43083796"
     inkscape:cx="493.22488"
     inkscape:cy="237.90847"
     inkscape:window-width="1920"
     inkscape:window-height="980"
     inkscape:window-x="0"
     inkscape:window-y="0"
     inkscape:window-maximized="1"
     inkscape:current-layer="layer1"
     showgrid="true"><inkscape:grid
       id="grid1"
       units="px"
       originx="0"
       originy="0"
       spacingx="10"
       spacingy="10"
       empcolor="#0099e5"
       empopacity="0.30196078"
       color="#0099e5"
       opacity="0.14901961"
       empspacing="5"
       enabled="true"
       visible="true" /></sodipodi:namedview><linearGradient
     id="SVGID_1_"
     gradientUnits="userSpaceOnUse"
     x1="63.815899"
     y1="56.682899"
     x2="118.4934"
     y2="1.8225"
     gradientTransform="matrix(1,0,0,-1,-53.2974,66.4321)"> <stop
   offset="0"
   style="stop-color:#387EB8"
   id="stop1" /> <stop
   offset="1"
   style="stop-color:#366994"
   id="stop2" /></linearGradient><linearGradient
     id="SVGID_2_"
     gradientUnits="userSpaceOnUse"
     x1="97.044403"
     y1="21.632099"
     x2="155.6665"
     y2="-34.5308"
     gradientTransform="matrix(1,0,0,-1,-53.2974,66.4321)"> <stop
   offset="0"
   style="stop-color:#FFE052"
   id="stop3" /> <stop
   offset="1"
   style="stop-color:#FFC331"
   id="stop4" /></linearGradient><g
     inkscape:groupmode="layer"
     id="layer1"
     inkscape:label="Logo"><g
       id="g1"
       transform="translate(-261.4739,-260)"
       sodipodi:insensitive="true"><path
         d="m 270.2015,259.923 244.09331,140.92861 a 21.095029,21.095029 0 0 1 10.54308,18.26672 v 46.89063 c 0,3.76665 -1.00473,7.39167 -2.82388,10.54751 0,0 -193.77683,-111.87536 -241.35794,-139.34847 A 20.911344,20.911344 0 0 1 270.2015,319.0962 Z"
         style="clip-rule:evenodd;fill:#706bc8;fill-rule:evenodd;stroke-width:0.442615;stroke-linejoin:round;stroke-miterlimit:2"
         id="path1-3" /><path
         d="m 514.38333,582.64243 a 20.90382,20.90382 0 0 1 10.45456,18.10738 V 659.923 L 280.74902,518.99882 A 21.095029,21.095029 0 0 1 270.2015,500.7321 v -46.89063 c 0,-3.77108 1.00474,-7.3961 2.82389,-10.54751 0,0 193.77683,111.87536 241.35794,139.34847"
         style="clip-rule:evenodd;fill:#55c5e4;fill-rule:evenodd;stroke-width:0.442615;stroke-linejoin:round;stroke-miterlimit:2"
         id="path2" /><path
         d="m 293.68754,499.34937 a 15.50613,15.50613 0 0 0 -5.70885,5.70973 c -4.26991,7.39167 -1.78639,16.95216 5.53047,21.30306 h -0.003 l -12.75838,-7.36511 A 21.087948,21.087948 0 0 1 270.20106,500.73033 V 453.8397 c 0,-7.53773 4.02027,-14.50007 10.54707,-18.26672 l 220.60683,-127.35361 0.10622,-0.062 a 15.474705,15.474705 0 0 0 5.59908,-5.646 c 4.27124,-7.39521 1.78817,-16.95215 -5.52826,-21.30615 h 0.004 l 12.75616,7.36599 a 21.089718,21.089718 0 0 1 10.54752,18.26805 v 46.88975 c 0,7.53773 -4.01895,14.50006 -10.54752,18.26672 l -13.11468,7.57314 0.17705,-0.11508 z"
         style="clip-rule:evenodd;fill:#84ddea;fill-rule:evenodd;stroke-width:0.442615;stroke-linejoin:round;stroke-miterlimit:2"
         id="path3" /><path
         d="m 293.68754,611.63194 a 15.526933,15.526933 0 0 0 -5.70885,5.7053 c -4.26991,7.3961 -1.78639,16.95216 5.53047,21.30749 h -0.003 l -12.75838,-7.36511 a 21.093259,21.093259 0 0 1 -10.54707,-18.26673 v -46.89063 c 0,-7.53773 4.02027,-14.50006 10.54707,-18.26671 l 220.60683,-127.35361 0.10622,-0.062 c 2.25291,-1.32341 4.20485,-3.22666 5.59908,-5.64776 4.27124,-7.3961 1.78817,-16.95216 -5.52826,-21.30749 h 0.004 l 12.75616,7.36954 a 21.084407,21.084407 0 0 1 10.54752,18.26672 v 46.89063 c 0,7.53331 -4.01895,14.50007 -10.54752,18.26672 l -13.11468,7.56872 0.17705,-0.11066 z"
         style="clip-rule:evenodd;fill:#997bc8;fill-rule:evenodd;stroke-width:0.442615;stroke-linejoin:round;stroke-miterlimit:2"
         id="path4" /><g
         aria-label="Helix"
         style="font-size:4px;-inkscape-font-specification:'sans-serif, Normal';white-space:pre;shape-inside:url(#b);clip-rule:evenodd;display:inline;fill:#f0f6fc;fill-opacity:1;fill-rule:evenodd;stroke:#f0f6fc;stroke-width:2.66687;stroke-linejoin:round;stroke-miterlimit:2;stroke-opacity:1"
         transform="matrix(0.58044084,0,0,0.58044084,39.44109,264.63242)"
         id="g5"><path
           d="m 1242.072,515.108 h -60.4 v -123.2 h -113.2 v 123.2 h -60.4 v -285.6 h 60.4 v 112 h 113.2 v -112 h 60.4 z m 157.2,-222.4 q 30.4,0 52,11.6 22,11.6 34,33.6 12,22 12,54 v 28.8 h -140.8 q 0.8,25.2 14.8,39.6 14.4,14.4 39.6,14.4 21.2,0 38.4,-4 17.2,-4.4 35.6,-13.2 v 46 q -16,8 -34,11.6 -17.6,4 -42.8,4 -32.8,0 -58,-12 -25.2,-12.4 -39.6,-37.2 -14.4,-24.8 -14.4,-62.4 0,-38.4 12.8,-63.6 13.2,-25.6 36.4,-38.4 23.2,-12.8 54,-12.8 z m 0.4,42.4 q -17.2,0 -28.8,11.2 -11.2,11.2 -13.2,34.8 h 83.6 q 0,-13.2 -4.8,-23.6 -4.4,-10.4 -13.6,-16.4 -9.2,-6 -23.2,-6 z m 205.6,180 h -59.6 v -304 h 59.6 z m 122,-218.4 v 218.4 h -59.6 v -218.4 z m -29.6,-85.6 q 13.2,0 22.8,6.4 9.6,6 9.6,22.8 0,16.4 -9.6,22.8 -9.6,6.4 -22.8,6.4 -13.6,0 -23.2,-6.4 -9.2,-6.4 -9.2,-22.8 0,-16.8 9.2,-22.8 9.6,-6.4 23.2,-6.4 z m 136.8,192.4 -70.4,-106.8 h 67.6 l 42.4,69.6 42.8,-69.6 h 67.6 l -71.2,106.8 74.4,111.6 h -67.6 l -46,-74.8 -46,74.8 h -67.6 z"
           style="font-size:400px;-inkscape-font-specification:'sans-serif, @wght=700';font-variation-settings:'wght' 700;fill:#f0f6fc;fill-opacity:1;stroke:#f0f6fc;stroke-opacity:1"
           id="path5" /></g></g></g></svg>
