<?xml version="1.0" encoding="UTF-8" standalone="no"?>
<svg
   version="1.1"
   x="0px"
   y="0px"
   width="940"
   height="400"
   viewBox="0.21 -0.077 940 400"
   enable-background="new 0.21 -0.077 110 110"
   xml:space="preserve"
   id="svg4"
   sodipodi:docname="leptos-dark.svg"
   inkscape:version="1.4.3 (0d15f75042, 2025-12-25)"
   inkscape:export-filename="leptos-dark.png"
   inkscape:export-xdpi="96"
   inkscape:export-ydpi="96"
   xmlns:inkscape="http://www.inkscape.org/namespaces/inkscape"
   xmlns:sodipodi="http://sodipodi.sourceforge.net/DTD/sodipodi-0.dtd"
   xmlns="http://www.w3.org/2000/svg"
   xmlns:svg="http://www.w3.org/2000/svg"><defs
     id="defs4"><linearGradient
       id="linearGradient3993"><stop
         offset="0"
         style="stop-color:#a3c0d0;stop-opacity:1"
         id="stop3995" /><stop
         offset="1"
         style="stop-color:#427da1;stop-opacity:1"
         id="stop4001" /></linearGradient><linearGradient
       id="linearGradient2508"><stop
         offset="0"
         style="stop-color:#2e4a5a;stop-opacity:1"
         id="stop2510" /><stop
         offset="1"
         style="stop-color:#6e8796;stop-opacity:1"
         id="stop2512" /></linearGradient><linearGradient
       id="linearGradient3308-4-6-931-761-0"><stop
         id="stop2919-2"
         style="stop-color:#ffffff;stop-opacity:1"
         offset="0" /><stop
         id="stop2921-76"
         style="stop-color:#ffffff;stop-opacity:0"
         offset="1" /></linearGradient><linearGradient
       id="linearGradient3575"><stop
         id="stop3577"
         style="stop-color:#fafafa;stop-opacity:1"
         offset="0" /><stop
         id="stop3579"
         style="stop-color:#e6e6e6;stop-opacity:1"
         offset="1" /></linearGradient><linearGradient
       id="SVGID_2_-3"
       gradientUnits="userSpaceOnUse"
       x1="40.741299"
       y1="104.3706"
       x2="88.484802"
       y2="104.3706"
       gradientTransform="matrix(0.11091436,0,0,0.11091436,70.964949,45.705921)">
	<stop
   offset="0.3045"
   style="stop-color:#1937FF"
   id="stop3-6" />
	<stop
   offset="1"
   style="stop-color:#00C3FF"
   id="stop4-7" />
</linearGradient><linearGradient
       id="SVGID_1_-5"
       gradientUnits="userSpaceOnUse"
       x1="39.481701"
       y1="63.022701"
       x2="162.5183"
       y2="63.022701"
       gradientTransform="matrix(0.11091436,0,0,0.11091436,70.964949,45.705921)">
	<stop
   offset="0.3045"
   style="stop-color:#1937FF"
   id="stop1-3" />
	<stop
   offset="1"
   style="stop-color:#00F7FF"
   id="stop2-5" />
</linearGradient></defs><sodipodi:namedview
     id="namedview4"
     pagecolor="#ffffff"
     bordercolor="#000000"
     borderopacity="0.25"
     inkscape:showpageshadow="2"
     inkscape:pageopacity="0.0"
     inkscape:pagecheckerboard="0"
     inkscape:deskcolor="#d1d1d1"
     inkscape:zoom="0.43083796"
     inkscape:cx="251.83482"
     inkscape:cy="-117.21344"
     inkscape:window-width="1920"
     inkscape:window-height="980"
     inkscape:window-x="0"
     inkscape:window-y="0"
     inkscape:window-maximized="1"
     inkscape:current-layer="layer1"
     showgrid="true"><inkscape:grid
       id="grid1"
       units="px"
       originx="0"
       originy="0"
       spacingx="10"
       spacingy="10"
       empcolor="#0099e5"
       empopacity="0.30196078"
       color="#0099e5"
       opacity="0.14901961"
       empspacing="5"
       enabled="true"
       visible="true" /></sodipodi:namedview><linearGradient
     id="SVGID_1_"
     gradientUnits="userSpaceOnUse"
     x1="63.815899"
     y1="56.682899"
     x2="118.4934"
     y2="1.8225"
     gradientTransform="matrix(1,0,0,-1,-53.2974,66.4321)"> <stop
   offset="0"
   style="stop-color:#387EB8"
   id="stop1" /> <stop
   offset="1"
   style="stop-color:#366994"
   id="stop2" /></linearGradient><linearGradient
     id="SVGID_2_"
     gradientUnits="userSpaceOnUse"
     x1="97.044403"
     y1="21.632099"
     x2="155.6665"
     y2="-34.5308"
     gradientTransform="matrix(1,0,0,-1,-53.2974,66.4321)"> <stop
   offset="0"
   style="stop-color:#FFE052"
   id="stop3" /> <stop
   offset="1"
   style="stop-color:#FFC331"
   id="stop4" /></linearGradient><g
     inkscape:groupmode="layer"
     id="layer1"
     inkscape:label="Logo"><g
       id="g1"
       transform="translate(-269.99071,-260)"
       sodipodi:insensitive="true"><path
         class="st0"
         d="M 399.19735,538.03934 H 298.36632 V 365.18616 c 0,-4.15513 -2.21606,-6.6482 -6.09418,-6.6482 h -8.58726 c -3.6011,0 -6.09418,2.77008 -6.09418,6.6482 v 186.7036 c 0,4.15512 2.21607,6.37119 6.09418,6.37119 h 115.51247 c 4.15512,0 6.92521,-2.49307 6.92521,-6.37119 v -7.75623 c 0,-3.87812 -2.49308,-6.09419 -6.92521,-6.09419 z"
         id="path1"
         style="fill:#ffffff;stroke-width:2.77008"
         sodipodi:insensitive="true" /><path
         class="st0"
         d="m 541.57962,397.04211 c -13.2964,-8.31025 -28.53186,-12.46537 -45.15235,-12.46537 0,0 0,0 0,0 -15.78948,0 -30.74793,4.15512 -44.59834,12.18837 -13.57341,8.03324 -24.65374,18.83656 -32.68698,32.40997 -8.03324,13.5734 -12.18837,28.53185 -12.18837,44.59834 0,15.78947 4.15513,30.74792 12.46538,44.04432 8.31025,13.5734 19.11357,24.09972 32.96398,32.40997 13.57341,8.03324 28.25485,11.91136 44.32133,11.91136 0,0 0,0 0,0 22.43768,0 40.72023,-7.20222 59.55679,-23.2687 1.38504,-1.38504 2.49308,-3.04709 2.49308,-4.98615 0,-1.66205 -0.55402,-3.04709 -1.38505,-4.15513 l -3.87811,-4.98615 -0.27701,-0.277 c -0.83103,-0.83103 -1.93906,-1.66205 -3.87812,-1.66205 -1.66205,0 -3.6011,0.55401 -4.70914,1.66205 -5.26316,4.43213 -9.69529,7.75623 -13.2964,9.9723 -4.98615,3.3241 -16.06648,8.86426 -34.90304,8.86426 0,0 0,0 0,0 -0.27701,0 -0.83103,0 -1.10804,0 -34.07202,0 -65.09695,-28.53185 -67.86703,-62.32687 h 146.8144 c 0,0 0,0 0,0 6.09418,0 9.69529,-3.3241 9.69529,-9.14127 0,-14.68144 -3.87811,-28.80887 -11.08033,-42.38227 -7.75623,-13.2964 -18.28255,-24.37674 -31.30194,-32.40998 z m 22.43767,64.26593 H 428.00621 c 5.54017,-32.40997 36.01108,-58.72576 67.86704,-58.17174 0.27701,0 0.83102,0 1.10803,0 36.28809,0 61.21884,29.36288 67.03601,58.17174 z"
         id="path2-3"
         style="fill:#ffffff;stroke-width:2.77008"
         sodipodi:insensitive="true" /><path
         class="st0"
         d="m 700.8594,561.58505 c 15.78947,0 30.74792,-4.15512 44.32133,-11.91136 13.57341,-8.03324 24.37673,-18.55955 32.40997,-32.40997 8.03324,-13.57341 11.91136,-28.53186 11.91136,-44.32133 0,-15.78947 -4.15513,-30.74792 -11.91136,-44.32133 -8.03324,-13.57341 -18.55956,-24.37673 -32.40997,-32.40997 -13.57341,-8.03324 -28.25485,-11.91136 -44.32133,-11.91136 -27.42382,0 -53.1856,13.2964 -67.59003,34.07202 v -26.03878 c 0,-1.66205 -0.27701,-3.04709 -1.10803,-4.15512 -1.10803,-1.38504 -2.77008,-2.21607 -5.26316,-2.21607 h -7.47922 c -4.15513,0 -6.3712,2.21607 -6.3712,6.37119 v 15.78948 128.80886 66.48199 c 0,3.60111 2.21607,5.54017 5.54017,5.54017 h 9.41828 c 2.49308,0 4.43214,-1.93906 4.43214,-4.43213 V 557.15292 526.682 c 16.06648,21.88366 41.55124,34.90305 68.42105,34.90305 z m -48.19945,-38.78116 c -13.5734,-13.57341 -21.32964,-31.85596 -20.77562,-49.8615 -0.27701,-17.72853 6.92521,-35.45706 20.49861,-48.75346 13.57341,-13.57341 31.30194,-21.05263 49.03048,-20.49862 12.18836,0 23.5457,3.04709 33.79501,9.41829 10.24931,6.37119 18.55956,14.95844 24.65374,25.48476 6.09418,10.80332 9.14127,22.43767 9.14127,34.62604 0.27701,18.00554 -7.20221,36.01108 -20.77562,49.58449 -13.2964,13.2964 -30.47091,20.49861 -47.92244,20.2216 -16.8975,0.27701 -34.34903,-7.20221 -47.64543,-20.2216 z"
         id="path3-6"
         style="fill:#ffffff;stroke-width:2.77008"
         sodipodi:insensitive="true" /><path
         class="st0"
         d="m 805.84555,405.90638 h 21.05263 v 116.34349 c 0,18.83656 12.74238,33.51801 30.74792,35.73407 1.93906,0.27701 4.98615,0.55402 9.69529,0.55402 5.54017,0 8.31025,-1.10803 8.31025,-6.37119 v -6.6482 c 0,-4.98615 -3.6011,-5.54017 -7.75623,-5.54017 0,0 0,0 0,0 h -4.98615 c -5.54017,0 -9.69529,-2.21606 -12.18836,-5.81717 -2.77009,-4.15513 -4.15513,-8.86427 -4.15513,-13.85042 V 405.90638 h 27.97784 c 3.60111,0 6.37119,-3.87812 6.37119,-7.20222 v -5.26315 c 0,-3.87812 -2.21607,-6.09419 -6.09418,-6.09419 h -27.97784 v -36.01108 c 0,-4.15512 -2.21607,-6.92521 -5.26316,-6.92521 -0.55402,0 -1.10803,0 -1.66205,0.27701 l -7.20222,1.93906 c -3.32409,1.10803 -5.54016,2.49308 -5.54016,6.92521 v 33.79501 h -21.05263 c -3.87812,0 -6.37119,2.49308 -6.37119,6.37119 v 5.26316 c -0.27701,3.60111 2.49307,6.92521 6.09418,6.92521 z"
         id="path4-7"
         style="fill:#ffffff;stroke-width:2.77008"
         sodipodi:insensitive="true" /><path
         class="st0"
         d="m 1185.901,477.65153 c -11.0804,-8.03324 -24.6538,-13.85041 -39.6122,-17.45152 -18.0056,-3.87812 -37.1192,-14.40443 -36.8421,-28.53186 0,-20.77562 18.2825,-28.25485 34.072,-28.25485 14.9584,0 28.2548,8.31025 36.0111,22.16067 1.939,3.60111 4.1551,5.26316 6.6482,5.26316 0.831,0 1.939,-0.27701 2.77,-0.83103 l 6.0942,-3.3241 c 1.6621,-0.83102 2.4931,-2.49307 2.4931,-4.70914 0,-1.38504 -0.277,-2.77008 -0.831,-3.60111 -9.9723,-22.71468 -27.9779,-34.34903 -53.1856,-34.34903 -32.41,0 -54.2936,19.11358 -54.2936,47.64543 0,11.91136 4.9861,22.16067 15.2354,30.19391 9.4183,7.75623 21.8837,13.57341 36.8421,16.89751 12.7424,3.04709 22.9917,7.20221 30.7479,12.18836 3.8782,2.49308 6.6482,5.81718 8.5873,9.41828 1.662,3.3241 2.4931,7.20222 2.4931,11.35734 0.277,6.6482 -2.2161,12.46538 -7.2022,17.45153 -8.5873,8.86426 -23.2687,13.01939 -33.241,13.01939 0,0 -0.2771,0 -0.2771,0 -9.4182,0 -18.0055,-2.21607 -25.2077,-6.92521 -7.2022,-4.43213 -11.6344,-10.52632 -13.8504,-18.28255 -0.8311,-3.04709 -2.2161,-6.09418 -6.0942,-6.09418 -0.277,0 -0.554,0 -1.108,0 -0.2771,0 -0.8311,0 -1.3851,0.27701 l -5.2631,1.10803 h -0.277 c -2.7701,1.10803 -4.4322,3.3241 -4.4322,5.81718 0,0.55401 0.277,1.93905 0.554,3.04709 5.5402,23.82271 28.2549,39.61218 57.0637,39.61218 0.2771,0 0.5541,0 1.1081,0 18.2825,0 35.18,-6.37119 46.2604,-17.72853 8.8642,-8.86426 13.2964,-19.9446 13.0194,-32.13296 0,-7.75623 -1.6621,-14.68144 -4.9862,-20.77562 -2.7701,-4.15513 -6.6482,-8.86427 -11.9113,-12.46538 z"
         id="path5-5"
         style="fill:#ffffff;stroke-width:2.77008"
         sodipodi:insensitive="true" /><path
         class="st1"
         d="m 1102.2444,309.7845 c 0,-17.45153 -9.1412,-32.96399 -22.7146,-41.82826 -7.7563,-4.98615 -17.1746,-8.03324 -26.8698,-8.03324 -27.4239,0 -49.8615,22.43767 -49.8615,49.8615 0,13.29639 5.2631,25.20775 13.5734,34.07202 -10.2493,12.18836 -18.28258,25.76177 -24.37677,40.72022 -4.43213,-0.55402 -8.86426,-1.10803 -13.5734,-1.10803 -49.03047,0 -88.91967,39.88919 -88.91967,88.91966 0,40.72023 27.42382,75.06926 64.81994,85.59557 -18.83656,47.92244 -65.65097,82.27147 -120.2216,82.27147 -46.5374,0 -87.53463,-24.93075 -110.24931,-62.04986 -6.92521,1.38504 -13.85042,2.49307 -21.32964,2.49307 24.93075,47.09142 74.51523,79.22438 131.30194,79.22438 64.54293,0 119.39058,-41.27424 139.88919,-98.61496 1.38505,0 2.77009,0 4.43214,0 49.03048,0 88.91968,-39.8892 88.91968,-88.91967 0,-37.67313 -23.2687,-69.80609 -56.2327,-82.82548 5.2632,-12.74238 12.4654,-24.37673 21.3296,-34.62604 2.7701,1.10803 5.5402,2.21607 8.5873,2.77008 3.6011,0.83103 7.4792,1.38505 11.3573,1.38505 27.7009,0.55401 50.1385,-21.88366 50.1385,-49.30748 z M 978.42173,541.91746 c -38.22715,0 -69.25208,-31.02493 -69.25208,-69.25208 0,-38.22714 31.02493,-69.25208 69.25208,-69.25208 38.22717,0 69.25207,31.02494 69.25207,69.25208 0,38.22715 -31.0249,69.25208 -69.25207,69.25208 z M 1052.3829,279.8676 c 1.6621,0 3.6012,0.27701 5.2632,0.55401 14.1274,2.49308 24.9308,14.68145 24.9308,29.63989 0,16.6205 -13.5735,29.9169 -29.9169,29.9169 -16.3435,0 -29.9169,-13.57341 -29.9169,-29.9169 0,-3.87811 0.831,-7.47922 2.216,-11.08033 3.8781,-11.35734 14.9585,-19.11357 27.4238,-19.11357 z"
         id="path6-3"
         style="fill:#ef3939;stroke-width:2.77008"
         sodipodi:insensitive="true" /></g></g></svg>
