<?xml version="1.0" encoding="UTF-8" standalone="no"?>
<svg
   version="1.1"
   x="0px"
   y="0px"
   width="940"
   height="400"
   viewBox="0.21 -0.077 940 400"
   enable-background="new 0.21 -0.077 110 110"
   xml:space="preserve"
   id="svg4"
   sodipodi:docname="leptos-light.svg"
   inkscape:version="1.4.3 (0d15f75042, 2025-12-25)"
   inkscape:export-filename="leptos-light.png"
   inkscape:export-xdpi="96"
   inkscape:export-ydpi="96"
   xmlns:inkscape="http://www.inkscape.org/namespaces/inkscape"
   xmlns:sodipodi="http://sodipodi.sourceforge.net/DTD/sodipodi-0.dtd"
   xmlns="http://www.w3.org/2000/svg"
   xmlns:svg="http://www.w3.org/2000/svg"><defs
     id="defs4"><linearGradient
       id="linearGradient3993"><stop
         offset="0"
         style="stop-color:#a3c0d0;stop-opacity:1"
         id="stop3995" /><stop
         offset="1"
         style="stop-color:#427da1;stop-opacity:1"
         id="stop4001" /></linearGradient><linearGradient
       id="linearGradient2508"><stop
         offset="0"
         style="stop-color:#2e4a5a;stop-opacity:1"
         id="stop2510" /><stop
         offset="1"
         style="stop-color:#6e8796;stop-opacity:1"
         id="stop2512" /></linearGradient><linearGradient
       id="linearGradient3308-4-6-931-761-0"><stop
         id="stop2919-2"
         style="stop-color:#ffffff;stop-opacity:1"
         offset="0" /><stop
         id="stop2921-76"
         style="stop-color:#ffffff;stop-opacity:0"
         offset="1" /></linearGradient><linearGradient
       id="linearGradient3575"><stop
         id="stop3577"
         style="stop-color:#fafafa;stop-opacity:1"
         offset="0" /><stop
         id="stop3579"
         style="stop-color:#e6e6e6;stop-opacity:1"
         offset="1" /></linearGradient><linearGradient
       id="SVGID_2_-3"
       gradientUnits="userSpaceOnUse"
       x1="40.741299"
       y1="104.3706"
       x2="88.484802"
       y2="104.3706"
       gradientTransform="matrix(0.11091436,0,0,0.11091436,70.964949,45.705921)">
	<stop
   offset="0.3045"
   style="stop-color:#1937FF"
   id="stop3-6" />
	<stop
   offset="1"
   style="stop-color:#00C3FF"
   id="stop4-7" />
</linearGradient><linearGradient
       id="SVGID_1_-5"
       gradientUnits="userSpaceOnUse"
       x1="39.481701"
       y1="63.022701"
       x2="162.5183"
       y2="63.022701"
       gradientTransform="matrix(0.11091436,0,0,0.11091436,70.964949,45.705921)">
	<stop
   offset="0.3045"
   style="stop-color:#1937FF"
   id="stop1-3" />
	<stop
   offset="1"
   style="stop-color:#00F7FF"
   id="stop2-5" />
</linearGradient></defs><sodipodi:namedview
     id="namedview4"
     pagecolor="#ffffff"
     bordercolor="#000000"
     borderopacity="0.25"
     inkscape:showpageshadow="2"
     inkscape:pageopacity="0.0"
     inkscape:pagecheckerboard="0"
     inkscape:deskcolor="#d1d1d1"
     inkscape:zoom="6.8934074"
     inkscape:cx="458.04634"
     inkscape:cy="366.65467"
     inkscape:window-width="1920"
     inkscape:window-height="1040"
     inkscape:window-x="1920"
     inkscape:window-y="0"
     inkscape:window-maximized="1"
     inkscape:current-layer="layer1"
     showgrid="true"><inkscape:grid
       id="grid1"
       units="px"
       originx="0"
       originy="0"
       spacingx="10"
       spacingy="10"
       empcolor="#0099e5"
       empopacity="0.30196078"
       color="#0099e5"
       opacity="0.14901961"
       empspacing="5"
       enabled="true"
       visible="true" /></sodipodi:namedview><linearGradient
     id="SVGID_1_"
     gradientUnits="userSpaceOnUse"
     x1="63.815899"
     y1="56.682899"
     x2="118.4934"
     y2="1.8225"
     gradientTransform="matrix(1,0,0,-1,-53.2974,66.4321)"> <stop
   offset="0"
   style="stop-color:#387EB8"
   id="stop1" /> <stop
   offset="1"
   style="stop-color:#366994"
   id="stop2" /></linearGradient><linearGradient
     id="SVGID_2_"
     gradientUnits="userSpaceOnUse"
     x1="97.044403"
     y1="21.632099"
     x2="155.6665"
     y2="-34.5308"
     gradientTransform="matrix(1,0,0,-1,-53.2974,66.4321)"> <stop
   offset="0"
   style="stop-color:#FFE052"
   id="stop3" /> <stop
   offset="1"
   style="stop-color:#FFC331"
   id="stop4" /></linearGradient><g
     inkscape:groupmode="layer"
     id="layer1"
     inkscape:label="Logo"><g
       id="g1"
       transform="translate(-0.38070123)"
       sodipodi:insensitive="true"><path
         style="fill:#181139;stroke-width:2.76877"
         d="M 129.76474,277.75951 H 28.89528 V 104.9254 c 0,-4.21794 -2.2618,-6.73669 -6.05114,-6.73669 h -8.63495 c -3.64341,0 -6.18791,2.77015 -6.18791,6.73669 v 186.69705 c 0,4.02052 2.25516,6.32718 6.18791,6.32718 h 115.55528 c 4.10995,0 6.8718,-2.59572 6.8718,-6.45953 v -7.68166 c 2.7e-4,-3.78851 -2.56831,-6.04893 -6.87153,-6.04893 z"
         id="path2"
         sodipodi:insensitive="true" /><path
         style="fill:#181139;stroke-width:2.76877"
         d="m 271.92758,136.73243 c -13.35985,-8.30907 -28.52853,-12.52839 -45.08575,-12.53919 -0.0194,0 -0.0379,0 -0.0568,0 -15.8786,0 -30.83769,4.0532 -44.45697,12.04718 -13.61125,7.98872 -24.56477,18.92839 -32.55875,32.52081 -8.02249,13.63562 -12.0959,28.60689 -12.10532,44.49767 -0.008,15.83402 4.14374,30.6375 12.33901,43.99209 8.27667,13.62482 19.04606,24.18074 32.91702,32.26 13.47199,7.9278 28.35134,11.95387 44.2219,11.9619 0.0194,0 0.0404,0 0.0609,0 22.49069,0 40.82296,-7.16252 59.4407,-23.23161 1.52088,-1.33039 2.35788,-3.1013 2.35788,-4.98599 0.003,-1.68175 -0.4826,-3.05534 -1.44114,-4.0856 l -3.75694,-5.10228 -0.20267,-0.23783 c -0.73013,-0.73013 -1.91848,-1.70335 -3.79764,-1.70335 -1.77783,0 -3.47453,0.61384 -4.74124,1.70085 -5.35645,4.3885 -9.81776,7.75476 -13.28149,10.01795 -4.97796,3.34467 -16.1192,8.94699 -34.88257,8.94699 -0.0194,0 -0.0393,0 -0.0582,0 -0.37572,0.008 -0.7448,0.0111 -1.11941,0.0111 -33.9567,0 -64.9929,-28.59083 -67.85913,-62.24573 l 146.77975,0.0892 c 0.003,0 0.006,0 0.008,0 6.19456,0 9.60679,-3.21758 9.61094,-9.05802 0.008,-14.56038 -3.75832,-28.77993 -11.20353,-42.28044 -7.46945,-13.41169 -17.94286,-24.37323 -31.12966,-32.57543 z m 22.67342,64.40204 -135.98987,-0.0811 c 5.49157,-32.29239 36.04407,-58.81329 67.84418,-58.17648 0.38403,-0.006 0.76252,-0.0111 1.14516,-0.0111 36.03964,0 60.98428,29.42367 67.00053,58.2684 z"
         id="path3"
         sodipodi:insensitive="true" /><path
         style="fill:#181139;stroke-width:2.76877"
         d="m 431.36004,301.37515 c 15.87029,0 30.7524,-4.01527 44.22992,-11.93754 13.67217,-8.03329 24.22671,-18.58644 32.26526,-32.26525 7.92089,-13.47614 11.93615,-28.40145 11.93615,-44.36782 0,-15.87167 -4.01526,-30.75102 -11.93615,-44.22992 -8.03468,-13.67355 -18.58783,-24.2267 -32.26526,-32.26526 -13.48029,-7.92365 -28.3624,-11.9403 -44.22992,-11.9403 -27.516,0 -53.16612,13.17461 -67.42388,34.10399 v -26.13161 c 0,-1.64631 -0.40562,-2.98694 -1.13796,-4.01776 -1.05629,-1.48655 -2.81224,-2.30915 -5.18507,-2.30915 H 350.21 c -4.02052,0 -6.32718,2.30639 -6.32718,6.32719 v 15.772 128.68974 66.36067 c 0,3.47979 2.16185,5.64025 5.64025,5.64025 h 9.32161 c 2.54975,0 4.54659,-1.93592 4.54659,-4.40455 v -47.34036 -30.41212 c 15.5001,21.57893 40.93537,34.7278 67.96877,34.7278 z m -48.18428,-38.98173 c -13.66275,-13.66275 -21.2727,-31.82198 -20.88203,-49.90811 -0.37849,-17.58333 7.04346,-35.30454 20.36289,-48.62092 13.43432,-13.43433 31.29729,-20.91719 49.1132,-20.53593 12.09701,0 23.49657,3.17439 33.86588,9.42571 10.33968,6.36234 18.67698,14.96601 24.77824,25.57066 6.00794,10.81812 9.05248,22.41786 9.05248,34.52568 0.38652,17.89148 -7.18966,35.95076 -20.78873,49.54844 -13.18403,13.18404 -30.58628,20.44928 -47.77339,20.15745 -17.13423,0.35939 -34.54866,-6.97895 -47.72854,-20.16298 z"
         id="path4"
         sodipodi:insensitive="true" /><path
         style="fill:#181139;stroke-width:2.76877"
         d="M 536.17693,145.65782 H 557.1279 V 262.0177 c 0,18.87578 12.64606,33.58762 30.68485,35.7694 1.89273,0.29211 5.08872,0.43525 9.77457,0.43525 5.55913,0 8.38189,-0.97875 8.38189,-6.32441 v -6.58136 c 0,-4.9536 -3.69353,-5.64025 -7.63293,-5.64025 0,0 -0.003,0 -0.006,0 l -4.94806,-0.13512 c -5.56993,-0.12154 -9.65829,-2.11173 -12.15378,-5.91602 -2.68487,-4.09915 -4.04766,-8.78751 -4.04766,-13.94129 V 145.65782 h 27.9446 c 3.62044,0 6.32719,-3.77327 6.32719,-7.14757 v -5.34704 c 0,-3.87599 -2.31441,-6.1893 -6.1893,-6.1893 H 577.18078 V 91.08157 c 0,-4.04766 -2.20643,-6.87457 -5.36448,-6.87457 -0.51638,0 -1.14101,0 -1.7698,0.24476 l -7.33418,1.90076 c -3.3527,1.01946 -5.58488,2.56471 -5.58488,6.78541 v 33.83626 h -20.95097 c -3.9275,0 -6.46507,2.48358 -6.46507,6.32718 v 5.20888 c 2.8e-4,3.94079 2.90001,7.14757 6.46507,7.14757 z"
         id="path5"
         sodipodi:insensitive="true" /><path
         style="fill:#181139;stroke-width:2.76877"
         d="m 916.1145,217.29022 c -11.21022,-8.09005 -24.51612,-13.92495 -39.56852,-17.34521 -18.0105,-3.86935 -37.2324,-14.4333 -36.8808,-28.53656 0,-20.82804 18.3755,-28.2176 34.1121,-28.2176 14.8334,0 28.2987,8.31183 35.99672,22.19055 1.8631,3.56091 4.0936,5.36448 6.6326,5.36448 0.9167,0 1.955,-0.30816 2.7471,-0.78411 l 6.0971,-3.19045 c 1.6466,-0.94359 2.5553,-2.60652 2.5553,-4.68586 0,-1.44114 -0.2514,-2.64168 -0.7245,-3.57724 -10.0692,-22.83291 -27.95542,-34.41078 -53.16622,-34.41078 -32.479,0 -54.3018,19.1773 -54.3018,47.7194 0,11.94031 5.105,22.0798 15.1606,30.12667 9.5473,7.74673 21.9068,13.46257 36.7429,16.99385 12.6973,3.00411 23.0342,7.10299 30.727,12.18894 3.9203,2.5899 6.75912,5.68566 8.59972,9.32299 1.676,3.31199 2.5293,7.07004 2.5293,11.35332 0.2055,6.60545 -2.1873,12.50818 -7.11132,17.55093 -8.7064,8.90934 -23.2723,12.92709 -33.2819,12.92709 -0.1,0 -0.2002,0 -0.2974,0 -9.488,0 -17.9673,-2.33628 -25.2055,-6.94074 -7.176,-4.56403 -11.7293,-10.54235 -13.9249,-18.29157 -0.8868,-3.04454 -2.0794,-6.01875 -5.9675,-6.01875 -0.2055,0 -0.584,0.0404 -1.1247,0.12432 -0.3137,0.046 -0.7085,0.10549 -1.4088,0.20544 l -5.2102,1.2357 -0.2894,0.0919 c -2.8363,1.13021 -4.4613,3.27988 -4.4613,5.89996 0,0.63266 0.1731,1.82517 0.6031,3.07167 5.4564,23.75628 28.361,39.71711 56.9623,39.71711 0.3461,0.006 0.6895,0.006 1.0356,0.006 18.2591,0 35.09352,-6.4216 46.31452,-17.70487 8.831,-8.8822 13.3762,-20.03562 13.1461,-32.21653 0,-7.80432 -1.7125,-14.70464 -5.0009,-20.71314 -2.8289,-5.16873 -6.809,-9.6857 -12.0364,-13.45648 z"
         id="path6"
         sodipodi:insensitive="true" /><path
         style="fill:#ef3939;stroke-width:2.76877"
         d="m 832.45928,49.67855 c 0,-17.48669 -9.0888,-32.86497 -22.7698,-41.7408 -7.783,-5.0494 -17.0382,-8.01475 -26.9869,-8.01475 -27.43626,0 -49.75666,22.32041 -49.75666,49.75528 0,13.19566 5.19836,25.175 13.61042,34.08987 -10.13894,12.102 -18.36633,25.84255 -24.27183,40.75236 -4.39486,-0.6706 -8.89411,-1.01974 -13.47337,-1.01974 -49.0509,0 -88.9574,39.9065 -88.9574,88.9574 0,40.66044 27.4321,75.01196 64.75285,85.58283 -18.76171,48.02729 -65.50125,82.15454 -120.093,82.15454 -46.56926,0 -87.44594,-24.8253 -110.10164,-61.93452 -6.86045,1.50787 -13.96261,2.35871 -21.24225,2.49826 24.98147,47.04133 74.47122,79.16372 131.34389,79.16372 64.41423,0 119.36731,-41.19591 139.95031,-98.61762 1.44087,0.0695 2.88921,0.11019 4.34724,0.11019 49.05094,0 88.95744,-39.9065 88.95744,-88.9574 0,-37.53616 -23.3812,-69.69316 -56.33473,-82.73377 5.26093,-12.64717 12.49128,-24.26712 21.28853,-34.51017 2.7676,1.21936 5.6701,2.17348 8.6728,2.87509 3.6393,0.85028 7.4129,1.34562 11.3074,1.34562 27.4363,2.7e-4 49.7567,-22.32041 49.7567,-49.75639 z M 708.81114,281.68839 c -38.17325,0 -69.22994,-31.05669 -69.22994,-69.22994 0,-38.17325 31.05669,-69.22995 69.22994,-69.22995 38.17325,0 69.22994,31.0567 69.22994,69.22995 0,38.17325 -31.05669,69.22994 -69.22994,69.22994 z M 782.70258,19.65046 c 1.7859,0 3.5266,0.18578 5.2277,0.48591 14.0703,2.4847 24.8015,14.77054 24.8015,29.54191 0,16.5586 -13.4706,30.0292 -30.0292,30.0292 -16.5586,0 -30.02921,-13.4706 -30.02921,-30.0292 0,-3.86714 0.76031,-7.55375 2.09762,-10.95186 4.38879,-11.15065 15.24069,-19.07596 27.93159,-19.07596 z"
         id="path7"
         sodipodi:insensitive="true" /></g></g></svg>
