<?xml version="1.0" encoding="UTF-8" standalone="no"?>
<svg
   version="1.1"
   x="0px"
   y="0px"
   width="1700"
   height="400"
   viewBox="0.21 -0.077 1700 400"
   enable-background="new 0.21 -0.077 110 110"
   xml:space="preserve"
   id="svg4"
   sodipodi:docname="litestar-dark.svg"
   inkscape:version="1.4.3 (0d15f75042, 2025-12-25)"
   inkscape:export-filename="litestar-dark.png"
   inkscape:export-xdpi="96"
   inkscape:export-ydpi="96"
   xmlns:inkscape="http://www.inkscape.org/namespaces/inkscape"
   xmlns:sodipodi="http://sodipodi.sourceforge.net/DTD/sodipodi-0.dtd"
   xmlns="http://www.w3.org/2000/svg"
   xmlns:svg="http://www.w3.org/2000/svg"><defs
     id="defs4"><linearGradient
       id="linearGradient3993"><stop
         offset="0"
         style="stop-color:#a3c0d0;stop-opacity:1"
         id="stop3995" /><stop
         offset="1"
         style="stop-color:#427da1;stop-opacity:1"
         id="stop4001" /></linearGradient><linearGradient
       id="linearGradient2508"><stop
         offset="0"
         style="stop-color:#2e4a5a;stop-opacity:1"
         id="stop2510" /><stop
         offset="1"
         style="stop-color:#6e8796;stop-opacity:1"
         id="stop2512" /></linearGradient><linearGradient
       id="linearGradient3308-4-6-931-761-0"><stop
         id="stop2919-2"
         style="stop-color:#ffffff;stop-opacity:1"
         offset="0" /><stop
         id="stop2921-76"
         style="stop-color:#ffffff;stop-opacity:0"
         offset="1" /></linearGradient><linearGradient
       id="linearGradient3575"><stop
         id="stop3577"
         style="stop-color:#fafafa;stop-opacity:1"
         offset="0" /><stop
         id="stop3579"
         style="stop-color:#e6e6e6;stop-opacity:1"
         offset="1" /></linearGradient><linearGradient
       id="SVGID_2_-3"
       gradientUnits="userSpaceOnUse"
       x1="40.741299"
       y1="104.3706"
       x2="88.484802"
       y2="104.3706"
       gradientTransform="matrix(0.11091436,0,0,0.11091436,70.964949,45.705921)">
	<stop
   offset="0.3045"
   style="stop-color:#1937FF"
   id="stop3-6" />
	<stop
   offset="1"
   style="stop-color:#00C3FF"
   id="stop4-7" />
</linearGradient><linearGradient
       id="SVGID_1_-5"
       gradientUnits="userSpaceOnUse"
       x1="39.481701"
       y1="63.022701"
       x2="162.5183"
       y2="63.022701"
       gradientTransform="matrix(0.11091436,0,0,0.11091436,70.964949,45.705921)">
	<stop
   offset="0.3045"
   style="stop-color:#1937FF"
   id="stop1-3" />
	<stop
   offset="1"
   style="stop-color:#00F7FF"
   id="stop2-5" />
</linearGradient><clipPath
       id="2263da6788"><path
         d="M 272,40.050781 H 483 V 251 H 272 Z m 0,0"
         clip-rule="nonzero"
         id="path2" /></clipPath><clipPath
       id="1124b46d74"><path
         d="M 150.04297,66 H 453 V 215 H 150.04297 Z m 0,0"
         clip-rule="nonzero"
         id="path1-3" /></clipPath></defs><sodipodi:namedview
     id="namedview4"
     pagecolor="#ffffff"
     bordercolor="#000000"
     borderopacity="0.25"
     inkscape:showpageshadow="2"
     inkscape:pageopacity="0.0"
     inkscape:pagecheckerboard="0"
     inkscape:deskcolor="#d1d1d1"
     inkscape:zoom="0.60929689"
     inkscape:cx="722.96446"
     inkscape:cy="74.676239"
     inkscape:window-width="1920"
     inkscape:window-height="980"
     inkscape:window-x="0"
     inkscape:window-y="0"
     inkscape:window-maximized="1"
     inkscape:current-layer="layer1"
     showgrid="true"><inkscape:grid
       id="grid1"
       units="px"
       originx="0"
       originy="0"
       spacingx="10"
       spacingy="10"
       empcolor="#0099e5"
       empopacity="0.30196078"
       color="#0099e5"
       opacity="0.14901961"
       empspacing="5"
       enabled="true"
       visible="true" /></sodipodi:namedview><linearGradient
     id="SVGID_1_"
     gradientUnits="userSpaceOnUse"
     x1="63.815899"
     y1="56.682899"
     x2="118.4934"
     y2="1.8225"
     gradientTransform="matrix(1,0,0,-1,-53.2974,66.4321)"> <stop
   offset="0"
   style="stop-color:#387EB8"
   id="stop1" /> <stop
   offset="1"
   style="stop-color:#366994"
   id="stop2" /></linearGradient><linearGradient
     id="SVGID_2_"
     gradientUnits="userSpaceOnUse"
     x1="97.044403"
     y1="21.632099"
     x2="155.6665"
     y2="-34.5308"
     gradientTransform="matrix(1,0,0,-1,-53.2974,66.4321)"> <stop
   offset="0"
   style="stop-color:#FFE052"
   id="stop3" /> <stop
   offset="1"
   style="stop-color:#FFC331"
   id="stop4" /></linearGradient><g
     inkscape:groupmode="layer"
     id="layer1"
     inkscape:label="Logo"><g
       id="g1"
       transform="translate(-269.35502,-260)"
       sodipodi:insensitive="true"><g
         clip-path="url(#1124b46d74)"
         id="g3"
         transform="matrix(1.9002728,0,0,1.9002728,-14.921865,183.45186)"><path
           fill="#ffffff"
           d="m 277.61328,196.67578 c 13.44531,-6.13281 25.12109,-12.89453 34.68359,-19.15625 18.28907,-11.97266 41.66797,-34.23437 42.94922,-36.01562 l -8.5664,-5.72266 -7.42188,-4.96094 23.48828,-0.91797 7.55078,-0.29687 2.05079,-7.26563 6.38671,-22.624996 8.12891,22.054686 2.61328,7.08594 7.55078,-0.29297 23.48828,-0.91797 -18.46484,14.54688 -5.93359,4.67578 2.61328,7.08593 8.13281,22.0586 -19.54297,-13.06641 -6.27734,-4.19531 -5.9336,4.67187 -18.46093,14.55079 3.16797,-11.24219 3.21484,-11.37891 0.39453,-1.41015 c -22.47266,16.82031 -53.91797,33.03515 -72.71875,39.02734 -4.30859,1.375 -8.67578,2.60937 -13.09375,3.70703 z m -44.20312,17.22656 c 33.3164,-1.30078 73.00781,-9.76953 112.0664,-34.6289 l -7.52734,26.66797 43.59375,-34.35157 46.14062,30.84375 -19.19922,-52.07422 43.59375,-34.35546 -55.45703,2.16797 -19.20312,-52.074224 -15.07813,53.417974 -55.45703,2.16796 32.10547,21.46094 c -21.12891,19.21875 -74.14062,60.20703 -144.36328,62.95313 -14.19531,0.55468 -29.10156,-0.45313 -44.58203,-3.52344 0,0 34.94922,13.22265 83.36719,11.32812"
           fill-opacity="1"
           fill-rule="nonzero"
           id="path3" /></g><g
         clip-path="url(#2263da6788)"
         id="g4"
         transform="matrix(1.9002728,0,0,1.9002728,-14.921865,183.45186)"><path
           fill="#ffffff"
           d="m 377.55078,40.242188 c -58.12891,0 -105.25,47.121093 -105.25,105.250002 0,11.00781 1.69141,21.61718 4.82813,31.58984 4.57812,-2.28125 8.94921,-4.64062 13.11328,-7.03906 C 288.04687,162.23437 286.875,154 286.875,145.49219 c 0,-50.078128 40.59766,-90.675784 90.67578,-90.675784 50.08203,0 90.67578,40.597656 90.67578,90.675784 0,50.07812 -40.59375,90.67578 -90.67578,90.67578 -27.16016,0 -51.52734,-11.94531 -68.14453,-30.86328 -4.83203,1.88281 -9.72266,3.59375 -14.67578,5.14062 19.26953,24.53516 49.20312,40.29297 82.82031,40.29297 58.12891,0 105.25,-47.12109 105.25,-105.24609 0,-58.128909 -47.12109,-105.250002 -105.25,-105.250002"
           fill-opacity="1"
           fill-rule="nonzero"
           id="path4" /></g><path
         fill="#ffffff"
         d="m 410.76893,433.21155 11.03792,33.9748 h 35.71918 l -28.89751,20.99207 11.03793,33.96738 -28.89752,-20.99207 -28.89751,20.99207 11.03793,-33.96738 -28.89751,-20.99207 h 35.71918 l 11.03791,-33.9748"
         fill-opacity="1"
         fill-rule="nonzero"
         id="path5"
         style="stroke-width:1.90027" /><path
         fill="#ffffff"
         d="m 462.16538,321.24392 9.52363,29.32803 h 30.83489 l -24.94108,18.11941 9.52364,29.32062 -24.94108,-18.11941 -24.94852,18.11941 9.53107,-29.32062 -24.94108,-18.11941 h 30.82746 l 9.53107,-29.32803"
         fill-opacity="1"
         fill-rule="nonzero"
         id="path6"
         style="stroke-width:1.90027" /><path
         fill="#ffffff"
         d="m 304.73965,499.75079 5.56721,17.10987 h 17.98578 l -14.54897,10.57027 5.55979,17.10988 -14.56381,-10.57026 -14.54897,10.57026 5.55978,-17.10988 -14.55638,-10.57027 h 17.9932 l 5.55237,-17.10987"
         fill-opacity="1"
         fill-rule="nonzero"
         id="path7"
         style="stroke-width:1.90027" /><g
         fill="#ffffff"
         fill-opacity="1"
         id="g10"
         transform="matrix(1.9002728,0,0,1.9002728,-14.921865,183.45186)"><g
           transform="translate(543.54488,155.40266)"
           id="g9"><g
             id="g8"><path
               d="M 5.921875,0 V -68.0625 H 20.3125 v 56.203125 H 49.484375 V 0 Z m 0,0"
               id="path8" /></g></g></g><g
         fill="#ffffff"
         fill-opacity="1"
         id="g13"
         transform="matrix(1.9002728,0,0,1.9002728,-14.921865,183.45186)"><g
           transform="translate(603.4796,155.40266)"
           id="g12"><g
             id="g11"><path
               d="M 20.3125,-68.0625 V 0 H 5.921875 v -68.0625 z m 0,0"
               id="path10" /></g></g></g><g
         fill="#ffffff"
         fill-opacity="1"
         id="g16"
         transform="matrix(1.9002728,0,0,1.9002728,-14.921865,183.45186)"><g
           transform="translate(636.56419,155.40266)"
           id="g15"><g
             id="g14"><path
               d="M 3.328125,-56.203125 V -68.0625 h 55.90625 v 11.859375 H 38.390625 V 0 H 24.15625 v -56.203125 z m 0,0"
               id="path13" /></g></g></g><g
         fill="#ffffff"
         fill-opacity="1"
         id="g19"
         transform="matrix(1.9002728,0,0,1.9002728,-14.921865,183.45186)"><g
           transform="translate(705.93633,155.40266)"
           id="g18"><g
             id="g17"><path
               d="M 5.921875,0 V -68.0625 H 51.78125 v 11.859375 H 20.3125 v 16.21875 H 49.421875 V -28.125 H 20.3125 v 16.265625 H 51.921875 V 0 Z m 0,0"
               id="path16" /></g></g></g><g
         fill="#ffffff"
         fill-opacity="1"
         id="g22"
         transform="matrix(1.9002728,0,0,1.9002728,-14.921865,183.45186)"><g
           transform="translate(770.0913,155.40266)"
           id="g21"><g
             id="g20"><path
               d="m 42.84375,-48.484375 c -0.273438,-2.6875 -1.421875,-4.769531 -3.453125,-6.25 -2.023437,-1.488281 -4.75,-2.234375 -8.1875,-2.234375 -3.523437,0 -6.226563,0.726562 -8.109375,2.171875 -1.875,1.4375 -2.8125,3.25 -2.8125,5.4375 -0.05469,2.4375 0.988281,4.289063 3.125,5.546875 2.144531,1.25 4.691406,2.214844 7.640625,2.890625 l 6.109375,1.46875 c 3.945312,0.886719 7.453125,2.171875 10.515625,3.859375 3.070313,1.679688 5.488281,3.84375 7.25,6.5 1.757813,2.648438 2.640625,5.867188 2.640625,9.65625 -0.02344,6.21875 -2.355469,11.179688 -7,14.875 -4.636719,3.6875 -11.109375,5.53125 -19.421875,5.53125 -8.261719,0 -14.855469,-1.882812 -19.78125,-5.65625 C 6.441406,-8.457031 3.894531,-14.019531 3.71875,-21.375 h 13.9375 c 0.238281,3.417969 1.582031,5.984375 4.03125,7.703125 2.445312,1.71875 5.539062,2.578125 9.28125,2.578125 3.65625,0 6.578125,-0.773438 8.765625,-2.328125 2.1875,-1.550781 3.289063,-3.570313 3.3125,-6.0625 -0.02344,-2.300781 -1.03125,-4.070313 -3.03125,-5.3125 -1.992187,-1.238281 -4.839844,-2.300781 -8.546875,-3.1875 L 24.0625,-29.84375 c -5.742188,-1.375 -10.273438,-3.554688 -13.59375,-6.546875 -3.324219,-2.988281 -4.976562,-6.988281 -4.953125,-12 -0.023437,-4.125 1.082031,-7.726563 3.3125,-10.8125 2.226563,-3.09375 5.289063,-5.5 9.1875,-7.21875 C 21.910156,-68.140625 26.34375,-69 31.3125,-69 c 5.050781,0 9.460938,0.867188 13.234375,2.59375 3.78125,1.730469 6.722656,4.136719 8.828125,7.21875 2.101562,3.074219 3.191406,6.640625 3.265625,10.703125 z m 0,0"
               id="path19" /></g></g></g><g
         fill="#ffffff"
         fill-opacity="1"
         id="g25"
         transform="matrix(1.9002728,0,0,1.9002728,-14.921865,183.45186)"><g
           transform="translate(838.2007,155.40266)"
           id="g24"><g
             id="g23"><path
               d="M 3.328125,-56.203125 V -68.0625 h 55.90625 v 11.859375 H 38.390625 V 0 H 24.15625 v -56.203125 z m 0,0"
               id="path22" /></g></g></g><g
         fill="#ffffff"
         fill-opacity="1"
         id="g28"
         transform="matrix(1.9002728,0,0,1.9002728,-14.921865,183.45186)"><g
           transform="translate(907.57283,155.40266)"
           id="g27"><g
             id="g26"><path
               d="M 17.65625,0 H 2.234375 L 25.71875,-68.0625 H 44.265625 L 67.734375,0 H 52.3125 l -5.046875,-15.515625 h -24.5625 z m 8.703125,-26.75 h 17.28125 l -8.375,-25.765625 h -0.53125 z m 0,0"
               id="path25" /></g></g></g><g
         fill="#ffffff"
         fill-opacity="1"
         id="g31"
         transform="matrix(1.9002728,0,0,1.9002728,-14.921865,183.45186)"><g
           transform="translate(984.38856,155.40266)"
           id="g30"><g
             id="g29"><path
               d="m 5.921875,0 v -68.0625 h 26.84375 c 7.738281,0 13.738281,2.015625 18,6.046875 4.269531,4.03125 6.40625,9.429687 6.40625,16.1875 0,4.648437 -1.039063,8.621094 -3.109375,11.921875 -2.074219,3.304688 -5.046875,5.789062 -8.921875,7.453125 L 59.59375,0 H 43.703125 L 30.8125,-24.125 h -10.5 V 0 Z M 20.3125,-35.703125 h 9.765625 c 8.175781,0 12.265625,-3.375 12.265625,-10.125 0,-6.976563 -4.109375,-10.46875 -12.328125,-10.46875 H 20.3125 Z m 0,0"
               id="path28" /></g></g></g><g
         fill="#ffffff"
         fill-opacity="1"
         id="g34"
         transform="matrix(1.9002728,0,0,1.9002728,-14.921865,183.45186)"><g
           transform="translate(617.08902,216.00259)"
           id="g33"><g
             id="g32"><path
               d="M 3.765625,0 V -31.140625 H 22.4375 v 3.34375 H 7.546875 v 10.53125 h 13.5 v 3.34375 h -13.5 V 0 Z m 0,0"
               id="path31" /></g></g></g><g
         fill="#ffffff"
         fill-opacity="1"
         id="g37"
         transform="matrix(1.9002728,0,0,1.9002728,-14.921865,183.45186)"><g
           transform="translate(652.29417,216.00259)"
           id="g36"><g
             id="g35"><path
               d="m 3.765625,0 v -31.140625 h 10.53125 c 2.425781,0 4.421875,0.417969 5.984375,1.25 C 21.84375,-29.066406 23,-27.9375 23.75,-26.5 c 0.75,1.4375 1.125,3.074219 1.125,4.90625 0,2.074219 -0.476562,3.882812 -1.421875,5.421875 -0.949219,1.53125 -2.417969,2.636719 -4.40625,3.3125 L 26.09375,0 h -4.390625 l -6.5625,-12.171875 c -0.25,0.01172 -0.511719,0.01563 -0.78125,0.01563 h -6.8125 V 0 Z m 3.78125,-15.5625 h 6.6875 c 2.488281,0 4.265625,-0.535156 5.328125,-1.609375 1.0625,-1.082031 1.59375,-2.554687 1.59375,-4.421875 0,-1.875 -0.539062,-3.375 -1.609375,-4.5 -1.0625,-1.132812 -2.855469,-1.703125 -5.375,-1.703125 h -6.625 z m 0,0"
               id="path34" /></g></g></g><g
         fill="#ffffff"
         fill-opacity="1"
         id="g40"
         transform="matrix(1.9002728,0,0,1.9002728,-14.921865,183.45186)"><g
           transform="translate(689.74775,216.00259)"
           id="g39"><g
             id="g38"><path
               d="M 5.046875,0 H 1.09375 l 11.4375,-31.140625 h 3.890625 L 27.859375,0 H 23.90625 L 20.765625,-8.8125 H 8.171875 Z m 4.3125,-12.15625 h 10.21875 L 14.59375,-26.203125 h -0.234375 z m 0,0"
               id="path37" /></g></g></g><g
         fill="#ffffff"
         fill-opacity="1"
         id="g43"
         transform="matrix(1.9002728,0,0,1.9002728,-14.921865,183.45186)"><g
           transform="translate(728.78132,216.00259)"
           id="g42"><g
             id="g41"><path
               d="m 3.765625,-31.140625 h 4.5 l 10.59375,25.84375 h 0.359375 l 10.578125,-25.84375 h 4.5 V 0 h -3.53125 V -23.65625 H 30.46875 L 20.734375,0 h -3.40625 l -9.71875,-23.65625 h -0.3125 V 0 h -3.53125 z m 0,0"
               id="path40" /></g></g></g><g
         fill="#ffffff"
         fill-opacity="1"
         id="g46"
         transform="matrix(1.9002728,0,0,1.9002728,-14.921865,183.45186)"><g
           transform="translate(777.90246,216.00259)"
           id="g45"><g
             id="g44"><path
               d="M 3.765625,0 V -31.140625 H 22.5625 v 3.34375 H 7.546875 v 10.53125 H 21.59375 v 3.34375 H 7.546875 V -3.34375 H 22.8125 V 0 Z m 0,0"
               id="path43" /></g></g></g><g
         fill="#ffffff"
         fill-opacity="1"
         id="g49"
         transform="matrix(1.9002728,0,0,1.9002728,-14.921865,183.45186)"><g
           transform="translate(813.59378,216.00259)"
           id="g48"><g
             id="g47"><path
               d="M 9.421875,0 0.90625,-31.140625 H 4.75 l 6.5,25.359375 h 0.296875 L 18.1875,-31.140625 h 4.25 l 6.625,25.359375 h 0.3125 l 6.5,-25.359375 h 3.828125 L 31.203125,0 H 27.3125 l -6.875,-24.8125 h -0.25 L 13.3125,0 Z m 0,0"
               id="path46" /></g></g></g><g
         fill="#ffffff"
         fill-opacity="1"
         id="g52"
         transform="matrix(1.9002728,0,0,1.9002728,-14.921865,183.45186)"><g
           transform="translate(864.29492,216.00259)"
           id="g51"><g
             id="g50"><path
               d="m 30.046875,-15.5625 c 0,3.28125 -0.59375,6.121094 -1.78125,8.515625 -1.1875,2.386719 -2.820313,4.230469 -4.890625,5.53125 -2.0625,1.292969 -4.421875,1.9375 -7.078125,1.9375 -2.65625,0 -5.023437,-0.644531 -7.09375,-1.9375 -2.0625,-1.300781 -3.6875,-3.144531 -4.875,-5.53125 -1.1875,-2.394531 -1.78125,-5.234375 -1.78125,-8.515625 0,-3.289062 0.59375,-6.128906 1.78125,-8.515625 1.1875,-2.394531 2.8125,-4.238281 4.875,-5.53125 2.070313,-1.300781 4.4375,-1.953125 7.09375,-1.953125 2.65625,0 5.015625,0.652344 7.078125,1.953125 2.070312,1.292969 3.703125,3.136719 4.890625,5.53125 1.1875,2.386719 1.78125,5.226563 1.78125,8.515625 z m -3.65625,0 c 0,-2.695312 -0.449219,-4.972656 -1.34375,-6.828125 -0.898437,-1.851563 -2.109375,-3.253906 -3.640625,-4.203125 -1.523438,-0.957031 -3.226562,-1.4375 -5.109375,-1.4375 -1.886719,0 -3.59375,0.480469 -5.125,1.4375 -1.523437,0.949219 -2.730469,2.351562 -3.625,4.203125 -0.898437,1.855469 -1.34375,4.132813 -1.34375,6.828125 0,2.6875 0.445313,4.964844 1.34375,6.828125 0.894531,1.855469 2.101563,3.261719 3.625,4.21875 1.53125,0.949219 3.238281,1.421875 5.125,1.421875 1.882813,0 3.585937,-0.472656 5.109375,-1.421875 1.53125,-0.957031 2.742188,-2.363281 3.640625,-4.21875 0.894531,-1.863281 1.34375,-4.140625 1.34375,-6.828125 z m 0,0"
               id="path49" /></g></g></g><g
         fill="#ffffff"
         fill-opacity="1"
         id="g55"
         transform="matrix(1.9002728,0,0,1.9002728,-14.921865,183.45186)"><g
           transform="translate(906.97464,216.00259)"
           id="g54"><g
             id="g53"><path
               d="m 3.765625,0 v -31.140625 h 10.53125 c 2.425781,0 4.421875,0.417969 5.984375,1.25 C 21.84375,-29.066406 23,-27.9375 23.75,-26.5 c 0.75,1.4375 1.125,3.074219 1.125,4.90625 0,2.074219 -0.476562,3.882812 -1.421875,5.421875 -0.949219,1.53125 -2.417969,2.636719 -4.40625,3.3125 L 26.09375,0 h -4.390625 l -6.5625,-12.171875 c -0.25,0.01172 -0.511719,0.01563 -0.78125,0.01563 h -6.8125 V 0 Z m 3.78125,-15.5625 h 6.6875 c 2.488281,0 4.265625,-0.535156 5.328125,-1.609375 1.0625,-1.082031 1.59375,-2.554687 1.59375,-4.421875 0,-1.875 -0.539062,-3.375 -1.609375,-4.5 -1.0625,-1.132812 -2.855469,-1.703125 -5.375,-1.703125 h -6.625 z m 0,0"
               id="path52" /></g></g></g><g
         fill="#ffffff"
         fill-opacity="1"
         id="g58"
         transform="matrix(1.9002728,0,0,1.9002728,-14.921865,183.45186)"><g
           transform="translate(944.42823,216.00259)"
           id="g57"><g
             id="g56"><path
               d="m 3.765625,0 v -31.140625 h 3.78125 V -15.6875 H 7.90625 L 21.890625,-31.140625 H 26.8125 L 13.75,-17.09375 26.8125,0 H 22.25 l -10.8125,-14.46875 -3.890625,4.375 V 0 Z m 0,0"
               id="path55" /></g></g></g><path
         stroke-linecap="round"
         fill="none"
         stroke-linejoin="miter"
         d="M 954.2915,261.71193 V 658.13407"
         stroke="#edb641"
         stroke-width="4.27519"
         stroke-opacity="1"
         stroke-miterlimit="4"
         id="path58" /></g></g></svg>
