<?xml version="1.0" encoding="UTF-8" standalone="no"?>
<svg
   version="1.1"
   x="0px"
   y="0px"
   width="1360"
   height="400"
   viewBox="0.21 -0.077 1360 400"
   enable-background="new 0.21 -0.077 110 110"
   xml:space="preserve"
   id="svg4"
   sodipodi:docname="prql-dark.svg"
   inkscape:version="1.4.3 (0d15f75042, 2025-12-25)"
   inkscape:export-filename="prql-dark.png"
   inkscape:export-xdpi="96"
   inkscape:export-ydpi="96"
   xmlns:inkscape="http://www.inkscape.org/namespaces/inkscape"
   xmlns:sodipodi="http://sodipodi.sourceforge.net/DTD/sodipodi-0.dtd"
   xmlns="http://www.w3.org/2000/svg"
   xmlns:svg="http://www.w3.org/2000/svg"><defs
     id="defs4"><linearGradient
       id="linearGradient3993"><stop
         offset="0"
         style="stop-color:#a3c0d0;stop-opacity:1"
         id="stop3995" /><stop
         offset="1"
         style="stop-color:#427da1;stop-opacity:1"
         id="stop4001" /></linearGradient><linearGradient
       id="linearGradient2508"><stop
         offset="0"
         style="stop-color:#2e4a5a;stop-opacity:1"
         id="stop2510" /><stop
         offset="1"
         style="stop-color:#6e8796;stop-opacity:1"
         id="stop2512" /></linearGradient><linearGradient
       id="linearGradient3308-4-6-931-761-0"><stop
         id="stop2919-2"
         style="stop-color:#ffffff;stop-opacity:1"
         offset="0" /><stop
         id="stop2921-76"
         style="stop-color:#ffffff;stop-opacity:0"
         offset="1" /></linearGradient><linearGradient
       id="linearGradient3575"><stop
         id="stop3577"
         style="stop-color:#fafafa;stop-opacity:1"
         offset="0" /><stop
         id="stop3579"
         style="stop-color:#e6e6e6;stop-opacity:1"
         offset="1" /></linearGradient><linearGradient
       id="SVGID_2_-3"
       gradientUnits="userSpaceOnUse"
       x1="40.741299"
       y1="104.3706"
       x2="88.484802"
       y2="104.3706"
       gradientTransform="matrix(0.11091436,0,0,0.11091436,70.964949,45.705921)">
	<stop
   offset="0.3045"
   style="stop-color:#1937FF"
   id="stop3-6" />
	<stop
   offset="1"
   style="stop-color:#00C3FF"
   id="stop4-7" />
</linearGradient><linearGradient
       id="SVGID_1_-5"
       gradientUnits="userSpaceOnUse"
       x1="39.481701"
       y1="63.022701"
       x2="162.5183"
       y2="63.022701"
       gradientTransform="matrix(0.11091436,0,0,0.11091436,70.964949,45.705921)">
	<stop
   offset="0.3045"
   style="stop-color:#1937FF"
   id="stop1-3" />
	<stop
   offset="1"
   style="stop-color:#00F7FF"
   id="stop2-5" />
</linearGradient><clipPath
       id="clip-1"><path
         clip-rule="nonzero"
         d="M 296,0 H 427 V 139.71875 H 296 Z m 0,0"
         id="path6-3" /></clipPath><clipPath
       id="clip-0"><path
         clip-rule="nonzero"
         d="M 13,0 H 283 V 139.71875 H 13 Z m 0,0"
         id="path5-6" /></clipPath></defs><sodipodi:namedview
     id="namedview4"
     pagecolor="#ffffff"
     bordercolor="#000000"
     borderopacity="0.25"
     inkscape:showpageshadow="2"
     inkscape:pageopacity="0.0"
     inkscape:pagecheckerboard="0"
     inkscape:deskcolor="#d1d1d1"
     inkscape:zoom="0.86167593"
     inkscape:cx="675.42794"
     inkscape:cy="202.51233"
     inkscape:window-width="1920"
     inkscape:window-height="980"
     inkscape:window-x="0"
     inkscape:window-y="0"
     inkscape:window-maximized="1"
     inkscape:current-layer="g1"
     showgrid="true"><inkscape:grid
       id="grid1"
       units="px"
       originx="0"
       originy="0"
       spacingx="10"
       spacingy="10"
       empcolor="#0099e5"
       empopacity="0.30196078"
       color="#0099e5"
       opacity="0.14901961"
       empspacing="5"
       enabled="true"
       visible="true" /></sodipodi:namedview><linearGradient
     id="SVGID_1_"
     gradientUnits="userSpaceOnUse"
     x1="63.815899"
     y1="56.682899"
     x2="118.4934"
     y2="1.8225"
     gradientTransform="matrix(1,0,0,-1,-53.2974,66.4321)"> <stop
   offset="0"
   style="stop-color:#387EB8"
   id="stop1" /> <stop
   offset="1"
   style="stop-color:#366994"
   id="stop2" /></linearGradient><linearGradient
     id="SVGID_2_"
     gradientUnits="userSpaceOnUse"
     x1="97.044403"
     y1="21.632099"
     x2="155.6665"
     y2="-34.5308"
     gradientTransform="matrix(1,0,0,-1,-53.2974,66.4321)"> <stop
   offset="0"
   style="stop-color:#FFE052"
   id="stop3" /> <stop
   offset="1"
   style="stop-color:#FFC331"
   id="stop4" /></linearGradient><g
     inkscape:groupmode="layer"
     id="layer1"
     inkscape:label="Logo"><g
       id="g1"
       transform="matrix(2.8628942,0,0,2.8628942,-705.64531,-850.13972)"
       sodipodi:insensitive="true"><g
         id="g825"
         transform="matrix(0.23119612,0,0,0.23119612,211.45643,241.93657)"
         style="fill:#ffffff;fill-opacity:1;stroke-width:1.00017;stroke-dasharray:none"><g
           aria-label="PRQL"
           id="text1844"
           style="font-size:29.3333px;line-height:1.25;font-family:'Dancing Script';-inkscape-font-specification:'Dancing Script';font-variant-ligatures:none;word-spacing:0px;fill:#ffffff;fill-opacity:1;stroke-width:1.00017;stroke-dasharray:none"><path
             d="M 748.14589,750.77972 V 343.507 h 168.23863 q 45.73864,0 78.94887,17.89772 33.40911,17.69887 51.50571,49.51705 18.0966,31.61932 18.0966,73.57955 0,42.15909 -18.4944,73.7784 -18.2954,31.42046 -52.3011,48.7216 -34.00568,17.30113 -80.73863,17.30113 H 809.59475 v -77.55682 h 85.51136 q 22.27273,0 37.1875,-7.75568 15.11364,-7.75568 22.86932,-21.67613 7.75568,-14.11932 7.75568,-32.8125 0,-18.89205 -7.75568,-32.61364 -7.75568,-13.92046 -22.86932,-21.47727 -15.11363,-7.55682 -37.1875,-7.55682 h -48.52272 v 327.92613 z"
             style="font-size:560px;font-family:Inter;-inkscape-font-specification:'Inter, Normal';fill:#ffffff;fill-opacity:1;stroke-width:1.00017;stroke-dasharray:none"
             id="path2080" /><path
             d="M 1113.2586,750.77972 V 343.507 h 168.2387 q 45.7386,0 78.9488,16.50568 33.4091,16.30682 51.5057,46.93182 18.0966,30.42613 18.0966,72.1875 0,42.35795 -18.4943,71.98863 -18.4943,29.43182 -52.5,44.94319 -34.0057,15.3125 -80.5398,15.3125 h -106.392 V 533.8195 h 88.0966 q 22.2727,0 37.1875,-5.76705 15.1136,-5.96591 22.8693,-17.89773 7.7557,-12.13068 7.7557,-31.02272 0,-18.89205 -7.7557,-31.22159 -7.7557,-12.52841 -22.8693,-18.69319 -15.1137,-6.36363 -37.1875,-6.36363 h -48.5228 v 327.92613 z m 229.2898,-186.13636 101.4205,186.13636 h -107.3864 l -99.4318,-186.13636 z"
             style="font-size:560px;font-family:Inter;-inkscape-font-specification:'Inter, Normal';fill:#ffffff;fill-opacity:1;stroke-width:1.00017;stroke-dasharray:none"
             id="path2082" /><path
             d="m 1639.6497,604.41609 h 79.5454 l 33.8069,43.15341 44.3466,50.90909 68.2102,84.11932 h -89.0909 l -47.7273,-57.07387 -28.2386,-40.56818 z m 228.6932,-57.27273 q 0,67.21591 -25.8523,113.94886 -25.8523,46.73296 -70,70.99432 -43.9489,24.26137 -98.6364,24.26137 -54.8863,0 -98.8352,-24.46023 -43.9489,-24.46023 -69.8011,-70.99432 -25.6534,-46.73295 -25.6534,-113.75 0,-67.21591 25.6534,-113.94886 25.8522,-46.73296 69.8011,-70.99432 43.9489,-24.26136 98.8352,-24.26136 54.6875,0 98.6364,24.26136 44.1477,24.26136 70,70.99432 25.8523,46.73295 25.8523,113.94886 z m -100.625,0 q 0,-39.77273 -11.3353,-67.21591 -11.1363,-27.44318 -32.2159,-41.5625 -20.8806,-14.11932 -50.3125,-14.11932 -29.2329,0 -50.3125,14.11932 -21.0795,14.11932 -32.4147,41.5625 -11.1364,27.44318 -11.1364,67.21591 0,39.77273 11.1364,67.21591 11.3352,27.44318 32.4147,41.5625 21.0796,14.11932 50.3125,14.11932 29.4319,0 50.3125,-14.11932 21.0796,-14.11932 32.2159,-41.5625 11.3353,-27.44318 11.3353,-67.21591 z"
             style="font-size:560px;font-family:Inter;-inkscape-font-specification:'Inter, Normal';fill:#ffffff;fill-opacity:1;stroke-width:1.00017;stroke-dasharray:none"
             id="path2084" /><path
             d="M 1926.2118,750.77972 V 343.507 h 98.4375 v 327.32954 h 169.4318 v 79.94318 z"
             style="font-size:560px;font-family:Inter;-inkscape-font-specification:'Inter, Normal';fill:#ffffff;fill-opacity:1;stroke-width:1.00017;stroke-dasharray:none"
             id="path2086" /></g></g><g
         id="g841"
         transform="matrix(0.23119612,0,0,0.23119612,170.30352,241.93657)"><path
           class="e"
           d="m 540.97,237.84 c -109.76,0 -198.72,43.81 -198.72,97.91 v 97.91 c 0,4.16 0.53,8.27 1.55,12.33 6.62,25.97 33.85,48.74 73.4,64.26 15.23,6 32.25,10.88 50.67,14.46 10.37,2.04 21.18,3.63 32.31,4.77 V 403.65 c -33.8,-3.41 -63.33,-10.97 -84.82,-21.19 -8.99,-4.3 -16.54,-9.04 -22.43,-14.12 -9.28,-7.98 -14.41,-16.83 -14.41,-26.16 0,-35.05 72.72,-63.44 162.46,-63.44 89.74,0 162.46,28.38 162.46,63.44 0,9.33 -5.13,18.18 -14.41,26.16 -5.9,5.08 -13.44,9.82 -22.43,14.12 -21.49,10.22 -51.02,17.78 -84.82,21.19 v 125.83 c 11.13,-1.15 21.94,-2.74 32.31,-4.77 18.42,-3.58 35.44,-8.46 50.67,-14.46 39.55,-15.52 66.77,-38.29 73.4,-64.26 1.02,-4.06 1.55,-8.17 1.55,-12.33 v -97.91 c 0,-54.1 -88.97,-97.91 -198.72,-97.91 z"
           id="path827"
           style="fill:#e9af00" /><g
           id="g833"><path
             class="c"
             d="m 500.18,554.16 c -28.54,-2.94 -54.83,-8.88 -77.42,-17.12 -11.6,-4.26 -22.24,-9.09 -31.72,-14.46 -30.36,-17.17 -48.79,-39.65 -48.79,-64.26 v 128.52 c 0,4.93 0.73,9.77 2.13,14.46 v 0.05 c 7.98,26.25 37.04,49.08 78.38,64.21 22.6,8.24 48.89,14.19 77.42,17.12 z"
             id="path829"
             style="fill:#dc3c2a" /><path
             class="c"
             d="m 690.91,522.58 c -9.48,5.37 -20.11,10.2 -31.72,14.46 -22.6,8.24 -48.89,14.19 -77.42,17.12 v 128.52 c 28.54,-2.94 54.83,-8.88 77.42,-17.12 41.34,-15.13 70.4,-37.96 78.38,-64.21 v -0.05 c 1.4,-4.69 2.13,-9.52 2.13,-14.46 V 458.32 c 0,24.61 -18.42,47.09 -48.79,64.26 z"
             id="path831"
             style="fill:#dc3c2a" /></g><g
           id="g839"><path
             class="d"
             d="m 470.98,776.07 h 29.2 V 711.6 C 457,707.17 418.98,695.84 391.04,680.02 360.68,662.86 342.25,640.37 342.25,615.76 v 128.52 c 0,53.41 86.87,96.86 194.82,97.89 l -66.09,-66.09 z"
             id="path835"
             style="fill:#4081ec" /><path
             class="d"
             d="m 690.91,680.01 c -27.94,15.82 -65.96,27.15 -109.14,31.58 v 64.47 h 29.2 l -66.09,66.09 C 652.83,841.12 739.7,797.68 739.7,744.26 V 615.74 c 0,24.61 -18.42,47.09 -48.79,64.26 z"
             id="path837"
             style="fill:#4081ec" /></g></g></g></g></svg>
