<?xml version="1.0" encoding="UTF-8" standalone="no"?>
<svg
   version="1.1"
   x="0px"
   y="0px"
   width="1120"
   height="400"
   viewBox="0.21 -0.077 1120 400"
   enable-background="new 0.21 -0.077 110 110"
   xml:space="preserve"
   id="svg4"
   sodipodi:docname="redoxos-white.svg"
   inkscape:version="1.4.3 (0d15f75042, 2025-12-25)"
   inkscape:export-filename="redoxos-white.png"
   inkscape:export-xdpi="96"
   inkscape:export-ydpi="96"
   xmlns:inkscape="http://www.inkscape.org/namespaces/inkscape"
   xmlns:sodipodi="http://sodipodi.sourceforge.net/DTD/sodipodi-0.dtd"
   xmlns="http://www.w3.org/2000/svg"
   xmlns:svg="http://www.w3.org/2000/svg"><defs
     id="defs4"><linearGradient
       id="linearGradient3993"><stop
         offset="0"
         style="stop-color:#a3c0d0;stop-opacity:1"
         id="stop3995" /><stop
         offset="1"
         style="stop-color:#427da1;stop-opacity:1"
         id="stop4001" /></linearGradient><linearGradient
       id="linearGradient2508"><stop
         offset="0"
         style="stop-color:#2e4a5a;stop-opacity:1"
         id="stop2510" /><stop
         offset="1"
         style="stop-color:#6e8796;stop-opacity:1"
         id="stop2512" /></linearGradient><linearGradient
       id="linearGradient3308-4-6-931-761-0"><stop
         id="stop2919-2"
         style="stop-color:#ffffff;stop-opacity:1"
         offset="0" /><stop
         id="stop2921-76"
         style="stop-color:#ffffff;stop-opacity:0"
         offset="1" /></linearGradient><linearGradient
       id="linearGradient3575"><stop
         id="stop3577"
         style="stop-color:#fafafa;stop-opacity:1"
         offset="0" /><stop
         id="stop3579"
         style="stop-color:#e6e6e6;stop-opacity:1"
         offset="1" /></linearGradient><linearGradient
       id="SVGID_2_-3"
       gradientUnits="userSpaceOnUse"
       x1="40.741299"
       y1="104.3706"
       x2="88.484802"
       y2="104.3706"
       gradientTransform="matrix(0.11091436,0,0,0.11091436,70.964949,45.705921)">
	<stop
   offset="0.3045"
   style="stop-color:#1937FF"
   id="stop3-6" />
	<stop
   offset="1"
   style="stop-color:#00C3FF"
   id="stop4-7" />
</linearGradient><linearGradient
       id="SVGID_1_-5"
       gradientUnits="userSpaceOnUse"
       x1="39.481701"
       y1="63.022701"
       x2="162.5183"
       y2="63.022701"
       gradientTransform="matrix(0.11091436,0,0,0.11091436,70.964949,45.705921)">
	<stop
   offset="0.3045"
   style="stop-color:#1937FF"
   id="stop1-3" />
	<stop
   offset="1"
   style="stop-color:#00F7FF"
   id="stop2-5" />
</linearGradient></defs><sodipodi:namedview
     id="namedview4"
     pagecolor="#ffffff"
     bordercolor="#000000"
     borderopacity="0.25"
     inkscape:showpageshadow="2"
     inkscape:pageopacity="0.0"
     inkscape:pagecheckerboard="0"
     inkscape:deskcolor="#d1d1d1"
     inkscape:zoom="0.86167593"
     inkscape:cx="559.9553"
     inkscape:cy="200.19127"
     inkscape:window-width="1920"
     inkscape:window-height="980"
     inkscape:window-x="0"
     inkscape:window-y="0"
     inkscape:window-maximized="1"
     inkscape:current-layer="layer1"
     showgrid="true"><inkscape:grid
       id="grid1"
       units="px"
       originx="0"
       originy="0"
       spacingx="10"
       spacingy="10"
       empcolor="#0099e5"
       empopacity="0.30196078"
       color="#0099e5"
       opacity="0.14901961"
       empspacing="5"
       enabled="true"
       visible="true" /></sodipodi:namedview><linearGradient
     id="SVGID_1_"
     gradientUnits="userSpaceOnUse"
     x1="63.815899"
     y1="56.682899"
     x2="118.4934"
     y2="1.8225"
     gradientTransform="matrix(1,0,0,-1,-53.2974,66.4321)"> <stop
   offset="0"
   style="stop-color:#387EB8"
   id="stop1" /> <stop
   offset="1"
   style="stop-color:#366994"
   id="stop2" /></linearGradient><linearGradient
     id="SVGID_2_"
     gradientUnits="userSpaceOnUse"
     x1="97.044403"
     y1="21.632099"
     x2="155.6665"
     y2="-34.5308"
     gradientTransform="matrix(1,0,0,-1,-53.2974,66.4321)"> <stop
   offset="0"
   style="stop-color:#FFE052"
   id="stop3" /> <stop
   offset="1"
   style="stop-color:#FFC331"
   id="stop4" /></linearGradient><g
     inkscape:groupmode="layer"
     id="layer1"
     inkscape:label="Logo"
     sodipodi:insensitive="true"><path
       style="color:#000000;font-style:normal;font-variant:normal;font-weight:normal;font-stretch:normal;font-size:medium;line-height:normal;font-family:sans-serif;font-variant-ligatures:normal;font-variant-position:normal;font-variant-caps:normal;font-variant-numeric:normal;font-variant-alternates:normal;font-feature-settings:normal;text-indent:0;text-align:start;text-decoration:none;text-decoration-line:none;text-decoration-style:solid;text-decoration-color:#000000;letter-spacing:normal;word-spacing:normal;text-transform:none;writing-mode:lr-tb;direction:ltr;text-orientation:mixed;dominant-baseline:auto;baseline-shift:baseline;text-anchor:start;white-space:normal;shape-padding:0;clip-rule:nonzero;display:inline;overflow:visible;visibility:visible;isolation:auto;mix-blend-mode:normal;color-interpolation:sRGB;color-interpolation-filters:linearRGB;solid-color:#000000;solid-opacity:1;vector-effect:none;fill:#ffffff;fill-opacity:1;fill-rule:nonzero;stroke:none;stroke-width:5.10236;stroke-linecap:butt;stroke-linejoin:miter;stroke-miterlimit:4;stroke-dasharray:none;stroke-dashoffset:0;stroke-opacity:1;color-rendering:auto;image-rendering:auto;shape-rendering:auto;text-rendering:auto;enable-background:accumulate"
       d="m -116.30733,85.975754 c -83.81291,-7.737033 -158.09087,53.986206 -165.82788,137.799116 -7.73704,83.81296 53.98618,158.09084 137.79909,165.82791 56.89002,5.25169 109.378172,-21.50653 139.6540776,-65.44562 a 63.194442,63.194442 0 0 1 -7.7939906,2.13831 c -29.701569,39.48151 -78.559182,63.10443 -131.391157,58.22732 -81.06701,-7.48354 -140.67162,-79.21194 -133.18806,-160.27895 7.48358,-81.06709 79.21191,-140.671677 160.279,-133.188099 C -47.785476,97.42451 5.6495608,150.32678 15.429353,215.91278 a 63.194442,63.194442 0 0 1 5.860687,5.65251 C 13.781819,150.8078 -42.751977,92.765902 -116.30733,85.975754 Z"
       id="path3722"
       inkscape:connector-curvature="0"
       transform="matrix(1.2599206,0,0,1.2599206,360.02975,-99.513716)" /><path
       style="color:#000000;font-style:normal;font-variant:normal;font-weight:normal;font-stretch:normal;font-size:medium;line-height:normal;font-family:sans-serif;font-variant-ligatures:normal;font-variant-position:normal;font-variant-caps:normal;font-variant-numeric:normal;font-variant-alternates:normal;font-feature-settings:normal;text-indent:0;text-align:start;text-decoration:none;text-decoration-line:none;text-decoration-style:solid;text-decoration-color:#000000;letter-spacing:normal;word-spacing:normal;text-transform:none;writing-mode:lr-tb;direction:ltr;text-orientation:mixed;dominant-baseline:auto;baseline-shift:baseline;text-anchor:start;white-space:normal;shape-padding:0;clip-rule:nonzero;display:inline;overflow:visible;visibility:visible;isolation:auto;mix-blend-mode:normal;color-interpolation:sRGB;color-interpolation-filters:linearRGB;solid-color:#000000;solid-opacity:1;vector-effect:none;fill:#ffffff;fill-opacity:1;fill-rule:nonzero;stroke:none;stroke-width:5.10236;stroke-linecap:butt;stroke-linejoin:miter;stroke-miterlimit:4;stroke-dasharray:none;stroke-dashoffset:0;stroke-opacity:1;color-rendering:auto;image-rendering:auto;shape-rendering:auto;text-rendering:auto;enable-background:accumulate"
       d="m -118.55055,123.38896 c -63.15523,-6.33007 -119.54401,39.78308 -125.87407,102.93827 -6.32999,63.15522 39.78508,119.54419 102.94027,125.87425 33.88456,3.39625 65.816316,-8.30933 89.118918,-29.63886 a 63.194442,63.194442 0 0 1 -4.78492,-2.51313 c -22.134161,19.59977 -52.067228,30.26091 -83.825428,27.07783 -60.4114,-6.05507 -104.4277,-59.87989 -98.37271,-120.29133 6.05503,-60.4114 59.87796,-104.4279 120.28933,-98.37287 44.229614,4.43313 79.666957,34.47428 93.104122,73.9567 a 63.194442,63.194442 0 0 1 5.398073,0.13645 C -34.169917,160.38535 -71.660147,128.0885 -118.55055,123.38869 Z"
       id="path3722-3"
       inkscape:connector-curvature="0"
       transform="matrix(1.2599206,0,0,1.2599206,360.02975,-99.513716)" /><path
       id="path4547"
       style="display:inline;fill:#ffffff;fill-opacity:1;stroke:#ffffff;stroke-width:1.71024;stroke-opacity:1"
       transform="matrix(1.2599206,0,0,1.2599206,360.02975,-99.513716)"
       d="m -123.61327,388.84427 a 6.7039347,6.7039347 0 0 1 -6.70393,6.70393 6.7039347,6.7039347 0 0 1 -6.70393,-6.70393 6.7039347,6.7039347 0 0 1 6.70393,-6.70394 6.7039347,6.7039347 0 0 1 6.70393,6.70394 z" /><path
       id="path4547-6"
       style="display:inline;fill:#ffffff;fill-opacity:1;stroke:#ffffff;stroke-width:1.71024;stroke-opacity:1"
       transform="matrix(1.2599206,0,0,1.2599206,360.02975,-99.513716)"
       d="m -123.61327,351.04898 a 6.7039347,6.7039347 0 0 1 -6.70393,6.70394 6.7039347,6.7039347 0 0 1 -6.70393,-6.70394 6.7039347,6.7039347 0 0 1 6.70393,-6.70393 6.7039347,6.7039347 0 0 1 6.70393,6.70393 z" /><path
       id="path4547-7"
       style="display:inline;fill:#ffffff;fill-opacity:1;stroke:#ffffff;stroke-width:1.71024;stroke-opacity:1"
       transform="matrix(1.2599206,0,0,1.2599206,360.02975,-99.513716)"
       d="m -123.61327,124.27734 a 6.7039347,6.7039347 0 0 1 -6.70393,6.70394 6.7039347,6.7039347 0 0 1 -6.70393,-6.70394 6.7039347,6.7039347 0 0 1 6.70393,-6.70393 6.7039347,6.7039347 0 0 1 6.70393,6.70393 z" /><path
       id="path4547-5"
       style="display:inline;fill:#ffffff;fill-opacity:1;stroke:#ffffff;stroke-width:1.71024;stroke-opacity:1"
       transform="matrix(1.2599206,0,0,1.2599206,360.02975,-99.513716)"
       d="m -123.61327,86.482056 a 6.7039347,6.7039347 0 0 1 -6.70393,6.703934 6.7039347,6.7039347 0 0 1 -6.70393,-6.703934 6.7039347,6.7039347 0 0 1 6.70393,-6.703935 6.7039347,6.7039347 0 0 1 6.70393,6.703935 z" /><path
       id="path4547-7-5"
       style="display:inline;fill:#ffffff;fill-opacity:1;stroke:#ffffff;stroke-width:1.71024;stroke-opacity:1"
       transform="matrix(1.2599206,0,0,1.2599206,360.02975,-99.513716)"
       d="m -254.53987,162.07262 a 6.7039347,6.7039347 0 0 1 -6.70393,6.70393 6.7039347,6.7039347 0 0 1 -6.70394,-6.70393 6.7039347,6.7039347 0 0 1 6.70394,-6.70394 6.7039347,6.7039347 0 0 1 6.70393,6.70394 z" /><path
       id="path4547-7-6"
       style="display:inline;fill:#ffffff;fill-opacity:1;stroke:#ffffff;stroke-width:1.71024;stroke-opacity:1"
       transform="matrix(1.2599206,0,0,1.2599206,360.02975,-99.513716)"
       d="m 7.3133687,162.07262 a 6.7039347,6.7039347 0 0 1 -6.70393463,6.70393 6.7039347,6.7039347 0 0 1 -6.70393467,-6.70393 6.7039347,6.7039347 0 0 1 6.70393467,-6.70394 6.7039347,6.7039347 0 0 1 6.70393463,6.70394 z" /><path
       id="path4547-7-2"
       style="display:inline;fill:#ffffff;fill-opacity:1;stroke:#ffffff;stroke-width:1.71024;stroke-opacity:1"
       transform="matrix(1.2599206,0,0,1.2599206,360.02975,-99.513716)"
       d="m -254.53987,313.25372 a 6.7039347,6.7039347 0 0 1 -6.70393,6.70394 6.7039347,6.7039347 0 0 1 -6.70394,-6.70394 6.7039347,6.7039347 0 0 1 6.70394,-6.70393 6.7039347,6.7039347 0 0 1 6.70393,6.70393 z" /><path
       id="text16756"
       style="font-style:normal;font-variant:normal;font-weight:normal;font-stretch:normal;font-size:56.4444px;line-height:1.25;font-family:Evolventa;-inkscape-font-specification:'Evolventa, Normal';font-variant-ligatures:normal;font-variant-caps:normal;font-variant-numeric:normal;font-variant-east-asian:normal;display:inline;fill:#ffffff;fill-opacity:1;stroke:none;stroke-width:0.999999"
       d="m -179.6059,160.48355 v 157.60351 h 15.72852 V 174.75504 h 22.1875 c 16.1111,0 28.19445,1.90907 36.25,5.72851 5.34722,2.56944 9.44379,6.45768 12.29101,11.66601 2.91667,5.20833 4.375,11.42427 4.375,18.64649 0,17.36109 -7.60418,28.29861 -22.8125,32.8125 -7.22221,2.01388 -19.30557,3.01953 -36.25,3.01953 l 53.125,71.45898 h 19.58399 l -44.16602,-58.85351 c 15.13888,-1.59722 26.66537,-6.49307 34.58203,-14.6875 7.98611,-8.26389 11.98047,-19.44576 11.98047,-33.54297 0,-9.58333 -1.9451,-17.98482 -5.83398,-25.20703 -3.81944,-7.22222 -9.41038,-12.98546 -16.77149,-17.29101 -9.65277,-5.34722 -24.75696,-8.02149 -45.3125,-8.02149 z"
       transform="matrix(1.2599206,0,0,1.2599206,360.02975,-99.513716)" /><path
       id="path877"
       style="font-size:47.625px;line-height:0;font-family:Evolventa;-inkscape-font-specification:'Evolventa, Normal';letter-spacing:-0.79375px;display:inline;fill:#ffffff;fill-opacity:1;stroke-width:0.264583"
       transform="matrix(4.7619051,0,0,4.7619051,-470.82627,-547.69605)"
       d="m 209.60156,142.17383 a 0.17950843,0.17950843 0 0 0 -0.17969,0.17969 v 12.81835 c -2.63647,-2.97372 -5.99782,-4.48632 -10.05273,-4.48632 -2.63193,0 -5.03041,0.60536 -7.18164,1.81445 -2.13472,1.20863 -3.82047,2.87686 -5.04492,4.99609 -1.20946,2.12046 -1.8125,4.48868 -1.8125,7.08985 0,2.57162 0.62799,4.91639 1.88476,7.02148 1.25607,2.10391 2.98101,3.75667 5.16211,4.94922 2.1973,1.19282 4.63881,1.78906 7.31641,1.78906 2.19349,0 4.0785,-0.42315 5.64453,-1.27734 1.45697,-0.78676 2.81441,-2.04588 4.08398,-3.72852 v 4.19922 a 0.17950843,0.17950843 0 0 0 0.17969,0.17969 h 3.53321 a 0.17950843,0.17950843 0 0 0 0.17968,-0.17969 v -35.18554 a 0.17950843,0.17950843 0 0 0 -0.17968,-0.17969 z m -40.76367,8.51172 c -2.50928,0 -4.81348,0.60511 -6.90234,1.81445 -2.08796,1.20882 -3.74067,2.86945 -4.94922,4.97266 -1.20911,2.10415 -1.81446,4.41845 -1.81446,6.92773 0,1.91396 0.36176,3.73583 1.08399,5.46289 0.72133,1.72494 1.70344,3.21126 2.94531,4.45313 1.24188,1.24186 2.72818,2.22398 4.45313,2.94531 1.72706,0.72223 3.54893,1.08398 5.46289,1.08398 2.87268,0 5.49609,-0.86009 7.84961,-2.57031 2.35295,-1.7255 4.02185,-3.98408 4.99414,-6.75977 a 0.17950843,0.17950843 0 0 0 -0.16992,-0.23828 h -3.67383 a 0.17950843,0.17950843 0 0 0 -0.16602,0.11133 c -0.71534,1.75032 -1.88808,3.16135 -3.53515,4.24414 -1.64711,1.06758 -3.43892,1.59766 -5.39063,1.59766 -2.64226,0 -4.91667,-0.87135 -6.85547,-2.62695 -1.8886,-1.72503 -2.89751,-3.80154 -3.07617,-6.2461 h 23.34961 a 0.17950843,0.17950843 0 0 0 0.17969,-0.17969 c 0,-1.74438 -0.1175,-3.19498 -0.35352,-4.35937 -0.23597,-1.17986 -0.64559,-2.32655 -1.22656,-3.44141 h 0.002 c -1.14646,-2.21438 -2.82473,-3.97276 -5.02148,-5.25976 h -0.002 c -2.18148,-1.28656 -4.58118,-1.93164 -7.18359,-1.93164 z m 62.29297,0 c -4.03847,0 -7.39612,1.31416 -10.0332,3.93554 -2.6372,2.6058 -3.95899,5.92533 -3.95899,9.91797 0,2.60126 0.60478,4.96127 1.81445,7.06641 a 0.17950843,0.17950843 0 0 0 0.002,0 c 1.22475,2.10409 2.91405,3.75628 5.06445,4.94922 2.1513,1.19342 4.55816,1.79101 7.20508,1.79101 3.8694,0 7.09535,-1.30794 9.63867,-3.91406 2.54318,-2.60598 3.81836,-5.90049 3.81836,-9.8457 0,-2.61493 -0.58848,-4.98958 -1.76562,-7.10938 l -0.002,-0.002 c -1.16145,-2.1179 -2.78178,-3.77929 -4.85351,-4.97266 l -0.002,-0.002 c -2.05835,-1.20932 -4.37341,-1.81445 -6.92773,-1.81445 z m 13.82422,0.6289 a 0.17950843,0.17950843 0 0 0 -0.14649,0.28321 l 8.99805,12.66406 -9,13.17578 a 0.17950843,0.17950843 0 0 0 0.14844,0.28125 h 4 a 0.17950843,0.17950843 0 0 0 0.14844,-0.0781 l 6.92187,-10.22265 6.84961,10.2207 a 0.17950843,0.17950843 0 0 0 0.14844,0.0801 h 4.04687 a 0.17950843,0.17950843 0 0 0 0.14844,-0.28125 l -9.04492,-13.17578 9.04297,-12.66406 a 0.17950843,0.17950843 0 0 0 -0.14649,-0.28321 h -4.04687 a 0.17950843,0.17950843 0 0 0 -0.14649,0.0762 l -6.85156,9.83594 -6.92383,-9.83594 a 0.17950843,0.17950843 0 0 0 -0.14648,-0.0762 z m -76.11719,2.96289 c 2.49137,0 4.60645,0.7376 6.37305,2.21485 1.72853,1.43305 2.87911,3.37227 3.47851,5.82031 h -19.47656 c 0.4978,-2.37319 1.59315,-4.28885 3.32227,-5.75195 a 0.17950843,0.17950843 0 0 0 0.002,0 c 1.78334,-1.52423 3.87348,-2.28321 6.30078,-2.28321 z m 30.29883,0 c 2.93603,0 5.39279,0.98582 7.4082,2.97071 a 0.17950843,0.17950843 0 0 0 0,0.002 c 2.01559,1.96977 3.01563,4.35426 3.01563,7.19531 0,2.84238 -0.97077,5.25538 -2.92578,7.27149 -1.95508,2.01617 -4.2865,3.01367 -7.03321,3.01367 -2.92013,0 -5.36171,-0.97869 -7.36133,-2.94727 -1.98463,-1.98463 -2.9707,-4.40213 -2.9707,-7.29101 0,-2.84304 0.9553,-5.23799 2.87891,-7.22266 1.92375,-2.00008 4.24132,-2.99219 6.98828,-2.99219 z m 31.71484,0 c 2.90526,0 5.26576,0.96924 7.125,2.91993 a 0.17950843,0.17950843 0 0 0 0.002,0.002 c 1.85907,1.93526 2.78711,4.40091 2.7871,7.43359 0,2.95517 -0.90569,5.36702 -2.71875,7.27149 -1.79701,1.8884 -4.08804,2.82617 -6.91601,2.82617 -2.9059,0 -5.29141,-0.95585 -7.19727,-2.87695 -1.9058,-1.92105 -2.85547,-4.33003 -2.85547,-7.26758 0,-2.96991 0.92894,-5.41364 2.78907,-7.36524 1.86042,-1.96717 4.17379,-2.94336 6.98437,-2.94336 z" /><path
       id="path978"
       style="font-size:44.0972px;line-height:1.25;font-family:Evolventa;-inkscape-font-specification:'Evolventa, Normal';letter-spacing:-1.5875px;display:inline;fill:#ffffff;fill-opacity:1;stroke-width:0.264583"
       transform="matrix(4.7619051,0,0,4.7619051,-470.82627,-547.69605)"
       d="m 294.76172,144.10742 c -3.23488,0 -6.22782,0.76833 -8.95703,2.30078 -2.71278,1.51714 -4.86499,3.59724 -6.44141,6.22461 -1.57783,2.62972 -2.36914,5.52278 -2.36914,8.66016 0,2.3093 0.46908,4.52959 1.4043,6.64844 0.93304,2.09932 2.18267,3.92775 3.74609,5.47656 a 0.30521909,0.30521909 0 0 0 0.002,0.002 c 1.57837,1.53452 3.4494,2.7619 5.60547,3.67969 a 0.30521909,0.30521909 0 0 0 0.002,0 c 2.17486,0.90498 4.44084,1.35742 6.79101,1.35742 2.35018,0 4.61053,-0.45216 6.77149,-1.35742 a 0.30521909,0.30521909 0 0 0 0.002,0 c 2.1563,-0.91789 4.01964,-2.14457 5.58398,-3.67969 1.57898,-1.53511 2.82912,-3.36405 3.74805,-5.47851 v -0.002 c 0.93473,-2.11834 1.4043,-4.33779 1.4043,-6.64648 0,-2.29461 -0.4697,-4.50501 -1.4043,-6.62305 v -0.002 c -0.91823,-2.12744 -2.16089,-3.96305 -3.72461,-5.49805 -1.54967,-1.53505 -3.39181,-2.76156 -5.51953,-3.67969 -2.11848,-0.92044 -4.33587,-1.38281 -6.64453,-1.38281 z m 28.38476,0 c -2.69084,0 -4.95235,0.85737 -6.71679,2.5625 -1.75099,1.69163 -2.63086,3.88345 -2.63086,6.50586 0,1.16983 0.2054,2.29437 0.62109,3.36328 a 0.30521909,0.30521909 0 0 0 0.002,0 c 0.41598,1.05479 1.00746,1.94329 1.77344,2.65039 6.8e-4,6.5e-4 0.001,0.001 0.002,0.002 6.7e-4,6.2e-4 10e-4,0.001 0.002,0.002 0.66514,0.63486 1.38483,1.14653 2.1582,1.5332 a 0.30521909,0.30521909 0 0 0 0.006,0.002 c 0.79093,0.37308 2.12481,0.84716 4.02539,1.4375 a 0.30521909,0.30521909 0 0 0 0.004,0.002 c 2.32415,0.68441 3.99813,1.38482 4.99609,2.06836 1.38282,0.99235 2.0625,2.42961 2.0625,4.42187 0,1.81446 -0.5755,3.27083 -1.74023,4.43555 a 0.30521909,0.30521909 0 0 0 -0.002,0 c -1.15046,1.16417 -2.59103,1.74023 -4.39062,1.74023 -0.97893,0 -1.90233,-0.19275 -2.7832,-0.57812 -0.86522,-0.38454 -1.5694,-0.91379 -2.12696,-1.59375 a 0.30521909,0.30521909 0 0 0 -0.004,-0.004 c -0.46784,-0.55038 -0.8208,-1.13797 -1.06641,-1.76562 -0.23044,-0.63967 -0.39961,-1.468 -0.49805,-2.48047 a 0.30521909,0.30521909 0 0 0 -0.30468,-0.27539 h -3.48829 a 0.30521909,0.30521909 0 0 0 -0.30468,0.32031 c 0.16118,2.98914 1.20052,5.43271 3.10937,7.26758 1.90988,1.82105 4.39119,2.73242 7.38086,2.73242 2.89393,0 5.33484,-0.95227 7.25586,-2.84375 1.92076,-1.89121 2.88867,-4.28998 2.88867,-7.12891 0,-1.4607 -0.29631,-2.8276 -0.88867,-4.08789 l -0.002,-0.002 c -0.57889,-1.26067 -1.40066,-2.30054 -2.45899,-3.10547 a 0.30521909,0.30521909 0 0 0 -0.008,-0.006 c -0.72149,-0.51534 -1.52144,-0.96469 -2.40039,-1.3457 h -0.002 c -0.86862,-0.38267 -2.11766,-0.81493 -3.75977,-1.30469 -1.48673,-0.44316 -2.54999,-0.80119 -3.17383,-1.06445 l -0.002,-0.002 c -0.60554,-0.26175 -1.11626,-0.56923 -1.5332,-0.91797 -0.43457,-0.39626 -0.77966,-0.90611 -1.03711,-1.54297 -0.25821,-0.63873 -0.38867,-1.30664 -0.38867,-2.01563 0,-1.58526 0.49758,-2.84915 1.5039,-3.85547 a 0.30521909,0.30521909 0 0 0 0.002,0 c 1.00704,-1.02065 2.26233,-1.52343 3.83203,-1.52343 1.5855,0 2.83849,0.49678 3.83007,1.50195 a 0.30521909,0.30521909 0 0 0 0.002,0 c 1.00632,1.00631 1.56464,2.33812 1.67578,4.04688 a 0.30521909,0.30521909 0 0 0 0.30469,0.28515 h 3.40234 a 0.30521909,0.30521909 0 0 0 0.30469,-0.31055 c -0.0588,-2.70452 -0.95951,-4.92907 -2.69727,-6.60742 -1.73755,-1.67815 -4.00453,-2.51953 -6.73633,-2.51953 z m -28.77343,3.60352 c 1.87019,0 3.64962,0.35768 5.34961,1.07422 1.70392,0.71818 3.165,1.68453 4.38476,2.90429 a 0.30521909,0.30521909 0 0 0 0.002,0.004 c 1.23349,1.20545 2.20617,2.64732 2.92383,4.33594 a 0.30521909,0.30521909 0 0 0 0.002,0.002 c 0.73019,1.68504 1.09375,3.44991 1.09375,5.30469 0,1.81079 -0.36354,3.54573 -1.09375,5.21679 a 0.30521909,0.30521909 0 0 0 0,0.002 c -0.71775,1.66068 -1.68588,3.09053 -2.90625,4.29687 -1.22072,1.20668 -2.66634,2.17574 -4.3418,2.90821 -1.67109,0.71617 -3.41596,1.07421 -5.24219,1.07421 -2.44682,0 -4.70493,-0.60233 -6.79883,-1.81054 h -0.002 c -2.09486,-1.22349 -3.75467,-2.87075 -4.99219,-4.95117 l -0.002,-0.002 c -1.222,-2.09374 -1.83008,-4.34603 -1.83008,-6.77734 0,-2.40289 0.60879,-4.63941 1.83203,-6.73438 1.22429,-2.09676 2.8639,-3.75826 4.93164,-4.99609 2.0804,-1.23699 4.30181,-1.85156 6.68946,-1.85156 z" /></g></svg>
