<?xml version="1.0" encoding="UTF-8" standalone="no"?>
<svg
   version="1.1"
   x="0px"
   y="0px"
   width="840"
   height="400"
   viewBox="0.21 -0.077 840 400"
   enable-background="new 0.21 -0.077 110 110"
   xml:space="preserve"
   id="svg4"
   sodipodi:docname="rust-light.svg"
   inkscape:version="1.4.3 (0d15f75042, 2025-12-25)"
   inkscape:export-filename="rust-light.png"
   inkscape:export-xdpi="96"
   inkscape:export-ydpi="96"
   xmlns:inkscape="http://www.inkscape.org/namespaces/inkscape"
   xmlns:sodipodi="http://sodipodi.sourceforge.net/DTD/sodipodi-0.dtd"
   xmlns="http://www.w3.org/2000/svg"
   xmlns:svg="http://www.w3.org/2000/svg"><defs
     id="defs4"><linearGradient
       id="linearGradient3993"><stop
         offset="0"
         style="stop-color:#a3c0d0;stop-opacity:1"
         id="stop3995" /><stop
         offset="1"
         style="stop-color:#427da1;stop-opacity:1"
         id="stop4001" /></linearGradient><linearGradient
       id="linearGradient2508"><stop
         offset="0"
         style="stop-color:#2e4a5a;stop-opacity:1"
         id="stop2510" /><stop
         offset="1"
         style="stop-color:#6e8796;stop-opacity:1"
         id="stop2512" /></linearGradient><linearGradient
       id="linearGradient3308-4-6-931-761-0"><stop
         id="stop2919-2"
         style="stop-color:#ffffff;stop-opacity:1"
         offset="0" /><stop
         id="stop2921-76"
         style="stop-color:#ffffff;stop-opacity:0"
         offset="1" /></linearGradient><linearGradient
       id="linearGradient3575"><stop
         id="stop3577"
         style="stop-color:#fafafa;stop-opacity:1"
         offset="0" /><stop
         id="stop3579"
         style="stop-color:#e6e6e6;stop-opacity:1"
         offset="1" /></linearGradient><linearGradient
       id="SVGID_2_-3"
       gradientUnits="userSpaceOnUse"
       x1="40.741299"
       y1="104.3706"
       x2="88.484802"
       y2="104.3706"
       gradientTransform="matrix(0.11091436,0,0,0.11091436,70.964949,45.705921)">
	<stop
   offset="0.3045"
   style="stop-color:#1937FF"
   id="stop3-6" />
	<stop
   offset="1"
   style="stop-color:#00C3FF"
   id="stop4-7" />
</linearGradient><linearGradient
       id="SVGID_1_-5"
       gradientUnits="userSpaceOnUse"
       x1="39.481701"
       y1="63.022701"
       x2="162.5183"
       y2="63.022701"
       gradientTransform="matrix(0.11091436,0,0,0.11091436,70.964949,45.705921)">
	<stop
   offset="0.3045"
   style="stop-color:#1937FF"
   id="stop1-3" />
	<stop
   offset="1"
   style="stop-color:#00F7FF"
   id="stop2-5" />
</linearGradient><linearGradient
       id="_Linear1"
       x1="0"
       y1="0"
       x2="1"
       y2="0"
       gradientUnits="userSpaceOnUse"
       gradientTransform="matrix(0,222.614,-222.614,0,254.029,197.998)"><stop
         offset="0"
         style="stop-color:rgb(255,215,118);stop-opacity:1"
         id="stop8" /><stop
         offset="1"
         style="stop-color:rgb(246,117,0);stop-opacity:1"
         id="stop9" /></linearGradient></defs><sodipodi:namedview
     id="namedview4"
     pagecolor="#ffffff"
     bordercolor="#000000"
     borderopacity="0.25"
     inkscape:showpageshadow="2"
     inkscape:pageopacity="0.0"
     inkscape:pagecheckerboard="0"
     inkscape:deskcolor="#d1d1d1"
     inkscape:zoom="0.86167594"
     inkscape:cx="410.8273"
     inkscape:cy="211.79656"
     inkscape:window-width="1920"
     inkscape:window-height="980"
     inkscape:window-x="0"
     inkscape:window-y="0"
     inkscape:window-maximized="1"
     inkscape:current-layer="layer1"
     showgrid="true"><inkscape:grid
       id="grid1"
       units="px"
       originx="0"
       originy="0"
       spacingx="10"
       spacingy="10"
       empcolor="#0099e5"
       empopacity="0.30196078"
       color="#0099e5"
       opacity="0.14901961"
       empspacing="5"
       enabled="true"
       visible="true" /></sodipodi:namedview><linearGradient
     id="SVGID_1_"
     gradientUnits="userSpaceOnUse"
     x1="63.815899"
     y1="56.682899"
     x2="118.4934"
     y2="1.8225"
     gradientTransform="matrix(1,0,0,-1,-53.2974,66.4321)"> <stop
   offset="0"
   style="stop-color:#387EB8"
   id="stop1" /> <stop
   offset="1"
   style="stop-color:#366994"
   id="stop2" /></linearGradient><linearGradient
     id="SVGID_2_"
     gradientUnits="userSpaceOnUse"
     x1="97.044403"
     y1="21.632099"
     x2="155.6665"
     y2="-34.5308"
     gradientTransform="matrix(1,0,0,-1,-53.2974,66.4321)"> <stop
   offset="0"
   style="stop-color:#FFE052"
   id="stop3" /> <stop
   offset="1"
   style="stop-color:#FFC331"
   id="stop4" /></linearGradient><g
     inkscape:groupmode="layer"
     id="layer1"
     inkscape:label="Logo"><g
       id="g1"
       transform="translate(-60.679902,10)"
       sodipodi:insensitive="true"><g
         stroke-linecap="round"
         aria-label="The Rust Programming Language"
         id="g26"
         transform="matrix(1.8859941,0,0,1.8859941,33.736412,-36.16997)"
         style="fill:#000000;fill-opacity:1;stroke:none"><path
           d="m 257.29,70.708 -0.65867,4.888 h -5.6853 v 19.205 h -6.4133 V 75.596 h -6.032 v -4.888 z"
           id="path1"
           style="fill:#000000;fill-opacity:1;stroke:none" /><path
           d="m 270.96,75.7 q 2.3573,0 3.7093,1.4907 1.352,1.456 1.352,4.056 v 13.555 h -6.1707 v -12.445 q 0,-1.2133 -0.38133,-1.664 -0.34667,-0.48533 -1.04,-0.48533 -1.4213,0 -2.7387,2.1147 v 12.48 h -6.1707 v -25.757 l 6.1707,-0.624 v 9.7067 q 1.144,-1.248 2.4267,-1.8373 1.2827,-0.58933 2.8427,-0.58933 z"
           id="path2"
           style="fill:#000000;fill-opacity:1;stroke:none" /><path
           d="m 296.7,85.268 q 0,0.208 -0.104,2.08 h -11.301 q 0.24267,2.1147 1.1787,2.912 0.97067,0.76267 2.7387,0.76267 1.04,0 2.0453,-0.38133 1.04,-0.416 2.2533,-1.248 l 2.496,3.3973 q -1.456,1.2133 -3.328,1.9413 -1.872,0.69333 -4.056,0.69333 -4.7147,0 -7.176,-2.6347 -2.4267,-2.6693 -2.4267,-7.1413 0,-2.808 1.0053,-5.0613 1.04,-2.2533 3.0507,-3.5707 2.0107,-1.3173 4.8533,-1.3173 4.056,0 6.4133,2.5307 2.3573,2.496 2.3573,7.0373 z m -6.0667,-1.7333 q -0.0347,-1.8373 -0.624,-2.8427 -0.58934,-1.0053 -1.976,-1.0053 -1.2827,0 -1.9413,0.90134 -0.65867,0.90133 -0.832,3.1547 h 5.3733 z"
           id="path3"
           style="fill:#000000;fill-opacity:1;stroke:none" /><path
           d="m 316.35,85.927 h -1.768 v 8.8747 h -6.4133 v -24.093 h 8.3547 q 5.096,0 7.592,1.8373 2.5307,1.8373 2.5307,5.6507 0,2.288 -1.0747,3.8133 -1.04,1.5253 -3.3627,2.7387 l 5.9973,10.053 h -7.1413 z m -1.768,-4.368 h 2.1493 q 3.328,0 3.328,-3.3627 0,-1.56 -0.936,-2.288 -0.90133,-0.728 -2.7387,-0.728 h -1.8027 z"
           id="path4"
           style="fill:#000000;fill-opacity:1;stroke:none" /><path
           d="m 346.21,94.801 h -5.3733 l -0.24267,-2.184 q -1.9413,2.808 -5.512,2.808 -2.5653,0 -3.8827,-1.5253 -1.2827,-1.56 -1.2827,-4.2987 V 76.324 h 6.1707 v 12.48 q 0,1.1787 0.34666,1.664 0.38134,0.45067 1.1093,0.45067 0.65867,0 1.2827,-0.45067 0.65866,-0.48533 1.2133,-1.3867 v -12.757 h 6.1707 z"
           id="path5"
           style="fill:#000000;fill-opacity:1;stroke:none" /><path
           d="m 357.29,75.7 q 2.0107,0 3.8133,0.624 1.8373,0.624 3.12,1.6987 l -2.2187,3.3973 q -2.2187,-1.3867 -4.472,-1.3867 -0.97067,0 -1.456,0.312 -0.45067,0.27733 -0.45067,0.79733 0,0.45067 0.24267,0.728 0.24266,0.27733 1.0053,0.624 0.79734,0.312 2.496,0.832 2.8427,0.832 4.1947,2.184 1.352,1.3173 1.352,3.7093 0,1.872 -1.1093,3.2933 -1.0747,1.3867 -3.016,2.1493 -1.9067,0.76267 -4.3333,0.76267 -2.3573,0 -4.4373,-0.728 -2.0453,-0.76267 -3.4667,-2.08 l 2.9467,-3.2933 q 1.0747,0.832 2.288,1.3173 1.248,0.48533 2.496,0.48533 1.1093,0 1.6987,-0.34667 0.624,-0.38133 0.624,-1.1093 0,-0.55467 -0.27734,-0.86667 -0.24266,-0.312 -0.97066,-0.58933 -0.728,-0.312 -2.496,-0.832 -5.3733,-1.5947 -5.3733,-5.8587 0,-1.6293 0.936,-2.9467 0.936,-1.352 2.6693,-2.1147 1.768,-0.76267 4.1947,-0.76267 z"
           id="path6"
           style="fill:#000000;fill-opacity:1;stroke:none" /><path
           d="m 380.01,93.9 q -1.0747,0.76267 -2.496,1.144 -1.4213,0.38133 -2.7733,0.38133 -6.4133,0 -6.4133,-7.072 v -7.8 h -2.392 v -4.2293 h 2.392 v -3.9173 l 6.1707,-0.728 v 4.6453 h 4.1947 l -0.624,4.2293 h -3.5707 v 7.7307 q 0,1.248 0.38134,1.768 0.416,0.52 1.2133,0.52 0.97067,0 1.872,-0.52 z"
           id="path7"
           style="fill:#000000;fill-opacity:1;stroke:none" /><path
           d="m 248.38,107.45 q 4.8533,0 7.5227,2.0453 2.704,2.0107 2.704,5.928 0,4.0907 -2.6,6.24 -2.6,2.1147 -7.0027,2.1147 h -2.4613 v 7.7653 h -6.4133 v -24.093 z m 0.0347,11.752 q 1.8027,0 2.704,-0.90134 0.93601,-0.90133 0.93601,-2.8427 0,-3.5013 -3.7787,-3.5013 h -1.7333 v 7.2453 z"
           id="path8"
           style="fill:#000000;fill-opacity:1;stroke:none" /><path
           d="m 271.45,112.52 q 0.90134,0 1.872,0.312 l -1.0053,5.9627 q -0.90133,-0.27734 -1.664,-0.27734 -1.56,0 -2.392,1.0747 -0.79734,1.04 -1.248,3.1893 v 8.7707 h -6.1707 v -18.477 h 5.3733 l 0.55467,3.5013 q 0.55467,-1.8373 1.8373,-2.9467 1.3173,-1.1093 2.8427,-1.1093 z"
           id="path9"
           style="fill:#000000;fill-opacity:1;stroke:none" /><path
           d="m 282.66,112.45 q 4.3333,0 6.7947,2.6 2.4613,2.6 2.4613,7.28 0,2.9813 -1.1093,5.2 -1.1093,2.2187 -3.224,3.432 -2.08,1.2133 -4.9227,1.2133 -4.3333,0 -6.7947,-2.6 -2.4613,-2.6 -2.4613,-7.28 0,-2.9813 1.1093,-5.2 1.1093,-2.2187 3.1893,-3.432 2.1147,-1.2133 4.9573,-1.2133 z m 0,4.472 q -1.4907,0 -2.2187,1.3173 -0.69334,1.2827 -0.69334,4.056 0,2.8773 0.69334,4.16 0.728,1.248 2.2187,1.248 1.4907,0 2.184,-1.2827 0.728,-1.3173 0.728,-4.0907 0,-2.8427 -0.728,-4.1253 -0.69334,-1.2827 -2.184,-1.2827 z"
           id="path10"
           style="fill:#000000;fill-opacity:1;stroke:none" /><path
           d="m 312.73,114.25 q -1.9067,0.79733 -5.304,0.79733 1.8373,0.728 2.6693,1.872 0.86666,1.1093 0.86666,2.912 0,1.768 -0.97066,3.1547 -0.97067,1.3867 -2.7733,2.184 -1.8027,0.79733 -4.2293,0.79733 -1.2133,0 -2.0453,-0.17333 -0.52,0.34667 -0.52,0.86667 0,0.45066 0.38133,0.728 0.416,0.27733 1.56,0.27733 h 2.704 q 2.184,0 3.848,0.69333 1.664,0.69334 2.5307,1.9413 0.90133,1.2133 0.90133,2.7733 0,2.9467 -2.5653,4.576 -2.5653,1.664 -7.384,1.664 -3.5013,0 -5.512,-0.728 -1.976,-0.728 -2.7733,-2.0453 -0.79734,-1.3173 -0.79734,-3.2587 h 5.512 q 0,0.79733 0.27733,1.2133 0.312,0.45067 1.1093,0.624 0.79733,0.208 2.3573,0.208 2.0453,0 2.808,-0.48533 0.76267,-0.48534 0.76267,-1.3173 0,-0.69333 -0.55467,-1.144 -0.55466,-0.45067 -1.7333,-0.45067 h -2.6347 q -3.016,0 -4.5067,-1.0053 -1.456,-1.04 -1.456,-2.6693 0,-1.04 0.624,-2.0107 0.624,-0.97067 1.664,-1.5947 -1.8027,-0.97067 -2.6,-2.2533 -0.79734,-1.2827 -0.79734,-3.0853 0,-3.224 2.288,-5.0267 2.288,-1.8373 6.1013,-1.8373 2.704,0.104 4.7147,-0.58933 2.0107,-0.728 4.0907,-2.0453 z m -10.019,2.2187 q -1.1093,0 -1.768,0.728 -0.65867,0.69333 -0.65867,1.976 0,1.3867 0.65867,2.1147 0.65866,0.728 1.8027,0.728 2.4267,0 2.4267,-2.912 0,-1.352 -0.624,-1.976 -0.58933,-0.65866 -1.8373,-0.65866 z"
           id="path11"
           style="fill:#000000;fill-opacity:1;stroke:none" /><path
           d="m 325.64,112.52 q 0.90133,0 1.872,0.312 l -1.0053,5.9627 q -0.90134,-0.27734 -1.664,-0.27734 -1.56,0 -2.392,1.0747 -0.79733,1.04 -1.248,3.1893 v 8.7707 h -6.1707 v -18.477 h 5.3733 l 0.55466,3.5013 q 0.55467,-1.8373 1.8373,-2.9467 1.3173,-1.1093 2.8427,-1.1093 z"
           id="path12"
           style="fill:#000000;fill-opacity:1;stroke:none" /><path
           d="m 343.68,125.86 q 0,1.0053 0.24267,1.4907 0.27733,0.48533 0.936,0.728 l -1.248,3.9867 q -1.768,-0.13867 -2.912,-0.728 -1.1093,-0.58933 -1.8027,-1.872 -1.768,2.704 -5.5813,2.704 -2.7387,0 -4.4027,-1.5947 -1.6293,-1.6293 -1.6293,-4.1947 0,-3.0507 2.2533,-4.68 2.2533,-1.6293 6.5173,-1.6293 h 1.5947 v -0.624 q 0,-1.4907 -0.624,-2.0107 -0.624,-0.55466 -2.2533,-0.55466 -0.86667,0 -2.184,0.27733 -1.2827,0.24267 -2.6347,0.69333 l -1.352,-3.9867 q 1.664,-0.69333 3.5707,-1.04 1.9067,-0.38133 3.536,-0.38133 4.16,0 6.0667,1.664 1.9067,1.6293 1.9067,5.0267 z m -8.4933,1.976 q 0.76267,0 1.3867,-0.38133 0.65867,-0.416 1.0747,-1.1093 v -2.9813 h -1.04 q -1.664,0 -2.4613,0.624 -0.79733,0.58933 -0.79733,1.8027 0,0.936 0.48533,1.4907 0.48533,0.55466 1.352,0.55466 z"
           id="path13"
           style="fill:#000000;fill-opacity:1;stroke:none" /><path
           d="m 368.87,112.45 q 2.1493,0 3.4667,1.4907 1.3173,1.456 1.3173,4.056 v 13.555 h -6.1707 v -12.445 q 0,-2.1493 -1.248,-2.1493 -1.2827,0 -2.3573,2.1147 v 12.48 h -6.1707 v -12.445 q 0,-2.1493 -1.248,-2.1493 -1.2827,0 -2.3573,2.1147 v 12.48 h -6.1707 v -18.477 h 5.3733 l 0.45067,2.0453 q 1.0747,-1.352 2.3573,-2.0107 1.3173,-0.65867 3.016,-0.65867 1.456,0 2.5653,0.728 1.1093,0.69333 1.664,2.0453 1.144,-1.4213 2.4613,-2.08 1.3173,-0.69333 3.0507,-0.69333 z"
           id="path14"
           style="fill:#000000;fill-opacity:1;stroke:none" /><path
           d="m 398.52,112.45 q 2.1493,0 3.4667,1.4907 1.3173,1.456 1.3173,4.056 v 13.555 h -6.1707 v -12.445 q 0,-2.1493 -1.248,-2.1493 -1.2827,0 -2.3573,2.1147 v 12.48 h -6.1707 v -12.445 q 0,-2.1493 -1.248,-2.1493 -1.2827,0 -2.3573,2.1147 v 12.48 h -6.1707 v -18.477 h 5.3733 l 0.45067,2.0453 q 1.0747,-1.352 2.3573,-2.0107 1.3173,-0.65867 3.016,-0.65867 1.456,0 2.5653,0.728 1.1093,0.69333 1.664,2.0453 1.144,-1.4213 2.4613,-2.08 1.3173,-0.69333 3.0507,-0.69333 z"
           id="path15"
           style="fill:#000000;fill-opacity:1;stroke:none" /><path
           d="m 413.41,113.07 v 18.477 h -6.1707 V 113.07 Z m -3.0853,-9.9493 q 1.56,0 2.5307,0.97067 1.0053,0.97066 1.0053,2.4267 0,1.456 -1.0053,2.4267 -0.97067,0.97067 -2.5307,0.97067 -1.56003,0 -2.5653,-0.97067 -0.97067,-0.97066 -0.97067,-2.4267 0,-1.456 0.97067,-2.4267 1.0053,-0.97067 2.5653,-0.97067 z"
           id="path16"
           style="fill:#000000;fill-opacity:1;stroke:none" /><path
           d="m 428.95,112.45 q 2.3573,0 3.7093,1.456 1.352,1.456 1.352,4.0907 v 13.555 h -6.1707 v -12.445 q 0,-1.2133 -0.34667,-1.664 -0.34667,-0.48533 -1.04,-0.48533 -1.456,0 -2.7733,2.1147 v 12.48 h -6.1707 v -18.477 h 5.3733 l 0.45067,2.08 q 1.248,-1.3867 2.6,-2.0453 1.352,-0.65867 3.016,-0.65867 z"
           id="path17"
           style="fill:#000000;fill-opacity:1;stroke:none" /><path
           d="m 455.59,114.25 q -1.9067,0.79733 -5.304,0.79733 1.8373,0.728 2.6693,1.872 0.86667,1.1093 0.86667,2.912 0,1.768 -0.97067,3.1547 -0.97067,1.3867 -2.7733,2.184 -1.8027,0.79733 -4.2293,0.79733 -1.2133,0 -2.0453,-0.17333 -0.52,0.34667 -0.52,0.86667 0,0.45066 0.38134,0.728 0.416,0.27733 1.56,0.27733 h 2.704 q 2.184,0 3.848,0.69333 1.664,0.69334 2.5307,1.9413 0.90134,1.2133 0.90134,2.7733 0,2.9467 -2.5653,4.576 -2.5653,1.664 -7.384,1.664 -3.5013,0 -5.512,-0.728 -1.976,-0.728 -2.7733,-2.0453 -0.79733,-1.3173 -0.79733,-3.2587 h 5.512 q 0,0.79733 0.27734,1.2133 0.312,0.45067 1.1093,0.624 0.79734,0.208 2.3573,0.208 2.0453,0 2.808,-0.48533 0.76267,-0.48534 0.76267,-1.3173 0,-0.69333 -0.55467,-1.144 -0.55467,-0.45067 -1.7333,-0.45067 h -2.6347 q -3.016,0 -4.5067,-1.0053 -1.456,-1.04 -1.456,-2.6693 0,-1.04 0.624,-2.0107 0.62401,-0.97067 1.664,-1.5947 -1.8027,-0.97067 -2.6,-2.2533 -0.79733,-1.2827 -0.79733,-3.0853 0,-3.224 2.288,-5.0267 2.288,-1.8373 6.1013,-1.8373 2.704,0.104 4.7147,-0.58933 2.0107,-0.728 4.0907,-2.0453 z m -10.019,2.2187 q -1.1093,0 -1.768,0.728 -0.65866,0.69333 -0.65866,1.976 0,1.3867 0.65866,2.1147 0.65867,0.728 1.8027,0.728 2.4267,0 2.4267,-2.912 0,-1.352 -0.624,-1.976 -0.58933,-0.65866 -1.8373,-0.65866 z"
           id="path18"
           style="fill:#000000;fill-opacity:1;stroke:none" /><path
           d="m 246.54,144.2 v 19.101 h 9.256 l -0.69334,4.992 h -14.976 V 144.2 Z"
           id="path19"
           style="fill:#000000;fill-opacity:1;stroke:none" /><path
           d="m 273.46,162.61 q 0,1.0053 0.24267,1.4907 0.27733,0.48533 0.936,0.728 l -1.248,3.9867 q -1.768,-0.13867 -2.912,-0.728 -1.1093,-0.58934 -1.8027,-1.872 -1.768,2.704 -5.5813,2.704 -2.7387,0 -4.4027,-1.5947 -1.6293,-1.6293 -1.6293,-4.1947 0,-3.0507 2.2533,-4.68 2.2533,-1.6293 6.5173,-1.6293 h 1.5947 v -0.624 q 0,-1.4907 -0.624,-2.0107 -0.624,-0.55466 -2.2533,-0.55466 -0.86666,0 -2.184,0.27733 -1.2827,0.24267 -2.6347,0.69333 l -1.352,-3.9867 q 1.664,-0.69333 3.5707,-1.04 1.9067,-0.38133 3.536,-0.38133 4.16,0 6.0667,1.664 1.9067,1.6293 1.9067,5.0267 z m -8.4933,1.976 q 0.76267,0 1.3867,-0.38133 0.65867,-0.416 1.0747,-1.1093 v -2.9813 h -1.04 q -1.664,0 -2.4613,0.624 -0.79733,0.58933 -0.79733,1.8027 0,0.936 0.48533,1.4907 0.48534,0.55467 1.352,0.55467 z"
           id="path20"
           style="fill:#000000;fill-opacity:1;stroke:none" /><path
           d="m 289.14,149.19 q 2.3573,0 3.7093,1.456 1.352,1.456 1.352,4.0907 v 13.555 h -6.1707 v -12.445 q 0,-1.2133 -0.34667,-1.664 -0.34667,-0.48533 -1.04,-0.48533 -1.456,0 -2.7733,2.1147 v 12.48 h -6.1707 v -18.477 h 5.3733 l 0.45067,2.08 q 1.248,-1.3867 2.6,-2.0453 1.352,-0.65867 3.016,-0.65867 z"
           id="path21"
           style="fill:#000000;fill-opacity:1;stroke:none" /><path
           d="m 315.78,151 q -1.9067,0.79733 -5.304,0.79733 1.8373,0.728 2.6693,1.872 0.86667,1.1093 0.86667,2.912 0,1.768 -0.97067,3.1547 -0.97067,1.3867 -2.7733,2.184 -1.8027,0.79733 -4.2293,0.79733 -1.2133,0 -2.0453,-0.17333 -0.52,0.34666 -0.52,0.86666 0,0.45067 0.38133,0.728 0.416,0.27734 1.56,0.27734 h 2.704 q 2.184,0 3.848,0.69333 1.664,0.69334 2.5307,1.9413 0.90133,1.2133 0.90133,2.7733 0,2.9467 -2.5653,4.576 -2.5653,1.664 -7.384,1.664 -3.5013,0 -5.512,-0.728 -1.976,-0.728 -2.7733,-2.0453 -0.79733,-1.3173 -0.79733,-3.2587 h 5.512 q 0,0.79734 0.27733,1.2133 0.312,0.45067 1.1093,0.624 0.79733,0.208 2.3573,0.208 2.0453,0 2.808,-0.48533 0.76266,-0.48534 0.76266,-1.3173 0,-0.69333 -0.55466,-1.144 -0.55467,-0.45067 -1.7333,-0.45067 h -2.6347 q -3.016,0 -4.5067,-1.0053 -1.456,-1.04 -1.456,-2.6693 0,-1.04 0.624,-2.0107 0.624,-0.97066 1.664,-1.5947 -1.8027,-0.97067 -2.6,-2.2533 -0.7973,-1.28263 -0.79733,-3.0853 0,-3.224 2.288,-5.0267 2.288,-1.8373 6.1013,-1.8373 2.704,0.104 4.7147,-0.58934 2.0107,-0.728 4.0907,-2.0453 z m -10.019,2.2187 q -1.1093,0 -1.768,0.72801 -0.65867,0.69333 -0.65867,1.976 0,1.3867 0.65867,2.1147 0.65867,0.728 1.8027,0.728 2.4267,0 2.4267,-2.912 0,-1.352 -0.624,-1.976 -0.58934,-0.65867 -1.8373,-0.65867 z"
           id="path22"
           style="fill:#000000;fill-opacity:1;stroke:none" /><path
           d="m 333.86,168.29 h -5.3733 l -0.24267,-2.184 q -1.9413,2.808 -5.512,2.808 -2.5653,0 -3.8827,-1.5253 -1.2827,-1.56 -1.2827,-4.2987 v -13.277 h 6.1707 v 12.48 q 0,1.1787 0.34667,1.664 0.38133,0.45067 1.1093,0.45067 0.65867,0 1.2827,-0.45067 0.65866,-0.48533 1.2133,-1.3867 v -12.757 h 6.1707 z"
           id="path23"
           style="fill:#000000;fill-opacity:1;stroke:none" /><path
           d="m 353.29,162.61 q 0,1.0053 0.24267,1.4907 0.27734,0.48533 0.936,0.728 l -1.248,3.9867 q -1.768,-0.13867 -2.912,-0.728 -1.1093,-0.58934 -1.8027,-1.872 -1.768,2.704 -5.5813,2.704 -2.7387,0 -4.4027,-1.5947 -1.6293,-1.6293 -1.6293,-4.1947 0,-3.0507 2.2533,-4.68 2.2533,-1.6293 6.5173,-1.6293 h 1.5947 v -0.624 q 0,-1.4907 -0.624,-2.0107 -0.624,-0.55466 -2.2533,-0.55466 -0.86666,0 -2.184,0.27733 -1.2827,0.24267 -2.6347,0.69333 l -1.352,-3.9867 q 1.664,-0.69333 3.5707,-1.04 1.9067,-0.38133 3.536,-0.38133 4.16,0 6.0667,1.664 1.9067,1.6293 1.9067,5.0267 z m -8.4933,1.976 q 0.76267,0 1.3867,-0.38133 0.65867,-0.416 1.0747,-1.1093 v -2.9813 h -1.04 q -1.664,0 -2.4613,0.624 -0.79733,0.58933 -0.79733,1.8027 0,0.936 0.48533,1.4907 0.48534,0.55467 1.352,0.55467 z"
           id="path24"
           style="fill:#000000;fill-opacity:1;stroke:none" /><path
           d="m 374.83,151 q -1.9067,0.79733 -5.304,0.79733 1.8373,0.728 2.6693,1.872 0.86667,1.1093 0.86667,2.912 0,1.768 -0.97067,3.1547 -0.97066,1.3867 -2.7733,2.184 -1.8027,0.79733 -4.2293,0.79733 -1.2133,0 -2.0453,-0.17333 -0.52,0.34666 -0.52,0.86666 0,0.45067 0.38134,0.728 0.416,0.27734 1.56,0.27734 h 2.704 q 2.184,0 3.848,0.69333 1.664,0.69334 2.5307,1.9413 0.90134,1.2133 0.90134,2.7733 0,2.9467 -2.5653,4.576 -2.5653,1.664 -7.384,1.664 -3.5013,0 -5.512,-0.728 -1.976,-0.728 -2.7733,-2.0453 -0.79733,-1.3173 -0.79733,-3.2587 h 5.512 q 0,0.79734 0.27733,1.2133 0.312,0.45067 1.1093,0.624 0.79734,0.208 2.3573,0.208 2.0453,0 2.808,-0.48533 0.76267,-0.48534 0.76267,-1.3173 0,-0.69333 -0.55467,-1.144 -0.55467,-0.45067 -1.7333,-0.45067 h -2.6347 q -3.016,0 -4.5067,-1.0053 -1.456,-1.04 -1.456,-2.6693 0,-1.04 0.624,-2.0107 0.624,-0.97066 1.664,-1.5947 -1.8027,-0.97067 -2.6,-2.2533 -0.79734,-1.2827 -0.79734,-3.0853 0,-3.224 2.288,-5.0267 2.288,-1.8373 6.1013,-1.8373 2.704,0.104 4.7147,-0.58934 2.0107,-0.728 4.0907,-2.0453 z m -10.019,2.2187 q -1.1093,0 -1.768,0.72801 -0.65866,0.69333 -0.65866,1.976 0,1.3867 0.65866,2.1147 0.65867,0.728 1.8027,0.728 2.4267,0 2.4267,-2.912 0,-1.352 -0.624,-1.976 -0.58933,-0.65867 -1.8373,-0.65867 z"
           id="path25"
           style="fill:#000000;fill-opacity:1;stroke:none" /><path
           d="m 393.08,158.76 q 0,0.208 -0.104,2.08 h -11.301 q 0.24267,2.1147 1.1787,2.912 0.97067,0.76267 2.7387,0.76267 1.04,0 2.0453,-0.38134 1.04,-0.416 2.2533,-1.248 l 2.496,3.3973 q -1.456,1.2133 -3.328,1.9413 -1.872,0.69333 -4.056,0.69333 -4.7147,0 -7.176,-2.6347 -2.4267,-2.6693 -2.4267,-7.1413 0,-2.808 1.0053,-5.0613 1.04,-2.2533 3.0507,-3.5707 2.0107,-1.3173 4.8533,-1.3173 4.056,0 6.4133,2.5307 2.3573,2.496 2.3573,7.0373 z m -6.0667,-1.7333 q -0.0347,-1.8373 -0.624,-2.8427 -0.58933,-1.0053 -1.976,-1.0053 -1.2827,0 -1.9413,0.90133 -0.65867,0.90134 -0.832,3.1547 h 5.3733 z"
           id="path26"
           style="fill:#000000;fill-opacity:1;stroke:none" /></g><path
         d="m 258.81094,12.960182 c -97.56435,0 -176.970364,79.443722 -176.970364,176.970358 0,97.52664 79.443724,176.97037 176.970364,176.97037 97.52664,0 176.97037,-79.44373 176.97037,-176.97037 0,-97.526636 -79.44373,-176.970357 -176.97037,-176.970358 z m -0.26206,15.724096 a 11.605841,11.643184 0 0 1 11.30635,11.643181 11.643186,11.643186 0 0 1 -23.28637,0 11.643184,11.643184 0 0 1 11.98021,-11.643181 z m 26.65664,19.169243 a 143.2752,143.2752 0 0 1 98.08867,69.859109 l -13.73985,30.99819 c -2.35862,5.35358 0.0749,11.64319 5.39112,14.03934 l 26.4322,11.71806 a 143.2752,143.2752 0 0 1 0.29951,24.85929 h -14.7132 c -1.46008,0 -2.05913,0.97339 -2.05913,2.39596 v 6.73886 c 0,15.87365 -8.94772,19.35595 -16.80967,20.21596 -7.48759,0.86107 -15.76144,-3.1447 -16.80968,-7.71221 -4.41775,-24.82156 -11.75559,-30.10046 -23.3618,-39.27205 14.4137,-9.135 29.38943,-22.65079 29.38943,-40.69598 0,-19.50495 -13.36547,-31.78466 -22.46219,-37.81229 C 322.04711,94.762155 307.89631,93.077397 304.07718,93.077397 H 152.07926 A 143.2752,143.2752 0 0 1 232.23401,47.85126 l 17.93278,18.793926 c 4.04339,4.230473 10.74469,4.417756 14.97517,0.336955 z M 119.7284,134.03591 a 11.643184,11.643184 0 0 1 11.30635,11.64318 11.643186,11.643186 0 0 1 -23.28637,0 11.643184,11.643184 0 0 1 11.98021,-11.64318 z m 277.59947,0.52413 a 11.643184,11.643184 0 0 1 11.30634,11.64318 11.643186,11.643186 0 0 1 -23.28637,0 11.643184,11.643184 0 0 1 11.98022,-11.64318 z m -255.66535,1.87191 h 20.29141 v 91.499 h -40.95814 a 143.2752,143.2752 0 0 1 -4.64238,-54.6976 l 25.08373,-11.1566 c 5.35358,-2.39596 7.78708,-8.64823 5.39112,-14.00181 z m 84.6849,0.9734 h 48.33237 c 2.50837,0 17.63329,2.88273 17.63329,14.22643 0,9.39696 -11.60585,12.76648 -21.15331,12.76648 h -44.85083 z m 0,65.74197 h 37.02584 c 3.36951,0 18.08253,0.9734 22.76205,19.76711 1.46009,5.76548 4.71726,24.55942 6.92613,30.58705 2.20888,6.73885 11.1566,20.21598 20.70255,20.21598 h 60.42537 a 143.2752,143.2752 0 0 1 -13.25307,15.34972 l -24.59713,-5.27871 c -5.72795,-1.23545 -11.38122,2.4335 -12.61654,8.16145 l -5.84037,27.2545 a 143.2752,143.2752 0 0 1 -119.46452,-0.56157 l -5.84035,-27.2545 c -1.23546,-5.72795 -6.85125,-9.39696 -12.57921,-8.16145 l -24.07283,5.16649 A 143.2752,143.2752 0 0 1 143.49589,273.71771 H 260.5652 c 1.31033,0 2.20887,-0.22462 2.20887,-1.46007 v -41.40701 c 0,-1.19801 -0.89851,-1.46009 -2.20887,-1.46009 H 226.30989 Z M 172.325,297.97888 a 11.643184,11.643184 0 0 1 11.30635,11.64318 11.643186,11.643186 0 0 1 -23.28637,0 11.643184,11.643184 0 0 1 11.98021,-11.64318 z m 172.4025,0.52413 a 11.643184,11.643184 0 0 1 11.30634,11.64319 11.643185,11.643185 0 0 1 -23.28637,0 11.643184,11.643184 0 0 1 11.98022,-11.64319 z"
         stroke-width="3.74388"
         id="path27"
         style="fill:#000000;fill-opacity:1;stroke:none" /><path
         d="M 425.89115,189.923 A 167.08587,167.08587 0 0 1 258.80528,357.00887 167.08587,167.08587 0 0 1 91.719412,189.923 167.08587,167.08587 0 0 1 258.80528,22.837133 167.08587,167.08587 0 0 1 425.89115,189.923 Z m -3.1447,-16.13581 26.05689,16.13581 -26.05689,16.13581 22.38864,20.92699 -28.67843,10.7447 17.89544,24.89701 -30.28718,4.94187 12.72895,27.92968 -30.66249,-1.08571 7.03834,29.87603 -29.87603,-7.03834 1.08571,30.66249 -27.92968,-12.72895 -4.94187,30.28718 -24.89701,-17.89544 -10.7447,28.67843 -20.92699,-22.38864 -16.13581,26.05689 -16.13581,-26.05689 -20.92699,22.38864 -10.7447,-28.67843 -24.89701,17.89544 -4.94187,-30.28718 -27.92969,12.72895 1.08572,-30.66249 -29.87604,7.03834 7.03835,-29.87603 -30.66249,1.08571 12.72895,-27.92968 L 83.25458,262.62751 101.15002,237.7305 72.471599,226.9858 94.860234,206.05881 68.80334,189.923 94.860234,173.78719 72.471599,152.8602 101.15002,142.1155 83.25458,117.21849 l 30.28718,-4.94187 -12.72895,-27.929685 30.66249,1.085717 -7.03835,-29.876037 29.87604,7.038341 -1.08572,-30.662485 27.92969,12.728946 4.94187,-30.287178 24.89701,17.895444 10.7447,-28.678429 20.92699,22.388641 16.13581,-26.056895 16.13581,26.056895 20.92699,-22.388641 10.7447,28.678429 24.89701,-17.895444 4.94187,30.287178 27.92968,-12.728946 -1.08571,30.662485 29.87603,-7.038341 -7.03834,29.876037 30.66249,-1.085717 -12.72895,27.929685 30.28718,4.94187 -17.89544,24.89701 28.67843,10.7447 z"
         fill-rule="evenodd"
         stroke="#000000"
         stroke-linecap="round"
         stroke-linejoin="round"
         stroke-width="11.2315"
         id="path28"
         style="fill:#000000;fill-opacity:1;stroke:#000000;stroke-opacity:1" /></g></g></svg>
