<?xml version="1.0" encoding="UTF-8" standalone="no"?>
<svg
   version="1.1"
   x="0px"
   y="0px"
   width="1620"
   height="400"
   viewBox="0.21 -0.077 1620 400"
   enable-background="new 0.21 -0.077 110 110"
   xml:space="preserve"
   id="svg4"
   sodipodi:docname="setuptools-light.svg"
   inkscape:version="1.4.3 (0d15f75042, 2025-12-25)"
   inkscape:export-filename="setuptools-light.png"
   inkscape:export-xdpi="96"
   inkscape:export-ydpi="96"
   xmlns:inkscape="http://www.inkscape.org/namespaces/inkscape"
   xmlns:sodipodi="http://sodipodi.sourceforge.net/DTD/sodipodi-0.dtd"
   xmlns="http://www.w3.org/2000/svg"
   xmlns:svg="http://www.w3.org/2000/svg"><defs
     id="defs4"><linearGradient
       id="linearGradient3993"><stop
         offset="0"
         style="stop-color:#a3c0d0;stop-opacity:1"
         id="stop3995" /><stop
         offset="1"
         style="stop-color:#427da1;stop-opacity:1"
         id="stop4001" /></linearGradient><linearGradient
       id="linearGradient2508"><stop
         offset="0"
         style="stop-color:#2e4a5a;stop-opacity:1"
         id="stop2510" /><stop
         offset="1"
         style="stop-color:#6e8796;stop-opacity:1"
         id="stop2512" /></linearGradient><linearGradient
       id="linearGradient3308-4-6-931-761-0"><stop
         id="stop2919-2"
         style="stop-color:#ffffff;stop-opacity:1"
         offset="0" /><stop
         id="stop2921-76"
         style="stop-color:#ffffff;stop-opacity:0"
         offset="1" /></linearGradient><linearGradient
       id="linearGradient3575"><stop
         id="stop3577"
         style="stop-color:#fafafa;stop-opacity:1"
         offset="0" /><stop
         id="stop3579"
         style="stop-color:#e6e6e6;stop-opacity:1"
         offset="1" /></linearGradient><linearGradient
       id="SVGID_2_-3"
       gradientUnits="userSpaceOnUse"
       x1="40.741299"
       y1="104.3706"
       x2="88.484802"
       y2="104.3706"
       gradientTransform="matrix(0.11091436,0,0,0.11091436,70.964949,45.705921)">
	<stop
   offset="0.3045"
   style="stop-color:#1937FF"
   id="stop3-6" />
	<stop
   offset="1"
   style="stop-color:#00C3FF"
   id="stop4-7" />
</linearGradient><linearGradient
       id="SVGID_1_-5"
       gradientUnits="userSpaceOnUse"
       x1="39.481701"
       y1="63.022701"
       x2="162.5183"
       y2="63.022701"
       gradientTransform="matrix(0.11091436,0,0,0.11091436,70.964949,45.705921)">
	<stop
   offset="0.3045"
   style="stop-color:#1937FF"
   id="stop1-3" />
	<stop
   offset="1"
   style="stop-color:#00F7FF"
   id="stop2-5" />
</linearGradient><marker
       id="farrow"
       markerWidth="4"
       markerHeight="3"
       refX="0.050000001"
       refY="1.5"
       orient="auto"
       markerUnits="strokeWidth"><path
         d="M 0,0 V 3 L 4,1.5 Z"
         fill="#ffffff"
         id="path2-3" /></marker><marker
       id="marker1"
       markerWidth="4"
       markerHeight="3"
       refX="0.050000001"
       refY="1.5"
       orient="auto"
       markerUnits="strokeWidth"><path
         d="M 0,0 V 3 L 4,1.5 Z"
         fill="#ffffff"
         id="path1-6" /></marker><marker
       id="marker3"
       markerWidth="4"
       markerHeight="3"
       refX="0.050000001"
       refY="1.5"
       orient="auto"
       markerUnits="strokeWidth"><path
         d="M 0,0 V 3 L 4,1.5 Z"
         fill="#ffffff"
         id="path3-7" /></marker><marker
       id="marker4"
       markerWidth="4"
       markerHeight="3"
       refX="0.050000001"
       refY="1.5"
       orient="auto"
       markerUnits="strokeWidth"><path
         d="M 0,0 V 3 L 4,1.5 Z"
         fill="#ffffff"
         id="path4-5" /></marker><marker
       id="barrow"
       markerWidth="4"
       markerHeight="3"
       refX="0.050000001"
       refY="1.5"
       orient="auto"
       markerUnits="strokeWidth"><path
         d="M 0,0 V 3 L 4,1.5 Z"
         fill="#ffa600"
         id="path5-3" /></marker><marker
       id="marker6"
       markerWidth="4"
       markerHeight="3"
       refX="0.050000001"
       refY="1.5"
       orient="auto"
       markerUnits="strokeWidth"><path
         d="M 0,0 V 3 L 4,1.5 Z"
         fill="#ffa600"
         id="path6-5" /></marker><marker
       id="marker7"
       markerWidth="4"
       markerHeight="3"
       refX="0.050000001"
       refY="1.5"
       orient="auto"
       markerUnits="strokeWidth"><path
         d="M 0,0 V 3 L 4,1.5 Z"
         fill="#ffa600"
         id="path7-6" /></marker><marker
       id="farrow-3"
       markerWidth="4"
       markerHeight="3"
       refX="0.050000001"
       refY="1.5"
       orient="auto"
       markerUnits="strokeWidth"><path
         d="M 0,0 V 3 L 4,1.5 Z"
         fill="#0e3d7e"
         id="path2" /></marker><marker
       id="marker1-6"
       markerWidth="4"
       markerHeight="3"
       refX="0.050000001"
       refY="1.5"
       orient="auto"
       markerUnits="strokeWidth"><path
         d="M 0,0 V 3 L 4,1.5 Z"
         fill="#0e3d7e"
         id="path1" /></marker><marker
       id="marker3-7"
       markerWidth="4"
       markerHeight="3"
       refX="0.050000001"
       refY="1.5"
       orient="auto"
       markerUnits="strokeWidth"><path
         d="M 0,0 V 3 L 4,1.5 Z"
         fill="#0e3d7e"
         id="path3" /></marker><marker
       id="marker4-5"
       markerWidth="4"
       markerHeight="3"
       refX="0.050000001"
       refY="1.5"
       orient="auto"
       markerUnits="strokeWidth"><path
         d="M 0,0 V 3 L 4,1.5 Z"
         fill="#0e3d7e"
         id="path4" /></marker><marker
       id="barrow-3"
       markerWidth="4"
       markerHeight="3"
       refX="0.050000001"
       refY="1.5"
       orient="auto"
       markerUnits="strokeWidth"><path
         d="M 0,0 V 3 L 4,1.5 Z"
         fill="#ffa600"
         id="path5" /></marker><marker
       id="marker6-5"
       markerWidth="4"
       markerHeight="3"
       refX="0.050000001"
       refY="1.5"
       orient="auto"
       markerUnits="strokeWidth"><path
         d="M 0,0 V 3 L 4,1.5 Z"
         fill="#ffa600"
         id="path6" /></marker><marker
       id="marker7-6"
       markerWidth="4"
       markerHeight="3"
       refX="0.050000001"
       refY="1.5"
       orient="auto"
       markerUnits="strokeWidth"><path
         d="M 0,0 V 3 L 4,1.5 Z"
         fill="#ffa600"
         id="path7" /></marker></defs><sodipodi:namedview
     id="namedview4"
     pagecolor="#ffffff"
     bordercolor="#000000"
     borderopacity="0.25"
     inkscape:showpageshadow="2"
     inkscape:pageopacity="0.0"
     inkscape:pagecheckerboard="0"
     inkscape:deskcolor="#d1d1d1"
     inkscape:zoom="0.60929684"
     inkscape:cx="820.61808"
     inkscape:cy="186.2803"
     inkscape:window-width="1920"
     inkscape:window-height="980"
     inkscape:window-x="0"
     inkscape:window-y="0"
     inkscape:window-maximized="1"
     inkscape:current-layer="layer1"
     showgrid="true"><inkscape:grid
       id="grid1"
       units="px"
       originx="0"
       originy="0"
       spacingx="10"
       spacingy="10"
       empcolor="#0099e5"
       empopacity="0.30196078"
       color="#0099e5"
       opacity="0.14901961"
       empspacing="5"
       enabled="true"
       visible="true" /></sodipodi:namedview><linearGradient
     id="SVGID_1_"
     gradientUnits="userSpaceOnUse"
     x1="63.815899"
     y1="56.682899"
     x2="118.4934"
     y2="1.8225"
     gradientTransform="matrix(1,0,0,-1,-53.2974,66.4321)"> <stop
   offset="0"
   style="stop-color:#387EB8"
   id="stop1" /> <stop
   offset="1"
   style="stop-color:#366994"
   id="stop2" /></linearGradient><linearGradient
     id="SVGID_2_"
     gradientUnits="userSpaceOnUse"
     x1="97.044403"
     y1="21.632099"
     x2="155.6665"
     y2="-34.5308"
     gradientTransform="matrix(1,0,0,-1,-53.2974,66.4321)"> <stop
   offset="0"
   style="stop-color:#FFE052"
   id="stop3" /> <stop
   offset="1"
   style="stop-color:#FFC331"
   id="stop4" /></linearGradient><g
     inkscape:groupmode="layer"
     id="layer1"
     inkscape:label="Logo"><g
       id="g1"
       transform="matrix(5.291627,0,0,5.291627,-1844.1807,-1322.5679)"
       sodipodi:insensitive="true"><g
         id="g1751"
         transform="matrix(1.7261103,0,0,1.7261103,291.67419,112.5145)"><path
           id="rect934"
           d="m 56.864,87.986 c -1.2455,-0.01183 -3.6018,0.03564 -3.6018,0.03564 -0.11429,0 -0.20619,0.09589 -0.20619,0.21498 v 1.4624 h -2.1461 v -1.4624 c 0,-0.1191 -0.0919,-0.21498 -0.20619,-0.21498 h -2.559 c -0.11429,0 -0.2067,0.09589 -0.2067,0.21498 v 5.4188 c 0,0.1191 0.09235,0.21498 0.2067,0.21498 h 2.559 c 0.11429,0 0.20619,-0.09587 0.20619,-0.21498 v -1.4619 h 2.1461 v 1.4619 c 0,0.1191 0.09191,0.21498 0.20619,0.21498 h 1.295 v 6.8952 c -0.74253,0.29471 -1.2656,1.0166 -1.2656,1.8666 v 10.45 c 0,1.1133 0.89588,2.0092 2.0092,2.0092 1.1133,0 2.0097,-0.89589 2.0097,-2.0092 v -10.45 c 0,-0.84994 -0.52302,-1.5718 -1.2656,-1.8666 v -6.8952 h 1.4025 c 0.2234,-0.19668 0.4387,-0.98538 1.6319,-1.5885 3.2043,-1.1007 4.5957,1.626 4.5713,1.2495 -0.02611,-0.40191 -0.20364,-2.9223 -3.0014,-4.4008 -1.2189,-0.54811 -2.652,-1.0866 -3.0386,-1.109 -0.03989,-0.02102 -0.33157,-0.03172 -0.74672,-0.03564 z"
           fill="#e5b62f"
           stroke="#e5b62f"
           stroke-width="0.47745"
           style="paint-order:markers fill stroke" /><path
           id="path944"
           d="m 59.665,79.605 c -1.0993,0.01828 -1.9696,0.47364 -2.4975,0.8661 -0.70383,0.52328 -0.92957,0.82263 -1.9942,0.82528 -1.0646,0.0027 -1.2909,-0.2962 -1.9973,-0.81597 -0.70642,-0.51977 -2.0227,-1.1467 -3.6726,-0.70022 -1.65,0.44651 -2.47,1.6516 -2.8179,2.4567 -0.3479,0.80508 -0.39346,1.1774 -1.3141,1.712 -0.92067,0.53461 -1.2667,0.38993 -2.1384,0.29301 -0.87166,-0.09692 -2.3259,0.0172 -3.5316,1.2289 -1.2057,1.2117 -1.3141,2.6671 -1.2128,3.5383 0.10123,0.87118 0.24785,1.2161 -0.28215,2.1394 -0.53002,0.92331 -0.90043,0.96999 -1.7038,1.3219 -0.80337,0.35191 -2.006,1.1771 -2.4443,2.8293 -0.4383,1.6522 0.19712,2.9652 0.72037,3.669 0.52326,0.70383 0.82262,0.92957 0.82527,1.9942 0.0026,1.0646 -0.29621,1.2904 -0.81597,1.9968 -0.51977,0.70643 -1.1462,2.0227 -0.6997,3.6726 0.4465,1.6499 1.6511,2.4705 2.4562,2.8184 0.80508,0.3479 1.1774,0.39347 1.712,1.3141 0.5346,0.92066 0.38993,1.2662 0.29301,2.1378 -0.09692,0.87166 0.01712,2.3264 1.2289,3.5321 1.2117,1.2056 2.6671,1.311 3.5383,1.2098 0.87117,-0.10126 1.2161,-0.24477 2.1394,0.28525 0.92331,0.53002 0.96998,0.90043 1.3219,1.7038 0.3519,0.80334 1.1771,2.0055 2.8293,2.4438 1.6522,0.43829 3.678,-0.39906 3.669,-0.72037 -0.0091,-0.3213 -1.3658,0.23152 -2.7259,-0.62425 -1.3601,-0.85577 -1.2623,-1.3841 -1.5622,-2.0686 -0.29986,-0.68453 -0.83626,-1.9698 -2.3327,-2.8288 -1.4964,-0.859 -2.8761,-0.67281 -3.6184,-0.58653 -0.74233,0.0863 -0.79194,0.23675 -1.558,-0.52555 -0.7661,-0.76231 -0.6133,-0.81116 -0.53072,-1.5539 0.08259,-0.74275 0.26027,-2.1221 -0.60616,-3.6142 -0.86643,-1.4921 -2.1531,-2.0228 -2.8391,-2.3192 -0.686,-0.2964 -0.80341,-0.18822 -1.0857,-1.2314 -0.28229,-1.04318 -0.12923,-1.0134 0.31368,-1.6154 0.44289,-0.60195 1.289,-1.7064 1.2847,-3.4318 -0.0042,-1.7254 -0.85585,-2.829 -1.3017,-3.4287 -0.44588,-0.59974 -0.60063,-0.56665 -0.32349,-1.6113 0.27712,-1.0446 0.39654,-0.93676 1.0811,-1.2366 0.68454,-0.29985 1.9698,-0.83626 2.8288,-2.3327 0.85899,-1.4964 0.67281,-2.8761 0.58653,-3.6184 -0.08624,-0.74233 -0.23624,-0.79194 0.52606,-1.558 0.76231,-0.76611 0.81064,-0.6164 1.5534,-0.53382 0.74274,0.08258 2.1221,0.26337 3.6142,-0.60306 1.4921,-0.86643 2.0202,-2.1531 2.3167,-2.8391 0.29645,-0.68602 0.19132,-0.80341 1.2345,-1.0857 1.0432,-0.28231 1.0129,-0.12921 1.6149,0.31368 0.60196,0.44289 1.7064,1.289 3.4318,1.2847 1.7254,-0.0043 2.8259,-0.85533 3.4256,-1.3012 0.59974,-0.44589 0.56717,-0.60113 1.6118,-0.32401 1.0446,0.27712 0.93934,0.39654 1.2392,1.0811 0.29986,0.68453 0.83678,1.9698 2.3332,2.8288 1.4964,0.859 2.8755,0.67332 3.6179,0.58704 0.74233,-0.08628 0.79194,-0.23676 1.558,0.52555 0.76611,0.7623 0.61382,0.81064 0.53124,1.5534 -0.08258,0.74275 -0.26078,2.1221 0.60565,3.6142 0.86643,1.4921 2.1531,2.0202 2.8391,2.3167 0.68602,0.29645 0.80392,0.19132 1.0862,1.2346 0.28231,1.0432 0.1287,1.0129 -0.31419,1.6149 -0.4429,0.60195 -1.289,1.7064 -1.2847,3.4318 0.0043,1.7254 0.85584,2.8259 1.3017,3.4256 0.44588,0.59974 0.60062,0.56717 0.3235,1.6118 -0.27712,1.0446 -0.39654,0.93986 -1.0811,1.2397 -0.68454,0.29985 -1.9698,0.83626 -2.8288,2.3327 -0.859,1.4964 -0.6728,2.8755 -0.58653,3.6179 0.08628,0.74233 0.23676,0.79194 -0.52555,1.558 -0.76231,0.76611 -0.81116,0.61382 -1.5539,0.53124 -0.74275,-0.0826 -2.1221,-0.26027 -3.6143,0.60616 -1.4921,0.86644 -2.0233,2.1531 -2.3198,2.8391 -0.24633,0.57005 -0.22224,0.74776 -0.80254,0.95343 -0.08286,-0.046 -0.17925,-0.0898 -0.29352,-0.1328 -0.96214,-0.36199 -1.0882,0.12751 -1.8779,0.71571 -0.71013,0.52895 -1.2184,0.5911 -1.1886,1.2888 -0.06706,-0.007 -0.13033,-0.008 -0.18087,-0.002 -0.16123,0.0187 -0.22496,0.0454 -0.39584,-0.0527 -0.17088,-0.0981 -0.1793,-0.16656 -0.24443,-0.31522 -0.06513,-0.14868 -0.21773,-0.37158 -0.52348,-0.45269 -0.30577,-0.0811 -0.6807,0.0739 -0.67903,0.13332 0.0016,0.0594 0.25266,-0.0426 0.50436,0.11576 0.25171,0.15837 0.23338,0.25624 0.28887,0.38292 0.05548,0.1267 0.15508,0.36451 0.43202,0.52349 0.27693,0.15896 0.53183,0.12449 0.66921,0.10851 0.1049,-0.0122 0.13623,-0.0302 0.20774,0.0243 0.21075,0.72266 0.72116,0.6429 1.6056,0.97565 0.96214,0.36199 1.2562,0.7975 2.0459,0.20929 0.57854,-0.43092 0.52042,-0.74207 0.38086,-1.25 1.2857,-0.53767 1.9604,-1.5578 2.267,-2.2676 0.3479,-0.80508 0.39347,-1.1769 1.3141,-1.7115 0.92066,-0.5346 1.2662,-0.39043 2.1379,-0.29351 0.87166,0.0969 2.3264,-0.0167 3.5321,-1.2284 1.2057,-1.2117 1.3136,-2.6676 1.2123,-3.5388 -0.10126,-0.87117 -0.24735,-1.2156 0.28267,-2.1389 0.53002,-0.92331 0.90043,-0.9705 1.7038,-1.3224 0.80334,-0.35189 2.0055,-1.1766 2.4438,-2.8288 0.43829,-1.6522 -0.1971,-2.9652 -0.72037,-3.669 -0.52328,-0.70383 -0.82211,-0.92957 -0.82476,-1.9942 -0.0026,-1.0646 0.2962,-1.2909 0.81597,-1.9973 0.51977,-0.70642 1.1462,-2.0227 0.6997,-3.6726 -0.4465,-1.65 -1.6516,-2.47 -2.4567,-2.8179 -0.80508,-0.3479 -1.1769,-0.39346 -1.7115,-1.3141 -0.5346,-0.92066 -0.39044,-1.2667 -0.29352,-2.1384 0.09692,-0.87167 -0.0167,-2.3259 -1.2283,-3.5316 -1.2117,-1.2056 -2.6676,-1.3141 -3.5388,-1.2128 -0.87117,0.10126 -1.2156,0.24786 -2.1389,-0.28215 -0.92331,-0.53002 -0.9705,-0.90044 -1.3224,-1.7038 -0.3519,-0.8033 -1.1766,-2.006 -2.8288,-2.4442 -0.41304,-0.10957 -0.80507,-0.15182 -1.1715,-0.14573 z"
           fill="#336790"
           style="paint-order:markers fill stroke" /></g><g
         id="g1747"
         transform="matrix(3.7795276,0,0,3.7795276,333.40773,-205.85023)"
         stroke-width="0.22458"><g
           id="text1023"
           fill="#336790"
           aria-label="SETUP"><path
             id="path1713"
             d="m 28.181,134.8 q -0.95916,0 -2.1639,-0.18715 v -1.427 q 1.4095,0.21055 2.1639,0.21055 1.041,0 1.041,-1.1112 0,-0.30997 -0.15206,-0.58485 -0.14621,-0.28073 -0.41524,-0.386 -0.16961,-0.0643 -0.46788,-0.10527 -0.29827,-0.0409 -0.61409,-0.11697 -0.30997,-0.0819 -0.59655,-0.25149 -1.0995,-0.65503 -1.0995,-2.0704 0,-1.0118 0.64334,-1.7019 0.64918,-0.69012 1.661,-0.69012 0.78955,0 2.1639,0.14621 v 1.4095 q -1.4212,-0.15206 -2.1639,-0.15206 -0.22224,0 -0.39185,0.0994 -0.16376,0.0994 -0.25149,0.25734 -0.08773,0.15791 -0.12867,0.32167 -0.03509,0.16375 -0.03509,0.32166 0,0.69013 0.46788,0.90067 0.15206,0.0702 0.69012,0.15791 0.54391,0.0819 0.87728,0.25734 0.46788,0.23979 0.772,0.61994 0.30412,0.38015 0.42109,0.76616 0.11697,0.386 0.11697,0.80124 0,1.1346 -0.70182,1.8247 Q 29.31562,134.8 28.18104,134.8 Z"
             style="font-variant-ligatures:normal;font-variant-caps:normal;font-variant-numeric:normal;font-feature-settings:normal" /><path
             id="path1715"
             d="m 32.036,126.47 h 4.4917 v 1.4036 h -2.9944 v 1.9885 h 2.2458 v 1.4036 h -2.2458 v 2.0353 h 2.9944 v 1.4036 H 32.036 Z"
             style="font-variant-ligatures:normal;font-variant-caps:normal;font-variant-numeric:normal;font-feature-settings:normal" /><path
             id="path1717"
             d="m 42.885,126.47 v 1.4036 h -1.8715 v 6.831 h -1.4972 v -6.831 H 37.6448 V 126.47 Z"
             style="font-variant-ligatures:normal;font-variant-caps:normal;font-variant-numeric:normal;font-feature-settings:normal" /><path
             id="path1719"
             d="m 43.627,126.47 h 1.4972 v 5.2403 q 0,0.54976 0.04094,0.74861 0.08773,0.42109 0.3743,0.67842 0.29242,0.25734 0.70767,0.25734 0.41525,0 0.70182,-0.25734 0.29242,-0.25733 0.38015,-0.67842 0.04094,-0.19885 0.04094,-0.74861 V 126.47 h 1.4972 v 5.2403 q 0,0.82464 -0.09358,1.2223 -0.19885,0.82463 -0.88897,1.3452 -0.68428,0.52052 -1.6376,0.52052 -0.95332,0 -1.6434,-0.52052 -0.68428,-0.52052 -0.88312,-1.3452 -0.09358,-0.3977 -0.09358,-1.2223 z"
             style="font-variant-ligatures:normal;font-variant-caps:normal;font-variant-numeric:normal;font-feature-settings:normal" /><path
             id="path1721"
             d="m 51.482,127.88 v 2.3862 h 0.36261 q 0.50297,0 0.73106,-0.0468 0.3977,-0.0819 0.63164,-0.39185 0.23979,-0.30997 0.23979,-0.75446 0,-0.44449 -0.23979,-0.75446 -0.23394,-0.30997 -0.63164,-0.39185 -0.22809,-0.0468 -0.73106,-0.0468 z m -1.4972,-1.4036 h 1.8481 q 0.86558,0 1.234,0.0877 0.83049,0.19885 1.351,0.87143 0.52636,0.66673 0.52636,1.6376 0,0.97087 -0.52636,1.6434 -0.52052,0.66673 -1.351,0.86558 -0.36846,0.0877 -1.234,0.0877 h -0.35091 v 3.0412 h -1.4972 z"
             style="font-variant-ligatures:normal;font-variant-caps:normal;font-variant-numeric:normal;font-feature-settings:normal" /></g><g
           id="text1661"
           fill="#e5b62f"
           aria-label="TOOLS"><path
             id="path1724"
             d="m 60.834,126.47 v 1.4036 h -1.8715 v 6.831 h -1.4972 v -6.831 H 55.5938 V 126.47 Z"
             style="font-variant-ligatures:normal;font-variant-caps:normal;font-variant-numeric:normal;font-feature-settings:normal" /><path
             id="path1726"
             d="m 63.068,129.08 q -0.08773,0.47958 -0.08773,1.5089 0,1.0293 0.08773,1.5089 0.10527,0.5673 0.386,0.93576 0.28658,0.36261 0.74276,0.36261 0.45618,0 0.73691,-0.36261 0.28658,-0.36846 0.39185,-0.93576 0.08773,-0.48543 0.08773,-1.5089 0,-1.0293 -0.08773,-1.5089 -0.10527,-0.56731 -0.39185,-0.92991 -0.28073,-0.36846 -0.73691,-0.36846 -0.45618,0 -0.74276,0.36846 -0.28073,0.3626 -0.386,0.92991 z m -1.4212,3.55 q -0.16376,-0.64918 -0.16376,-2.0411 0,-1.3919 0.16376,-2.0411 0.23394,-0.94745 0.88312,-1.5557 0.64918,-0.61409 1.6668,-0.61409 1.0176,0 1.6668,0.61409 0.64918,0.60825 0.88312,1.5557 0.16376,0.64919 0.16376,2.0411 0,1.392 -0.16376,2.0411 -0.23394,0.94746 -0.88312,1.5616 -0.64918,0.60825 -1.6668,0.60825 -1.0176,0 -1.6668,-0.60825 -0.64918,-0.61409 -0.88312,-1.5616 z"
             style="font-variant-ligatures:normal;font-variant-caps:normal;font-variant-numeric:normal;font-feature-settings:normal" /><path
             id="path1728"
             d="m 69.051,129.08 q -0.08773,0.47958 -0.08773,1.5089 0,1.0293 0.08773,1.5089 0.10527,0.5673 0.386,0.93576 0.28658,0.36261 0.74276,0.36261 0.45618,0 0.73691,-0.36261 0.28658,-0.36846 0.39185,-0.93576 0.08773,-0.48543 0.08773,-1.5089 0,-1.0293 -0.08773,-1.5089 -0.10527,-0.56731 -0.39185,-0.92991 -0.28073,-0.36846 -0.73691,-0.36846 -0.45618,0 -0.74276,0.36846 -0.28073,0.3626 -0.386,0.92991 z m -1.4212,3.55 q -0.16376,-0.64918 -0.16376,-2.0411 0,-1.3919 0.16376,-2.0411 0.23394,-0.94745 0.88312,-1.5557 0.64918,-0.61409 1.6668,-0.61409 1.0176,0 1.6668,0.61409 0.64918,0.60825 0.88312,1.5557 0.16376,0.64919 0.16376,2.0411 0,1.392 -0.16376,2.0411 -0.23394,0.94746 -0.88312,1.5616 -0.64918,0.60825 -1.6668,0.60825 -1.0176,0 -1.6668,-0.60825 -0.64918,-0.61409 -0.88312,-1.5616 z"
             style="font-variant-ligatures:normal;font-variant-caps:normal;font-variant-numeric:normal;font-feature-settings:normal" /><path
             id="path1730"
             d="m 73.917,134.71 v -8.2347 h 1.4972 v 6.8311 h 3.3687 v 1.4036 z"
             style="font-variant-ligatures:normal;font-variant-caps:normal;font-variant-numeric:normal;font-feature-settings:normal" /><path
             id="path1732"
             d="m 82.029,134.8 q -0.95916,0 -2.1639,-0.18715 v -1.427 q 1.4095,0.21055 2.1639,0.21055 1.041,0 1.041,-1.1112 0,-0.30997 -0.15206,-0.58485 -0.14621,-0.28073 -0.41524,-0.386 -0.16961,-0.0643 -0.46788,-0.10527 -0.29827,-0.0409 -0.61409,-0.11697 -0.30997,-0.0819 -0.59655,-0.25149 -1.0995,-0.65503 -1.0995,-2.0704 0,-1.0118 0.64334,-1.7019 0.64918,-0.69012 1.661,-0.69012 0.78955,0 2.1639,0.14621 v 1.4095 q -1.4212,-0.15206 -2.1639,-0.15206 -0.22224,0 -0.39185,0.0994 -0.16376,0.0994 -0.25149,0.25734 -0.08773,0.15791 -0.12867,0.32167 -0.03509,0.16375 -0.03509,0.32166 0,0.69013 0.46788,0.90067 0.15206,0.0702 0.69012,0.15791 0.54391,0.0819 0.87728,0.25734 0.46788,0.23979 0.772,0.61994 0.30412,0.38015 0.42109,0.76616 0.11697,0.386 0.11697,0.80124 0,1.1346 -0.70182,1.8247 Q 83.16362,134.8 82.02904,134.8 Z"
             style="font-variant-ligatures:normal;font-variant-caps:normal;font-variant-numeric:normal;font-feature-settings:normal" /></g></g></g></g></svg>
