<?xml version="1.0" encoding="UTF-8" standalone="no"?>
<svg
   version="1.1"
   x="0px"
   y="0px"
   width="1360"
   height="400"
   viewBox="0.21 -0.077 1360 400"
   enable-background="new 0.21 -0.077 110 110"
   xml:space="preserve"
   id="svg4"
   sodipodi:docname="urllib3-light.svg"
   inkscape:version="1.4.3 (0d15f75042, 2025-12-25)"
   inkscape:export-filename="urllib3-light.png"
   inkscape:export-xdpi="96"
   inkscape:export-ydpi="96"
   xmlns:inkscape="http://www.inkscape.org/namespaces/inkscape"
   xmlns:sodipodi="http://sodipodi.sourceforge.net/DTD/sodipodi-0.dtd"
   xmlns="http://www.w3.org/2000/svg"
   xmlns:svg="http://www.w3.org/2000/svg"><defs
     id="defs4"><linearGradient
       id="linearGradient3993"><stop
         offset="0"
         style="stop-color:#a3c0d0;stop-opacity:1"
         id="stop3995" /><stop
         offset="1"
         style="stop-color:#427da1;stop-opacity:1"
         id="stop4001" /></linearGradient><linearGradient
       id="linearGradient2508"><stop
         offset="0"
         style="stop-color:#2e4a5a;stop-opacity:1"
         id="stop2510" /><stop
         offset="1"
         style="stop-color:#6e8796;stop-opacity:1"
         id="stop2512" /></linearGradient><linearGradient
       id="linearGradient3308-4-6-931-761-0"><stop
         id="stop2919-2"
         style="stop-color:#ffffff;stop-opacity:1"
         offset="0" /><stop
         id="stop2921-76"
         style="stop-color:#ffffff;stop-opacity:0"
         offset="1" /></linearGradient><linearGradient
       id="linearGradient3575"><stop
         id="stop3577"
         style="stop-color:#fafafa;stop-opacity:1"
         offset="0" /><stop
         id="stop3579"
         style="stop-color:#e6e6e6;stop-opacity:1"
         offset="1" /></linearGradient><linearGradient
       id="SVGID_2_-3"
       gradientUnits="userSpaceOnUse"
       x1="40.741299"
       y1="104.3706"
       x2="88.484802"
       y2="104.3706"
       gradientTransform="matrix(0.11091436,0,0,0.11091436,70.964949,45.705921)">
	<stop
   offset="0.3045"
   style="stop-color:#1937FF"
   id="stop3-6" />
	<stop
   offset="1"
   style="stop-color:#00C3FF"
   id="stop4-7" />
</linearGradient><linearGradient
       id="SVGID_1_-5"
       gradientUnits="userSpaceOnUse"
       x1="39.481701"
       y1="63.022701"
       x2="162.5183"
       y2="63.022701"
       gradientTransform="matrix(0.11091436,0,0,0.11091436,70.964949,45.705921)">
	<stop
   offset="0.3045"
   style="stop-color:#1937FF"
   id="stop1-3" />
	<stop
   offset="1"
   style="stop-color:#00F7FF"
   id="stop2-5" />
</linearGradient></defs><sodipodi:namedview
     id="namedview4"
     pagecolor="#ffffff"
     bordercolor="#000000"
     borderopacity="0.25"
     inkscape:showpageshadow="2"
     inkscape:pageopacity="0.0"
     inkscape:pagecheckerboard="0"
     inkscape:deskcolor="#d1d1d1"
     inkscape:zoom="0.8616759"
     inkscape:cx="811.20987"
     inkscape:cy="102.70683"
     inkscape:window-width="1920"
     inkscape:window-height="980"
     inkscape:window-x="0"
     inkscape:window-y="0"
     inkscape:window-maximized="1"
     inkscape:current-layer="layer1"
     showgrid="true"><inkscape:grid
       id="grid1"
       units="px"
       originx="0"
       originy="0"
       spacingx="10"
       spacingy="10"
       empcolor="#0099e5"
       empopacity="0.30196078"
       color="#0099e5"
       opacity="0.14901961"
       empspacing="5"
       enabled="true"
       visible="true" /></sodipodi:namedview><linearGradient
     id="SVGID_1_"
     gradientUnits="userSpaceOnUse"
     x1="63.815899"
     y1="56.682899"
     x2="118.4934"
     y2="1.8225"
     gradientTransform="matrix(1,0,0,-1,-53.2974,66.4321)"> <stop
   offset="0"
   style="stop-color:#387EB8"
   id="stop1" /> <stop
   offset="1"
   style="stop-color:#366994"
   id="stop2" /></linearGradient><linearGradient
     id="SVGID_2_"
     gradientUnits="userSpaceOnUse"
     x1="97.044403"
     y1="21.632099"
     x2="155.6665"
     y2="-34.5308"
     gradientTransform="matrix(1,0,0,-1,-53.2974,66.4321)"> <stop
   offset="0"
   style="stop-color:#FFE052"
   id="stop3" /> <stop
   offset="1"
   style="stop-color:#FFC331"
   id="stop4" /></linearGradient><g
     inkscape:groupmode="layer"
     id="layer1"
     inkscape:label="Logo"><g
       id="g1"
       transform="translate(-317.81096,-260)"
       sodipodi:insensitive="true"><path
         d="m 404.97619,363.81894 v 173.87488 q 0,24.6334 5.79806,37.03388 10.25554,21.9522 40.21779,21.98572 38.47501,0 52.65178,-31.23581 7.37326,-16.9585 7.37326,-44.70877 v -156.9499 h 76.48086 v 288.22745 h -73.26345 v -40.51942 c -0.7038,0.87139 -2.48009,3.35148 -5.26183,7.9095 a 53.288563,53.288563 0 0 1 -10.05444,11.66315 105.37059,105.37059 0 0 1 -34.18512,21.68409 115.86073,115.86073 0 0 1 -38.60906,5.96564 q -63.67816,0 -85.99903,-46.04936 -12.40049,-25.50478 -12.40049,-75.00617 V 363.81894 Z"
         id="path1"
         style="stroke-width:3.35148"
         sodipodi:insensitive="true" /><path
         d="m 798.40664,357.11598 c 0.9719,0 3.1169,0.2346 6.4684,0.40217 v 77.28518 c -4.7591,-0.53624 -8.982,-0.9049 -12.7021,-1.07248 -3.7202,-0.16757 -6.703,-0.26812 -8.982,-0.26812 q -45.5131,0 -61.0975,29.6271 -8.7474,16.75741 -8.7474,51.34471 v 137.81294 h -75.9111 V 363.81894 h 71.9564 v 50.27223 q 17.4277,-28.85626 30.4314,-39.41343 21.1143,-17.56176 54.9978,-17.56176 z"
         id="path2"
         style="stroke-width:3.35148"
         sodipodi:insensitive="true" /><path
         d="m 922.81364,548.15045 h -76.4473 V 259.923 h 76.4473 z m -76.4473,34.52026 h 76.4473 v 69.57677 h -76.4473 z"
         fill="#cb3b0f"
         id="path3"
         style="stroke-width:3.35148"
         sodipodi:insensitive="true" /><path
         d="M 1031.9715,548.15045 H 955.49064 V 259.923 h 76.48086 z m -76.48086,34.52026 h 76.48086 v 69.57677 h -76.48086 z"
         fill="#ea9b1c"
         id="path4"
         style="stroke-width:3.35148"
         sodipodi:insensitive="true" /><path
         d="m 1141.0958,329.49976 h -76.4473 V 259.923 h 76.4473 z m -76.4473,34.31918 h 76.4473 v 288.22745 h -76.4473 z"
         fill="#577a27"
         id="path5"
         style="stroke-width:3.35148"
         sodipodi:insensitive="true" /><path
         d="m 1445.2763,398.54029 q 32.3753,41.02214 32.3753,105.8398 0,67.02964 -31.9396,111.36975 -31.9397,44.3401 -89.0824,44.17253 -35.8944,0 -57.679,-14.27731 -13.0373,-8.47925 -28.186,-29.6271 v 36.22952 h -74.3359 V 262.83879 h 75.3749 v 138.61729 a 110.39781,110.39781 0 0 1 31.705,-30.69957 q 20.4775,-13.20484 52.1826,-13.20484 57.2098,0 89.5851,40.98862 z m -63.0079,175.65117 q 16.2882,-23.46037 16.2547,-61.90187 0,-30.66606 -7.9765,-50.77495 -15.2493,-38.10635 -56.0368,-38.10635 -41.3238,0 -56.8076,37.30199 -7.9765,19.87429 -8.0101,51.34471 0,36.8663 16.5564,61.36563 16.5563,24.49933 50.2722,24.33176 a 52.283118,52.283118 0 0 0 45.7477,-23.56092 z"
         id="path6"
         style="stroke-width:3.35148"
         sodipodi:insensitive="true" /><path
         d="m 1544.3126,426.5922 q 1.0389,16.9585 5.8315,24.86799 8.6804,14.54543 31.7386,14.54543 a 39.513972,39.513972 0 0 0 18.7683,-4.7591 q 16.9585,-8.98197 16.7574,-30.96769 -0.2011,-21.98572 -16.7574,-28.82275 -10.2891,-4.45747 -38.8772,-5.56346 v -32.07368 q 23.4604,-0.50272 33.0791,-4.49099 16.7574,-7.13865 16.7574,-27.51566 a 26.510222,26.510222 0 0 0 -9.4176,-21.61706 35.391649,35.391649 0 0 0 -23.0247,-7.54084 29.861704,29.861704 0 0 0 -24.4658,10.45663 41.290257,41.290257 0 0 0 -8.6133,27.11349 h -45.3456 a 69.54325,69.54325 0 0 1 24.868,-58.21524 q 19.9748,-16.02009 55.5676,-15.98657 36.4976,0 58.0811,17.32716 a 55.467026,55.467026 0 0 1 21.5501,45.34555 47.121836,47.121836 0 0 1 -8.1106,28.42057 59.354745,59.354745 0 0 1 -21.9522,18.13151 43.569265,43.569265 0 0 1 26.0745,14.54544 q 11.4956,12.46751 11.4956,38.37446 0,35.4922 -24.4658,54.89728 a 91.327883,91.327883 0 0 1 -58.6174,19.43859 q -40.4524,0 -64.9182,-17.82988 -24.4659,-17.82989 -24.4994,-58.08118 z"
         id="path7"
         style="stroke-width:3.35148"
         sodipodi:insensitive="true" /></g></g></svg>
