<?xml version="1.0" encoding="UTF-8" standalone="no"?>
<svg
   version="1.1"
   x="0px"
   y="0px"
   width="1500"
   height="400"
   viewBox="0.21 -0.077 1500 400"
   enable-background="new 0.21 -0.077 110 110"
   xml:space="preserve"
   id="svg4"
   sodipodi:docname="vyper-dark.svg"
   inkscape:version="1.4.3 (0d15f75042, 2025-12-25)"
   inkscape:export-filename="vyper-dark.png"
   inkscape:export-xdpi="96"
   inkscape:export-ydpi="96"
   xmlns:inkscape="http://www.inkscape.org/namespaces/inkscape"
   xmlns:sodipodi="http://sodipodi.sourceforge.net/DTD/sodipodi-0.dtd"
   xmlns="http://www.w3.org/2000/svg"
   xmlns:svg="http://www.w3.org/2000/svg"><defs
     id="defs4"><linearGradient
       id="linearGradient3993"><stop
         offset="0"
         style="stop-color:#a3c0d0;stop-opacity:1"
         id="stop3995" /><stop
         offset="1"
         style="stop-color:#427da1;stop-opacity:1"
         id="stop4001" /></linearGradient><linearGradient
       id="linearGradient2508"><stop
         offset="0"
         style="stop-color:#2e4a5a;stop-opacity:1"
         id="stop2510" /><stop
         offset="1"
         style="stop-color:#6e8796;stop-opacity:1"
         id="stop2512" /></linearGradient><linearGradient
       id="linearGradient3308-4-6-931-761-0"><stop
         id="stop2919-2"
         style="stop-color:#ffffff;stop-opacity:1"
         offset="0" /><stop
         id="stop2921-76"
         style="stop-color:#ffffff;stop-opacity:0"
         offset="1" /></linearGradient><linearGradient
       id="linearGradient3575"><stop
         id="stop3577"
         style="stop-color:#fafafa;stop-opacity:1"
         offset="0" /><stop
         id="stop3579"
         style="stop-color:#e6e6e6;stop-opacity:1"
         offset="1" /></linearGradient><linearGradient
       id="SVGID_2_-3"
       gradientUnits="userSpaceOnUse"
       x1="40.741299"
       y1="104.3706"
       x2="88.484802"
       y2="104.3706"
       gradientTransform="matrix(0.11091436,0,0,0.11091436,70.964949,45.705921)">
	<stop
   offset="0.3045"
   style="stop-color:#1937FF"
   id="stop3-6" />
	<stop
   offset="1"
   style="stop-color:#00C3FF"
   id="stop4-7" />
</linearGradient><linearGradient
       id="SVGID_1_-5"
       gradientUnits="userSpaceOnUse"
       x1="39.481701"
       y1="63.022701"
       x2="162.5183"
       y2="63.022701"
       gradientTransform="matrix(0.11091436,0,0,0.11091436,70.964949,45.705921)">
	<stop
   offset="0.3045"
   style="stop-color:#1937FF"
   id="stop1-3" />
	<stop
   offset="1"
   style="stop-color:#00F7FF"
   id="stop2-5" />
</linearGradient><radialGradient
       id="belly"
       cx="80"
       cy="85"
       r="30"
       gradientUnits="userSpaceOnUse"
       gradientTransform="matrix(4.7619047,0,0,4.7619047,184.68761,78.970629)"><stop
         offset="0%"
         stop-color="#fed7aa"
         id="stop5" /><stop
         offset="100%"
         stop-color="#fdba74"
         id="stop6" /></radialGradient><linearGradient
       id="shell"
       x1="40"
       y1="40"
       x2="120"
       y2="110"
       gradientUnits="userSpaceOnUse"
       gradientTransform="matrix(4.7619047,0,0,4.7619047,184.68761,78.970629)"><stop
         offset="0%"
         stop-color="#f97316"
         id="stop1-36" /><stop
         offset="100%"
         stop-color="#ea580c"
         id="stop2-7" /></linearGradient><linearGradient
       id="claw"
       x1="0"
       y1="0"
       x2="50"
       y2="50"
       gradientUnits="userSpaceOnUse"><stop
         offset="0%"
         stop-color="#fb923c"
         id="stop3-5" /><stop
         offset="100%"
         stop-color="#ea580c"
         id="stop4-3" /></linearGradient></defs><sodipodi:namedview
     id="namedview4"
     pagecolor="#ffffff"
     bordercolor="#000000"
     borderopacity="0.25"
     inkscape:showpageshadow="2"
     inkscape:pageopacity="0.0"
     inkscape:pagecheckerboard="0"
     inkscape:deskcolor="#d1d1d1"
     inkscape:zoom="0.30464842"
     inkscape:cx="1007.719"
     inkscape:cy="267.52149"
     inkscape:window-width="1920"
     inkscape:window-height="980"
     inkscape:window-x="0"
     inkscape:window-y="0"
     inkscape:window-maximized="1"
     inkscape:current-layer="layer1"
     showgrid="true"><inkscape:grid
       id="grid1"
       units="px"
       originx="0"
       originy="0"
       spacingx="10"
       spacingy="10"
       empcolor="#0099e5"
       empopacity="0.30196078"
       color="#0099e5"
       opacity="0.14901961"
       empspacing="5"
       enabled="true"
       visible="true" /></sodipodi:namedview><linearGradient
     id="SVGID_1_"
     gradientUnits="userSpaceOnUse"
     x1="63.815899"
     y1="56.682899"
     x2="118.4934"
     y2="1.8225"
     gradientTransform="matrix(1,0,0,-1,-53.2974,66.4321)"> <stop
   offset="0"
   style="stop-color:#387EB8"
   id="stop1" /> <stop
   offset="1"
   style="stop-color:#366994"
   id="stop2" /></linearGradient><linearGradient
     id="SVGID_2_"
     gradientUnits="userSpaceOnUse"
     x1="97.044403"
     y1="21.632099"
     x2="155.6665"
     y2="-34.5308"
     gradientTransform="matrix(1,0,0,-1,-53.2974,66.4321)"> <stop
   offset="0"
   style="stop-color:#FFE052"
   id="stop3" /> <stop
   offset="1"
   style="stop-color:#FFC331"
   id="stop4" /></linearGradient><g
     inkscape:groupmode="layer"
     id="layer1"
     inkscape:label="Logo"><g
       id="g1"
       sodipodi:insensitive="true"><path
         d="M 212.35301,331.64164 92.047814,211.3705 c -4.900008,-5.09875 -7.600325,-11.9972 -7.600325,-19.69503 V 20.017973 c 0,-9.997517 -10.000328,-19.99503313 -20.000657,-19.99503313 H 24.345048 c -10.000423,0 -20.0008144,9.99751613 -20.0008144,19.99503313 V 219.96833 c 0,10.59752 3.9001627,20.79472 11.4004564,28.29286 L 155.75073,388.2261 c 7.80033,7.80002 18.00066,11.6969 28.30098,11.6969 h 20.00097 c 11.10034,0 20.00066,-8.99689 20.00066,-19.99378 v -19.89691 c 0,-10.29689 -3.9,-20.49378 -11.70033,-28.29067 z"
         fill="#9f4cf2"
         id="path1"
         style="stroke-width:3.12501" /><path
         d="m 364.36138,19.918035 c 0,-10.0974854 -9.90314,-19.99503279 -20.00315,-19.99503279 h -40.10101 c -10.00033,0 -20.00065,9.99751629 -20.00065,19.99503279 V 191.47547 c 0,7.69814 -3.00032,14.59627 -8.00033,19.79503 l -40.30163,40.29007 c -7.80032,7.79814 -11.70064,17.99565 -11.70064,28.29286 v 19.99503 c 0,11.09752 9.00032,19.99628 20.00097,19.99628 h 20.00066 c 10.20064,0 20.50097,-3.9 28.30129,-11.69814 l 60.00135,-59.9851 c 7.50001,-7.49814 11.70314,-17.69565 11.70314,-28.29317 V 19.918035 Z"
         fill="#9f4cf2"
         id="path2"
         style="stroke-width:3.12501" /><path
         d="M 1344.963,299.12065 V 100.08782 h 71.2439 c 17.0375,0 30.9875,2.44938 41.85,7.34814 10.8625,4.68563 18.9563,11.50096 24.2813,20.44628 5.325,8.7322 7.9875,18.95535 7.9875,30.66943 0,7.66751 -1.8125,15.22846 -5.4312,22.68285 -3.4094,7.24157 -8.3063,13.73752 -14.6969,19.48784 -6.175,5.53782 -13.5251,9.58439 -22.0438,12.14033 l 47.9219,86.25796 h -39.2969 l -45.3657,-82.42451 h -29.3907 v 82.42451 z m 37.0594,-112.77456 h 36.4188 c 11.5032,0 20.1282,-2.44938 25.8782,-7.34783 5.75,-4.89875 8.625,-11.3947 8.625,-19.48815 0,-5.32439 -1.275,-10.01002 -3.8312,-14.0569 -2.5563,-4.2597 -6.3907,-7.6672 -11.5032,-10.22314 -5.1094,-2.55563 -11.6063,-3.83376 -19.4875,-3.83376 h -36.1001 z"
         fill="#180c25"
         id="path3"
         style="fill:#ffffff;fill-opacity:1;stroke-width:3.12501" /><path
         d="M 1138.9658,299.12065 V 100.08782 h 142.1658 v 29.7113 h -106.7033 v 50.79633 h 88.1752 v 29.7113 h -88.1752 v 59.10291 h 106.0658 v 29.71099 z"
         fill="#180c25"
         id="path4"
         style="fill:#ffffff;fill-opacity:1;stroke-width:3.12501" /><path
         d="M 930.73418,299.12065 V 100.08782 h 75.39392 c 16.6125,0 30.1375,2.66219 40.575,7.98689 10.6469,5.3247 18.5282,12.35315 23.6407,21.08535 5.325,8.7322 7.9875,18.52971 7.9875,29.39161 0,8.09345 -1.4906,15.6544 -4.475,22.68285 -2.9813,6.81532 -7.4531,12.88533 -13.4157,18.21003 -5.75,5.11157 -13.1,9.15845 -22.0437,12.14002 -8.7344,2.76875 -18.9563,4.15313 -30.672,4.15313 h -39.61253 v 83.38295 z m 37.37819,-113.41363 h 37.05943 c 7.8781,0 14.375,-1.06469 19.4875,-3.19469 5.325,-2.34281 9.2626,-5.53751 11.8188,-9.58408 2.7688,-4.25969 4.1531,-9.05189 4.1531,-14.37658 0,-5.32439 -1.3843,-10.01002 -4.1531,-14.0569 -2.5562,-4.04657 -6.4938,-7.24126 -11.8188,-9.58408 -5.1125,-2.34282 -11.5031,-3.51438 -19.1687,-3.51438 h -37.37823 z"
         fill="#180c25"
         id="path5"
         style="fill:#ffffff;fill-opacity:1;stroke-width:3.12501" /><path
         d="M 778.72456,299.12065 V 220.84927 L 711.95258,100.08782 h 38.65631 l 47.28445,84.02201 41.85007,-84.02201 h 37.05943 l -61.65947,121.08114 v 77.95169 z"
         fill="#180c25"
         id="path6"
         style="fill:#ffffff;fill-opacity:1;stroke-width:3.12501" /><path
         d="M 574.63985,299.75909 504.03661,100.0872 h 37.05944 L 589.018,242.25368 634.38057,100.0872 h 35.78131 l -69.96261,199.67189 z"
         fill="#180c25"
         id="path7"
         style="fill:#ffffff;fill-opacity:1;stroke-width:3.12501" /></g></g></svg>
