<?xml version="1.0" encoding="UTF-8" standalone="no"?>
<svg
   version="1.1"
   x="0px"
   y="0px"
   width="420"
   height="400"
   viewBox="0.21 -0.077 420 400"
   enable-background="new 0.21 -0.077 110 110"
   xml:space="preserve"
   id="svg4"
   sodipodi:docname="editorconfig.svg"
   inkscape:version="1.4.2 (ebf0e940d0, 2025-05-08)"
   inkscape:export-filename="appimage.png"
   inkscape:export-xdpi="122.88"
   inkscape:export-ydpi="122.88"
   xmlns:inkscape="http://www.inkscape.org/namespaces/inkscape"
   xmlns:sodipodi="http://sodipodi.sourceforge.net/DTD/sodipodi-0.dtd"
   xmlns="http://www.w3.org/2000/svg"
   xmlns:svg="http://www.w3.org/2000/svg"><defs
     id="defs4"><linearGradient
       id="linearGradient3993"><stop
         offset="0"
         style="stop-color:#a3c0d0;stop-opacity:1"
         id="stop3995" /><stop
         offset="1"
         style="stop-color:#427da1;stop-opacity:1"
         id="stop4001" /></linearGradient><linearGradient
       id="linearGradient2508"><stop
         offset="0"
         style="stop-color:#2e4a5a;stop-opacity:1"
         id="stop2510" /><stop
         offset="1"
         style="stop-color:#6e8796;stop-opacity:1"
         id="stop2512" /></linearGradient><linearGradient
       id="linearGradient3308-4-6-931-761-0"><stop
         id="stop2919-2"
         style="stop-color:#ffffff;stop-opacity:1"
         offset="0" /><stop
         id="stop2921-76"
         style="stop-color:#ffffff;stop-opacity:0"
         offset="1" /></linearGradient><linearGradient
       id="linearGradient3575"><stop
         id="stop3577"
         style="stop-color:#fafafa;stop-opacity:1"
         offset="0" /><stop
         id="stop3579"
         style="stop-color:#e6e6e6;stop-opacity:1"
         offset="1" /></linearGradient></defs><sodipodi:namedview
     id="namedview4"
     pagecolor="#ffffff"
     bordercolor="#000000"
     borderopacity="0.25"
     inkscape:showpageshadow="2"
     inkscape:pageopacity="0.0"
     inkscape:pagecheckerboard="0"
     inkscape:deskcolor="#d1d1d1"
     inkscape:zoom="1.2069027"
     inkscape:cx="311.12699"
     inkscape:cy="242.35591"
     inkscape:window-width="1920"
     inkscape:window-height="980"
     inkscape:window-x="0"
     inkscape:window-y="0"
     inkscape:window-maximized="1"
     inkscape:current-layer="layer1"
     showgrid="true"><inkscape:grid
       id="grid1"
       units="px"
       originx="0"
       originy="0"
       spacingx="10"
       spacingy="10"
       empcolor="#0099e5"
       empopacity="0.30196078"
       color="#0099e5"
       opacity="0.14901961"
       empspacing="5"
       enabled="true"
       visible="true" /></sodipodi:namedview><linearGradient
     id="SVGID_1_"
     gradientUnits="userSpaceOnUse"
     x1="63.815899"
     y1="56.682899"
     x2="118.4934"
     y2="1.8225"
     gradientTransform="matrix(1,0,0,-1,-53.2974,66.4321)"> <stop
   offset="0"
   style="stop-color:#387EB8"
   id="stop1" /> <stop
   offset="1"
   style="stop-color:#366994"
   id="stop2" /></linearGradient><linearGradient
     id="SVGID_2_"
     gradientUnits="userSpaceOnUse"
     x1="97.044403"
     y1="21.632099"
     x2="155.6665"
     y2="-34.5308"
     gradientTransform="matrix(1,0,0,-1,-53.2974,66.4321)"> <stop
   offset="0"
   style="stop-color:#FFE052"
   id="stop3" /> <stop
   offset="1"
   style="stop-color:#FFC331"
   id="stop4" /></linearGradient><g
     inkscape:groupmode="layer"
     id="layer1"
     inkscape:label="Mark"><g
       id="g4"
       inkscape:label="Icon"
       transform="matrix(40.161301,0,0,40.161301,-3201.4637,-1923.9999)"><g
         id="g2"
         style="clip-rule:evenodd;fill-rule:evenodd;image-rendering:optimizeQuality;shape-rendering:geometricPrecision;text-rendering:geometricPrecision"
         transform="matrix(0.00321696,0,0,0.00321696,79.151401,47.655102)">
    <path
   class="fil0"
   d="m 967,1895 c 46,-30 84,-105 61,-158 -63,27 -60,89 -61,158 z"
   id="path1"
   style="fill:#e3e3f8" />
    <path
   class="fil0"
   d="m 1679,2067 c 50,-16 98,-72 71,-130 -39,27 -64,64 -71,130 z"
   id="path2"
   style="fill:#e3e3f8" />
   </g><g
         id="g6"
         style="clip-rule:evenodd;fill-rule:evenodd;image-rendering:optimizeQuality;shape-rendering:geometricPrecision;text-rendering:geometricPrecision"
         transform="matrix(0.00321696,0,0,0.00321696,79.151401,47.655102)">
    <path
   class="fil1"
   d="m 280,2895 c 0,63 16,131 60,155 162,91 730,20 923,-23 101,-23 183,-98 278,-139 214,-93 369,-168 540,-293 124,-91 321,-347 342,-500 l -169,-38 c -4,172 -43,211 -196,251 -103,28 -304,34 -409,16 -139,-23 -202,-96 -265,-179 -122,-162 27,-275 -166,-286 -203,249 -561,70 -718,45 -67,97 -224,727 -222,871 97,-33 158,3 245,37 308,119 39,224 -84,193 -84,-20 -110,-75 -159,-110 z"
   id="path3"
   style="fill:#fdfdfd" />
    <path
   class="fil1"
   d="m 683,1458 c 125,24 236,76 342,129 173,86 204,74 220,194 2,22 -2,34 61,54 106,33 -61,-26 223,-25 169,1 556,69 681,148 52,33 42,75 218,70 -2,-207 -57,-516 -138,-706 -99,-230 -230,-265 -497,-351 -156,-50 -614,-105 -756,-17 -133,83 -158,182 -282,356 -36,51 -49,90 -72,148 z"
   id="path4"
   style="fill:#fdfdfd" />
    <path
   class="fil1"
   d="m 1784,1883 c 100,41 -5,306 -144,242 -45,-127 62,-199 91,-256 -60,-9 -231,-36 -282,-17 -66,25 -81,166 -47,232 160,314 867,247 792,3 -30,-99 -58,-115 -159,-149 -81,-27 -162,-55 -251,-55 z"
   id="path5"
   style="fill:#fdfdfd" />
    <path
   class="fil1"
   d="m 527,1848 c 80,77 261,89 378,95 15,-155 28,-271 152,-262 61,83 29,181 -35,244 109,-1 172,-83 156,-202 -92,-66 -371,-198 -511,-217 -39,42 -135,272 -140,342 z"
   id="path6"
   style="fill:#fdfdfd" />
   </g><path
         class="fil2"
         d="m 152.754,302.37102 c 6.336,-0.576 22.84801,4.224 24.19201,9.6 -10.27201,1.248 -23.32801,0.288 -24.19201,-9.6 z m -5.664,5.472 c 4.704,3.36 7.2,8.64 15.264,10.56 11.80801,2.976 37.63201,-7.104 8.06401,-18.528 -8.35201,-3.264 -14.20801,-6.72 -23.52001,-3.552 -0.192,-13.82401 14.88,-74.30401 21.312,-83.61601 15.07201,2.4 49.44001,19.584 68.92801,-4.32 18.528,1.056 4.224,11.904 15.936,27.456 6.048,7.968 12.09601,14.976 25.44001,17.184 10.08,1.728 29.376,1.152 39.264,-1.536 14.688,-3.84 18.432,-7.584 18.816,-24.096 l 16.224,3.648 c -2.016,14.688 -20.928,39.264 -32.832,48 -16.416,12.00001 -31.296,19.20001 -51.84,28.12801 -9.12001,3.936 -16.99201,11.136 -26.68801,13.344 -18.528,4.128 -73.056,10.944 -88.60801,2.208 -4.224,-2.304 -5.76,-8.832 -5.76,-14.88 z m 134.30402,-79.48801 c 0.672,-6.336 3.072,-9.888 6.816,-12.48 2.592,5.568 -2.016,10.944 -6.816,12.48 z m 10.08,-17.664 c 8.544,0 16.32,2.688 24.096,5.28 9.696,3.264 12.384,4.8 15.264,14.304 7.2,23.424 -60.672,29.856 -76.03201,-0.288 -3.264,-6.336 -1.824,-19.872 4.512,-22.272 4.896,-1.824 21.31201,0.768 27.07201,1.632 -2.784,5.472 -13.056,12.384 -8.736,24.576 13.344,6.144 23.424,-19.296 13.824,-23.232 z m -78.43201,1.152 c 0.096,-6.624 -0.192,-12.576 5.856,-15.168 2.208,5.088 -1.44,12.288 -5.856,15.168 z m -42.24,-4.512 c 0.48,-6.72 9.696,-28.80001 13.44,-32.83201 13.44,1.824 40.224,14.496 49.056,20.83201 1.536,11.424 -4.512,19.296 -14.976,19.392 6.144,-6.048 9.216,-15.456 3.36,-23.42401 -11.904,-0.864 -13.152,10.27201 -14.592,25.15201 -11.232,-0.576 -28.608,-1.728 -36.288,-9.12 z m -9.60001,-7.68 C 157.65,189.859 157.65,174.595 172.72201,173.347 l -7.68001,21.40801 c -2.016,4.608 -2.016,3.552 -3.84,4.896 z M 185.77801,169.891 c 2.208,-5.568 3.456,-9.312 6.912,-14.208 11.904,-16.704 14.304,-26.208 27.072,-34.176 13.632,-8.448 57.60001,-3.168 72.57601,1.632 25.632,8.256 38.208,11.616 47.712,33.696 7.776,18.24 13.056,47.90401 13.248,67.77601 -16.896,0.48 -15.936,-3.552 -20.928,-6.72 -12,-7.584 -49.152,-14.112 -65.376,-14.208 -27.26401,-0.096 -11.23201,5.568 -21.40801,2.4 -6.048,-1.92 -5.664,-3.072 -5.856,-5.184 -1.536,-11.52001 -4.512,-10.36801 -21.12,-18.62401 -10.176,-5.088 -20.832,-10.08 -32.832,-12.384 z m 169.92001,-4.704 c -1.824,-6.048 1.536,-5.664 7.39201,-9.792 3.36,-2.4 6.048,-4.896 10.176,-7.2 15.456,-8.64 44.256,-10.08 56.544,0.192 4.992,4.128 13.152,12.192 11.904,22.752 -2.592,21.024 -16.992,32.54401 -28.8,42.14401 -12,9.792 -31.968,19.872 -52.608,13.152 -1.72801,-4.224 -0.38401,-31.008 -2.40001,-40.89601 -1.824,-8.832 -0.864,-9.792 4.22401,-15.072 14.976,-15.552 47.424,-26.88 65.856,-13.536 7.776,5.76 5.568,7.968 9.6,12.384 4.992,-5.376 -4.32,-23.424 -38.688,-22.272 -23.328,0.768 -33.408,19.008 -43.20001,18.144 z M 215.92201,110.563 c 0.48,-13.344005 12.768,-40.992008 25.056,-50.592009 14.88,-11.520001 30.43201,-22.368002 53.28001,-9.408001 5.664,3.168 5.376,4.800001 5.952,12.672001 0.48,7.584001 -0.192,10.368002 -2.112,16.512002 -15.168,48.960007 -27.84,20.832007 -76.41601,32.448007 1.824,-15.936005 15.648,-30.144007 23.328,-37.536007 13.152,-12.768002 22.65601,-21.024003 42.43201,-18.336002 5.472,9.120001 6.048,14.880001 -0.576,25.536002 -8.832,14.208002 -11.04,13.344002 -9.696,23.040007 6.912,-1.728 9.024,-8.448005 12.192,-15.168006 19.296,-40.320004 -8.736,-45.216004 -25.92001,-37.824004 -11.52,4.896001 -32.064,27.552003 -38.784,41.184005 -1.344,2.688 -2.784,6.144 -4.032,9.120005 z m 76.03201,2.016 c 2.016,-12 13.92,-14.976005 13.92,-51.936009 0,-15.936001 -19.584,-30.240003 -45.21601,-19.584002 -21.984,9.024001 -25.344,15.936002 -37.056,33.600004 -11.04,16.704001 -10.656,35.040007 -20.16,50.496007 -2.784,4.416 -5.28,5.952 -8.352,10.368 -2.208,3.264 -3.84,7.392 -6.048,11.232 -4.512,7.392 -9.12,12.768 -12.768,21.6 -11.52001,0.288 -21.21601,0.48 -22.36801,12.384 -1.536,16.32001 6.144,20.35201 6.144,26.49601 -0.096,6.624 -26.976,73.44 -19.488,113.28001 2.112,10.944 9.312,11.04 20.832,12.384 27.74401,3.36 63.74401,2.208 88.60801,-7.776 l 45.12001,-21.6 c 11.424,-6.432 30.624,-18.62401 39.168,-27.55201 6.048,-6.24 9.216,-11.52 14.4,-18.912 7.104,-10.368 7.296,-10.176 8.832,-24.288 9.40801,1.728 26.97601,5.856 32.83201,10.944 -0.672,6.624 -3.936,3.456 -3.936,9.408 3.744,0.096 9.984,-4.608 11.52,-9.792 -3.936,-5.76 -8.064,-4.8 -13.728,-9.408 4.512,-3.552 12.672,-5.184 18.912,-7.776 13.44,-5.568 36.384,-22.464 42.048,-37.82401 4.512,-12.384 1.152,-33.024 -6.144,-41.088 -7.68,-8.448 -25.536,-12.768 -40.128,-12.768 -17.376,0 -35.328,12.48 -49.34401,17.856 -5.376,-4.704 -5.76,-10.08 -9.696,-15.264 -4.512,-6.144 -33.888,-21.504 -47.904,-24.48 z"
         id="path7"
         style="clip-rule:evenodd;fill:#020202;fill-rule:evenodd;stroke-width:0.096;image-rendering:optimizeQuality;shape-rendering:geometricPrecision;text-rendering:geometricPrecision"
         transform="matrix(0.03351,0,0,0.03351,75.123163,46.652383)" /><path
         class="fil3"
         d="m 355.69802,165.187 c 9.79201,0.864 19.87201,-17.376 43.20001,-18.144 34.368,-1.152 43.68,16.896 38.688,22.272 -4.032,-4.416 -1.824,-6.624 -9.6,-12.384 -18.432,-13.344 -50.88,-2.016 -65.856,13.536 -5.08801,5.28 -6.04801,6.24 -4.22401,15.072 2.016,9.88801 0.672,36.67201 2.40001,40.89601 20.64,6.72 40.608,-3.36 52.608,-13.152 11.808,-9.6 26.208,-21.12001 28.8,-42.14401 1.248,-10.56 -6.912,-18.624 -11.904,-22.752 -12.288,-10.272 -41.088,-8.832 -56.544,-0.192 -4.128,2.304 -6.816,4.8 -10.176,7.2 -5.85601,4.128 -9.21601,3.744 -7.39201,9.792 z"
         id="path8"
         style="clip-rule:evenodd;fill:#fdf2f2;fill-rule:evenodd;stroke-width:0.096;image-rendering:optimizeQuality;shape-rendering:geometricPrecision;text-rendering:geometricPrecision"
         transform="matrix(0.03351,0,0,0.03351,75.123163,46.652383)" /><path
         class="fil4"
         d="m 215.92201,110.563 4.704,-8.352 c 1.248,-2.976005 2.688,-6.432005 4.032,-9.120005 6.72,-13.632002 27.264,-36.288004 38.784,-41.184005 17.18401,-7.392 45.21601,-2.496 25.92001,37.824004 -3.168,6.720001 -5.28,13.440006 -12.192,15.168006 -1.344,-9.696005 0.864,-8.832005 9.696,-23.040007 6.624,-10.656001 6.048,-16.416001 0.576,-25.536002 -19.776,-2.688001 -29.28001,5.568 -42.43201,18.336002 -7.68,7.392 -21.504,21.600002 -23.328,37.536007 48.57601,-11.616 61.24801,16.512 76.41601,-32.448007 1.92,-6.144 2.592,-8.928001 2.112,-16.512002 -0.576,-7.872 -0.288,-9.504001 -5.952,-12.672001 -22.848,-12.960001 -38.40001,-2.112 -53.28001,9.408001 -12.288,9.600001 -24.576,37.248004 -25.056,50.592009 z"
         id="path9"
         style="clip-rule:evenodd;fill:#fef3f3;fill-rule:evenodd;stroke-width:0.096;image-rendering:optimizeQuality;shape-rendering:geometricPrecision;text-rendering:geometricPrecision"
         transform="matrix(0.03351,0,0,0.03351,75.123163,46.652383)" /><path
         class="fil5"
         d="m 161.202,199.65101 c 1.824,-1.344 1.824,-0.288 3.84,-4.896 L 172.72201,173.347 C 157.65,174.595 157.65,189.859 161.202,199.65101 Z"
         id="path10"
         style="clip-rule:evenodd;fill:#efefef;fill-rule:evenodd;stroke-width:0.096;image-rendering:optimizeQuality;shape-rendering:geometricPrecision;text-rendering:geometricPrecision"
         transform="matrix(0.03351,0,0,0.03351,75.123163,46.652383)" /><path
         class="fil6"
         d="m 176.94601,311.97102 c -1.344,-5.376 -17.85601,-10.176 -24.19201,-9.6 0.864,9.888 13.92,10.848 24.19201,9.6 z"
         id="path11"
         style="clip-rule:evenodd;fill:#faf1f1;fill-rule:evenodd;stroke-width:0.096;image-rendering:optimizeQuality;shape-rendering:geometricPrecision;text-rendering:geometricPrecision"
         transform="matrix(0.03351,0,0,0.03351,75.123163,46.652383)" /></g></g></svg>
