<?xml version="1.0" encoding="UTF-8" standalone="no"?>
<svg
   version="1.1"
   viewBox="0 0 380 400"
   id="svg104"
   sodipodi:docname="flatpak-new.svg"
   inkscape:version="1.4.2 (ebf0e940d0, 2025-05-08)"
   width="380"
   height="400"
   xmlns:inkscape="http://www.inkscape.org/namespaces/inkscape"
   xmlns:sodipodi="http://sodipodi.sourceforge.net/DTD/sodipodi-0.dtd"
   xmlns:xlink="http://www.w3.org/1999/xlink"
   xmlns="http://www.w3.org/2000/svg"
   xmlns:svg="http://www.w3.org/2000/svg"
   xmlns:rdf="http://www.w3.org/1999/02/22-rdf-syntax-ns#"
   xmlns:cc="http://creativecommons.org/ns#"
   xmlns:dc="http://purl.org/dc/elements/1.1/">
  <sodipodi:namedview
     id="namedview104"
     pagecolor="#ffffff"
     bordercolor="#000000"
     borderopacity="0.25"
     inkscape:showpageshadow="2"
     inkscape:pageopacity="0.0"
     inkscape:pagecheckerboard="0"
     inkscape:deskcolor="#d1d1d1"
     inkscape:zoom="1.4667969"
     inkscape:cx="144.8735"
     inkscape:cy="142.14647"
     inkscape:window-width="1920"
     inkscape:window-height="980"
     inkscape:window-x="0"
     inkscape:window-y="0"
     inkscape:window-maximized="1"
     inkscape:current-layer="layer1"
     showgrid="true">
    <inkscape:grid
       id="grid104"
       units="px"
       originx="0"
       originy="0"
       spacingx="10"
       spacingy="10"
       empcolor="#0099e5"
       empopacity="0.30196078"
       color="#0099e5"
       opacity="0.14901961"
       empspacing="5"
       enabled="true"
       visible="true" />
  </sodipodi:namedview>
  <title
     id="title1">Tux</title>
  <defs
     id="tux_fx">
    <linearGradient
       id="gradient_belly_shadow">
      <stop
         offset="0"
         stop-color="#000000"
         id="stop1" />
      <stop
         offset="1"
         stop-color="#000000"
         stop-opacity="0.25"
         id="stop2" />
    </linearGradient>
    <linearGradient
       id="gradient_wing_tip_right_shadow">
      <stop
         offset="0"
         stop-color="#110800"
         id="stop3" />
      <stop
         offset="0.59"
         stop-color="#a65a00"
         stop-opacity="0.8"
         id="stop4" />
      <stop
         offset="1"
         stop-color="#ff921e"
         stop-opacity="0"
         id="stop5" />
    </linearGradient>
    <linearGradient
       id="gradient_wing_tip_right_glare_1">
      <stop
         offset="0"
         stop-color="#7c7c7c"
         id="stop6" />
      <stop
         offset="1"
         stop-color="#7c7c7c"
         stop-opacity="0.33"
         id="stop7" />
    </linearGradient>
    <linearGradient
       id="gradient_wing_tip_right_glare_2">
      <stop
         offset="0"
         stop-color="#7c7c7c"
         id="stop8" />
      <stop
         offset="1"
         stop-color="#7c7c7c"
         stop-opacity="0.33"
         id="stop9" />
    </linearGradient>
    <linearGradient
       id="gradient_foot_left_layer_1">
      <stop
         offset="0"
         stop-color="#b98309"
         id="stop10" />
      <stop
         offset="1"
         stop-color="#382605"
         id="stop11" />
    </linearGradient>
    <linearGradient
       id="gradient_foot_left_glare">
      <stop
         offset="0"
         stop-color="#ebc40c"
         id="stop12" />
      <stop
         offset="1"
         stop-color="#ebc40c"
         stop-opacity="0"
         id="stop13" />
    </linearGradient>
    <linearGradient
       id="gradient_foot_right_shadow">
      <stop
         offset="0"
         stop-color="#000000"
         id="stop14" />
      <stop
         offset="1"
         stop-color="#000000"
         stop-opacity="0"
         id="stop15" />
    </linearGradient>
    <linearGradient
       id="gradient_foot_right_layer_1">
      <stop
         offset="0"
         stop-color="#3e2a06"
         id="stop16" />
      <stop
         offset="1"
         stop-color="#ad780a"
         id="stop17" />
    </linearGradient>
    <linearGradient
       id="gradient_foot_right_glare">
      <stop
         offset="0"
         stop-color="#f3cd0c"
         id="stop18" />
      <stop
         offset="1"
         stop-color="#f3cd0c"
         stop-opacity="0"
         id="stop19" />
    </linearGradient>
    <linearGradient
       id="gradient_eyeball">
      <stop
         offset="0"
         stop-color="#fefefc"
         id="stop20" />
      <stop
         offset="0.75"
         stop-color="#fefefc"
         id="stop21" />
      <stop
         offset="1"
         stop-color="#d4d4d4"
         id="stop22" />
    </linearGradient>
    <linearGradient
       id="gradient_pupil_left_glare">
      <stop
         offset="0"
         stop-color="#757574"
         stop-opacity="0"
         id="stop23" />
      <stop
         offset="0.25"
         stop-color="#757574"
         id="stop24" />
      <stop
         offset="0.5"
         stop-color="#757574"
         id="stop25" />
      <stop
         offset="1"
         stop-color="#757574"
         stop-opacity="0"
         id="stop26" />
    </linearGradient>
    <linearGradient
       id="gradient_pupil_right_glare_2">
      <stop
         offset="0"
         stop-color="#949494"
         stop-opacity="0.39"
         id="stop27" />
      <stop
         offset="0.5"
         stop-color="#949494"
         id="stop28" />
      <stop
         offset="1"
         stop-color="#949494"
         stop-opacity="0.39"
         id="stop29" />
    </linearGradient>
    <linearGradient
       id="gradient_eyelid_left">
      <stop
         offset="0"
         stop-color="#c8c8c8"
         id="stop30" />
      <stop
         offset="1"
         stop-color="#797978"
         id="stop31" />
    </linearGradient>
    <linearGradient
       id="gradient_eyelid_right">
      <stop
         offset="0"
         stop-color="#747474"
         id="stop32" />
      <stop
         offset="0.13"
         stop-color="#8c8c8c"
         id="stop33" />
      <stop
         offset="0.25"
         stop-color="#a4a4a4"
         id="stop34" />
      <stop
         offset="0.5"
         stop-color="#d4d4d4"
         id="stop35" />
      <stop
         offset="0.62"
         stop-color="#d4d4d4"
         id="stop36" />
      <stop
         offset="1"
         stop-color="#7c7c7c"
         id="stop37" />
    </linearGradient>
    <linearGradient
       id="gradient_eyebrow">
      <stop
         offset="0"
         stop-color="#646464"
         stop-opacity="0"
         id="stop38" />
      <stop
         offset="0.31"
         stop-color="#646464"
         stop-opacity="0.58"
         id="stop39" />
      <stop
         offset="0.47"
         stop-color="#646464"
         id="stop40" />
      <stop
         offset="0.73"
         stop-color="#646464"
         stop-opacity="0.26"
         id="stop41" />
      <stop
         offset="1"
         stop-color="#646464"
         stop-opacity="0"
         id="stop42" />
    </linearGradient>
    <linearGradient
       id="gradient_beak_base">
      <stop
         offset="0"
         stop-color="#020204"
         id="stop43" />
      <stop
         offset="0.73"
         stop-color="#020204"
         id="stop44" />
      <stop
         offset="1"
         stop-color="#5c5c5c"
         id="stop45" />
    </linearGradient>
    <linearGradient
       id="gradient_mandible_lower">
      <stop
         offset="0"
         stop-color="#d2940a"
         id="stop46" />
      <stop
         offset="0.75"
         stop-color="#d89c08"
         id="stop47" />
      <stop
         offset="0.87"
         stop-color="#b67e07"
         id="stop48" />
      <stop
         offset="1"
         stop-color="#946106"
         id="stop49" />
    </linearGradient>
    <linearGradient
       id="gradient_mandible_upper">
      <stop
         offset="0"
         stop-color="#ad780a"
         id="stop50" />
      <stop
         offset="0.12"
         stop-color="#d89e08"
         id="stop51" />
      <stop
         offset="0.25"
         stop-color="#edb80b"
         id="stop52" />
      <stop
         offset="0.39"
         stop-color="#ebc80d"
         id="stop53" />
      <stop
         offset="0.53"
         stop-color="#f5d838"
         id="stop54" />
      <stop
         offset="0.77"
         stop-color="#f6d811"
         id="stop55" />
      <stop
         offset="1"
         stop-color="#f5cd31"
         id="stop56" />
    </linearGradient>
    <linearGradient
       id="gradient_nares">
      <stop
         offset="0"
         stop-color="#3a2903"
         id="stop57" />
      <stop
         offset="0.55"
         stop-color="#735208"
         id="stop58" />
      <stop
         offset="1"
         stop-color="#ac8c04"
         id="stop59" />
    </linearGradient>
    <linearGradient
       id="gradient_beak_corner">
      <stop
         offset="0"
         stop-color="#f5ce2d"
         id="stop60" />
      <stop
         offset="1"
         stop-color="#d79b08"
         id="stop61" />
    </linearGradient>
    <radialGradient
       id="fill_belly_shadow_left"
       href="#gradient_belly_shadow"
       xlink:href="#gradient_belly_shadow"
       gradientUnits="userSpaceOnUse"
       cx="0"
       cy="0"
       r="1"
       gradientTransform="matrix(19,0,0,18,61.18,121.19)" />
    <radialGradient
       id="fill_belly_shadow_right"
       href="#gradient_belly_shadow"
       xlink:href="#gradient_belly_shadow"
       gradientUnits="userSpaceOnUse"
       cx="0"
       cy="0"
       r="1"
       gradientTransform="matrix(23.6,0,0,18,125.74,131.6)" />
    <radialGradient
       id="fill_belly_shadow_middle"
       href="#gradient_belly_shadow"
       xlink:href="#gradient_belly_shadow"
       gradientUnits="userSpaceOnUse"
       cx="0"
       cy="0"
       r="1"
       gradientTransform="matrix(9.35,0,0,10,94.21,127.47)" />
    <linearGradient
       id="fill_foot_left_base"
       href="#gradient_foot_left_layer_1"
       xlink:href="#gradient_foot_left_layer_1"
       gradientUnits="userSpaceOnUse"
       x1="23.18"
       y1="193.00999"
       x2="64.309998"
       y2="262.01999" />
    <linearGradient
       id="fill_foot_left_glare"
       href="#gradient_foot_left_glare"
       xlink:href="#gradient_foot_left_glare"
       gradientUnits="userSpaceOnUse"
       x1="64.470001"
       y1="210.83"
       x2="77.410004"
       y2="235.21001" />
    <linearGradient
       id="fill_foot_right_shadow"
       href="#gradient_foot_right_shadow"
       xlink:href="#gradient_foot_right_shadow"
       gradientUnits="userSpaceOnUse"
       x1="146.92999"
       y1="211.96001"
       x2="150.2"
       y2="235.73" />
    <linearGradient
       id="fill_foot_right_base"
       href="#gradient_foot_right_layer_1"
       xlink:href="#gradient_foot_right_layer_1"
       gradientUnits="userSpaceOnUse"
       x1="151.5"
       y1="253.02"
       x2="192.94"
       y2="185.84" />
    <linearGradient
       id="fill_foot_right_glare"
       href="#gradient_foot_right_glare"
       xlink:href="#gradient_foot_right_glare"
       gradientUnits="userSpaceOnUse"
       x1="162.81"
       y1="180.67"
       x2="161.59"
       y2="191.64" />
    <radialGradient
       id="fill_wing_tip_right_shadow_lower"
       href="#gradient_wing_tip_right_shadow"
       xlink:href="#gradient_wing_tip_right_shadow"
       gradientUnits="userSpaceOnUse"
       cx="0"
       cy="0"
       r="1"
       gradientTransform="matrix(18.990102,5.0883824,-5.3420251,19.936709,169.71,194.53)" />
    <radialGradient
       id="fill_wing_tip_right_shadow_upper"
       href="#gradient_wing_tip_right_shadow"
       xlink:href="#gradient_wing_tip_right_shadow"
       gradientUnits="userSpaceOnUse"
       cx="0"
       cy="0"
       r="1"
       gradientTransform="matrix(19.722395,-0.83350987,0.62745474,14.846747,169.71,189.89)" />
    <radialGradient
       id="fill_wing_tip_right_glare_1"
       href="#gradient_wing_tip_right_glare_1"
       xlink:href="#gradient_wing_tip_right_glare_1"
       gradientUnits="userSpaceOnUse"
       cx="0"
       cy="0"
       r="1"
       gradientTransform="matrix(6.3735675,2.771306,-1.2799845,2.9437628,184.65,176.62)" />
    <linearGradient
       id="fill_wing_tip_right_glare_2"
       href="#gradient_wing_tip_right_glare_2"
       xlink:href="#gradient_wing_tip_right_glare_2"
       gradientUnits="userSpaceOnUse"
       x1="165.69"
       y1="173.58"
       x2="168.27"
       y2="173.47" />
    <radialGradient
       id="fill_eyeball_left"
       href="#gradient_eyeball"
       xlink:href="#gradient_eyeball"
       gradientUnits="userSpaceOnUse"
       cx="0"
       cy="0"
       r="1"
       gradientTransform="matrix(10.239439,-0.10723107,0.16419757,15.67914,86.49,51.41)" />
    <linearGradient
       id="fill_pupil_left_glare"
       href="#gradient_pupil_left_glare"
       xlink:href="#gradient_pupil_left_glare"
       gradientUnits="userSpaceOnUse"
       x1="84.290001"
       y1="46.639999"
       x2="89.32"
       y2="55.630001" />
    <radialGradient
       id="fill_eyelid_left"
       href="#gradient_eyelid_left"
       xlink:href="#gradient_eyelid_left"
       gradientUnits="userSpaceOnUse"
       cx="0"
       cy="0"
       r="1"
       gradientTransform="matrix(6.1669645,-1.015406,0.93742278,5.6933416,84.89,43.74)" />
    <linearGradient
       id="fill_eyebrow_left"
       href="#gradient_eyebrow"
       xlink:href="#gradient_eyebrow"
       gradientUnits="userSpaceOnUse"
       x1="83.589996"
       y1="32.509998"
       x2="94.480003"
       y2="43.630001" />
    <radialGradient
       id="fill_eyeball_right"
       href="#gradient_eyeball"
       xlink:href="#gradient_eyeball"
       gradientUnits="userSpaceOnUse"
       cx="0"
       cy="0"
       r="1"
       gradientTransform="matrix(13.633269,-0.42844275,0.4925207,15.672263,118.06,51.41)" />
    <linearGradient
       id="fill_pupil_right_glare"
       href="#gradient_pupil_right_glare_2"
       xlink:href="#gradient_pupil_right_glare_2"
       gradientUnits="userSpaceOnUse"
       x1="117.87"
       y1="47.25"
       x2="123.66"
       y2="54.110001" />
    <linearGradient
       id="fill_eyelid_right"
       href="#gradient_eyelid_right"
       xlink:href="#gradient_eyelid_right"
       gradientUnits="userSpaceOnUse"
       x1="112.9"
       y1="36.23"
       x2="131.32001"
       y2="47.009998" />
    <linearGradient
       id="fill_eyebrow_right"
       href="#gradient_eyebrow"
       xlink:href="#gradient_eyebrow"
       gradientUnits="userSpaceOnUse"
       x1="119.16"
       y1="31.559999"
       x2="131.42"
       y2="43.139999" />
    <radialGradient
       id="fill_beak_base"
       href="#gradient_beak_base"
       xlink:href="#gradient_beak_base"
       gradientUnits="userSpaceOnUse"
       cx="0"
       cy="0"
       r="1"
       gradientTransform="matrix(9.2551544,-6.7242633,6.1012109,8.3975964,97.64,60.12)" />
    <radialGradient
       id="fill_mandible_lower_base"
       href="#gradient_mandible_lower"
       xlink:href="#gradient_mandible_lower"
       gradientUnits="userSpaceOnUse"
       cx="0"
       cy="0"
       r="1"
       gradientTransform="matrix(25.101425,-10.346061,7.2670121,17.631093,109.77,70.61)" />
    <linearGradient
       id="fill_mandible_upper_base"
       href="#gradient_mandible_upper"
       xlink:href="#gradient_mandible_upper"
       gradientUnits="userSpaceOnUse"
       x1="78.089996"
       y1="69.260002"
       x2="126.77"
       y2="68.879997" />
    <radialGradient
       id="fill_naris_left"
       href="#gradient_nares"
       xlink:href="#gradient_nares"
       gradientUnits="userSpaceOnUse"
       cx="0"
       cy="0"
       r="1"
       gradientTransform="matrix(1.32,0,0,1.42,92.11,59.88)" />
    <radialGradient
       id="fill_naris_right"
       href="#gradient_nares"
       xlink:href="#gradient_nares"
       gradientUnits="userSpaceOnUse"
       cx="0"
       cy="0"
       r="1"
       gradientTransform="matrix(2.78,0,0,1.62,104.65,59.7)" />
    <linearGradient
       id="fill_beak_corner"
       href="#gradient_beak_corner"
       xlink:href="#gradient_beak_corner"
       gradientUnits="userSpaceOnUse"
       x1="126.74"
       y1="67.489998"
       x2="126.74"
       y2="71.089996" />
    <filter
       id="blur_belly_shadow_left"
       x="-0.049918752"
       y="-0.045849252"
       width="1.0998375"
       height="1.0916985">
      <feGaussianBlur
         stdDeviation="0.64 0.55"
         id="feGaussianBlur61" />
    </filter>
    <filter
       id="blur_belly_shadow_right"
       x="-0.05074719"
       y="-0.073202617"
       width="1.1014944"
       height="1.1464052">
      <feGaussianBlur
         stdDeviation="0.98"
         id="feGaussianBlur62" />
    </filter>
    <filter
       id="blur_belly_shadow_middle"
       x="-0.087319426"
       y="-0.081681684"
       width="1.1746387"
       height="1.1633635">
      <feGaussianBlur
         stdDeviation="0.68"
         id="feGaussianBlur63" />
    </filter>
    <filter
       id="blur_belly_shadow_lower"
       x="-0.81953782"
       width="2.6390758"
       y="-0.057993427"
       height="1.1159869">
      <feGaussianBlur
         stdDeviation="1.25"
         id="feGaussianBlur64" />
    </filter>
    <filter
       id="blur_belly_glare"
       x="-0.49197012"
       width="1.9839402"
       y="-0.59291106"
       height="2.185822">
      <feGaussianBlur
         stdDeviation="1.78 2.19"
         id="feGaussianBlur65" />
    </filter>
    <filter
       id="blur_head_glare"
       x="-0.29258275"
       width="1.5851655"
       y="-0.30859163"
       height="1.6171833">
      <feGaussianBlur
         stdDeviation="1.73"
         id="feGaussianBlur66" />
    </filter>
    <filter
       id="blur_neck_glare"
       x="-0.17840844"
       width="1.3568169"
       y="-0.1601733"
       height="1.3203466">
      <feGaussianBlur
         stdDeviation="0.78"
         id="feGaussianBlur67" />
    </filter>
    <filter
       id="blur_wing_left_glare"
       x="-0.1014502"
       width="1.2029004"
       y="-0.042861972"
       height="1.0857239">
      <feGaussianBlur
         stdDeviation="0.98"
         id="feGaussianBlur68" />
    </filter>
    <filter
       id="blur_wing_right_glare"
       x="-0.11789708"
       width="1.2357942"
       y="-0.040211942"
       height="1.080424">
      <feGaussianBlur
         stdDeviation="1.19 1.17"
         id="feGaussianBlur69" />
    </filter>
    <filter
       id="blur_foot_left_layer_1"
       x="-0.10746297"
       width="1.2149259"
       y="-0.1084514"
       height="1.2169029">
      <feGaussianBlur
         stdDeviation="3.38"
         id="feGaussianBlur70" />
    </filter>
    <filter
       id="blur_foot_left_layer_2"
       x="-0.075378262"
       y="-0.069657497"
       width="1.1507565"
       height="1.139315">
      <feGaussianBlur
         stdDeviation="2.1 2.06"
         id="feGaussianBlur71" />
    </filter>
    <filter
       id="blur_foot_left_glare"
       x="-0.033862434"
       y="-0.018667962"
       width="1.0677249"
       height="1.0373359">
      <feGaussianBlur
         stdDeviation="0.32"
         id="feGaussianBlur72" />
    </filter>
    <filter
       id="blur_foot_right_shadow"
       x="-0.076044023"
       y="-0.068073295"
       width="1.152088"
       height="1.1361465">
      <feGaussianBlur
         stdDeviation="1.95 1.9"
         id="feGaussianBlur73" />
    </filter>
    <filter
       id="blur_foot_right_layer_1"
       x="-0.14509234"
       width="1.2901847"
       y="-0.14307408"
       height="1.2861482">
      <feGaussianBlur
         stdDeviation="4.12"
         id="feGaussianBlur74" />
    </filter>
    <filter
       id="blur_foot_right_layer_2"
       x="-0.11510966"
       width="1.2302192"
       y="-0.12497624"
       height="1.2499526">
      <feGaussianBlur
         stdDeviation="3.12 3.37"
         id="feGaussianBlur75" />
    </filter>
    <filter
       id="blur_foot_right_glare"
       x="-0.020750739"
       width="1.0415015"
       y="-0.12827013"
       height="1.2565403">
      <feGaussianBlur
         stdDeviation="0.41"
         id="feGaussianBlur76" />
    </filter>
    <filter
       id="blur_wing_tip_right_shadow_lower"
       x="-0.20043875"
       width="1.4008775"
       y="-0.23394804"
       height="1.4678961">
      <feGaussianBlur
         stdDeviation="2.45"
         id="feGaussianBlur77" />
    </filter>
    <filter
       id="blur_wing_tip_right_shadow_upper"
       x="-0.09162914"
       width="1.1832583"
       y="-0.10698003"
       height="1.2139601">
      <feGaussianBlur
         stdDeviation="1.12 0.81"
         id="feGaussianBlur78" />
    </filter>
    <filter
       id="blur_wing_tip_right_glare"
       x="-0.070171066"
       width="1.1403421"
       y="-0.14997803"
       height="1.2999561">
      <feGaussianBlur
         stdDeviation="0.88"
         id="feGaussianBlur79" />
    </filter>
    <filter
       id="blur_pupil_left_glare"
       x="-0.23332936"
       width="1.4666587"
       y="-0.14543878"
       height="1.2908775">
      <feGaussianBlur
         stdDeviation="0.44"
         id="feGaussianBlur80" />
    </filter>
    <filter
       id="blur_eyebrow_left"
       x="-0.023848306"
       y="-0.02652286"
       width="1.0476966"
       height="1.0530457">
      <feGaussianBlur
         stdDeviation="0.12"
         id="feGaussianBlur81" />
    </filter>
    <filter
       id="blur_pupil_right_glare"
       x="-0.17958932"
       width="1.3591785"
       y="-0.18232284"
       height="1.3646457">
      <feGaussianBlur
         stdDeviation="0.45"
         id="feGaussianBlur82" />
    </filter>
    <filter
       id="blur_eyebrow_right"
       x="-0.023600604"
       y="-0.02557377"
       width="1.0472012"
       height="1.0511475">
      <feGaussianBlur
         stdDeviation="0.13"
         id="feGaussianBlur83" />
    </filter>
    <filter
       id="blur_beak_shadow_lower"
       x="-0.076201893"
       width="1.1524038"
       y="-0.12887719"
       height="1.2577544">
      <feGaussianBlur
         stdDeviation="1.75"
         id="feGaussianBlur84" />
    </filter>
    <filter
       id="blur_beak_shadow_upper"
       x="-0.036392432"
       y="-0.074088611"
       width="1.0727849"
       height="1.1481771">
      <feGaussianBlur
         stdDeviation="0.8 0.74"
         id="feGaussianBlur85" />
    </filter>
    <filter
       id="blur_mandible_lower_glare"
       x="-0.15436868"
       width="1.3087374"
       y="-0.21067211"
       height="1.4213442">
      <feGaussianBlur
         stdDeviation="0.77"
         id="feGaussianBlur86" />
    </filter>
    <filter
       id="blur_mandible_upper_shadow"
       x="-0.034221467"
       y="-0.078978971"
       width="1.0684429"
       height="1.1579579">
      <feGaussianBlur
         stdDeviation="0.65"
         id="feGaussianBlur87" />
    </filter>
    <filter
       id="blur_mandible_upper_glare"
       x="-0.16064714"
       width="1.3212943"
       y="-0.13003772"
       height="1.2600754">
      <feGaussianBlur
         stdDeviation="0.73"
         id="feGaussianBlur88" />
    </filter>
    <filter
       id="blur_naris_left"
       x="-0.12244099"
       width="1.244882"
       y="-0.11124302"
       height="1.222486">
      <feGaussianBlur
         stdDeviation="0.1"
         id="feGaussianBlur89" />
    </filter>
    <filter
       id="blur_naris_right"
       x="-0.049122259"
       y="-0.093498014"
       width="1.0982445"
       height="1.186996">
      <feGaussianBlur
         stdDeviation="0.1"
         id="feGaussianBlur90" />
    </filter>
    <filter
       id="blur_beak_corner"
       x="-0.11091169"
       width="1.2218235"
       y="-0.090640128"
       height="1.1812803">
      <feGaussianBlur
         stdDeviation="0.23"
         id="feGaussianBlur91" />
    </filter>
    <clipPath
       id="clip_body">
      <path
         id="use91"
         fill="#020204"
         d="m 106.95,0 c -6,0 -12.02,1.18 -17.46,4.12 -5.78,3.11 -10.52,8.09 -13.43,13.97 -2.92,5.88 -4.06,12.16 -4.24,19.08 -0.33,13.14 0.3,26.92 1.29,39.41 0.26,3.8 0.74,6.02 0.25,9.93 -1.62,8.3 -8.88,13.88 -12.76,21.17 -4.27,8.04 -6.07,17.13 -9.29,25.65 -2.95,7.79 -7.09,15.1 -9.88,22.95 -3.91,10.97 -5.08,23.03 -2.5,34.39 1.97,8.66 6.08,16.78 11.62,23.73 -0.8,1.44 -1.58,2.91 -2.4,4.34 -2.57,4.43 -5.71,8.64 -7.17,13.55 -0.73,2.45 -1.02,5.07 -0.55,7.59 0.47,2.52 1.75,4.93 3.75,6.53 1.31,1.04 2.9,1.72 4.53,2.1 1.63,0.37 3.32,0.46 5,0.43 6.37,-0.14 12.55,-2.07 18.71,-3.69 3.66,-0.96 7.34,-1.81 11.03,-2.58 13.14,-2.69 27.8,-1.61 39.99,0.15 4.13,0.63 8.23,1.44 12.29,2.43 6.36,1.54 12.69,3.5 19.23,3.69 1.72,0.05 3.46,-0.03 5.14,-0.4 1.68,-0.38 3.31,-1.06 4.65,-2.13 2.01,-1.6 3.29,-4.02 3.76,-6.54 0.47,-2.52 0.18,-5.15 -0.56,-7.61 -1.48,-4.92 -4.65,-9.11 -7.27,-13.52 -1.04,-1.75 -2,-3.53 -3.03,-5.28 7.9,-8.87 14.26,-19.13 17.94,-30.4 4.01,-12.3 4.75,-25.55 3.06,-38.38 -1.69,-12.83 -5.76,-25.27 -11.11,-37.05 -6.72,-14.76 -12.37,-20.1 -16.47,-33.07 -4.42,-14.02 -0.77,-30.61 -4.06,-43.32 -1.17,-4.32 -3.04,-8.45 -5.45,-12.23 -2.82,-4.43 -6.4,-8.39 -10.65,-11.47 C 124.13,2.62 115.61,0 106.95,0 Z" />
    </clipPath>
    <clipPath
       id="clip_wing_left">
      <path
         id="use92"
         fill="#020204"
         d="m 63.98,100.91 c -6.1,6.92 -12.37,13.63 -15.81,21.12 -1.71,3.8 -2.51,7.93 -3.68,11.93 -1.32,4.54 -3.12,8.94 -5.14,13.22 -1.87,3.95 -3.93,7.81 -5.98,11.66 -1.5,2.81 -3.02,5.67 -3.54,8.81 -0.41,2.48 -0.18,5.04 0.46,7.47 0.63,2.43 1.64,4.75 2.79,6.98 4.88,9.55 12.21,17.77 20.89,24.07 3.94,2.85 8.15,5.32 12.58,7.35 2.4,1.09 4.92,2.07 7.56,2.11 1.32,0.03 2.65,-0.19 3.86,-0.72 1.2,-0.53 2.28,-1.38 3,-2.49 0.88,-1.36 1.18,-3.05 1,-4.66 -0.18,-1.61 -0.81,-3.15 -1.65,-4.53 -2.06,-3.38 -5.31,-5.83 -8.44,-8.25 -6.76,-5.23 -13.29,-10.76 -19.55,-16.58 -1.76,-1.65 -3.53,-3.34 -4.76,-5.42 -1.2,-2.02 -1.85,-4.32 -2.29,-6.63 -1.21,-6.33 -0.9,-12.99 1.25,-19.07 0.85,-2.38 1.96,-4.65 3.04,-6.93 1.86,-3.95 3.62,-7.98 6.07,-11.6 3.05,-4.51 7.13,-8.33 9.61,-13.17 2.1,-4.09 2.95,-8.68 3.76,-13.2 0.64,-3.54 1.85,-7 2.47,-10.54 -1.21,2.3 -5.11,6.07 -7.5,9.07 z" />
    </clipPath>
    <clipPath
       id="clip_wing_right">
      <path
         id="use93"
         fill="#020204"
         d="m 162.76,127.12 c 5.24,4.22 8.57,10.59 9.6,17.24 0.8,5.18 0.28,10.51 -0.89,15.62 -1.17,5.12 -2.97,10.06 -4.77,15 -0.71,1.96 -1.43,3.95 -1.71,6.02 -0.29,2.08 -0.11,4.27 0.89,6.11 1.15,2.11 3.29,3.56 5.59,4.24 2.27,0.68 4.72,0.66 7.02,0.09 2.3,-0.57 6.17,-1.31 8.04,-2.77 4.75,-3.69 5.88,-10.1 7.01,-15.72 1.17,-5.87 0.6,-12.02 -0.43,-17.95 -1.41,-8.09 -3.78,-15.99 -6.79,-23.62 -2.22,-5.62 -5.06,-10.98 -8.44,-15.96 -3.32,-4.89 -8.02,-8.7 -11.5,-13.48 -1.21,-1.66 -2.66,-3.38 -3.84,-5.06 -2.56,-3.62 -1.98,-2.94 -3.57,-5.29 -1.15,-1.7 -2.97,-2.28 -4.88,-3.02 -1.92,-0.74 -4.06,-0.96 -6.04,-0.41 -2.6,0.73 -4.73,2.79 -5.86,5.24 -1.13,2.46 -1.33,5.28 -0.89,7.95 0.57,3.44 2.14,6.64 3.92,9.64 2,3.39 4.32,6.66 7.35,9.18 3.16,2.63 6.98,4.37 10.19,6.95 z" />
    </clipPath>
    <clipPath
       id="clip_foot_left">
      <path
         id="use94"
         fill="url(#fill_foot_left_base)"
         d="m 34.98,175.33 c 1.38,-0.57 2.93,-0.68 4.39,-0.41 1.47,0.27 2.86,0.91 4.09,1.74 2.47,1.68 4.3,4.12 6.05,6.54 4.03,5.54 7.9,11.2 11.42,17.08 2.85,4.78 5.46,9.71 8.76,14.18 2.15,2.93 4.57,5.64 6.73,8.55 2.16,2.92 4.07,6.08 5.03,9.58 1.25,4.55 0.76,9.56 -1.4,13.75 -1.52,2.95 -3.86,5.48 -6.7,7.19 -2.84,1.71 -5.83,2.47 -9.15,2.47 -5.27,0 -10.42,-2.83 -15.32,-4.78 C 38.9,247.24 28.06,246 17.77,242.9 14.61,241.95 11.5,240.82 8.32,239.95 6.9,239.56 5.47,239.22 4.13,238.61 2.79,238.01 1.54,237.1 0.8,235.84 0.23,234.86 0,233.71 0,232.58 c 0,-1.14 0.28,-2.26 0.67,-3.32 0.77,-2.13 2.02,-4.06 2.86,-6.17 1.37,-3.44 1.62,-7.23 1.43,-10.93 -0.18,-3.69 -0.78,-7.36 -1.03,-11.05 -0.12,-1.65 -0.16,-3.32 0.16,-4.95 0.31,-1.62 1.01,-3.21 2.2,-4.35 1.1,-1.06 2.55,-1.69 4.05,-2 1.49,-0.31 3.03,-0.32 4.55,-0.29 1.52,0.03 3.05,0.12 4.57,-0.01 1.52,-0.12 3.05,-0.46 4.37,-1.22 1.26,-0.72 2.29,-1.79 3.14,-2.96 0.85,-1.17 1.54,-2.45 2.25,-3.72 0.7,-1.26 1.43,-2.52 2.36,-3.64 0.92,-1.12 2.06,-2.09 3.4,-2.64 z"
         style="fill:url(#linearGradient1)" />
    </clipPath>
    <clipPath
       id="clip_foot_right">
      <path
         id="use95"
         fill="url(#fill_foot_right_base)"
         d="m 213.47,222.92 c -2.26,2.68 -5.4,4.45 -8.53,6.05 -5.33,2.71 -10.86,5.1 -15.87,8.37 -3.36,2.19 -6.46,4.76 -9.36,7.53 -2.48,2.37 -4.83,4.9 -7.61,6.91 -2.81,2.03 -6.05,3.5 -9.48,4.01 -0.95,0.14 -1.9,0.21 -2.86,0.21 -3.24,0 -6.48,-0.78 -9.46,-2.08 -2.7,-1.17 -5.3,-2.86 -6.86,-5.36 -1.56,-2.52 -1.92,-5.59 -1.92,-8.56 -0.01,-5.23 0.96,-10.41 1.87,-15.57 0.76,-4.29 1.48,-8.58 1.95,-12.91 0.85,-7.86 0.84,-15.81 0.28,-23.71 -0.1,-1.32 -0.21,-2.65 -0.01,-3.96 0.2,-1.31 0.74,-2.62 1.74,-3.48 0.93,-0.8 2.17,-1.16 3.4,-1.22 1.22,-0.07 2.44,0.12 3.65,0.3 2.85,0.42 5.73,0.74 8.52,1.48 1.76,0.46 3.48,1.08 5.23,1.56 2.94,0.79 6.01,1.17 9.02,0.82 3.25,-0.38 6.41,-1.6 9.68,-1.52 1.34,0.03 2.67,0.28 3.95,0.69 1.3,0.41 2.59,1 3.55,1.98 0.73,0.74 1.24,1.67 1.62,2.64 0.57,1.44 0.88,2.98 1.01,4.52 0.11,1.37 0.09,2.76 0.35,4.11 0.43,2.21 1.6,4.24 3.04,5.97 1.45,1.74 3.18,3.21 4.91,4.66 1.73,1.45 3.46,2.89 5.32,4.16 0.87,0.6 1.77,1.16 2.6,1.81 0.83,0.66 1.59,1.42 2.11,2.34 0.45,0.81 0.69,1.72 0.69,2.65 0,0.52 -0.07,1.04 -0.23,1.56 -0.45,1.43 -1.28,2.82 -2.3,4.04 z"
         style="fill:url(#linearGradient2)" />
    </clipPath>
    <clipPath
       id="clip_wing_tip_right">
      <path
         id="use96"
         fill="#020204"
         d="m 189.55,178.72 c -0.35,-0.95 -0.97,-1.79 -1.72,-2.47 -0.75,-0.68 -1.64,-1.2 -2.57,-1.6 -1.86,-0.79 -3.89,-1.09 -5.89,-1.46 -1.87,-0.35 -3.74,-0.78 -5.62,-1.1 -1.96,-0.33 -3.98,-0.55 -5.92,-0.11 -1.69,0.38 -3.26,1.26 -4.54,2.43 -1.28,1.17 -2.28,2.63 -3,4.21 -1.27,2.79 -1.67,5.92 -1.43,8.97 0.18,2.27 0.76,4.61 2.25,6.32 1.21,1.39 2.92,2.26 4.68,2.78 3.04,0.9 6.35,0.85 9.36,-0.13 4.97,-1.67 9.37,-4.98 12.35,-9.29 0.98,-1.43 1.82,-2.98 2.2,-4.66 0.29,-1.28 0.3,-2.66 -0.15,-3.89 z" />
    </clipPath>
    <clipPath
       id="clip_eye_left">
      <path
         id="use97"
         fill="url(#fill_eyeball_left)"
         d="m 84.45,38.28 c -1.53,0.08 -3,0.79 -4.12,1.84 -1.13,1.05 -1.92,2.43 -2.41,3.88 -0.97,2.92 -0.75,6.08 -0.53,9.15 0.2,2.77 0.41,5.6 1.45,8.18 0.52,1.3 1.25,2.51 2.22,3.51 0.97,0.99 2.2,1.76 3.55,2.09 1.26,0.32 2.62,0.26 3.86,-0.13 1.25,-0.4 2.38,-1.11 3.32,-2.02 1.36,-1.33 2.27,-3.07 2.8,-4.9 0.53,-1.83 0.68,-3.75 0.65,-5.66 -0.04,-2.38 -0.35,-4.77 -1.09,-7.03 -0.75,-2.26 -1.94,-4.4 -3.6,-6.11 -0.8,-0.83 -1.72,-1.55 -2.75,-2.06 -1.04,-0.51 -2.2,-0.8 -3.35,-0.74 z"
         style="fill:url(#radialGradient2)" />
    </clipPath>
    <clipPath
       id="clip_pupil_left">
      <path
         id="use98"
         fill="#020204"
         d="m 80.75,50.99 c -0.32,1.94 -0.33,3.97 0.33,5.81 0.44,1.22 1.17,2.33 2.05,3.28 0.57,0.62 1.23,1.18 1.99,1.55 0.77,0.37 1.65,0.52 2.48,0.32 0.76,-0.19 1.42,-0.68 1.91,-1.29 0.49,-0.61 0.82,-1.34 1.05,-2.09 0.69,-2.21 0.58,-4.62 -0.11,-6.83 -0.49,-1.61 -1.32,-3.16 -2.6,-4.24 -0.62,-0.52 -1.34,-0.93 -2.12,-1.11 -0.78,-0.19 -1.63,-0.14 -2.36,0.19 -0.81,0.37 -1.44,1.07 -1.85,1.86 -0.41,0.79 -0.62,1.67 -0.77,2.55 z" />
    </clipPath>
    <clipPath
       id="clip_eye_right">
      <path
         id="use99"
         fill="url(#fill_eyeball_right)"
         d="m 111.61,38.28 c -2.39,1.65 -4.4,3.94 -5.38,6.68 -1.24,3.45 -0.77,7.31 0.43,10.77 1.22,3.55 3.27,6.93 6.36,9.06 1.54,1.07 3.33,1.8 5.19,2.02 1.87,0.22 3.8,-0.09 5.47,-0.95 2.02,-1.06 3.57,-2.91 4.53,-4.98 0.96,-2.08 1.37,-4.37 1.5,-6.66 0.16,-2.9 -0.12,-5.86 -1.08,-8.61 -1.04,-2.99 -2.92,-5.75 -5.58,-7.47 -1.32,-0.86 -2.83,-1.45 -4.4,-1.67 -1.57,-0.22 -3.19,-0.05 -4.67,0.52 -0.84,0.33 -1.62,0.78 -2.37,1.29 z"
         style="fill:url(#radialGradient3)" />
    </clipPath>
    <clipPath
       id="clip_pupil_right">
      <path
         id="use100"
         fill="#020204"
         d="m 117.14,45.52 c -0.9,0.06 -1.78,0.37 -2.55,0.85 -0.76,0.48 -1.41,1.13 -1.92,1.88 -1.03,1.49 -1.48,3.31 -1.55,5.12 -0.05,1.35 0.1,2.72 0.55,4 0.45,1.28 1.2,2.47 2.25,3.33 1.07,0.89 2.42,1.42 3.81,1.49 1.39,0.06 2.79,-0.34 3.93,-1.13 0.91,-0.63 1.64,-1.5 2.16,-2.48 0.52,-0.97 0.84,-2.05 0.98,-3.15 0.25,-1.93 -0.03,-3.95 -0.93,-5.69 -0.89,-1.74 -2.41,-3.17 -4.24,-3.84 -0.8,-0.29 -1.65,-0.44 -2.49,-0.38 z" />
    </clipPath>
    <clipPath
       id="clip_mandible_lower">
      <path
         id="use101"
         fill="url(#fill_mandible_lower_base)"
         d="m 77.14,75.05 c 0.06,0.26 0.15,0.5 0.28,0.73 0.23,0.38 0.57,0.69 0.93,0.95 0.36,0.27 0.75,0.49 1.13,0.72 2.01,1.27 3.65,3.04 5.11,4.92 1.95,2.52 3.68,5.31 6.29,7.14 1.84,1.3 4.04,2.03 6.28,2.26 2.63,0.26 5.29,-0.16 7.83,-0.91 2.35,-0.69 4.62,-1.66 6.7,-2.95 3.97,-2.44 7.28,-6.02 11.65,-7.63 0.95,-0.35 1.94,-0.6 2.86,-1.03 0.92,-0.44 1.79,-1.08 2.23,-2 0.42,-0.88 0.4,-1.9 0.54,-2.87 0.15,-1.03 0.48,-2.03 0.66,-3.06 0.18,-1.03 0.2,-2.13 -0.24,-3.08 -0.37,-0.78 -1.04,-1.4 -1.81,-1.79 -0.77,-0.4 -1.64,-0.58 -2.51,-0.62 -1.72,-0.08 -3.43,0.36 -5.16,0.52 -2.28,0.21 -4.58,-0.09 -6.87,-0.02 -2.85,0.09 -5.66,0.73 -8.51,0.87 -3.25,0.15 -6.49,-0.35 -9.74,-0.48 -1.41,-0.06 -2.83,-0.04 -4.22,0.2 -1.39,0.23 -2.75,0.71 -3.91,1.51 -1.13,0.78 -2.03,1.84 -3.07,2.74 -0.52,0.45 -1.08,0.86 -1.7,1.16 -0.61,0.3 -1.29,0.49 -1.98,0.47 -0.35,-0.01 -0.72,-0.06 -1.05,0.04 -0.21,0.07 -0.4,0.2 -0.56,0.35 -0.16,0.16 -0.29,0.34 -0.41,0.52 -0.29,0.42 -0.54,0.87 -0.75,1.34 z"
         style="fill:url(#radialGradient4)" />
    </clipPath>
    <clipPath
       id="clip_mandible_upper">
      <path
         id="use102"
         fill="url(#fill_mandible_upper_base)"
         d="m 83.94,63.95 c -1.66,1.12 -3.16,2.49 -4.43,4.04 -0.72,0.89 -1.38,1.86 -1.74,2.94 -0.29,0.86 -0.39,1.76 -0.57,2.65 -0.07,0.33 -0.15,0.66 -0.14,1 0,0.16 0.02,0.33 0.07,0.5 0.05,0.16 0.14,0.31 0.25,0.43 0.2,0.2 0.47,0.31 0.74,0.37 0.28,0.05 0.56,0.06 0.84,0.09 1.25,0.15 2.4,0.75 3.44,1.47 1.04,0.71 2,1.55 3.07,2.22 2.35,1.49 5.16,2.15 7.95,2.26 2.78,0.11 5.56,-0.31 8.3,-0.86 2.17,-0.43 4.33,-0.95 6.39,-1.76 3.16,-1.25 6.01,-3.16 8.72,-5.19 1.24,-0.92 2.46,-1.87 3.57,-2.94 0.37,-0.37 0.74,-0.74 1.14,-1.08 0.4,-0.33 0.85,-0.62 1.35,-0.78 0.76,-0.24 1.58,-0.17 2.37,-0.04 0.59,0.1 1.18,0.23 1.78,0.21 0.3,-0.02 0.6,-0.07 0.88,-0.18 0.28,-0.11 0.54,-0.28 0.73,-0.52 0.25,-0.3 0.38,-0.7 0.38,-1.09 0,-0.4 -0.12,-0.79 -0.32,-1.13 -0.4,-0.68 -1.09,-1.14 -1.81,-1.46 -0.99,-0.44 -2.06,-0.65 -3.11,-0.91 -3.23,-0.78 -6.37,-1.93 -9.34,-3.41 -1.48,-0.73 -2.92,-1.54 -4.37,-2.32 -1.5,-0.8 -3.02,-1.57 -4.64,-2.07 -3.64,-1.1 -7.6,-0.74 -11.19,0.51 -3.98,1.38 -7.58,3.84 -10.31,7.05 z"
         style="fill:url(#linearGradient5)" />
    </clipPath>
    <clipPath
       id="clip_beak">
      <path
         id="use103"
         fill="url(#fill_mandible_lower_base)"
         d="m 77.14,75.05 c 0.06,0.26 0.15,0.5 0.28,0.73 0.23,0.38 0.57,0.69 0.93,0.95 0.36,0.27 0.75,0.49 1.13,0.72 2.01,1.27 3.65,3.04 5.11,4.92 1.95,2.52 3.68,5.31 6.29,7.14 1.84,1.3 4.04,2.03 6.28,2.26 2.63,0.26 5.29,-0.16 7.83,-0.91 2.35,-0.69 4.62,-1.66 6.7,-2.95 3.97,-2.44 7.28,-6.02 11.65,-7.63 0.95,-0.35 1.94,-0.6 2.86,-1.03 0.92,-0.44 1.79,-1.08 2.23,-2 0.42,-0.88 0.4,-1.9 0.54,-2.87 0.15,-1.03 0.48,-2.03 0.66,-3.06 0.18,-1.03 0.2,-2.13 -0.24,-3.08 -0.37,-0.78 -1.04,-1.4 -1.81,-1.79 -0.77,-0.4 -1.64,-0.58 -2.51,-0.62 -1.72,-0.08 -3.43,0.36 -5.16,0.52 -2.28,0.21 -4.58,-0.09 -6.87,-0.02 -2.85,0.09 -5.66,0.73 -8.51,0.87 -3.25,0.15 -6.49,-0.35 -9.74,-0.48 -1.41,-0.06 -2.83,-0.04 -4.22,0.2 -1.39,0.23 -2.75,0.71 -3.91,1.51 -1.13,0.78 -2.03,1.84 -3.07,2.74 -0.52,0.45 -1.08,0.86 -1.7,1.16 -0.61,0.3 -1.29,0.49 -1.98,0.47 -0.35,-0.01 -0.72,-0.06 -1.05,0.04 -0.21,0.07 -0.4,0.2 -0.56,0.35 -0.16,0.16 -0.29,0.34 -0.41,0.52 -0.29,0.42 -0.54,0.87 -0.75,1.34 z"
         style="fill:url(#radialGradient5)" />
      <path
         id="use104"
         fill="url(#fill_mandible_upper_base)"
         d="m 83.94,63.95 c -1.66,1.12 -3.16,2.49 -4.43,4.04 -0.72,0.89 -1.38,1.86 -1.74,2.94 -0.29,0.86 -0.39,1.76 -0.57,2.65 -0.07,0.33 -0.15,0.66 -0.14,1 0,0.16 0.02,0.33 0.07,0.5 0.05,0.16 0.14,0.31 0.25,0.43 0.2,0.2 0.47,0.31 0.74,0.37 0.28,0.05 0.56,0.06 0.84,0.09 1.25,0.15 2.4,0.75 3.44,1.47 1.04,0.71 2,1.55 3.07,2.22 2.35,1.49 5.16,2.15 7.95,2.26 2.78,0.11 5.56,-0.31 8.3,-0.86 2.17,-0.43 4.33,-0.95 6.39,-1.76 3.16,-1.25 6.01,-3.16 8.72,-5.19 1.24,-0.92 2.46,-1.87 3.57,-2.94 0.37,-0.37 0.74,-0.74 1.14,-1.08 0.4,-0.33 0.85,-0.62 1.35,-0.78 0.76,-0.24 1.58,-0.17 2.37,-0.04 0.59,0.1 1.18,0.23 1.78,0.21 0.3,-0.02 0.6,-0.07 0.88,-0.18 0.28,-0.11 0.54,-0.28 0.73,-0.52 0.25,-0.3 0.38,-0.7 0.38,-1.09 0,-0.4 -0.12,-0.79 -0.32,-1.13 -0.4,-0.68 -1.09,-1.14 -1.81,-1.46 -0.99,-0.44 -2.06,-0.65 -3.11,-0.91 -3.23,-0.78 -6.37,-1.93 -9.34,-3.41 -1.48,-0.73 -2.92,-1.54 -4.37,-2.32 -1.5,-0.8 -3.02,-1.57 -4.64,-2.07 -3.64,-1.1 -7.6,-0.74 -11.19,0.51 -3.98,1.38 -7.58,3.84 -10.31,7.05 z"
         style="fill:url(#linearGradient6)" />
    </clipPath>
    <linearGradient
       inkscape:collect="always"
       xlink:href="#gradient_foot_left_layer_1"
       id="linearGradient1"
       gradientUnits="userSpaceOnUse"
       x1="23.18"
       y1="193.00999"
       x2="64.309998"
       y2="262.01999" />
    <linearGradient
       inkscape:collect="always"
       xlink:href="#gradient_foot_right_layer_1"
       id="linearGradient2"
       gradientUnits="userSpaceOnUse"
       x1="151.5"
       y1="253.02"
       x2="192.94"
       y2="185.84" />
    <radialGradient
       inkscape:collect="always"
       xlink:href="#gradient_eyeball"
       id="radialGradient2"
       gradientUnits="userSpaceOnUse"
       gradientTransform="matrix(10.239439,-0.10723107,0.16419757,15.67914,86.49,51.41)"
       cx="0"
       cy="0"
       r="1" />
    <radialGradient
       inkscape:collect="always"
       xlink:href="#gradient_eyeball"
       id="radialGradient3"
       gradientUnits="userSpaceOnUse"
       gradientTransform="matrix(13.633269,-0.42844275,0.4925207,15.672263,118.06,51.41)"
       cx="0"
       cy="0"
       r="1" />
    <radialGradient
       inkscape:collect="always"
       xlink:href="#gradient_mandible_lower"
       id="radialGradient4"
       gradientUnits="userSpaceOnUse"
       gradientTransform="matrix(25.101425,-10.346061,7.2670121,17.631093,109.77,70.61)"
       cx="0"
       cy="0"
       r="1" />
    <radialGradient
       inkscape:collect="always"
       xlink:href="#gradient_mandible_lower"
       id="radialGradient5"
       gradientUnits="userSpaceOnUse"
       gradientTransform="matrix(25.101425,-10.346061,7.2670121,17.631093,109.77,70.61)"
       cx="0"
       cy="0"
       r="1" />
    <linearGradient
       inkscape:collect="always"
       xlink:href="#gradient_mandible_upper"
       id="linearGradient5"
       gradientUnits="userSpaceOnUse"
       x1="78.089996"
       y1="69.260002"
       x2="126.77"
       y2="68.879997" />
    <linearGradient
       inkscape:collect="always"
       xlink:href="#gradient_mandible_upper"
       id="linearGradient6"
       gradientUnits="userSpaceOnUse"
       x1="78.089996"
       y1="69.260002"
       x2="126.77"
       y2="68.879997" />
  </defs>
  <metadata
     id="metadata104">
    <rdf:RDF>
      <cc:Work
         rdf:about="">
        <dc:title>Tux</dc:title>
      </cc:Work>
    </rdf:RDF>
  </metadata>
  <g
     inkscape:groupmode="layer"
     id="layer1"
     inkscape:label="Mark">
    <g
       id="g9130"
       transform="matrix(1.2277398,0,0,1.2277398,-231.95271,-206.02418)"
       style="mix-blend-mode:normal;fill:#4a90d9;fill-opacity:1;fill-rule:nonzero"
       inkscape:label="Icon"
       sodipodi:insensitive="true">
      <path
         style="fill:#4a90d9;fill-opacity:1;fill-rule:nonzero;stroke:none;stroke-width:1px;stroke-linecap:butt;stroke-linejoin:miter;stroke-opacity:1"
         d="m 474.6092,255.1181 1e-5,151.18111 -130.92667,75.59055 v -151.1811 z"
         id="path9124"
         sodipodi:nodetypes="ccccc" />
      <path
         style="fill:#4a90d9;fill-opacity:1;fill-rule:nonzero;stroke:none;stroke-width:1px;stroke-linecap:butt;stroke-linejoin:miter;stroke-opacity:1"
         d="M 343.68252,330.70866 V 179.52756 L 212.75586,255.1181 Z"
         id="path9126" />
      <path
         style="fill:#4a90d9;fill-opacity:1;fill-rule:nonzero;stroke:none;stroke-width:82.9362;stroke-linecap:round;stroke-linejoin:round;stroke-dasharray:none;stroke-opacity:1"
         d="m 218.61226,233.26169 c -13.54108,7.81795 -21.85641,22.22052 -21.85641,37.85641 v 119.18111 c 0,15.63589 8.31533,30.03846 21.85641,37.85641 l 103.21385,59.59055 c 13.54108,7.81794 30.17174,7.81794 43.71282,0 l 103.21386,-59.59055 c 13.54108,-7.81795 21.85641,-22.22052 21.85641,-37.85641 V 271.1181 c 0,-15.63589 -8.31533,-30.03846 -21.85641,-37.85641 L 365.53893,173.67115 c -13.54108,-7.81794 -30.17174,-7.81794 -43.71282,0 z m 130.92667,-31.87772 103.21386,59.59054 c 3.60767,2.08289 5.85641,5.97781 5.85641,10.14359 v 119.18111 c 0,4.16578 -2.24874,8.0607 -5.85641,10.14359 l -103.21386,59.59055 c -3.60767,2.08289 -8.10515,2.08289 -11.71282,0 L 234.61226,400.4428 c -3.60767,-2.08289 -5.85641,-5.97781 -5.85641,-10.14359 V 271.1181 c 0,-4.16578 2.24874,-8.0607 5.85641,-10.14359 l 103.21385,-59.59054 c 3.60767,-2.08289 8.10515,-2.08289 11.71282,0 z"
         id="path9128" />
    </g>
  </g>
</svg>
