<?xml version="1.0" encoding="UTF-8" standalone="no"?>
<svg
   version="1.1"
   viewBox="0 0 400 400"
   id="svg104"
   sodipodi:docname="libuv.svg"
   inkscape:version="1.4.2 (ebf0e940d0, 2025-05-08)"
   width="400"
   height="400"
   xmlns:inkscape="http://www.inkscape.org/namespaces/inkscape"
   xmlns:sodipodi="http://sodipodi.sourceforge.net/DTD/sodipodi-0.dtd"
   xmlns:xlink="http://www.w3.org/1999/xlink"
   xmlns="http://www.w3.org/2000/svg"
   xmlns:svg="http://www.w3.org/2000/svg"
   xmlns:rdf="http://www.w3.org/1999/02/22-rdf-syntax-ns#"
   xmlns:cc="http://creativecommons.org/ns#"
   xmlns:dc="http://purl.org/dc/elements/1.1/">
  <sodipodi:namedview
     id="namedview104"
     pagecolor="#ffffff"
     bordercolor="#000000"
     borderopacity="0.25"
     inkscape:showpageshadow="2"
     inkscape:pageopacity="0.0"
     inkscape:pagecheckerboard="0"
     inkscape:deskcolor="#d1d1d1"
     inkscape:zoom="1.4667969"
     inkscape:cx="207.25432"
     inkscape:cy="206.91345"
     inkscape:window-width="1920"
     inkscape:window-height="980"
     inkscape:window-x="0"
     inkscape:window-y="0"
     inkscape:window-maximized="1"
     inkscape:current-layer="layer1"
     showgrid="true">
    <inkscape:grid
       id="grid104"
       units="px"
       originx="0"
       originy="0"
       spacingx="10"
       spacingy="10"
       empcolor="#0099e5"
       empopacity="0.30196078"
       color="#0099e5"
       opacity="0.14901961"
       empspacing="5"
       enabled="true"
       visible="true" />
  </sodipodi:namedview>
  <title
     id="title1">Tux</title>
  <defs
     id="tux_fx">
    <linearGradient
       id="gradient_belly_shadow">
      <stop
         offset="0"
         stop-color="#000000"
         id="stop1" />
      <stop
         offset="1"
         stop-color="#000000"
         stop-opacity="0.25"
         id="stop2" />
    </linearGradient>
    <linearGradient
       id="gradient_wing_tip_right_shadow">
      <stop
         offset="0"
         stop-color="#110800"
         id="stop3" />
      <stop
         offset="0.59"
         stop-color="#a65a00"
         stop-opacity="0.8"
         id="stop4" />
      <stop
         offset="1"
         stop-color="#ff921e"
         stop-opacity="0"
         id="stop5" />
    </linearGradient>
    <linearGradient
       id="gradient_wing_tip_right_glare_1">
      <stop
         offset="0"
         stop-color="#7c7c7c"
         id="stop6" />
      <stop
         offset="1"
         stop-color="#7c7c7c"
         stop-opacity="0.33"
         id="stop7" />
    </linearGradient>
    <linearGradient
       id="gradient_wing_tip_right_glare_2">
      <stop
         offset="0"
         stop-color="#7c7c7c"
         id="stop8" />
      <stop
         offset="1"
         stop-color="#7c7c7c"
         stop-opacity="0.33"
         id="stop9" />
    </linearGradient>
    <linearGradient
       id="gradient_foot_left_layer_1">
      <stop
         offset="0"
         stop-color="#b98309"
         id="stop10" />
      <stop
         offset="1"
         stop-color="#382605"
         id="stop11" />
    </linearGradient>
    <linearGradient
       id="gradient_foot_left_glare">
      <stop
         offset="0"
         stop-color="#ebc40c"
         id="stop12" />
      <stop
         offset="1"
         stop-color="#ebc40c"
         stop-opacity="0"
         id="stop13" />
    </linearGradient>
    <linearGradient
       id="gradient_foot_right_shadow">
      <stop
         offset="0"
         stop-color="#000000"
         id="stop14" />
      <stop
         offset="1"
         stop-color="#000000"
         stop-opacity="0"
         id="stop15" />
    </linearGradient>
    <linearGradient
       id="gradient_foot_right_layer_1">
      <stop
         offset="0"
         stop-color="#3e2a06"
         id="stop16" />
      <stop
         offset="1"
         stop-color="#ad780a"
         id="stop17" />
    </linearGradient>
    <linearGradient
       id="gradient_foot_right_glare">
      <stop
         offset="0"
         stop-color="#f3cd0c"
         id="stop18" />
      <stop
         offset="1"
         stop-color="#f3cd0c"
         stop-opacity="0"
         id="stop19" />
    </linearGradient>
    <linearGradient
       id="gradient_eyeball">
      <stop
         offset="0"
         stop-color="#fefefc"
         id="stop20" />
      <stop
         offset="0.75"
         stop-color="#fefefc"
         id="stop21" />
      <stop
         offset="1"
         stop-color="#d4d4d4"
         id="stop22" />
    </linearGradient>
    <linearGradient
       id="gradient_pupil_left_glare">
      <stop
         offset="0"
         stop-color="#757574"
         stop-opacity="0"
         id="stop23" />
      <stop
         offset="0.25"
         stop-color="#757574"
         id="stop24" />
      <stop
         offset="0.5"
         stop-color="#757574"
         id="stop25" />
      <stop
         offset="1"
         stop-color="#757574"
         stop-opacity="0"
         id="stop26" />
    </linearGradient>
    <linearGradient
       id="gradient_pupil_right_glare_2">
      <stop
         offset="0"
         stop-color="#949494"
         stop-opacity="0.39"
         id="stop27" />
      <stop
         offset="0.5"
         stop-color="#949494"
         id="stop28" />
      <stop
         offset="1"
         stop-color="#949494"
         stop-opacity="0.39"
         id="stop29" />
    </linearGradient>
    <linearGradient
       id="gradient_eyelid_left">
      <stop
         offset="0"
         stop-color="#c8c8c8"
         id="stop30" />
      <stop
         offset="1"
         stop-color="#797978"
         id="stop31" />
    </linearGradient>
    <linearGradient
       id="gradient_eyelid_right">
      <stop
         offset="0"
         stop-color="#747474"
         id="stop32" />
      <stop
         offset="0.13"
         stop-color="#8c8c8c"
         id="stop33" />
      <stop
         offset="0.25"
         stop-color="#a4a4a4"
         id="stop34" />
      <stop
         offset="0.5"
         stop-color="#d4d4d4"
         id="stop35" />
      <stop
         offset="0.62"
         stop-color="#d4d4d4"
         id="stop36" />
      <stop
         offset="1"
         stop-color="#7c7c7c"
         id="stop37" />
    </linearGradient>
    <linearGradient
       id="gradient_eyebrow">
      <stop
         offset="0"
         stop-color="#646464"
         stop-opacity="0"
         id="stop38" />
      <stop
         offset="0.31"
         stop-color="#646464"
         stop-opacity="0.58"
         id="stop39" />
      <stop
         offset="0.47"
         stop-color="#646464"
         id="stop40" />
      <stop
         offset="0.73"
         stop-color="#646464"
         stop-opacity="0.26"
         id="stop41" />
      <stop
         offset="1"
         stop-color="#646464"
         stop-opacity="0"
         id="stop42" />
    </linearGradient>
    <linearGradient
       id="gradient_beak_base">
      <stop
         offset="0"
         stop-color="#020204"
         id="stop43" />
      <stop
         offset="0.73"
         stop-color="#020204"
         id="stop44" />
      <stop
         offset="1"
         stop-color="#5c5c5c"
         id="stop45" />
    </linearGradient>
    <linearGradient
       id="gradient_mandible_lower">
      <stop
         offset="0"
         stop-color="#d2940a"
         id="stop46" />
      <stop
         offset="0.75"
         stop-color="#d89c08"
         id="stop47" />
      <stop
         offset="0.87"
         stop-color="#b67e07"
         id="stop48" />
      <stop
         offset="1"
         stop-color="#946106"
         id="stop49" />
    </linearGradient>
    <linearGradient
       id="gradient_mandible_upper">
      <stop
         offset="0"
         stop-color="#ad780a"
         id="stop50" />
      <stop
         offset="0.12"
         stop-color="#d89e08"
         id="stop51" />
      <stop
         offset="0.25"
         stop-color="#edb80b"
         id="stop52" />
      <stop
         offset="0.39"
         stop-color="#ebc80d"
         id="stop53" />
      <stop
         offset="0.53"
         stop-color="#f5d838"
         id="stop54" />
      <stop
         offset="0.77"
         stop-color="#f6d811"
         id="stop55" />
      <stop
         offset="1"
         stop-color="#f5cd31"
         id="stop56" />
    </linearGradient>
    <linearGradient
       id="gradient_nares">
      <stop
         offset="0"
         stop-color="#3a2903"
         id="stop57" />
      <stop
         offset="0.55"
         stop-color="#735208"
         id="stop58" />
      <stop
         offset="1"
         stop-color="#ac8c04"
         id="stop59" />
    </linearGradient>
    <linearGradient
       id="gradient_beak_corner">
      <stop
         offset="0"
         stop-color="#f5ce2d"
         id="stop60" />
      <stop
         offset="1"
         stop-color="#d79b08"
         id="stop61" />
    </linearGradient>
    <radialGradient
       id="fill_belly_shadow_left"
       href="#gradient_belly_shadow"
       xlink:href="#gradient_belly_shadow"
       gradientUnits="userSpaceOnUse"
       cx="0"
       cy="0"
       r="1"
       gradientTransform="matrix(19,0,0,18,61.18,121.19)" />
    <radialGradient
       id="fill_belly_shadow_right"
       href="#gradient_belly_shadow"
       xlink:href="#gradient_belly_shadow"
       gradientUnits="userSpaceOnUse"
       cx="0"
       cy="0"
       r="1"
       gradientTransform="matrix(23.6,0,0,18,125.74,131.6)" />
    <radialGradient
       id="fill_belly_shadow_middle"
       href="#gradient_belly_shadow"
       xlink:href="#gradient_belly_shadow"
       gradientUnits="userSpaceOnUse"
       cx="0"
       cy="0"
       r="1"
       gradientTransform="matrix(9.35,0,0,10,94.21,127.47)" />
    <linearGradient
       id="fill_foot_left_base"
       href="#gradient_foot_left_layer_1"
       xlink:href="#gradient_foot_left_layer_1"
       gradientUnits="userSpaceOnUse"
       x1="23.18"
       y1="193.00999"
       x2="64.309998"
       y2="262.01999" />
    <linearGradient
       id="fill_foot_left_glare"
       href="#gradient_foot_left_glare"
       xlink:href="#gradient_foot_left_glare"
       gradientUnits="userSpaceOnUse"
       x1="64.470001"
       y1="210.83"
       x2="77.410004"
       y2="235.21001" />
    <linearGradient
       id="fill_foot_right_shadow"
       href="#gradient_foot_right_shadow"
       xlink:href="#gradient_foot_right_shadow"
       gradientUnits="userSpaceOnUse"
       x1="146.92999"
       y1="211.96001"
       x2="150.2"
       y2="235.73" />
    <linearGradient
       id="fill_foot_right_base"
       href="#gradient_foot_right_layer_1"
       xlink:href="#gradient_foot_right_layer_1"
       gradientUnits="userSpaceOnUse"
       x1="151.5"
       y1="253.02"
       x2="192.94"
       y2="185.84" />
    <linearGradient
       id="fill_foot_right_glare"
       href="#gradient_foot_right_glare"
       xlink:href="#gradient_foot_right_glare"
       gradientUnits="userSpaceOnUse"
       x1="162.81"
       y1="180.67"
       x2="161.59"
       y2="191.64" />
    <radialGradient
       id="fill_wing_tip_right_shadow_lower"
       href="#gradient_wing_tip_right_shadow"
       xlink:href="#gradient_wing_tip_right_shadow"
       gradientUnits="userSpaceOnUse"
       cx="0"
       cy="0"
       r="1"
       gradientTransform="matrix(18.990102,5.0883824,-5.3420251,19.936709,169.71,194.53)" />
    <radialGradient
       id="fill_wing_tip_right_shadow_upper"
       href="#gradient_wing_tip_right_shadow"
       xlink:href="#gradient_wing_tip_right_shadow"
       gradientUnits="userSpaceOnUse"
       cx="0"
       cy="0"
       r="1"
       gradientTransform="matrix(19.722395,-0.83350987,0.62745474,14.846747,169.71,189.89)" />
    <radialGradient
       id="fill_wing_tip_right_glare_1"
       href="#gradient_wing_tip_right_glare_1"
       xlink:href="#gradient_wing_tip_right_glare_1"
       gradientUnits="userSpaceOnUse"
       cx="0"
       cy="0"
       r="1"
       gradientTransform="matrix(6.3735675,2.771306,-1.2799845,2.9437628,184.65,176.62)" />
    <linearGradient
       id="fill_wing_tip_right_glare_2"
       href="#gradient_wing_tip_right_glare_2"
       xlink:href="#gradient_wing_tip_right_glare_2"
       gradientUnits="userSpaceOnUse"
       x1="165.69"
       y1="173.58"
       x2="168.27"
       y2="173.47" />
    <radialGradient
       id="fill_eyeball_left"
       href="#gradient_eyeball"
       xlink:href="#gradient_eyeball"
       gradientUnits="userSpaceOnUse"
       cx="0"
       cy="0"
       r="1"
       gradientTransform="matrix(10.239439,-0.10723107,0.16419757,15.67914,86.49,51.41)" />
    <linearGradient
       id="fill_pupil_left_glare"
       href="#gradient_pupil_left_glare"
       xlink:href="#gradient_pupil_left_glare"
       gradientUnits="userSpaceOnUse"
       x1="84.290001"
       y1="46.639999"
       x2="89.32"
       y2="55.630001" />
    <radialGradient
       id="fill_eyelid_left"
       href="#gradient_eyelid_left"
       xlink:href="#gradient_eyelid_left"
       gradientUnits="userSpaceOnUse"
       cx="0"
       cy="0"
       r="1"
       gradientTransform="matrix(6.1669645,-1.015406,0.93742278,5.6933416,84.89,43.74)" />
    <linearGradient
       id="fill_eyebrow_left"
       href="#gradient_eyebrow"
       xlink:href="#gradient_eyebrow"
       gradientUnits="userSpaceOnUse"
       x1="83.589996"
       y1="32.509998"
       x2="94.480003"
       y2="43.630001" />
    <radialGradient
       id="fill_eyeball_right"
       href="#gradient_eyeball"
       xlink:href="#gradient_eyeball"
       gradientUnits="userSpaceOnUse"
       cx="0"
       cy="0"
       r="1"
       gradientTransform="matrix(13.633269,-0.42844275,0.4925207,15.672263,118.06,51.41)" />
    <linearGradient
       id="fill_pupil_right_glare"
       href="#gradient_pupil_right_glare_2"
       xlink:href="#gradient_pupil_right_glare_2"
       gradientUnits="userSpaceOnUse"
       x1="117.87"
       y1="47.25"
       x2="123.66"
       y2="54.110001" />
    <linearGradient
       id="fill_eyelid_right"
       href="#gradient_eyelid_right"
       xlink:href="#gradient_eyelid_right"
       gradientUnits="userSpaceOnUse"
       x1="112.9"
       y1="36.23"
       x2="131.32001"
       y2="47.009998" />
    <linearGradient
       id="fill_eyebrow_right"
       href="#gradient_eyebrow"
       xlink:href="#gradient_eyebrow"
       gradientUnits="userSpaceOnUse"
       x1="119.16"
       y1="31.559999"
       x2="131.42"
       y2="43.139999" />
    <radialGradient
       id="fill_beak_base"
       href="#gradient_beak_base"
       xlink:href="#gradient_beak_base"
       gradientUnits="userSpaceOnUse"
       cx="0"
       cy="0"
       r="1"
       gradientTransform="matrix(9.2551544,-6.7242633,6.1012109,8.3975964,97.64,60.12)" />
    <radialGradient
       id="fill_mandible_lower_base"
       href="#gradient_mandible_lower"
       xlink:href="#gradient_mandible_lower"
       gradientUnits="userSpaceOnUse"
       cx="0"
       cy="0"
       r="1"
       gradientTransform="matrix(25.101425,-10.346061,7.2670121,17.631093,109.77,70.61)" />
    <linearGradient
       id="fill_mandible_upper_base"
       href="#gradient_mandible_upper"
       xlink:href="#gradient_mandible_upper"
       gradientUnits="userSpaceOnUse"
       x1="78.089996"
       y1="69.260002"
       x2="126.77"
       y2="68.879997" />
    <radialGradient
       id="fill_naris_left"
       href="#gradient_nares"
       xlink:href="#gradient_nares"
       gradientUnits="userSpaceOnUse"
       cx="0"
       cy="0"
       r="1"
       gradientTransform="matrix(1.32,0,0,1.42,92.11,59.88)" />
    <radialGradient
       id="fill_naris_right"
       href="#gradient_nares"
       xlink:href="#gradient_nares"
       gradientUnits="userSpaceOnUse"
       cx="0"
       cy="0"
       r="1"
       gradientTransform="matrix(2.78,0,0,1.62,104.65,59.7)" />
    <linearGradient
       id="fill_beak_corner"
       href="#gradient_beak_corner"
       xlink:href="#gradient_beak_corner"
       gradientUnits="userSpaceOnUse"
       x1="126.74"
       y1="67.489998"
       x2="126.74"
       y2="71.089996" />
    <filter
       id="blur_belly_shadow_left"
       x="-0.049918752"
       y="-0.045849252"
       width="1.0998375"
       height="1.0916985">
      <feGaussianBlur
         stdDeviation="0.64 0.55"
         id="feGaussianBlur61" />
    </filter>
    <filter
       id="blur_belly_shadow_right"
       x="-0.05074719"
       y="-0.073202617"
       width="1.1014944"
       height="1.1464052">
      <feGaussianBlur
         stdDeviation="0.98"
         id="feGaussianBlur62" />
    </filter>
    <filter
       id="blur_belly_shadow_middle"
       x="-0.087319426"
       y="-0.081681684"
       width="1.1746387"
       height="1.1633635">
      <feGaussianBlur
         stdDeviation="0.68"
         id="feGaussianBlur63" />
    </filter>
    <filter
       id="blur_belly_shadow_lower"
       x="-0.81953782"
       width="2.6390758"
       y="-0.057993427"
       height="1.1159869">
      <feGaussianBlur
         stdDeviation="1.25"
         id="feGaussianBlur64" />
    </filter>
    <filter
       id="blur_belly_glare"
       x="-0.49197012"
       width="1.9839402"
       y="-0.59291106"
       height="2.185822">
      <feGaussianBlur
         stdDeviation="1.78 2.19"
         id="feGaussianBlur65" />
    </filter>
    <filter
       id="blur_head_glare"
       x="-0.29258275"
       width="1.5851655"
       y="-0.30859163"
       height="1.6171833">
      <feGaussianBlur
         stdDeviation="1.73"
         id="feGaussianBlur66" />
    </filter>
    <filter
       id="blur_neck_glare"
       x="-0.17840844"
       width="1.3568169"
       y="-0.1601733"
       height="1.3203466">
      <feGaussianBlur
         stdDeviation="0.78"
         id="feGaussianBlur67" />
    </filter>
    <filter
       id="blur_wing_left_glare"
       x="-0.1014502"
       width="1.2029004"
       y="-0.042861972"
       height="1.0857239">
      <feGaussianBlur
         stdDeviation="0.98"
         id="feGaussianBlur68" />
    </filter>
    <filter
       id="blur_wing_right_glare"
       x="-0.11789708"
       width="1.2357942"
       y="-0.040211942"
       height="1.080424">
      <feGaussianBlur
         stdDeviation="1.19 1.17"
         id="feGaussianBlur69" />
    </filter>
    <filter
       id="blur_foot_left_layer_1"
       x="-0.10746297"
       width="1.2149259"
       y="-0.1084514"
       height="1.2169029">
      <feGaussianBlur
         stdDeviation="3.38"
         id="feGaussianBlur70" />
    </filter>
    <filter
       id="blur_foot_left_layer_2"
       x="-0.075378262"
       y="-0.069657497"
       width="1.1507565"
       height="1.139315">
      <feGaussianBlur
         stdDeviation="2.1 2.06"
         id="feGaussianBlur71" />
    </filter>
    <filter
       id="blur_foot_left_glare"
       x="-0.033862434"
       y="-0.018667962"
       width="1.0677249"
       height="1.0373359">
      <feGaussianBlur
         stdDeviation="0.32"
         id="feGaussianBlur72" />
    </filter>
    <filter
       id="blur_foot_right_shadow"
       x="-0.076044023"
       y="-0.068073295"
       width="1.152088"
       height="1.1361465">
      <feGaussianBlur
         stdDeviation="1.95 1.9"
         id="feGaussianBlur73" />
    </filter>
    <filter
       id="blur_foot_right_layer_1"
       x="-0.14509234"
       width="1.2901847"
       y="-0.14307408"
       height="1.2861482">
      <feGaussianBlur
         stdDeviation="4.12"
         id="feGaussianBlur74" />
    </filter>
    <filter
       id="blur_foot_right_layer_2"
       x="-0.11510966"
       width="1.2302192"
       y="-0.12497624"
       height="1.2499526">
      <feGaussianBlur
         stdDeviation="3.12 3.37"
         id="feGaussianBlur75" />
    </filter>
    <filter
       id="blur_foot_right_glare"
       x="-0.020750739"
       width="1.0415015"
       y="-0.12827013"
       height="1.2565403">
      <feGaussianBlur
         stdDeviation="0.41"
         id="feGaussianBlur76" />
    </filter>
    <filter
       id="blur_wing_tip_right_shadow_lower"
       x="-0.20043875"
       width="1.4008775"
       y="-0.23394804"
       height="1.4678961">
      <feGaussianBlur
         stdDeviation="2.45"
         id="feGaussianBlur77" />
    </filter>
    <filter
       id="blur_wing_tip_right_shadow_upper"
       x="-0.09162914"
       width="1.1832583"
       y="-0.10698003"
       height="1.2139601">
      <feGaussianBlur
         stdDeviation="1.12 0.81"
         id="feGaussianBlur78" />
    </filter>
    <filter
       id="blur_wing_tip_right_glare"
       x="-0.070171066"
       width="1.1403421"
       y="-0.14997803"
       height="1.2999561">
      <feGaussianBlur
         stdDeviation="0.88"
         id="feGaussianBlur79" />
    </filter>
    <filter
       id="blur_pupil_left_glare"
       x="-0.23332936"
       width="1.4666587"
       y="-0.14543878"
       height="1.2908775">
      <feGaussianBlur
         stdDeviation="0.44"
         id="feGaussianBlur80" />
    </filter>
    <filter
       id="blur_eyebrow_left"
       x="-0.023848306"
       y="-0.02652286"
       width="1.0476966"
       height="1.0530457">
      <feGaussianBlur
         stdDeviation="0.12"
         id="feGaussianBlur81" />
    </filter>
    <filter
       id="blur_pupil_right_glare"
       x="-0.17958932"
       width="1.3591785"
       y="-0.18232284"
       height="1.3646457">
      <feGaussianBlur
         stdDeviation="0.45"
         id="feGaussianBlur82" />
    </filter>
    <filter
       id="blur_eyebrow_right"
       x="-0.023600604"
       y="-0.02557377"
       width="1.0472012"
       height="1.0511475">
      <feGaussianBlur
         stdDeviation="0.13"
         id="feGaussianBlur83" />
    </filter>
    <filter
       id="blur_beak_shadow_lower"
       x="-0.076201893"
       width="1.1524038"
       y="-0.12887719"
       height="1.2577544">
      <feGaussianBlur
         stdDeviation="1.75"
         id="feGaussianBlur84" />
    </filter>
    <filter
       id="blur_beak_shadow_upper"
       x="-0.036392432"
       y="-0.074088611"
       width="1.0727849"
       height="1.1481771">
      <feGaussianBlur
         stdDeviation="0.8 0.74"
         id="feGaussianBlur85" />
    </filter>
    <filter
       id="blur_mandible_lower_glare"
       x="-0.15436868"
       width="1.3087374"
       y="-0.21067211"
       height="1.4213442">
      <feGaussianBlur
         stdDeviation="0.77"
         id="feGaussianBlur86" />
    </filter>
    <filter
       id="blur_mandible_upper_shadow"
       x="-0.034221467"
       y="-0.078978971"
       width="1.0684429"
       height="1.1579579">
      <feGaussianBlur
         stdDeviation="0.65"
         id="feGaussianBlur87" />
    </filter>
    <filter
       id="blur_mandible_upper_glare"
       x="-0.16064714"
       width="1.3212943"
       y="-0.13003772"
       height="1.2600754">
      <feGaussianBlur
         stdDeviation="0.73"
         id="feGaussianBlur88" />
    </filter>
    <filter
       id="blur_naris_left"
       x="-0.12244099"
       width="1.244882"
       y="-0.11124302"
       height="1.222486">
      <feGaussianBlur
         stdDeviation="0.1"
         id="feGaussianBlur89" />
    </filter>
    <filter
       id="blur_naris_right"
       x="-0.049122259"
       y="-0.093498014"
       width="1.0982445"
       height="1.186996">
      <feGaussianBlur
         stdDeviation="0.1"
         id="feGaussianBlur90" />
    </filter>
    <filter
       id="blur_beak_corner"
       x="-0.11091169"
       width="1.2218235"
       y="-0.090640128"
       height="1.1812803">
      <feGaussianBlur
         stdDeviation="0.23"
         id="feGaussianBlur91" />
    </filter>
    <clipPath
       id="clip_body">
      <path
         id="use91"
         fill="#020204"
         d="m 106.95,0 c -6,0 -12.02,1.18 -17.46,4.12 -5.78,3.11 -10.52,8.09 -13.43,13.97 -2.92,5.88 -4.06,12.16 -4.24,19.08 -0.33,13.14 0.3,26.92 1.29,39.41 0.26,3.8 0.74,6.02 0.25,9.93 -1.62,8.3 -8.88,13.88 -12.76,21.17 -4.27,8.04 -6.07,17.13 -9.29,25.65 -2.95,7.79 -7.09,15.1 -9.88,22.95 -3.91,10.97 -5.08,23.03 -2.5,34.39 1.97,8.66 6.08,16.78 11.62,23.73 -0.8,1.44 -1.58,2.91 -2.4,4.34 -2.57,4.43 -5.71,8.64 -7.17,13.55 -0.73,2.45 -1.02,5.07 -0.55,7.59 0.47,2.52 1.75,4.93 3.75,6.53 1.31,1.04 2.9,1.72 4.53,2.1 1.63,0.37 3.32,0.46 5,0.43 6.37,-0.14 12.55,-2.07 18.71,-3.69 3.66,-0.96 7.34,-1.81 11.03,-2.58 13.14,-2.69 27.8,-1.61 39.99,0.15 4.13,0.63 8.23,1.44 12.29,2.43 6.36,1.54 12.69,3.5 19.23,3.69 1.72,0.05 3.46,-0.03 5.14,-0.4 1.68,-0.38 3.31,-1.06 4.65,-2.13 2.01,-1.6 3.29,-4.02 3.76,-6.54 0.47,-2.52 0.18,-5.15 -0.56,-7.61 -1.48,-4.92 -4.65,-9.11 -7.27,-13.52 -1.04,-1.75 -2,-3.53 -3.03,-5.28 7.9,-8.87 14.26,-19.13 17.94,-30.4 4.01,-12.3 4.75,-25.55 3.06,-38.38 -1.69,-12.83 -5.76,-25.27 -11.11,-37.05 -6.72,-14.76 -12.37,-20.1 -16.47,-33.07 -4.42,-14.02 -0.77,-30.61 -4.06,-43.32 -1.17,-4.32 -3.04,-8.45 -5.45,-12.23 -2.82,-4.43 -6.4,-8.39 -10.65,-11.47 C 124.13,2.62 115.61,0 106.95,0 Z" />
    </clipPath>
    <clipPath
       id="clip_wing_left">
      <path
         id="use92"
         fill="#020204"
         d="m 63.98,100.91 c -6.1,6.92 -12.37,13.63 -15.81,21.12 -1.71,3.8 -2.51,7.93 -3.68,11.93 -1.32,4.54 -3.12,8.94 -5.14,13.22 -1.87,3.95 -3.93,7.81 -5.98,11.66 -1.5,2.81 -3.02,5.67 -3.54,8.81 -0.41,2.48 -0.18,5.04 0.46,7.47 0.63,2.43 1.64,4.75 2.79,6.98 4.88,9.55 12.21,17.77 20.89,24.07 3.94,2.85 8.15,5.32 12.58,7.35 2.4,1.09 4.92,2.07 7.56,2.11 1.32,0.03 2.65,-0.19 3.86,-0.72 1.2,-0.53 2.28,-1.38 3,-2.49 0.88,-1.36 1.18,-3.05 1,-4.66 -0.18,-1.61 -0.81,-3.15 -1.65,-4.53 -2.06,-3.38 -5.31,-5.83 -8.44,-8.25 -6.76,-5.23 -13.29,-10.76 -19.55,-16.58 -1.76,-1.65 -3.53,-3.34 -4.76,-5.42 -1.2,-2.02 -1.85,-4.32 -2.29,-6.63 -1.21,-6.33 -0.9,-12.99 1.25,-19.07 0.85,-2.38 1.96,-4.65 3.04,-6.93 1.86,-3.95 3.62,-7.98 6.07,-11.6 3.05,-4.51 7.13,-8.33 9.61,-13.17 2.1,-4.09 2.95,-8.68 3.76,-13.2 0.64,-3.54 1.85,-7 2.47,-10.54 -1.21,2.3 -5.11,6.07 -7.5,9.07 z" />
    </clipPath>
    <clipPath
       id="clip_wing_right">
      <path
         id="use93"
         fill="#020204"
         d="m 162.76,127.12 c 5.24,4.22 8.57,10.59 9.6,17.24 0.8,5.18 0.28,10.51 -0.89,15.62 -1.17,5.12 -2.97,10.06 -4.77,15 -0.71,1.96 -1.43,3.95 -1.71,6.02 -0.29,2.08 -0.11,4.27 0.89,6.11 1.15,2.11 3.29,3.56 5.59,4.24 2.27,0.68 4.72,0.66 7.02,0.09 2.3,-0.57 6.17,-1.31 8.04,-2.77 4.75,-3.69 5.88,-10.1 7.01,-15.72 1.17,-5.87 0.6,-12.02 -0.43,-17.95 -1.41,-8.09 -3.78,-15.99 -6.79,-23.62 -2.22,-5.62 -5.06,-10.98 -8.44,-15.96 -3.32,-4.89 -8.02,-8.7 -11.5,-13.48 -1.21,-1.66 -2.66,-3.38 -3.84,-5.06 -2.56,-3.62 -1.98,-2.94 -3.57,-5.29 -1.15,-1.7 -2.97,-2.28 -4.88,-3.02 -1.92,-0.74 -4.06,-0.96 -6.04,-0.41 -2.6,0.73 -4.73,2.79 -5.86,5.24 -1.13,2.46 -1.33,5.28 -0.89,7.95 0.57,3.44 2.14,6.64 3.92,9.64 2,3.39 4.32,6.66 7.35,9.18 3.16,2.63 6.98,4.37 10.19,6.95 z" />
    </clipPath>
    <clipPath
       id="clip_foot_left">
      <path
         id="use94"
         fill="url(#fill_foot_left_base)"
         d="m 34.98,175.33 c 1.38,-0.57 2.93,-0.68 4.39,-0.41 1.47,0.27 2.86,0.91 4.09,1.74 2.47,1.68 4.3,4.12 6.05,6.54 4.03,5.54 7.9,11.2 11.42,17.08 2.85,4.78 5.46,9.71 8.76,14.18 2.15,2.93 4.57,5.64 6.73,8.55 2.16,2.92 4.07,6.08 5.03,9.58 1.25,4.55 0.76,9.56 -1.4,13.75 -1.52,2.95 -3.86,5.48 -6.7,7.19 -2.84,1.71 -5.83,2.47 -9.15,2.47 -5.27,0 -10.42,-2.83 -15.32,-4.78 C 38.9,247.24 28.06,246 17.77,242.9 14.61,241.95 11.5,240.82 8.32,239.95 6.9,239.56 5.47,239.22 4.13,238.61 2.79,238.01 1.54,237.1 0.8,235.84 0.23,234.86 0,233.71 0,232.58 c 0,-1.14 0.28,-2.26 0.67,-3.32 0.77,-2.13 2.02,-4.06 2.86,-6.17 1.37,-3.44 1.62,-7.23 1.43,-10.93 -0.18,-3.69 -0.78,-7.36 -1.03,-11.05 -0.12,-1.65 -0.16,-3.32 0.16,-4.95 0.31,-1.62 1.01,-3.21 2.2,-4.35 1.1,-1.06 2.55,-1.69 4.05,-2 1.49,-0.31 3.03,-0.32 4.55,-0.29 1.52,0.03 3.05,0.12 4.57,-0.01 1.52,-0.12 3.05,-0.46 4.37,-1.22 1.26,-0.72 2.29,-1.79 3.14,-2.96 0.85,-1.17 1.54,-2.45 2.25,-3.72 0.7,-1.26 1.43,-2.52 2.36,-3.64 0.92,-1.12 2.06,-2.09 3.4,-2.64 z"
         style="fill:url(#linearGradient6)" />
    </clipPath>
    <clipPath
       id="clip_foot_right">
      <path
         id="use95"
         fill="url(#fill_foot_right_base)"
         d="m 213.47,222.92 c -2.26,2.68 -5.4,4.45 -8.53,6.05 -5.33,2.71 -10.86,5.1 -15.87,8.37 -3.36,2.19 -6.46,4.76 -9.36,7.53 -2.48,2.37 -4.83,4.9 -7.61,6.91 -2.81,2.03 -6.05,3.5 -9.48,4.01 -0.95,0.14 -1.9,0.21 -2.86,0.21 -3.24,0 -6.48,-0.78 -9.46,-2.08 -2.7,-1.17 -5.3,-2.86 -6.86,-5.36 -1.56,-2.52 -1.92,-5.59 -1.92,-8.56 -0.01,-5.23 0.96,-10.41 1.87,-15.57 0.76,-4.29 1.48,-8.58 1.95,-12.91 0.85,-7.86 0.84,-15.81 0.28,-23.71 -0.1,-1.32 -0.21,-2.65 -0.01,-3.96 0.2,-1.31 0.74,-2.62 1.74,-3.48 0.93,-0.8 2.17,-1.16 3.4,-1.22 1.22,-0.07 2.44,0.12 3.65,0.3 2.85,0.42 5.73,0.74 8.52,1.48 1.76,0.46 3.48,1.08 5.23,1.56 2.94,0.79 6.01,1.17 9.02,0.82 3.25,-0.38 6.41,-1.6 9.68,-1.52 1.34,0.03 2.67,0.28 3.95,0.69 1.3,0.41 2.59,1 3.55,1.98 0.73,0.74 1.24,1.67 1.62,2.64 0.57,1.44 0.88,2.98 1.01,4.52 0.11,1.37 0.09,2.76 0.35,4.11 0.43,2.21 1.6,4.24 3.04,5.97 1.45,1.74 3.18,3.21 4.91,4.66 1.73,1.45 3.46,2.89 5.32,4.16 0.87,0.6 1.77,1.16 2.6,1.81 0.83,0.66 1.59,1.42 2.11,2.34 0.45,0.81 0.69,1.72 0.69,2.65 0,0.52 -0.07,1.04 -0.23,1.56 -0.45,1.43 -1.28,2.82 -2.3,4.04 z"
         style="fill:url(#linearGradient7)" />
    </clipPath>
    <clipPath
       id="clip_wing_tip_right">
      <path
         id="use96"
         fill="#020204"
         d="m 189.55,178.72 c -0.35,-0.95 -0.97,-1.79 -1.72,-2.47 -0.75,-0.68 -1.64,-1.2 -2.57,-1.6 -1.86,-0.79 -3.89,-1.09 -5.89,-1.46 -1.87,-0.35 -3.74,-0.78 -5.62,-1.1 -1.96,-0.33 -3.98,-0.55 -5.92,-0.11 -1.69,0.38 -3.26,1.26 -4.54,2.43 -1.28,1.17 -2.28,2.63 -3,4.21 -1.27,2.79 -1.67,5.92 -1.43,8.97 0.18,2.27 0.76,4.61 2.25,6.32 1.21,1.39 2.92,2.26 4.68,2.78 3.04,0.9 6.35,0.85 9.36,-0.13 4.97,-1.67 9.37,-4.98 12.35,-9.29 0.98,-1.43 1.82,-2.98 2.2,-4.66 0.29,-1.28 0.3,-2.66 -0.15,-3.89 z" />
    </clipPath>
    <clipPath
       id="clip_eye_left">
      <path
         id="use97"
         fill="url(#fill_eyeball_left)"
         d="m 84.45,38.28 c -1.53,0.08 -3,0.79 -4.12,1.84 -1.13,1.05 -1.92,2.43 -2.41,3.88 -0.97,2.92 -0.75,6.08 -0.53,9.15 0.2,2.77 0.41,5.6 1.45,8.18 0.52,1.3 1.25,2.51 2.22,3.51 0.97,0.99 2.2,1.76 3.55,2.09 1.26,0.32 2.62,0.26 3.86,-0.13 1.25,-0.4 2.38,-1.11 3.32,-2.02 1.36,-1.33 2.27,-3.07 2.8,-4.9 0.53,-1.83 0.68,-3.75 0.65,-5.66 -0.04,-2.38 -0.35,-4.77 -1.09,-7.03 -0.75,-2.26 -1.94,-4.4 -3.6,-6.11 -0.8,-0.83 -1.72,-1.55 -2.75,-2.06 -1.04,-0.51 -2.2,-0.8 -3.35,-0.74 z"
         style="fill:url(#radialGradient1)" />
    </clipPath>
    <clipPath
       id="clip_pupil_left">
      <path
         id="use98"
         fill="#020204"
         d="m 80.75,50.99 c -0.32,1.94 -0.33,3.97 0.33,5.81 0.44,1.22 1.17,2.33 2.05,3.28 0.57,0.62 1.23,1.18 1.99,1.55 0.77,0.37 1.65,0.52 2.48,0.32 0.76,-0.19 1.42,-0.68 1.91,-1.29 0.49,-0.61 0.82,-1.34 1.05,-2.09 0.69,-2.21 0.58,-4.62 -0.11,-6.83 -0.49,-1.61 -1.32,-3.16 -2.6,-4.24 -0.62,-0.52 -1.34,-0.93 -2.12,-1.11 -0.78,-0.19 -1.63,-0.14 -2.36,0.19 -0.81,0.37 -1.44,1.07 -1.85,1.86 -0.41,0.79 -0.62,1.67 -0.77,2.55 z" />
    </clipPath>
    <clipPath
       id="clip_eye_right">
      <path
         id="use99"
         fill="url(#fill_eyeball_right)"
         d="m 111.61,38.28 c -2.39,1.65 -4.4,3.94 -5.38,6.68 -1.24,3.45 -0.77,7.31 0.43,10.77 1.22,3.55 3.27,6.93 6.36,9.06 1.54,1.07 3.33,1.8 5.19,2.02 1.87,0.22 3.8,-0.09 5.47,-0.95 2.02,-1.06 3.57,-2.91 4.53,-4.98 0.96,-2.08 1.37,-4.37 1.5,-6.66 0.16,-2.9 -0.12,-5.86 -1.08,-8.61 -1.04,-2.99 -2.92,-5.75 -5.58,-7.47 -1.32,-0.86 -2.83,-1.45 -4.4,-1.67 -1.57,-0.22 -3.19,-0.05 -4.67,0.52 -0.84,0.33 -1.62,0.78 -2.37,1.29 z"
         style="fill:url(#radialGradient2)" />
    </clipPath>
    <clipPath
       id="clip_pupil_right">
      <path
         id="use100"
         fill="#020204"
         d="m 117.14,45.52 c -0.9,0.06 -1.78,0.37 -2.55,0.85 -0.76,0.48 -1.41,1.13 -1.92,1.88 -1.03,1.49 -1.48,3.31 -1.55,5.12 -0.05,1.35 0.1,2.72 0.55,4 0.45,1.28 1.2,2.47 2.25,3.33 1.07,0.89 2.42,1.42 3.81,1.49 1.39,0.06 2.79,-0.34 3.93,-1.13 0.91,-0.63 1.64,-1.5 2.16,-2.48 0.52,-0.97 0.84,-2.05 0.98,-3.15 0.25,-1.93 -0.03,-3.95 -0.93,-5.69 -0.89,-1.74 -2.41,-3.17 -4.24,-3.84 -0.8,-0.29 -1.65,-0.44 -2.49,-0.38 z" />
    </clipPath>
    <clipPath
       id="clip_mandible_lower">
      <path
         id="use101"
         fill="url(#fill_mandible_lower_base)"
         d="m 77.14,75.05 c 0.06,0.26 0.15,0.5 0.28,0.73 0.23,0.38 0.57,0.69 0.93,0.95 0.36,0.27 0.75,0.49 1.13,0.72 2.01,1.27 3.65,3.04 5.11,4.92 1.95,2.52 3.68,5.31 6.29,7.14 1.84,1.3 4.04,2.03 6.28,2.26 2.63,0.26 5.29,-0.16 7.83,-0.91 2.35,-0.69 4.62,-1.66 6.7,-2.95 3.97,-2.44 7.28,-6.02 11.65,-7.63 0.95,-0.35 1.94,-0.6 2.86,-1.03 0.92,-0.44 1.79,-1.08 2.23,-2 0.42,-0.88 0.4,-1.9 0.54,-2.87 0.15,-1.03 0.48,-2.03 0.66,-3.06 0.18,-1.03 0.2,-2.13 -0.24,-3.08 -0.37,-0.78 -1.04,-1.4 -1.81,-1.79 -0.77,-0.4 -1.64,-0.58 -2.51,-0.62 -1.72,-0.08 -3.43,0.36 -5.16,0.52 -2.28,0.21 -4.58,-0.09 -6.87,-0.02 -2.85,0.09 -5.66,0.73 -8.51,0.87 -3.25,0.15 -6.49,-0.35 -9.74,-0.48 -1.41,-0.06 -2.83,-0.04 -4.22,0.2 -1.39,0.23 -2.75,0.71 -3.91,1.51 -1.13,0.78 -2.03,1.84 -3.07,2.74 -0.52,0.45 -1.08,0.86 -1.7,1.16 -0.61,0.3 -1.29,0.49 -1.98,0.47 -0.35,-0.01 -0.72,-0.06 -1.05,0.04 -0.21,0.07 -0.4,0.2 -0.56,0.35 -0.16,0.16 -0.29,0.34 -0.41,0.52 -0.29,0.42 -0.54,0.87 -0.75,1.34 z"
         style="fill:url(#radialGradient3)" />
    </clipPath>
    <clipPath
       id="clip_mandible_upper">
      <path
         id="use102"
         fill="url(#fill_mandible_upper_base)"
         d="m 83.94,63.95 c -1.66,1.12 -3.16,2.49 -4.43,4.04 -0.72,0.89 -1.38,1.86 -1.74,2.94 -0.29,0.86 -0.39,1.76 -0.57,2.65 -0.07,0.33 -0.15,0.66 -0.14,1 0,0.16 0.02,0.33 0.07,0.5 0.05,0.16 0.14,0.31 0.25,0.43 0.2,0.2 0.47,0.31 0.74,0.37 0.28,0.05 0.56,0.06 0.84,0.09 1.25,0.15 2.4,0.75 3.44,1.47 1.04,0.71 2,1.55 3.07,2.22 2.35,1.49 5.16,2.15 7.95,2.26 2.78,0.11 5.56,-0.31 8.3,-0.86 2.17,-0.43 4.33,-0.95 6.39,-1.76 3.16,-1.25 6.01,-3.16 8.72,-5.19 1.24,-0.92 2.46,-1.87 3.57,-2.94 0.37,-0.37 0.74,-0.74 1.14,-1.08 0.4,-0.33 0.85,-0.62 1.35,-0.78 0.76,-0.24 1.58,-0.17 2.37,-0.04 0.59,0.1 1.18,0.23 1.78,0.21 0.3,-0.02 0.6,-0.07 0.88,-0.18 0.28,-0.11 0.54,-0.28 0.73,-0.52 0.25,-0.3 0.38,-0.7 0.38,-1.09 0,-0.4 -0.12,-0.79 -0.32,-1.13 -0.4,-0.68 -1.09,-1.14 -1.81,-1.46 -0.99,-0.44 -2.06,-0.65 -3.11,-0.91 -3.23,-0.78 -6.37,-1.93 -9.34,-3.41 -1.48,-0.73 -2.92,-1.54 -4.37,-2.32 -1.5,-0.8 -3.02,-1.57 -4.64,-2.07 -3.64,-1.1 -7.6,-0.74 -11.19,0.51 -3.98,1.38 -7.58,3.84 -10.31,7.05 z"
         style="fill:url(#linearGradient4)" />
    </clipPath>
    <clipPath
       id="clip_beak">
      <path
         id="use103"
         fill="url(#fill_mandible_lower_base)"
         d="m 77.14,75.05 c 0.06,0.26 0.15,0.5 0.28,0.73 0.23,0.38 0.57,0.69 0.93,0.95 0.36,0.27 0.75,0.49 1.13,0.72 2.01,1.27 3.65,3.04 5.11,4.92 1.95,2.52 3.68,5.31 6.29,7.14 1.84,1.3 4.04,2.03 6.28,2.26 2.63,0.26 5.29,-0.16 7.83,-0.91 2.35,-0.69 4.62,-1.66 6.7,-2.95 3.97,-2.44 7.28,-6.02 11.65,-7.63 0.95,-0.35 1.94,-0.6 2.86,-1.03 0.92,-0.44 1.79,-1.08 2.23,-2 0.42,-0.88 0.4,-1.9 0.54,-2.87 0.15,-1.03 0.48,-2.03 0.66,-3.06 0.18,-1.03 0.2,-2.13 -0.24,-3.08 -0.37,-0.78 -1.04,-1.4 -1.81,-1.79 -0.77,-0.4 -1.64,-0.58 -2.51,-0.62 -1.72,-0.08 -3.43,0.36 -5.16,0.52 -2.28,0.21 -4.58,-0.09 -6.87,-0.02 -2.85,0.09 -5.66,0.73 -8.51,0.87 -3.25,0.15 -6.49,-0.35 -9.74,-0.48 -1.41,-0.06 -2.83,-0.04 -4.22,0.2 -1.39,0.23 -2.75,0.71 -3.91,1.51 -1.13,0.78 -2.03,1.84 -3.07,2.74 -0.52,0.45 -1.08,0.86 -1.7,1.16 -0.61,0.3 -1.29,0.49 -1.98,0.47 -0.35,-0.01 -0.72,-0.06 -1.05,0.04 -0.21,0.07 -0.4,0.2 -0.56,0.35 -0.16,0.16 -0.29,0.34 -0.41,0.52 -0.29,0.42 -0.54,0.87 -0.75,1.34 z"
         style="fill:url(#radialGradient4)" />
      <path
         id="use104"
         fill="url(#fill_mandible_upper_base)"
         d="m 83.94,63.95 c -1.66,1.12 -3.16,2.49 -4.43,4.04 -0.72,0.89 -1.38,1.86 -1.74,2.94 -0.29,0.86 -0.39,1.76 -0.57,2.65 -0.07,0.33 -0.15,0.66 -0.14,1 0,0.16 0.02,0.33 0.07,0.5 0.05,0.16 0.14,0.31 0.25,0.43 0.2,0.2 0.47,0.31 0.74,0.37 0.28,0.05 0.56,0.06 0.84,0.09 1.25,0.15 2.4,0.75 3.44,1.47 1.04,0.71 2,1.55 3.07,2.22 2.35,1.49 5.16,2.15 7.95,2.26 2.78,0.11 5.56,-0.31 8.3,-0.86 2.17,-0.43 4.33,-0.95 6.39,-1.76 3.16,-1.25 6.01,-3.16 8.72,-5.19 1.24,-0.92 2.46,-1.87 3.57,-2.94 0.37,-0.37 0.74,-0.74 1.14,-1.08 0.4,-0.33 0.85,-0.62 1.35,-0.78 0.76,-0.24 1.58,-0.17 2.37,-0.04 0.59,0.1 1.18,0.23 1.78,0.21 0.3,-0.02 0.6,-0.07 0.88,-0.18 0.28,-0.11 0.54,-0.28 0.73,-0.52 0.25,-0.3 0.38,-0.7 0.38,-1.09 0,-0.4 -0.12,-0.79 -0.32,-1.13 -0.4,-0.68 -1.09,-1.14 -1.81,-1.46 -0.99,-0.44 -2.06,-0.65 -3.11,-0.91 -3.23,-0.78 -6.37,-1.93 -9.34,-3.41 -1.48,-0.73 -2.92,-1.54 -4.37,-2.32 -1.5,-0.8 -3.02,-1.57 -4.64,-2.07 -3.64,-1.1 -7.6,-0.74 -11.19,0.51 -3.98,1.38 -7.58,3.84 -10.31,7.05 z"
         style="fill:url(#linearGradient5)" />
    </clipPath>
    <radialGradient
       inkscape:collect="always"
       xlink:href="#gradient_eyeball"
       id="radialGradient1"
       gradientUnits="userSpaceOnUse"
       gradientTransform="matrix(10.239439,-0.10723107,0.16419757,15.67914,86.49,51.41)"
       cx="0"
       cy="0"
       r="1" />
    <radialGradient
       inkscape:collect="always"
       xlink:href="#gradient_eyeball"
       id="radialGradient2"
       gradientUnits="userSpaceOnUse"
       gradientTransform="matrix(13.633269,-0.42844275,0.4925207,15.672263,118.06,51.41)"
       cx="0"
       cy="0"
       r="1" />
    <radialGradient
       inkscape:collect="always"
       xlink:href="#gradient_mandible_lower"
       id="radialGradient3"
       gradientUnits="userSpaceOnUse"
       gradientTransform="matrix(25.101425,-10.346061,7.2670121,17.631093,109.77,70.61)"
       cx="0"
       cy="0"
       r="1" />
    <radialGradient
       inkscape:collect="always"
       xlink:href="#gradient_mandible_lower"
       id="radialGradient4"
       gradientUnits="userSpaceOnUse"
       gradientTransform="matrix(25.101425,-10.346061,7.2670121,17.631093,109.77,70.61)"
       cx="0"
       cy="0"
       r="1" />
    <linearGradient
       inkscape:collect="always"
       xlink:href="#gradient_mandible_upper"
       id="linearGradient4"
       gradientUnits="userSpaceOnUse"
       x1="78.089996"
       y1="69.260002"
       x2="126.77"
       y2="68.879997" />
    <linearGradient
       inkscape:collect="always"
       xlink:href="#gradient_mandible_upper"
       id="linearGradient5"
       gradientUnits="userSpaceOnUse"
       x1="78.089996"
       y1="69.260002"
       x2="126.77"
       y2="68.879997" />
    <linearGradient
       inkscape:collect="always"
       xlink:href="#gradient_foot_left_layer_1"
       id="linearGradient6"
       gradientUnits="userSpaceOnUse"
       x1="23.18"
       y1="193.00999"
       x2="64.309998"
       y2="262.01999" />
    <linearGradient
       inkscape:collect="always"
       xlink:href="#gradient_foot_right_layer_1"
       id="linearGradient7"
       gradientUnits="userSpaceOnUse"
       x1="151.5"
       y1="253.02"
       x2="192.94"
       y2="185.84" />
  </defs>
  <metadata
     id="metadata104">
    <rdf:RDF>
      <cc:Work
         rdf:about="">
        <dc:title>Tux</dc:title>
      </cc:Work>
    </rdf:RDF>
  </metadata>
  <g
     inkscape:groupmode="layer"
     id="layer1"
     inkscape:label="Mark">
    <g
       id="tux"
       inkscape:label="Icon"
       transform="matrix(1.5220804,0,0,1.5220804,125.60508,-54.594077)"
       sodipodi:insensitive="true">
      <path
         id="path76-6"
         style="fill:#e9e9e9;fill-opacity:1;fill-rule:evenodd;stroke:none;stroke-width:0.232702"
         d="m 280.12283,262.02339 c 0,113.0209 -90.66521,204.64267 -202.502317,204.64267 -111.839423,0 -202.497683,-91.62177 -202.497683,-204.64267 0,-113.02792 90.65826,-204.649689 202.497683,-204.649689 111.837107,0 202.502317,91.621769 202.502317,204.649689"
         inkscape:connector-curvature="0"
         transform="matrix(0.64,0,0,0.64,-0.8,0)" />
      <path
         id="path78"
         style="fill:#403c3d;fill-opacity:1;fill-rule:evenodd;stroke:none;stroke-width:0.232702"
         d="m 274.8565,262.02339 c 0,110.08074 -88.30428,199.32093 -197.235987,199.32093 -108.931704,0 -197.231353,-89.24019 -197.231353,-199.32093 0,-110.08542 88.299649,-199.325614 197.231353,-199.325614 108.931707,0 197.235987,89.240194 197.235987,199.325614"
         inkscape:connector-curvature="0"
         transform="matrix(0.64,0,0,0.64,-0.8,0)" />
      <path
         id="path80"
         style="fill:#adda1a;fill-opacity:1;fill-rule:nonzero;stroke:none;stroke-width:0.232702"
         d="m 272.8292,233.61741 c -1.48745,-1.75989 -3.19964,-3.36786 -5.27328,-4.75146 0.87348,3.78621 3.70474,8.22917 6.28346,12.76562 -0.2734,-2.69242 -0.63252,-5.35446 -1.01018,-8.01416 z m -93.38989,174.34126 c -14.74248,1.36724 -11.43625,9.65719 7.01791,7.89263 6.76769,-0.6474 17.75678,-7.71501 28.0647,-10.41444 5.19219,-5.06231 10.13415,-10.38639 14.75406,-15.99326 -6.25565,3.41695 -18.0487,8.72466 -29.49422,14.21935 -6.55917,3.14583 -14.77492,3.7792 -20.34245,4.29572 z m 94.7615,-161.52421 c -2.13387,-2.59894 -3.85301,-6.56278 -6.1537,-9.45619 -0.53752,-0.95123 -2.45824,-4.42193 -4.41371,-8.70363 -0.16218,-0.43004 -0.31278,-0.8554 -0.55374,-1.28778 l -0.0116,0.0164 c -0.56764,-1.27376 -1.11906,-2.59893 -1.6311,-3.93813 l -0.002,-0.014 c -0.40777,-1.06341 -0.78543,-2.1315 -1.12138,-3.1879 -1.62415,-5.13944 -6.29735,-14.03003 -12.88664,-21.49496 -0.0394,-0.4277 -0.0533,-0.83437 0.0765,-1.11716 l -1.08894,0.0257 c -3.73022,-4.0246 -8.00724,-7.54438 -12.6758,-9.68056 -13.56086,-6.20051 -25.51147,-12.44076 -25.51147,-12.44076 -0.41472,3.53381 2.95406,8.04922 4.88173,12.0154 0.42862,1.56123 0.70434,3.04066 0.72982,4.30507 l -0.12279,-0.11219 c -0.18304,0.402 -0.0834,1.05407 -0.0209,1.67342 -0.14596,0.66843 -0.40545,1.22701 -0.84335,1.59628 -2.27057,-7.24055 -6.31126,-12.94558 -8.39184,-19.40085 -2.23118,-6.91803 -3.99435,-13.58364 -9.17958,-18.76047 -6.48039,-6.47163 -18.61404,-10.0101 -27.81447,-14.05341 -3.5217,-2.18058 -6.75379,-4.26534 -9.20508,-5.95511 l 0.0626,-0.0935 c -9.77735,-7.90665 -23.07408,-20.08798 -37.11685,-10.22746 -8.47525,5.95512 -16.70258,17.30675 -26.625897,22.12366 -1.088946,0.53522 -2.358611,1.10315 -3.709368,1.57759 l -0.05792,0.0678 -0.421677,0.0888 c -0.977735,0.3202 -1.983273,0.57962 -2.984176,0.72219 -2.583352,0.70583 -4.619913,1.48644 -6.385396,2.18759 -0.206205,0.39031 -0.54679,0.40199 -0.630199,0.25242 -3.405854,1.34621 -5.894212,2.2951 -9.751862,1.59395 -2.353978,-0.42537 -8.41269,0.002 -10.933485,0.23605 0,0 -15.998243,0.0117 3.690833,-2.18993 -0.757628,-0.57494 -1.473553,-1.14989 -2.133871,-1.7295 -10.525709,0.84371 -19.735415,-2.88641 -30.233321,-1.36725 1.179306,1.91882 5.043907,1.45138 5.801535,3.75116 -8.032716,2.68307 -12.499713,-8.80646 -20.479141,-4.06668 1.193207,2.21564 0.13438,5.01323 -1.600983,6.49266 0.671903,-6.79883 -8.5632888,-12.54827 -14.49457102,-7.42285 2.24739992,2.53817 2.36324522,6.74507 1.03334062,10.07788 l -4.0314184,4.55748 c -0.9452981,0.39498 -1.9902232,0.55391 -3.1301415,0.32721 3.8785025,-1.7225 6.7213475,-4.84496 6.73293204,-8.52133 0.0208522,-6.49967 -7.90528704,-8.24554 -14.46445074,-8.0609 -13.016384,0.37161 -23.259431,6.24258 -31.009485,13.81969 l 0.05561,-0.22203 -4.4948,4.89871 c 0,0 -14.040457,5.92473 -19.075096,21.75672 0.162183,-1.95154 0.379973,-4.1625 0.660318,-6.52071 2.268253,-6.64457 5.850191,-11.60639 11.454789,-15.60996 -6.649523,0.84372 -16.146525,3.63196 -19.086681,12.51555 -1.380876,4.1625 -2.805774,7.2686 -3.92484,14.23337 l -0.06719,-0.0795 c 0,0 -2.676028,13.7075 -0.942982,21.51365 1.50599,6.79182 3.646812,13.7823 4.629181,18.33745 0.07182,0.60065 0.185352,1.22701 0.35912,1.87441 12.402404,-5.95979 29.589221,-7.51167 45.83769,-9.92597 -6.783904,1.11951 -16.433822,3.7722 -25.724619,6.03925 -9.269945,2.26706 -22.708007,5.79619 -22.916528,14.23805 -0.122796,4.96181 3.56572,9.32531 9.819052,9.48891 -0.556058,-1.21065 -0.512036,-2.97756 -0.465698,-4.74913 -1.290518,0.10751 -1.068094,1.6033 -1.869744,2.15721 -0.4796,-9.62447 15.900933,-10.60842 26.656016,-12.50854 1.461968,-0.25709 2.845162,-0.61468 4.212137,-0.86475 5.01147,-0.88579 12.460326,-0.46043 20.488409,-0.34123 11.035429,0.15659 18.8132861,-1.23403 28.9706068,2.60595 3.2622052,1.23636 10.1341512,1.65705 13.4450122,2.01464 11.742085,1.25739 20.476825,-0.76192 34.841649,0.46977 5.72276,0.48847 11.461739,2.72046 16.839281,5.17683 7.455807,3.39825 13.322215,7.6145 22.446195,5.17917 3.299284,0.17062 6.617094,-0.45575 7.710674,0.17062 5.27559,0.47444 4.45077,4.62993 10.53034,4.13912 7.07583,-0.56793 12.65495,-5.05062 21.04678,-5.61154 6.54295,-0.43004 13.43575,1.21299 21.04679,0.43471 5.27559,-0.53989 10.50254,-2.8864 14.9649,-4.74212 11.25785,-4.6907 29.76994,-13.89448 31.33617,-26.30953 1.26966,-10.05217 -6.24407,-15.27341 -16.83697,-12.51555 10.75972,-5.64427 20.68303,2.78825 20.57646,13.37563 -0.0301,3.22997 -2.27289,6.15844 -3.73949,9.92129 -1.47587,3.77687 -1.50831,6.42254 -3.27611,8.62416 -0.88274,1.10782 -2.02266,2.03334 -3.2205,2.80227 -2.06436,1.03069 -5.04159,1.89544 -9.1263,3.02663 -6.0309,1.67575 -11.70733,3.46369 -11.70733,3.46369 -0.92676,0.1823 -1.2882,0.3646 -1.35075,0.5282 -3.71401,1.02602 -8.19027,2.54284 -10.76435,4.43595 -4.95819,3.64832 -12.9214,6.53006 -20.58109,5.16515 -0.70897,-0.12855 -1.2882,-0.15425 -1.75853,-0.10284 -2.51616,-0.33188 -4.99525,-0.68245 -7.43496,-0.77126 0,0 -13.93388,0.35291 -13.14613,0.82502 0.79007,0.48379 0.987,0.47211 0.987,0.47211 5.09952,4.06434 7.53459,10.83979 10.28939,17.24832 3.0977,7.21017 5.42156,14.6377 6.08188,24.15699 1.98095,-7.72201 4.67783,-14.78494 8.1671,-21.12335 4.54345,-7.52335 13.58171,-19.37748 27.47852,-24.0004 4.8933,-1.54955 8.94557,-3.87503 12.05486,-7.07228 -4.28396,6.42021 -11.67953,9.14535 -17.77067,13.37796 -12.63873,8.77374 -19.4041,21.70765 -25.25429,37.95566 -1.33454,3.70208 -2.66445,7.39481 -4.67552,10.78604 -1.94157,3.25568 -4.90489,6.18883 -6.08188,9.48424 -0.75995,2.12449 -0.45643,4.51074 -0.93372,6.47396 -1.32063,5.42458 -3.60047,10.81176 -6.76305,15.07476 -2.68529,3.04299 -8.24124,9.30661 -9.29775,10.27887 l -0.051,0.0841 c -7.37935,7.22653 -16.130308,13.17931 -25.516098,18.55947 l 0.09036,0.19165 -0.505086,0.34357 -0.05097,-0.10518 c -1.302101,0.84372 -2.474456,1.8043 -3.563403,2.83967 -1.121383,0.94188 -2.064364,1.88142 -2.513844,2.64801 -3.864601,4.52009 -6.834876,9.84183 -11.227732,13.92019 -2.518478,2.34184 -5.493386,4.22327 -8.440492,6.16312 l 0.02085,-0.0725 c 0,0 -3.533283,2.41429 -6.556847,4.25131 -9.327868,4.46166 -18.961568,12.35195 -33.194328,12.52256 -7.64116,0.0841 -18.1228475,-0.50249 -21.5171164,-6.4763 0,0 -2.0110754,-0.96525 -1.8697441,3.452 0.1807188,5.63492 9.5155375,5.80086 14.3625075,8.14504 2.453604,1.43503 -2.377147,0.24307 -4.070806,0.48613 3.725587,4.0363 5.935916,9.47256 14.028872,9.48191 0,0 -1.888279,-1.78093 -2.537013,-2.14085 -0.651051,-0.35525 0.41241,-0.89514 3.31086,0.1823 2.377147,0.88345 5.479486,1.68042 9.538707,1.65705 0.26181,0 0.51667,0.005 0.790065,0 0.639467,-0.0187 1.304419,-0.0608 1.994857,-0.12621 0,0 7.189363,-0.0397 14.126183,-3.06636 6.941453,-3.02898 14.823571,-2.232 18.451848,-4.94078 3.628276,-2.70645 6.308938,-7.96274 8.672183,-8.76439 2.367879,-0.79932 5.688007,-2.64802 8.396472,-5.73776 2.307639,-2.62698 5.82007,-1.14287 8.693035,-3.82595 2.615788,-2.44 20.04588,-11.17401 20.04588,-11.17401 5.18061,-3.60158 8.35709,-7.82485 14.21423,-10.79773 8.49378,-5.98783 -11.78148,4.20925 -17.68032,6.51837 -7.33301,2.86537 -0.71129,-1.00732 -0.71129,-1.00732 l 11.87646,-6.85492 c 3.57731,-1.76924 7.16156,-3.52212 10.81996,-5.20254 2.36556,-1.01667 6.41552,-2.72281 9.57809,-3.86335 6.23017,-1.59161 11.73514,-1.12651 16.98525,-2.10111 5.57448,-1.0307 10.46547,-3.75116 15.90093,-4.74446 0.86421,-0.15425 2.3285,0.29448 3.27611,0 5.90116,-1.83468 11.80464,-7.63554 17.30498,-10.78137 12.68738,-7.25458 22.08244,-14.05808 25.72462,-29.76621 0.85494,-3.68805 1.36929,-7.42051 2.33776,-11.20907 2.06436,-8.10531 3.59584,-15.53284 2.80346,-26.31187 -0.46802,-6.40618 -4.13337,-13.06011 -3.73949,-21.13737 0.3707,-7.59347 5.65325,-13.37095 7.94931,-20.27262 2.74321,-8.24086 -2.27057,-14.02069 -9.73101,-17.13614 l 0.005,-0.007 c 0,0 -5.52119,-2.62931 -7.64811,-2.78824 -2.12924,-0.16127 1.10516,-0.71518 2.52311,-0.71518 1.08895,0 2.03193,-0.75724 2.77102,-1.9305 0.84336,-1.20364 1.31601,-2.89342 2.25899,-4.16718 1.32527,-1.78793 4.60833,-4.23962 4.67783,-6.03457 0.0904,-2.34652 -3.8924,-5.57182 -6.08188,-6.90634 -3.77656,-2.30445 -9.87234,-3.71143 -14.9649,-6.03925 -5.66947,-2.58257 -9.7565,-5.43626 -12.62715,-8.19178 -1.59171,-4.13212 -4.59211,-6.70768 -4.20982,-11.64846 0.095,-1.25273 0.55143,-2.46338 0.9592,-3.72312 l 0.17146,-0.46509 c 0.47264,-1.61031 1.1237,-4.12043 0,-6.98814 -1.12139,-2.87005 -5.20378,-3.70442 -5.20378,-3.70442 l -0.0162,0.002 c -2.21264,-0.74322 -4.8377,-1.1943 -6.66806,-1.94686 -2.88918,-1.1756 -5.15975,-2.75787 -7.41641,-3.94515 2.80577,0.89747 6.21857,2.34418 11.49881,2.8233 2.3308,0.20801 8.86912,1.39062 10.10171,5.58584 l 0.12975,0.47211 0.10889,0.41835 c 0.0533,0.2384 0.0927,0.47912 0.12975,0.72219 0.0417,0.31552 0.088,0.62169 0.095,0.96291 l 0.0208,0.48847 c 0.0232,1.67342 -0.32436,3.43097 -1.10516,5.17917 -3.0004,6.71937 0.28498,11.80505 5.17597,14.43437 4.62686,3.66702 11.47332,5.68166 18.20857,8.23385 5.37986,2.03568 11.3737,5.03427 14.42507,8.49094 1.58476,2.76721 2.43507,5.81255 1.39246,8.7083 -1.66818,3.26503 -5.67411,4.68603 -6.92987,8.68025 1.57549,2.01932 4.44151,2.46572 6.54758,3.87737 3.26915,2.19928 5.67642,5.15113 6.41551,9.39075 l 0.0417,0.4464 c 0.0788,0.50483 0.12279,1.00966 0.14596,1.5215 0.007,0.45809 -0.0116,0.91617 -0.0185,1.37426 -0.38924,7.55841 -6.13981,15.37157 -7.81493,18.97782 -1.8906,4.05967 -1.29978,8.24554 -1.29978,8.24554 0.41936,1.63602 0.84335,2.93082 1.26966,3.93814 0.75763,2.23433 1.62879,5.36614 2.2891,9.05887 2.34703,5.23293 4.88636,11.32126 6.01933,15.44636 2.36788,8.60313 5.67874,23.90926 0.94761,57.85199 -4.7288,33.93806 -49.98727,35.37074 -63.70567,41.11317 -9.44603,3.94982 1.10284,7.16811 19.00095,3.82128 8.09759,-1.51916 18.56074,-8.25489 28.38443,-10.27654 4.16348,-0.85775 6.84414,-1.25273 8.36172,-1.27142 26.6398,-33.98247 42.58707,-76.91162 42.58707,-123.634 0,-5.25396 -0.26181,-10.44014 -0.65569,-15.58893"
         inkscape:connector-curvature="0"
         transform="matrix(0.64,0,0,0.64,-0.8,0)" />
      <path
         id="path82"
         style="fill:#f4f4f4;fill-opacity:1;fill-rule:nonzero;stroke:none;stroke-width:0.232702"
         d="m 53.615038,127.39066 c 6.54758,-9.63849 6.417833,-16.74115 5.683374,-24.11259 -0.145966,-0.45808 0.157549,-0.44406 0.530571,-0.78061 12.851884,2.63633 13.87364,15.30613 8.357084,24.85581 -2.618105,4.52009 -5.17597,6.90166 -9.19117,5.63959 -3.324762,-1.04705 -3.778876,-3.74648 -5.379859,-5.6022 z m -5.314984,-6.15143 c -5.440098,-1.57525 -7.015595,-7.80148 -9.209706,-10.3747 5.928965,-6.38749 5.58838,-11.999036 5.356689,-17.122115 -0.05792,-1.177934 -0.268761,-2.486749 0.201571,-3.648323 1.107482,0.09349 3.04905,0.378621 4.636131,1.229352 7.217166,3.851657 10.203659,17.631616 6.00774,25.732246 -1.800237,3.47304 -3.623642,5.16048 -6.992425,4.18354 z m -11.475641,-12.9339 c -4.900259,-2.48442 -7.655061,-5.79619 -8.931677,-9.556695 -0.750678,-2.201615 -1.327588,-2.468052 -0.820185,-5.202542 1.091263,-5.903693 1.457334,-12.417388 -0.0023,-17.105753 l 0.35217,-0.172951 c 14.142401,5.034266 22.256209,14.553563 9.402009,32.037941 z m 37.153922,5.02024 c 0.09963,-0.26176 0.329001,-0.21969 0.563008,-0.1636 4.501751,2.00529 9.237509,5.37315 11.540515,9.01914 4.376637,6.91803 5.674105,17.32077 2.027293,25.68317 -1.619518,0.37628 -2.662126,0.75257 -3.966545,1.22 -0.222423,0.0584 -0.454113,0.12387 -0.678853,0.20567 l -1.21406,0.44874 -0.122796,0.0514 -0.192303,0.0631 0.0139,0.005 c -0.530571,0.23371 -0.89896,0.41134 -0.89896,0.41134 -1.719145,0.88812 -3.524015,1.41632 -5.240843,1.71548 -10.632287,-2.30445 -13.841203,-14.55122 -13.841203,-14.55122 9.93258,-4.41024 15.546446,-17.11744 12.010846,-24.10792 z m 20.400367,16.86736 c 3.913256,2.05671 6.526728,4.87768 8.035038,8.08661 -0.48424,0.42537 -0.98006,0.86242 -1.48746,1.30414 -0.66958,-1.26207 -1.594031,-2.40261 -2.810407,-3.3702 0.549107,1.61265 0.864207,3.26269 0.980052,4.95948 -0.727509,0.62636 -1.443433,1.24104 -2.106069,1.80663 -0.609346,1.18027 -2.476773,2.73917 -4.863188,3.76051 1.892913,-5.80787 2.11997,-11.97566 2.252034,-16.54717 z M 22.112053,92.77249 c -2.031928,-1.346211 -3.614375,-2.963533 -4.756611,-4.746794 -0.903593,-1.416326 -2.173258,-3.734799 -1.899863,-5.639594 0.187669,-1.311152 1.216376,-3.068705 1.739997,-4.536448 1.503673,-4.211582 2.092167,-8.011822 0.912861,-11.033783 8.598042,3.823611 9.946482,13.43172 4.003616,25.956619 z M 5.6481108,67.69231 C 6.6374301,66.607862 7.4020095,66.070313 8.0252575,64.964831 9.0493304,63.146512 8.0275744,62.22333 8.5720476,61.120185 17.809556,62.323828 18.604255,68.879592 14.616858,78.176858 8.460836,76.073404 6.8204658,71.915577 5.6481108,67.69231 Z M 1.8924044,57.693893 c 3.2158671,0.902148 6.80939,2.748513 3.3826844,8.266573 -2.1037517,-2.27173 -2.8173591,-5.27032 -3.3826844,-8.266573"
         inkscape:connector-curvature="0"
         transform="matrix(0.64,0,0,0.64,-0.8,0)" />
      <path
         id="path84"
         style="fill:#f6836c;fill-opacity:1;fill-rule:nonzero;stroke:none;stroke-width:0.232702"
         d="m 54.039032,298.4926 c -5.546675,-1.16157 -10.129517,0.45107 -14.964902,1.29012 -3.215868,0.54923 -7.7014,1.8674 -9.654552,-0.16594 -0.822502,-0.98395 -0.166818,-1.99127 -0.166818,-1.99127 1.846575,-4.61124 7.219483,-7.32703 11.691114,-8.6265 14.028872,-4.0807 27.619849,3.41928 41.157537,4.31208 17.446311,1.15457 29.955289,-4.95714 38.817459,-11.21374 2.33081,-1.64537 5.41461,-5.64661 9.35799,-3.01963 -1.67976,3.51978 -6.13285,5.83592 -9.82369,7.76408 -6.46185,3.37254 -12.19388,6.32439 -19.64273,8.19646 12.553,-1.93985 21.47541,-7.22419 30.86815,-12.08083 1.14919,2.44 2.44202,7.3317 3.29232,11.4755 l 0.11817,-0.014 c 0,0 0.85494,2.32081 0.60239,4.58787 0.0324,1.08211 -0.18303,2.0123 -0.94761,2.52414 -0.25718,0.33188 -0.56764,0.64039 -0.95457,0.89748 -3.42902,2.26939 -13.60256,7.29197 -21.76271,7.88795 -0.26876,0.014 -0.52825,0.0491 -0.7947,0.0771 l -0.60007,0.17062 -0.0185,-0.11452 c -7.4002,0.86709 -12.186931,3.94981 -2.72468,2.3769 9.47151,-1.57759 29.7514,-5.06231 22.36278,-2.26005 l 0.0255,-0.002 c -9.22592,3.64131 -21.32945,7.20783 -33.208229,6.03925 -7.67823,-0.75257 -15.620588,-4.55982 -22.448513,-8.19646 -6.820974,-3.62963 -13.289779,-8.40213 -20.581086,-9.91428"
         inkscape:connector-curvature="0"
         transform="matrix(0.64,0,0,0.64,-0.8,0)" />
      <path
         id="path86"
         style="fill:#f4f4f4;fill-opacity:1;fill-rule:nonzero;stroke:none;stroke-width:0.232702"
         d="m 7.0567903,391.43253 c 0.9452981,-0.51885 1.1515029,1.68043 1.920716,4.43595 0.7715301,2.7789 4.5967437,8.48627 4.5967437,8.48627 0.544473,1.1756 -1.545377,2.33484 -3.132458,2.86537 -1.5662296,0.53054 -1.5662296,-0.25475 -1.5662296,-0.25475 0,0 -2.8335774,-4.09005 -3.2714728,-7.90197 -0.4448462,-3.76986 0.5166703,-7.13305 1.4527007,-7.63087 z m 9.4159107,-0.42302 c 1.086629,-0.59131 1.316003,1.91414 2.189477,5.0553 0.875791,3.15284 5.252428,9.64784 5.252428,9.64784 0.620931,1.33219 -1.790969,2.641 -3.612058,3.25334 -1.79792,0.59832 -1.795603,-0.29448 -1.795603,-0.29448 0,0 -3.239036,-4.64864 -3.73022,-8.98409 -0.498135,-4.28871 0.618614,-8.10764 1.695976,-8.67791 z m 9.364938,-5.14178 c 1.390145,-0.74789 1.675124,2.43066 2.780289,6.40619 1.105164,4.00357 6.686594,12.23041 6.686594,12.23041 0.790065,1.68978 -2.305323,3.35852 -4.636131,4.12511 -2.305323,0.75958 -2.298372,-0.3646 -2.298372,-0.3646 0,0 -4.119461,-5.88967 -4.733441,-11.37735 -0.620932,-5.42925 0.817868,-10.28355 2.201061,-11.01976 z m 13.310632,-5.86396 c 1.410996,-0.71284 1.614884,2.36054 2.590302,6.20519 0.998587,3.88905 6.322839,11.88451 6.322839,11.88451 0.74141,1.63368 -2.393365,3.22296 -4.745026,3.95216 -2.32154,0.7105 -2.298371,-0.37862 -2.298371,-0.37862 0,0 -3.934109,-5.7214 -4.390539,-11.02444 -0.458748,-5.2563 1.126016,-9.94232 2.520795,-10.6388 z m 10.25463,-7.42753 c 1.406363,-0.93019 2.001808,2.15253 3.514748,5.90603 1.524525,3.76752 8.227338,11.167 8.227338,11.167 1.00322,1.57058 -2.145456,3.64132 -4.568941,4.73511 -2.386415,1.06809 -2.492992,-0.0678 -2.492992,-0.0678 0,0 -4.900259,-5.28901 -6.047128,-10.62244 -1.135284,-5.26798 -0.03244,-10.20409 1.366975,-11.11792 z m 11.299556,-9.56838 c 1.253447,-1.04471 2.191794,1.66173 4.124095,4.85431 1.957786,3.25568 9.413594,9.02381 9.413594,9.02381 1.181622,1.2948 -1.607934,3.70442 -3.839116,5.06699 -2.203378,1.34154 -2.430435,0.31318 -2.430435,0.31318 0,0 -5.451683,-4.15315 -7.2218,-8.86723 -1.749264,-4.66966 -1.276615,-9.35102 -0.04634,-10.39106 z M 103.6556,334.74212 c 0.96847,-0.87644 1.98559,0.96058 3.87155,3.04066 1.90218,2.11514 8.57951,5.43158 8.57951,5.43158 1.07968,0.80165 -1.06578,2.81396 -2.80578,4.02461 -1.73768,1.21299 -2.01339,0.50016 -2.01339,0.50016 0,0 -4.91879,-2.34886 -6.77927,-5.55312 -1.85121,-3.16453 -1.82109,-6.5581 -0.85262,-7.44389 z m -19.422634,35.34503 c -2.189477,1.49112 -2.509211,0.51886 -2.509211,0.51886 0,0 -5.901162,-3.64365 -8.03735,-8.1357 -2.08985,-4.4266 -1.911449,-9.00745 -0.702023,-10.11293 1.22101,-1.11016 2.372513,1.44203 4.578208,4.41725 2.238133,3.0243 10.305603,8.08427 10.305603,8.08427 1.292834,1.17326 -1.436482,3.72779 -3.635227,5.22825 z m 3.586572,-26.81903 c 1.186256,-1.12184 2.455922,1.2574 4.826118,3.9615 2.397998,2.76721 10.813004,7.17044 10.813004,7.17044 1.36929,1.04238 -1.30905,3.64833 -3.479994,5.21189 -2.170941,1.56825 -2.534696,0.64273 -2.534696,0.64273 0,0 -6.153705,-3.14817 -8.496098,-7.32236 -2.321541,-4.11809 -2.326175,-8.54002 -1.128334,-9.6642 z M 111.2481,259.74698 c 0,0 1.36466,0.23138 0.74836,2.18058 -0.61398,1.94453 -0.73214,7.97677 1.13297,10.57103 1.8767,2.60594 -1.28357,1.61732 -3.75107,-1.01434 -2.47214,-2.61996 -4.21909,-7.44388 -3.6862,-10.72527 0,0 -0.14133,-1.37893 5.55594,-1.012 z m -8.71852,15.96288 c 2.99113,3.37254 -1.5894,2.47273 -5.423878,-0.85073 -3.834482,-3.31645 -6.973891,-9.78807 -6.684277,-14.45774 0,0 -0.391558,-1.9118 7.657378,-2.24135 0,0 1.955467,0.12855 1.350756,2.94718 -0.574592,2.81161 0.104261,11.25581 3.100021,14.60264 z m -16.475525,2.15253 c 2.930887,4.30507 -2.159358,2.5779 -6.051762,-1.8113 -3.89472,-4.39155 -6.52441,-12.29586 -5.523506,-17.62461 0,0 -0.171451,-2.23667 9.054473,-1.38127 0,0 2.210329,0.44407 1.137601,3.56653 -1.098214,3.15284 -1.540743,12.94091 1.383194,17.25065 z m -25.024914,-4.34246 c -3.936425,-5.02024 -6.297353,-13.88046 -4.865505,-19.68599 0,0 -0.03244,-2.49376 9.932581,-1.09847 0,0 2.356295,0.60299 0.982369,4.01292 -1.376243,3.40292 -2.492992,14.17261 0.400825,19.06898 2.8915,4.88936 -2.513845,2.74618 -6.45027,-2.29744 z m -19.27435,-2.65269 c -4.003615,-5.07166 -6.434051,-14.0721 -5.016104,-20.0202 0,0 -0.05329,-2.52181 10.025257,-1.2387 0,0 2.388731,0.58429 1.014806,4.07368 -1.369293,3.48706 -2.442021,14.49046 0.498135,19.43358 2.956373,4.95013 -2.520795,2.83499 -6.522094,-2.24836 z m -18.648785,4.96415 c -4.840019,-6.57446 -8.083689,-18.24629 -6.802439,-25.98466 0,0 -0.18767,-3.3071 11.348211,-1.71549 0,0 2.768704,0.7292 1.399411,5.30538 -1.376242,4.54814 -2.004124,18.85396 1.626469,25.26716 3.628277,6.40384 -2.726999,3.69273 -7.571652,-2.87239 z M 4.422467,271.71096 c -4.81916682,-5.67699 -7.9956465,-16.04234 -6.6564741,-23.05853 0,0 -0.1807188,-2.9682 11.3991829,-2.07307 0,0 2.7710212,0.53755 1.3530742,4.69538 -1.3994124,4.15315 -2.1246043,17.06135 1.478186,22.66588 3.616692,5.59051 -2.7478516,3.45434 -7.573969,-2.22966 z m -18.136749,-6.58381 c -3.512431,-4.94312 -5.449365,-13.63505 -3.964228,-19.32139 0,0 0.03475,-2.43767 9.2351918,-1.00966 0,0 2.1825265,0.60533 0.8039668,3.92411 -1.3669752,3.33514 -2.7038306,13.88981 -0.1529159,18.70204 2.5532316,4.80756 -2.4072667,2.67139 -5.9220147,-2.2951 z m -14.362507,-3.62261 c -3.234402,-3.9358 -5.280231,-10.87953 -4.249208,-15.45572 0,0 -0.08109,-1.95387 7.872851,-0.92084 0,0 1.911448,0.45575 0.864206,3.14583 -1.005538,2.6784 -1.70061,11.15999 0.706657,14.99529 2.395682,3.83296 -1.953153,2.16656 -5.194506,-1.76456 z m -16.709534,2.71345 c -3.892404,-4.39154 -6.522093,-12.29352 -5.523506,-17.62694 0,0 -0.171452,-2.232 9.054472,-1.38127 0,0 2.212647,0.44406 1.137602,3.5712 -1.098214,3.1505 -1.540743,12.93858 1.38551,17.25299 2.928571,4.30273 -2.161674,2.5779 -6.054078,-1.81598 z m -12.152178,-0.16828 c -3.836798,-3.31878 -6.976207,-9.79274 -6.686594,-14.46007 0,0 -0.391557,-1.91181 7.652745,-2.23901 0,0 1.960103,0.12387 1.357707,2.94483 -0.579227,2.81396 0.09963,11.25816 3.095388,14.60265 2.991127,3.3702 -1.589398,2.4774 -5.419246,-0.8484"
         inkscape:connector-curvature="0"
         transform="matrix(0.64,0,0,0.64,-0.8,0)" />
      <path
         id="path88"
         style="fill:#f4f4f4;fill-opacity:1;fill-rule:nonzero;stroke:none;stroke-width:0.232702"
         d="m 118.41661,158.42829 c 2.98186,-1.63602 6.49893,-12.23976 13.72073,-7.83653 5.36827,3.27204 7.92614,4.10173 7.92614,4.10173 0,0 -3.74876,1.06342 -5.454,3.90542 -1.70756,2.84199 -3.75108,5.02959 -9.71711,4.13679 -6.26492,-0.93955 -7.41179,0.0514 -10.5651,0.57027 0,0 1.10285,-3.23932 4.08934,-4.87768"
         inkscape:connector-curvature="0"
         transform="matrix(0.64,0,0,0.64,-0.8,0)" />
      <path
         id="path90"
         style="fill:#403c3d;fill-opacity:1;fill-rule:evenodd;stroke:none;stroke-width:0.232702"
         d="m 100.92628,139.58368 c -0.66958,-1.26207 -1.594031,-2.40261 -2.810407,-3.3702 0.549107,1.61265 0.864207,3.26269 0.980052,4.95948 -0.727509,0.62636 -1.443433,1.24104 -2.106069,1.80663 -0.609346,1.18027 -2.476773,2.73917 -4.863188,3.76051 1.892913,-5.80787 2.11997,-11.97566 2.252034,-16.54717 3.913256,2.05671 6.526728,4.87768 8.035038,8.08661 -0.48424,0.42537 -0.98006,0.86242 -1.48746,1.30414 z m -12.817129,8.2806 c -1.619518,0.37628 -2.662126,0.75257 -3.966545,1.22 -0.222423,0.0584 -0.454113,0.12387 -0.678853,0.20567 l -1.21406,0.44874 -0.122796,0.0514 -0.192303,0.0631 0.0139,0.005 c -0.530571,0.23371 -0.89896,0.41134 -0.89896,0.41134 -1.719145,0.88812 -3.524015,1.41632 -5.240843,1.71548 -10.632287,-2.30445 -13.841203,-14.55122 -13.841203,-14.55122 9.93258,-4.41024 15.546446,-17.11744 12.010846,-24.10792 0.09963,-0.26176 0.329001,-0.21969 0.563008,-0.1636 4.501751,2.00529 9.237509,5.37315 11.540515,9.01914 4.376637,6.91803 5.674105,17.32077 2.027293,25.68317 z M 58.994897,132.99286 c -3.324762,-1.04705 -3.778876,-3.74648 -5.379859,-5.6022 6.54758,-9.63849 6.417833,-16.74115 5.683374,-24.11259 -0.145966,-0.45808 0.157549,-0.44406 0.530571,-0.78061 12.851884,2.63633 13.87364,15.30613 8.357084,24.85581 -2.618105,4.52009 -5.17597,6.90166 -9.19117,5.63959 z M 48.300054,121.23923 c -5.440098,-1.57525 -7.015595,-7.80148 -9.209706,-10.3747 5.928965,-6.38749 5.58838,-11.999036 5.356689,-17.122115 -0.05792,-1.177934 -0.268761,-2.486749 0.201571,-3.648323 1.107482,0.09349 3.04905,0.378621 4.636131,1.229352 7.217166,3.851657 10.203659,17.631616 6.00774,25.732246 -1.800237,3.47304 -3.623642,5.16048 -6.992425,4.18354 z m -11.475641,-12.9339 c -4.900259,-2.48442 -7.655061,-5.79619 -8.931677,-9.556695 -0.750678,-2.201615 -1.327588,-2.468052 -0.820185,-5.202542 1.091263,-5.903693 1.457334,-12.417388 -0.0023,-17.105753 l 0.35217,-0.172951 c 14.142401,5.034266 22.256209,14.553563 9.402009,32.037941 z m -92.796763,139.0453 c 0,0 1.960103,0.12387 1.357707,2.94483 -0.579227,2.81396 0.09963,11.25816 3.095388,14.60265 2.991127,3.3702 -1.589398,2.4774 -5.419246,-0.8484 -3.836798,-3.31878 -6.976207,-9.79274 -6.686594,-14.46007 0,0 -0.391557,-1.91181 7.652745,-2.23901 z m 5.662521,-0.75958 c 0,0 -0.171452,-2.232 9.054472,-1.38127 0,0 2.212647,0.44406 1.137602,3.5712 -1.098214,3.1505 -1.540743,12.93858 1.38551,17.25299 2.928571,4.30273 -2.161674,2.5779 -6.054078,-1.81598 -3.892404,-4.39154 -6.522093,-12.29352 -5.523506,-17.62694 z m 17.983832,-0.54223 c 0,0 -0.08109,-1.95387 7.872851,-0.92084 0,0 1.911448,0.45575 0.864206,3.14583 -1.005538,2.6784 -1.70061,11.15999 0.706657,14.99529 2.395682,3.83296 -1.953153,2.16656 -5.194506,-1.76456 -3.234402,-3.9358 -5.280231,-10.87953 -4.249208,-15.45572 z m 14.647487,-0.24306 c 0,0 0.03475,-2.43767 9.2351918,-1.00966 0,0 2.1825265,0.60533 0.8039668,3.92411 -1.3669752,3.33514 -2.7038306,13.88981 -0.1529159,18.70204 2.5532316,4.80756 -2.4072667,2.67139 -5.9220147,-2.2951 -3.512431,-4.94312 -5.449365,-13.63505 -3.964228,-19.32139 z m 15.4445029,2.84667 c 0,0 -0.1807188,-2.9682 11.3991829,-2.07307 0,0 2.7710212,0.53755 1.3530742,4.69538 -1.3994124,4.15315 -2.1246043,17.06135 1.478186,22.66588 3.616692,5.59051 -2.7478516,3.45434 -7.573969,-2.22966 -4.81916682,-5.67699 -7.9956465,-16.04234 -6.6564741,-23.05853 z m 18.5375741,1.1943 c 0,0 -0.18767,-3.3071 11.348211,-1.71549 0,0 2.768704,0.7292 1.399411,5.30538 -1.376242,4.54814 -2.004124,18.85396 1.626469,25.26716 3.628277,6.40384 -2.726999,3.69273 -7.571652,-2.87239 -4.840019,-6.57446 -8.083689,-18.24629 -6.802439,-25.98466 z m 20.43512,1.00031 c 0,0 -0.05329,-2.52181 10.025257,-1.2387 0,0 2.388731,0.58429 1.014806,4.07368 -1.369293,3.48706 -2.442021,14.49046 0.498135,19.43358 2.956373,4.95013 -2.520795,2.83499 -6.522094,-2.24836 -4.003615,-5.07166 -6.434051,-14.0721 -5.016104,-20.0202 z m 19.424949,2.9869 c 0,0 -0.03244,-2.49376 9.932581,-1.09847 0,0 2.356295,0.60299 0.982369,4.01292 -1.376243,3.40292 -2.492992,14.17261 0.400825,19.06898 2.8915,4.88936 -2.513845,2.74618 -6.45027,-2.29744 -3.936425,-5.02024 -6.297353,-13.88046 -4.865505,-19.68599 z m 18.315151,4.59254 c 0,0 -0.171451,-2.23667 9.054473,-1.38127 0,0 2.210329,0.44407 1.137601,3.56653 -1.098214,3.15284 -1.540743,12.94091 1.383194,17.25065 2.930887,4.30507 -2.159358,2.5779 -6.051762,-1.8113 -3.89472,-4.39155 -6.52441,-12.29586 -5.523506,-17.62461 z m 23.600016,-0.26644 c 0,0 1.955467,0.12855 1.350756,2.94718 -0.574592,2.81161 0.104261,11.25581 3.100021,14.60264 2.99113,3.37254 -1.5894,2.47273 -5.423878,-0.85073 -3.834482,-3.31645 -6.973891,-9.78807 -6.684277,-14.45774 0,0 -0.391558,-1.9118 7.657378,-2.24135 z m 22.840067,23.93731 c 2.33081,-1.64537 5.41461,-5.64661 9.35799,-3.01963 -1.67976,3.51978 -6.13285,5.83592 -9.82369,7.76408 -6.46185,3.37254 -12.19388,6.32439 -19.64273,8.19646 12.553,-1.93985 21.47541,-7.22419 30.86815,-12.08083 1.14919,2.44 2.44202,7.3317 3.29232,11.4755 l 0.11817,-0.014 c 0,0 0.85494,2.32081 0.60239,4.58787 0.0324,1.08211 -0.18303,2.0123 -0.94761,2.52414 -0.25718,0.33188 -0.56764,0.64039 -0.95457,0.89748 -3.42902,2.26939 -13.60256,7.29197 -21.76271,7.88795 -0.26876,0.014 -0.52825,0.0491 -0.7947,0.0771 l -0.60007,0.17062 -0.0185,-0.11452 c -7.4002,0.86709 -12.186931,3.94981 -2.72468,2.3769 9.47151,-1.57759 29.7514,-5.06231 22.36278,-2.26005 l 0.0255,-0.002 c -9.22592,3.64131 -21.32945,7.20783 -33.208229,6.03925 -7.67823,-0.75257 -15.620588,-4.55982 -22.448513,-8.19646 -6.820974,-3.62963 -13.289779,-8.40213 -20.581086,-9.91428 -5.546675,-1.16157 -10.129517,0.45107 -14.964902,1.29012 -3.215868,0.54923 -7.7014,1.8674 -9.654552,-0.16594 -0.822502,-0.98395 -0.166818,-1.99127 -0.166818,-1.99127 1.846575,-4.61124 7.219483,-7.32703 11.691114,-8.6265 14.028872,-4.0807 27.619849,3.41928 41.157537,4.31208 17.446311,1.15457 29.955289,-4.95714 38.817459,-11.21374 z m -9.67077,-22.35037 c 0,0 1.36466,0.23138 0.74836,2.18058 -0.61398,1.94453 -0.73214,7.97677 1.13297,10.57103 1.8767,2.60594 -1.28357,1.61732 -3.75107,-1.01434 -2.47214,-2.61996 -4.21909,-7.44388 -3.6862,-10.72527 0,0 -0.14133,-1.37893 5.55594,-1.012 z m 2.05278,87.49199 c -1.73768,1.21299 -2.01339,0.50016 -2.01339,0.50016 0,0 -4.91879,-2.34886 -6.77927,-5.55312 -1.85121,-3.16453 -1.82109,-6.5581 -0.85262,-7.44389 0.96847,-0.87644 1.98559,0.96058 3.87155,3.04066 1.90218,2.11514 8.57951,5.43158 8.57951,5.43158 1.07968,0.80165 -1.06578,2.81396 -2.80578,4.02461 z m -13.322214,12.37298 c -2.170941,1.56825 -2.534696,0.64273 -2.534696,0.64273 0,0 -6.153705,-3.14817 -8.496098,-7.32236 -2.321541,-4.11809 -2.326175,-8.54002 -1.128334,-9.6642 1.186256,-1.12184 2.455922,1.2574 4.826118,3.9615 2.397998,2.76721 10.813004,7.17044 10.813004,7.17044 1.36929,1.04238 -1.30905,3.64833 -3.479994,5.21189 z m -15.7457,10.4752 c -2.189477,1.49112 -2.509211,0.51886 -2.509211,0.51886 0,0 -5.901162,-3.64365 -8.03735,-8.1357 -2.08985,-4.4266 -1.911449,-9.00745 -0.702023,-10.11293 1.22101,-1.11016 2.372513,1.44203 4.578208,4.41725 2.238133,3.0243 10.305603,8.08427 10.305603,8.08427 1.292834,1.17326 -1.436482,3.72779 -3.635227,5.22825 z M 70.40103,381.95297 c -2.203378,1.34154 -2.430435,0.31318 -2.430435,0.31318 0,0 -5.451683,-4.15315 -7.2218,-8.86723 -1.749264,-4.66966 -1.276615,-9.35102 -0.04634,-10.39106 1.253447,-1.04471 2.191794,1.66173 4.124095,4.85431 1.957786,3.25568 9.413594,9.02381 9.413594,9.02381 1.181622,1.2948 -1.607934,3.70442 -3.839116,5.06699 z m -13.824984,12.43141 c -2.386415,1.06809 -2.492992,-0.0678 -2.492992,-0.0678 0,0 -4.900259,-5.28901 -6.047128,-10.62244 -1.135284,-5.26798 -0.03244,-10.20409 1.366975,-11.11792 1.406363,-0.93019 2.001808,2.15253 3.514748,5.90603 1.524525,3.76752 8.227338,11.167 8.227338,11.167 1.00322,1.57058 -2.145456,3.64132 -4.568941,4.73511 z m -13.25966,7.66125 c -2.32154,0.7105 -2.298371,-0.37862 -2.298371,-0.37862 0,0 -3.934109,-5.7214 -4.390539,-11.02444 -0.458748,-5.2563 1.126016,-9.94232 2.520795,-10.6388 1.410996,-0.71284 1.614884,2.36054 2.590302,6.20519 0.998587,3.88905 6.322839,11.88451 6.322839,11.88451 0.74141,1.63368 -2.393365,3.22296 -4.745026,3.95216 z m -12.647995,6.58381 c -2.305323,0.75958 -2.298372,-0.3646 -2.298372,-0.3646 0,0 -4.119461,-5.88967 -4.733441,-11.37735 -0.620932,-5.42925 0.817868,-10.28355 2.201061,-11.01976 1.390145,-0.74789 1.675124,2.43066 2.780289,6.40619 1.105164,4.00357 6.686594,12.23041 6.686594,12.23041 0.790065,1.68978 -2.305323,3.35852 -4.636131,4.12511 z m -10.365843,0.33655 c -1.79792,0.59832 -1.795603,-0.29448 -1.795603,-0.29448 0,0 -3.239036,-4.64864 -3.73022,-8.98409 -0.498135,-4.28871 0.618614,-8.10764 1.695976,-8.67791 1.086629,-0.59131 1.316003,1.91414 2.189477,5.0553 0.875791,3.15284 5.252428,9.64784 5.252428,9.64784 0.620931,1.33219 -1.790969,2.641 -3.612058,3.25334 z m -9.860756,-1.74587 c -1.5662296,0.53054 -1.5662296,-0.25475 -1.5662296,-0.25475 0,0 -2.8335774,-4.09005 -3.2714728,-7.90197 -0.4448462,-3.76986 0.5166703,-7.13305 1.4527007,-7.63087 0.9452981,-0.51885 1.1515029,1.68043 1.920716,4.43595 0.7715301,2.7789 4.5967437,8.48627 4.5967437,8.48627 0.544473,1.1756 -1.545377,2.33484 -3.132458,2.86537 z M 22.112053,92.77249 c -2.031928,-1.346211 -3.614375,-2.963533 -4.756611,-4.746794 -0.903593,-1.416326 -2.173258,-3.734799 -1.899863,-5.639594 0.187669,-1.311152 1.216376,-3.068705 1.739997,-4.536448 1.503673,-4.211582 2.092167,-8.011822 0.912861,-11.033783 8.598042,3.823611 9.946482,13.43172 4.003616,25.956619 z M 5.6481108,67.69231 C 6.6374301,66.607862 7.4020095,66.070313 8.0252575,64.964831 9.0493304,63.146512 8.0275744,62.22333 8.5720476,61.120185 17.809556,62.323828 18.604255,68.879592 14.616858,78.176858 8.460836,76.073404 6.8204658,71.915577 5.6481108,67.69231 Z M 1.8924044,57.693893 c 3.2158671,0.902148 6.80939,2.748513 3.3826844,8.266573 -2.1037517,-2.27173 -2.8173591,-5.27032 -3.3826844,-8.266573 z M 273.83938,241.63157 c -2.57872,-4.53645 -5.40998,-8.97941 -6.28346,-12.76562 2.07364,1.3836 3.78583,2.99157 5.27328,4.75146 -0.31046,-2.19927 -0.67653,-4.37985 -1.05882,-6.5581 -2.24972,-1.80663 -4.77978,-3.39357 -7.75932,-4.64863 -4.79369,-21.61883 -15.10856,-35.27025 -36.29899,-43.07406 -7.10364,-2.61529 -13.83193,-5.64427 -20.83826,-8.72699 0.40546,-23.01179 -26.05825,-22.52799 -42.54768,-34.37278 -7.17083,-5.16514 -15.30317,-14.69379 -23.50734,-16.45601 -15.86618,-3.41227 -25.62963,7.76641 -34.9992,15.57256 -2.30069,-2.53583 -5.74593,-5.01323 -10.745816,-7.2686 0,0 -8.943261,-12.88949 -13.113694,-15.31314 -0.275712,-0.16126 -0.463381,-0.30851 -0.583861,-0.45107 -2.303005,-1.0938 -5.192188,-1.70848 -7.231067,-3.07105 -2.015709,-1.3392 -2.397999,-4.50606 -4.413708,-6.03925 -0.987002,-0.74789 -2.518478,-1.55889 -3.85765,-2.10111 -1.617201,-0.65675 -4.388222,-0.53521 -6.017008,-1.435025 -2.004124,-1.110156 -2.163991,-4.721085 -3.616692,-6.513695 -1.600983,-1.979584 -3.660713,-3.599243 -6.992425,-4.730434 -1.350757,-0.453411 -3.389635,-0.483794 -4.610646,-1.145214 -1.362341,-0.74322 -1.695976,-3.073379 -2.750168,-4.50139 -2.451288,-3.332806 -6.591601,-5.91538 -11.313458,-7.60048 -1.017122,-0.362261 -2.38178,-0.362261 -3.125507,-0.86709 -0.933714,-0.631036 -0.970784,-2.274067 -1.607934,-3.421618 -0.984685,-1.771576 -2.298372,-3.571197 -4.416025,-4.672005 -0.90591,-0.476783 -2.298372,-0.432376 -3.185747,-0.94188 C 17.195576,64.677359 16.91523,63.204942 16.037122,62.342526 14.262371,60.594322 12.153986,59.266809 7.7727146,60.400337 6.2203869,58.369335 4.1699241,56.73799 0.83126095,56.04385 l -0.10194392,0.179963 c 0.42167707,4.029282 0.99395317,8.100634 4.02678457,10.888878 -0.7692132,4.629936 1.3855104,8.030519 4.8678218,10.769683 0.8387206,0.66142 2.2288646,1.009658 2.9471056,1.881423 0.952249,1.159237 0.558375,3.515105 0.973101,4.968825 1.288201,4.487368 4.033735,8.610137 8.598042,11.978 0.66727,0.495481 1.941569,0.733872 2.520795,1.395291 1.274299,1.460732 0.903594,3.912427 1.865111,5.597527 1.010171,1.77391 2.731633,3.91476 4.856237,5.5648 1.165404,0.90682 2.903084,1.39062 3.992031,2.47039 0.882741,0.87177 1.126017,2.44001 1.756215,3.74415 1.702927,3.52913 6.211628,7.61684 8.37562,11.30489 0.284979,0.48613 0.509719,1.00499 0.697389,1.52851 0.901276,1.87675 3.081486,5.85462 6.054078,7.69163 0,0 0.310465,5.52274 5.759831,11.81907 -11.040062,-0.60299 -21.690884,-6.90867 -29.878834,-0.64505 -2.363245,-2.60595 -9.946482,-4.65097 -13.192469,-0.9933 -2.393365,-4.20925 -15.10160057,-6.89466 -17.5737404,-0.24307 -18.0672416,-8.19178 -39.8693376,3.48706 -46.8779816,15.21031 -1.299785,0.62636 -2.516161,1.28778 -3.665347,1.96556 -4.94428,-1.5028 -11.642458,-2.03568 -18.89206,3.24633 -7.145342,5.20955 -14.61505,28.57425 -13.329167,44.75215 0.139015,1.73184 3.391952,5.82423 4.559673,14.02068 1.163088,8.13336 2.045829,10.80241 2.045829,10.80241 -1.589398,2.80227 -3.484628,4.05499 -3.741805,7.33404 -0.560691,7.09565 5.442415,10.94965 11.065549,14.58395 2.004124,0.94421 4.267742,1.61966 6.728298,1.71081 1.485137,2.37222 7.207898,10.41209 16.66783,10.41209 0.234007,0 0.472649,-0.0164 0.704339,-0.0304 3.612058,3.0687 7.381666,3.89372 4.77978,0.10984 -0.215473,-0.31084 -0.398508,-0.66141 -0.56996,-1.02368 1.739998,1.04472 3.843749,2.06139 5.720444,2.24603 0.03707,0.005 0.922129,0.22904 1.654272,0.22904 0.264127,0 1.037974,0 1.311369,-0.60065 0.273395,-0.60767 -0.278029,-1.2574 -0.461064,-1.46775 -0.757629,-0.88111 -1.610251,-3.17621 -2.252034,-5.3194 0.695072,1.28545 1.448067,2.50311 2.293738,3.55484 4.50175,5.5835 10.803738,8.22684 7.284356,2.66671 -1.128334,-1.77859 -1.772434,-4.20457 -2.087533,-6.78013 1.744631,2.16889 4.747342,4.69537 9.629066,5.70269 4.036052,3.87737 9.052156,5.46431 6.047127,1.34154 -0.769213,-1.05406 -1.269665,-2.4143 -1.568546,-3.8984 2.432752,2.94951 6.5475794,6.73806 11.5914862,6.73806 l 0.3683882,-0.007 0.1019439,-0.005 c 3.46145923,2.36288 6.35991,2.75786 3.76960787,-0.65207 -1.12138304,-1.48644 -1.73304647,-3.54315 -2.00875847,-5.71439 2.28678732,4.71174 6.6981784,11.19973 14.2930003,13.28215 0.0556,0.0234 1.364658,0.38563 2.444337,0.38563 0.841037,0 1.373926,-0.21736 1.626468,-0.68246 0.368389,-0.67076 -0.115845,-1.4467 -0.275712,-1.70146 -0.488867,-0.79697 -0.945298,-1.78559 -1.339172,-2.76253 3.40817,2.01931 5.928965,2.19226 3.27379,-1.09847 -1.369292,-1.69679 -2.099118,-4.09005 -2.400316,-6.56278 1.853526,5.00388 5.627767,12.03176 13.085891,16.63832 0.05329,0.0257 1.397095,0.66142 2.88455,0.66142 0.718241,0 1.360024,-0.14958 1.913765,-0.43004 0.474966,-0.25008 0.785432,-0.65441 0.912861,-1.16858 0.389241,-1.56825 -1.084312,-3.79791 -1.216376,-3.98021 -0.61398,-1.22 -1.73768,-3.7979 -2.291421,-6.05561 l 0.05561,0.0467 c 5.389126,4.39388 12.386185,6.42955 8.069787,2.04502 -2.620422,-2.66437 -3.630593,-7.2312 -3.720953,-10.95899 1.575497,4.46399 5.403028,12.19536 13.331484,13.72854 0.05329,0.005 1.28125,0.24307 2.189477,0.24307 0.502769,0 1.109799,-0.0561 1.322954,-0.5469 0.09036,-0.20567 0.12743,-0.54223 -0.231691,-0.94889 -0.593128,-0.67545 -1.434165,-2.70645 -1.881328,-4.34948 0.375339,0.28981 0.74141,0.59832 1.132967,0.85307 3.846066,2.54985 8.384887,3.88204 8.978015,3.05702 1.227961,1.019 3.153311,2.3582 5.766782,3.51978 0.245592,0.56559 0.486551,1.13119 0.683488,1.69912 0,0 1.218693,3.42863 1.689025,5.28434 -6.220896,-1.629 -16.867084,-4.78419 -24.788589,-3.01728 -6.257966,1.39295 -22.566675,10.50558 -18.623299,16.91176 0.264127,0.42771 0.600079,0.72453 0.987002,0.96759 l 0.243275,0.0935 c 1.559279,0.83904 4.304814,1.32985 7.193997,1.30648 l 1.049559,-0.0304 c 1.679757,-0.0935 6.077247,-0.73153 7.569335,-1.22 4.360419,-1.43268 8.257457,-0.57261 8.257457,-0.57261 l -0.05792,0.0397 c 3.100021,0.36693 6.371494,1.4654 9.749545,3.20893 3.628276,1.86506 8.565605,4.94546 9.823686,6.46695 2.265935,2.75319 -1.207109,9.20846 -2.50226,13.18398 -0.06256,0.23372 -0.141331,0.47912 -0.217789,0.72219 l -0.09036,0.32954 -0.0139,-0.009 c -0.183036,0.55859 -0.407776,1.14288 -0.651051,1.74119 -0.220106,-0.28046 -0.417043,-0.55157 -0.563008,-0.80398 -1.239546,-2.11047 -1.909132,-3.95683 -2.548598,-3.10844 -0.641783,0.85073 -0.671903,4.21859 0.54679,7.39948 0.125113,0.32721 0.278029,0.63805 0.442529,0.94889 -1.404046,2.59894 -3.109289,5.32174 -4.907209,7.92769 -1.397095,-1.33686 -2.810408,-2.84434 -3.496213,-4.04564 -1.596349,-2.76488 -2.446654,-5.19086 -3.262205,-4.07369 -0.824819,1.10782 -0.845671,5.5835 0.718241,9.78339 0.50972,1.37192 1.290517,2.61296 2.106069,3.69741 -1.239546,1.57993 -2.448971,3.04066 -3.554136,4.27936 -0.495818,0.55391 -1.079679,1.17326 -1.70061,1.82299 -1.705243,-1.78092 -3.864601,-4.21392 -4.738075,-5.97848 -1.519891,-3.08273 -2.303005,-5.70971 -3.167212,-4.59021 -0.861889,1.12652 -1.031023,5.85929 0.407776,10.43547 0.590811,1.87441 1.61025,3.58522 2.618105,4.97818 -1.848892,1.77625 -3.85765,3.65767 -5.919698,5.56013 -1.251129,-1.67809 -2.483724,-3.51978 -3.049049,-4.93144 -1.355391,-3.3328 -1.997174,-6.15844 -2.914669,-5.07633 -0.901277,1.09146 -1.297468,6.00887 -0.08109,10.90991 0.298881,1.20832 0.755311,2.36989 1.276616,3.44499 -2.043512,1.84403 -4.019834,3.61093 -5.833972,5.21423 -0.532889,-1.17092 -0.977735,-2.27874 -1.223327,-3.19257 -1.065778,-3.96852 -1.464286,-7.24523 -2.511528,-6.24259 -1.049559,0.98161 -1.941568,6.26829 -1.174672,11.88685 0.07182,0.53755 0.176085,1.07276 0.294248,1.60798 l -0.512037,0.44406 c -1.183939,1.03537 -2.474457,2.28342 -3.808995,3.65533 -0.331318,-1.0564 -0.588495,-2.04268 -0.725192,-2.86303 -0.67422,-4.13679 -0.778481,-7.44389 -1.851209,-6.65393 -1.070411,0.77595 -2.351661,5.87799 -2.094484,11.58536 0.03939,0.89747 0.148282,1.8043 0.294247,2.69242 -1.566229,1.78093 -3.11624,3.62495 -4.575891,5.41756 -0.845671,-2.19226 -1.6102506,-4.46399 -1.9068148,-6.10235 -0.7738469,-4.33078 -0.9337135,-7.80615 -2.0296106,-6.95308 -1.0032208,0.76893 -2.1037516,5.40354 -1.9832725,10.79539 -1.0912632,0.80632 -2.5068934,4.56449 -2.5532316,8.82516 -0.020852,1.44904 0.2340076,2.93315 0.5815437,4.27468 -0.7066567,1.00732 -1.946202,1.7038 -2.81272522,2.93783 -4.47163068,6.32204 -2.64822478,13.85241 7.01559472,15.52816 2.9610073,9.22247 10.4654693,13.69816 21.9804973,13.80099 1.547694,0.0164 3.160262,-0.53054 4.675519,-0.43471 1.709877,0.11686 3.118557,0.81801 4.680152,0.86709 8.391838,0.25475 12.793961,-2.43767 19.17009,-4.31909 4.761244,-1.39296 9.67077,-1.84403 12.631777,-3.01495 4.534187,-1.79495 6.688911,-6.72404 10.287068,-9.05888 1.339172,-0.86709 3.866918,-1.27609 6.081881,-2.58491 1.869744,-1.11016 3.486945,-3.12947 5.143533,-3.8797 1.445751,-0.6661 3.857651,-0.53288 5.611549,-1.29713 2.935522,-1.28778 6.181512,-4.06668 9.823692,-6.04393 7.62494,-4.12043 13.83193,-7.17044 21.98049,-10.77669 3.89241,-1.72483 8.01187,-5.77749 10.28939,-6.03925 2.69919,-0.31552 5.84324,1.96322 7.94931,1.7225 4.29091,5.15579 5.78763,12.36129 5.60691,21.6235 0.25486,0.0257 0.0672,2.29744 0.0672,2.29744 0,0 1.49904,19.88698 -29.23242,30.62395 -9.55724,3.33748 -27.124028,12.10888 -40.172849,18.86564 50.719419,-1.59161 96.594179,-22.51397 130.675879,-55.7462 -10.30792,2.69943 -21.29701,9.76704 -28.0647,10.41444 -18.45416,1.76456 -21.76039,-6.52539 -7.01791,-7.89263 5.56753,-0.51652 13.78328,-1.14989 20.34245,-4.29572 11.44552,-5.49469 23.23857,-10.8024 29.49422,-14.21935 1.02176,-1.24104 1.99949,-2.51947 2.99345,-3.78621 -1.51758,0.0187 -4.19824,0.41367 -8.36172,1.27142 -9.82369,2.02165 -20.28684,8.75738 -28.38443,10.27654 -17.89811,3.34683 -28.44698,0.12854 -19.00095,-3.82128 13.7184,-5.74243 58.97687,-7.17511 63.70567,-41.11317 4.73113,-33.94273 1.42027,-49.24886 -0.94761,-57.85199 -1.13297,-4.1251 -3.6723,-10.21343 -6.01933,-15.44636 -0.66031,-3.69273 -1.53147,-6.82454 -2.2891,-9.05887 -0.42631,-1.00732 -0.8503,-2.30212 -1.26966,-3.93814 0,0 -0.59082,-4.18587 1.29978,-8.24554 1.67512,-3.60625 7.42569,-11.41941 7.81493,-18.97782 0.007,-0.45809 0.0255,-0.91617 0.0185,-1.37426 -0.0232,-0.51184 -0.0672,-1.01667 -0.14596,-1.5215 l -0.0417,-0.4464 c -0.73909,-4.23962 -3.14636,-7.19147 -6.41551,-9.39075 -2.10607,-1.41165 -4.97209,-1.85805 -6.54758,-3.87737 1.25576,-3.99422 5.26169,-5.41522 6.92987,-8.68025 1.04261,-2.89575 0.1923,-5.94109 -1.39246,-8.7083 -3.05137,-3.45667 -9.04521,-6.45526 -14.42507,-8.49094 -6.73525,-2.55219 -13.58171,-4.56683 -18.20857,-8.23385 -4.89099,-2.62932 -8.17637,-7.715 -5.17597,-14.43437 0.7808,-1.7482 1.12833,-3.50575 1.10516,-5.17917 l -0.0208,-0.48847 c -0.007,-0.34122 -0.0533,-0.64739 -0.095,-0.96291 -0.0371,-0.24307 -0.0765,-0.48379 -0.12975,-0.72219 l -0.10889,-0.41835 -0.12975,-0.47211 c -1.23259,-4.19522 -7.77091,-5.37783 -10.10171,-5.58584 -5.28024,-0.47912 -8.69304,-1.92583 -11.49881,-2.8233 2.25666,1.18728 4.52723,2.76955 7.41641,3.94515 1.83036,0.75256 4.45542,1.20364 6.66806,1.94686 l 0.0162,-0.002 c 0,0 4.08239,0.83437 5.20378,3.70442 1.1237,2.86771 0.47264,5.37783 0,6.98814 l -0.17146,0.46509 c -0.40777,1.25974 -0.8642,2.47039 -0.9592,3.72312 -0.38229,4.94078 2.61811,7.51634 4.20982,11.64846 2.87065,2.75552 6.95768,5.60921 12.62715,8.19178 5.09256,2.32782 11.18834,3.7348 14.9649,6.03925 2.18948,1.33452 6.17224,4.55982 6.08188,6.90634 -0.0695,1.79495 -3.35256,4.24664 -4.67783,6.03457 -0.94298,1.27376 -1.41563,2.96354 -2.25899,4.16718 -0.73909,1.17326 -1.68207,1.9305 -2.77102,1.9305 -1.41795,0 -4.65235,0.55391 -2.52311,0.71518 2.12692,0.15893 7.64811,2.78824 7.64811,2.78824 l -0.005,0.007 c 7.46044,3.11545 12.47422,8.89528 9.73101,17.13614 -2.29606,6.90167 -7.57861,12.67915 -7.94931,20.27262 -0.39388,8.07726 3.27147,14.73119 3.73949,21.13737 0.79238,10.77903 -0.7391,18.20656 -2.80346,26.31187 -0.96847,3.78856 -1.48282,7.52102 -2.33776,11.20907 -3.64218,15.70813 -13.03724,22.51163 -25.72462,29.76621 -5.50034,3.14583 -11.40382,8.94669 -17.30498,10.78137 -0.94761,0.29448 -2.4119,-0.15425 -3.27611,0 -5.43546,0.9933 -10.32645,3.71376 -15.90093,4.74446 -5.25011,0.9746 -10.75508,0.5095 -16.98525,2.10111 -3.16257,1.14054 -7.21253,2.84668 -9.57809,3.86335 -3.6584,1.68042 -7.24265,3.4333 -10.81996,5.20254 l -11.87646,6.85492 c 0,0 -6.62172,3.87269 0.71129,1.00732 5.89884,-2.30912 26.1741,-12.5062 17.68032,-6.51837 -5.85714,2.97288 -9.03362,7.19615 -14.21423,10.79773 0,0 -17.430091,8.73401 -20.045879,11.17401 -2.872965,2.68308 -6.385396,1.19897 -8.693035,3.82595 -2.708465,3.08974 -6.028593,4.93844 -8.396472,5.73776 -2.363245,0.80165 -5.043907,6.05794 -8.672183,8.76439 -3.628277,2.70878 -11.510395,1.9118 -18.451848,4.94078 -6.93682,3.02663 -14.126183,3.06636 -14.126183,3.06636 -0.690438,0.0654 -1.35539,0.10751 -1.994857,0.12621 -0.273395,0.005 -0.528255,0 -0.790065,0 -4.059221,0.0234 -7.16156,-0.7736 -9.538707,-1.65705 -2.89845,-1.07744 -3.961911,-0.53755 -3.31086,-0.1823 0.648734,0.35992 2.537013,2.14085 2.537013,2.14085 -8.092956,-0.009 -10.303285,-5.44561 -14.028872,-9.48191 1.693659,-0.24306 6.52441,0.9489 4.070806,-0.48613 -4.84697,-2.34418 -14.1817887,-2.51012 -14.3625075,-8.14504 -0.1413313,-4.41725 1.8697441,-3.452 1.8697441,-3.452 3.3942689,5.97381 13.8759564,6.56044 21.5171164,6.4763 14.23276,-0.17061 23.86646,-8.0609 33.194328,-12.52256 3.023564,-1.83702 6.556847,-4.25131 6.556847,-4.25131 l -0.02085,0.0725 c 2.947106,-1.93985 5.922014,-3.82128 8.440492,-6.16312 4.392856,-4.07836 7.363131,-9.4001 11.227732,-13.92019 0.44948,-0.76659 1.392461,-1.70613 2.513844,-2.64801 1.088947,-1.03537 2.261302,-1.99595 3.563403,-2.83967 l 0.05097,0.10518 0.505086,-0.34357 -0.09036,-0.19165 c 9.38579,-5.38016 18.136747,-11.33294 25.516097,-18.55947 l 0.051,-0.0841 c 1.05651,-0.97226 6.61246,-7.23588 9.29775,-10.27887 3.16258,-4.263 5.44242,-9.65018 6.76305,-15.07476 0.47729,-1.96322 0.17377,-4.34947 0.93372,-6.47396 1.17699,-3.29541 4.14031,-6.22856 6.08188,-9.48424 2.01107,-3.39123 3.34098,-7.08396 4.67552,-10.78604 5.85019,-16.24801 12.61556,-29.18192 25.25429,-37.95566 6.09114,-4.23261 13.48671,-6.95775 17.77067,-13.37796 -3.10929,3.19725 -7.16156,5.52273 -12.05486,7.07228 -13.89681,4.62292 -22.93507,16.47705 -27.47852,24.0004 -3.48927,6.33841 -6.18615,13.40134 -8.1671,21.12335 -0.66032,-9.51929 -2.98418,-16.94682 -6.08188,-24.15699 -2.7548,-6.40853 -5.18987,-13.18398 -10.28939,-17.24832 0,0 -0.19693,0.0117 -0.987,-0.47211 -0.78775,-0.47211 13.14613,-0.82502 13.14613,-0.82502 2.43971,0.0888 4.9188,0.43938 7.43496,0.77126 0.47033,-0.0514 1.04956,-0.0257 1.75853,0.10284 7.65969,1.36491 15.6229,-1.51683 20.58109,-5.16515 2.57408,-1.89311 7.05034,-3.40993 10.76435,-4.43595 0.0625,-0.1636 0.42399,-0.3459 1.35075,-0.5282 0,0 5.67643,-1.78794 11.70733,-3.46369 4.08471,-1.13119 7.06194,-1.99594 9.1263,-3.02663 1.19784,-0.76893 2.33776,-1.69445 3.2205,-2.80227 1.7678,-2.20162 1.80024,-4.84729 3.27611,-8.62416 1.4666,-3.76285 3.70937,-6.69132 3.73949,-9.92129 0.10657,-10.58738 -9.81674,-19.0199 -20.57646,-13.37563 10.5929,-2.75786 18.10663,2.46338 16.83697,12.51555 -1.56623,12.41505 -20.07832,21.61883 -31.33617,26.30953 -4.46236,1.85572 -9.68931,4.20223 -14.9649,4.74212 -7.61104,0.77828 -14.50384,-0.86475 -21.04679,-0.43471 -8.39183,0.56092 -13.97095,5.04361 -21.04678,5.61154 -6.07957,0.49081 -5.25475,-3.66468 -10.53034,-4.13912 -1.09358,-0.62637 -4.41139,0 -7.710673,-0.17062 -9.12398,2.43533 -14.990388,-1.78092 -22.446195,-5.17917 -5.377542,-2.45637 -11.116521,-4.68836 -16.839281,-5.17683 -14.364824,-1.23169 -23.099564,0.78762 -34.841649,-0.46977 -3.310861,-0.35759 -10.182807,-0.77828 -13.4450122,-2.01464 -10.1573207,-3.83998 -17.9351778,-2.44936 -28.9706068,-2.60595 -8.028083,-0.1192 -15.476939,-0.54456 -20.488409,0.34123 -1.366975,0.25007 -2.750169,0.60766 -4.212137,0.86475 -10.755083,1.90012 -27.135616,2.88407 -26.656016,12.50854 0.80165,-0.55391 0.579226,-2.0497 1.869744,-2.15721 -0.04634,1.77157 -0.09036,3.53848 0.465698,4.74913 -6.253332,-0.1636 -9.941848,-4.5271 -9.819052,-9.48891 0.208521,-8.44186 13.646583,-11.97099 22.916528,-14.23805 9.290797,-2.26705 18.940715,-4.91974 25.724619,-6.03925 -16.248469,2.4143 -33.435286,3.96618 -45.83769,9.92597 -0.173768,-0.6474 -0.287296,-1.27376 -0.35912,-1.87441 -0.982369,-4.55515 -3.123191,-11.54563 -4.629181,-18.33745 -1.733046,-7.80615 0.942982,-21.51365 0.942982,-21.51365 l 0.06719,0.0795 c 1.119066,-6.96477 2.543964,-10.07087 3.92484,-14.23337 2.940156,-8.88359 12.437158,-11.67183 19.086681,-12.51555 -5.604598,4.00357 -9.186536,8.96539 -11.454789,15.60996 -0.280345,2.35821 -0.498135,4.56917 -0.660318,6.52071 5.034639,-15.83199 19.075096,-21.75672 19.075096,-21.75672 l 4.4948,-4.89871 -0.05561,0.22203 c 7.750054,-7.57711 17.993101,-13.44808 31.009485,-13.81969 6.5591637,-0.18464 14.4853029,1.56123 14.46445074,8.0609 -0.0115845,3.67637 -2.85442954,6.79883 -6.73293204,8.52133 1.1399183,0.2267 2.1848434,0.0678 3.1301415,-0.32721 l 4.0314184,-4.55748 c 1.3299046,-3.33281 1.2140593,-7.53971 -1.03334062,-10.07788 5.93128222,-5.12542 15.16647402,0.62402 14.49457102,7.42285 1.735363,-1.47943 2.79419,-4.27702 1.600983,-6.49266 7.979428,-4.73978 12.446425,6.74975 20.479141,4.06668 -0.757628,-2.29978 -4.622229,-1.83234 -5.801535,-3.75116 10.497906,-1.51916 19.707612,2.21096 30.233321,1.36725 0.660318,0.57961 1.376243,1.15456 2.133871,1.7295 -19.689076,2.20162 -3.690833,2.18993 -3.690833,2.18993 2.520795,-0.23372 8.579507,-0.66142 10.933485,-0.23605 3.85765,0.70115 6.346008,-0.24774 9.751862,-1.59395 0.08341,0.14957 0.423994,0.13789 0.630199,-0.25242 1.765483,-0.70115 3.802044,-1.48176 6.385396,-2.18759 1.000903,-0.14257 2.006441,-0.40199 2.984176,-0.72219 l 0.421677,-0.0888 0.05792,-0.0678 c 1.350757,-0.47444 2.620422,-1.04237 3.709368,-1.57759 9.923316,-4.81691 18.150646,-16.16854 26.625896,-22.12366 14.04277,-9.86052 27.3395,2.32081 37.11685,10.22746 l -0.0626,0.0935 c 2.45129,1.68977 5.68338,3.77453 9.20508,5.95511 9.20043,4.04331 21.33408,7.58178 27.81447,14.05341 5.18523,5.17683 6.9484,11.84244 9.17958,18.76047 2.08058,6.45527 6.12127,12.1603 8.39184,19.40085 0.4379,-0.36927 0.69739,-0.92785 0.84335,-1.59628 -0.0626,-0.61935 -0.16218,-1.27142 0.0209,-1.67342 l 0.12279,0.11219 c -0.0255,-1.26441 -0.3012,-2.74384 -0.72982,-4.30507 -1.92767,-3.96618 -5.29645,-8.48159 -4.88173,-12.0154 0,0 11.95061,6.24025 25.51147,12.44076 4.66856,2.13618 8.94558,5.65596 12.6758,9.68056 l 1.08894,-0.0257 c -0.12974,0.28279 -0.11584,0.68946 -0.0765,1.11716 6.58929,7.46493 11.26249,16.35552 12.88664,21.49496 0.33595,1.0564 0.71361,2.12449 1.12138,3.1879 l 0.002,0.014 c 0.51204,1.3392 1.06346,2.66437 1.6311,3.93813 l 0.0116,-0.0164 c 0.24096,0.43238 0.39156,0.85774 0.55374,1.28778 1.95547,4.2817 3.87619,7.7524 4.41371,8.70363 2.30069,2.89341 4.01983,6.85725 6.1537,9.45619 -0.12279,-1.60096 -0.20389,-3.21361 -0.36143,-4.80289 z M 82.418828,176.87091 c 20.219652,18.88667 22.708002,39.35094 24.260332,45.26165 1.52916,5.87097 2.2752,3.88437 2.2752,3.88437 0.28035,-20.0015 -15.400477,-45.3341 -29.508124,-53.66611 -13.901443,-8.22451 -49.838989,-6.79416 -58.279481,-7.45558 -8.306112,-0.64038 -12.4580099,10.03348 -12.4580099,10.03348 -0.1065777,2.26004 1.7214619,-0.33188 1.7214619,-0.33188 5.426196,-9.88156 10.196708,-8.07493 10.196708,-8.07493 17.196085,5.07634 20.261353,30.60292 20.977277,36.52064 0.711291,5.86863 2.18021,2.04736 2.18021,2.04736 1.67049,-14.68912 -8.927043,-32.59185 -11.155908,-34.89396 -2.226548,-2.28108 -0.09963,-3.57587 7.00401,-1.56591 21.389686,6.0673 23.391494,40.68547 24.679695,44.88303 1.290517,4.1812 2.092167,0.15893 2.092167,0.15893 -2.8915,-31.82993 -14.865276,-39.67815 -18.055657,-44.05567 -1.325271,-1.81598 9.490051,-2.08943 14.248978,1.04004 26.87844,17.54748 23.861827,51.15833 26.280678,46.36012 2.451287,-4.89637 -6.763052,-35.31231 -19.712246,-45.66131 -2.590302,-2.06606 8.987283,1.54254 13.252709,5.51573 z m 49.718512,-26.27915 c 5.36827,3.27204 7.92614,4.10173 7.92614,4.10173 0,0 -3.74876,1.06342 -5.454,3.90542 -1.70756,2.84199 -3.75108,5.02959 -9.71711,4.13679 -6.26492,-0.93955 -7.41179,0.0514 -10.5651,0.57027 0,0 1.10285,-3.23932 4.08934,-4.87768 2.98186,-1.63602 6.49893,-12.23976 13.72073,-7.83653 z m 0.47496,-7.81784 c 1.96242,-0.57027 8.29685,0.40433 4.20982,-0.43237 -4.10556,-1.15924 -6.65415,0.021 -9.35103,1.7295 -6.20005,3.91476 -11.2509,12.90586 -17.77532,16.81595 -2.83126,1.70847 -5.59996,1.31582 -7.95394,4.31909 1.52453,3.07805 3.07222,1.26674 5.14817,1.72483 4.60138,1.00966 8.84132,2.81395 13.09516,5.59986 4.71027,3.09675 9.8121,8.77841 16.83696,8.20113 2.24045,-0.17996 6.31126,-2.37223 7.95163,-3.452 2.04814,-1.34855 6.91133,-4.56683 5.61155,-9.48891 -0.57691,-2.18058 -3.14868,-2.53116 -4.68015,-4.31442 -2.11997,-2.47974 -2.03888,-4.91507 -3.73718,-7.76174 3.70242,0.75257 5.82239,2.97054 9.81674,3.452 -6.2904,-5.70036 -13.54001,-10.51727 -22.4462,-13.80567 0.66727,-0.3833 1.09358,-1.95154 3.27379,-2.58725 z m -149.250519,25.88183 c -0.507402,-3.78154 -4.031418,-7.14006 -10.289384,-5.17917 0,0 -8.09064,1.86506 -10.294018,16.3228 0,0 -0.384607,7.29431 1.876694,5.68166 -1.904497,-8.76439 6.341375,-12.73524 8.231971,-13.6257 2.65981,-1.19897 4.858555,-0.79464 5.025372,1.48878 0.183036,2.46337 -2.604204,3.5525 -3.43829,6.093 2.95869,-1.68744 9.575777,-5.63959 8.887655,-10.78137 z M 138.203,199.76116 c 6.33442,-1.02135 18.19004,-5.44561 22.94665,-8.44888 5.16207,-3.25567 8.99886,-15.74318 3.73717,-22.65653 -2.3563,-3.09441 -7.99796,-7.01852 -9.35567,-7.33404 -1.5477,0.90682 0.9731,1.73184 1.40173,2.15487 1.78402,1.77625 5.76446,5.02725 7.01559,7.76408 2.55555,5.59753 1.77244,14.16326 -2.80809,17.26001 -3.08612,2.08008 -18.18077,7.77109 -24.78396,7.76174 -18.57464,-0.0257 -20.4606,-20.63488 -31.80418,-27.60666 0.20157,1.97024 1.62647,6.10703 3.2483,8.24554 6.37845,8.41381 12.47192,25.75796 30.40246,22.85987"
         inkscape:connector-curvature="0"
         transform="matrix(0.64,0,0,0.64,-0.8,0)" />
      <path
         id="path92"
         style="fill:#5d802f;fill-opacity:1;fill-rule:nonzero;stroke:none;stroke-width:0.232702"
         d="m 31.870865,387.71643 c 0.101944,0.97694 0.537523,1.91648 0.843355,2.81162 0.06256,-4.55515 0.252542,-11.20673 4.979033,-14.00667 0.74141,-0.43471 1.478187,-0.66375 2.205695,-0.66375 1.855843,0 3.044416,1.3205 3.79046,2.80928 -0.08109,-3.70442 0.447164,-7.26159 2.88455,-8.94436 1.200158,-0.83904 2.316907,-1.24337 3.385001,-1.24337 3.060634,0 4.295546,3.19024 4.958181,4.90338 0.108895,0.26878 0.199254,0.50951 0.294247,0.72686 1.258081,2.90277 4.610646,8.82516 6.179192,10.12697 0.620931,-0.49782 1.397095,-1.14522 1.64037,-1.50047 -0.08573,-0.11686 -0.229374,-0.27345 -0.41241,-0.4908 -9.744911,-11.37735 -6.730615,-19.03159 -2.47909,-23.45351 0.303515,-0.35292 1.105165,-1.13353 2.286787,-1.13353 1.450384,0 2.583352,1.06575 3.366466,3.15284 1.234912,3.29541 6.142121,9.72497 7.078151,10.38405 l 0.229374,0.11452 c 0.4796,0.24541 1.079679,0.55158 1.422581,0.55158 l 0.278029,-0.17295 c 0.305832,-0.32955 0.468015,-0.61935 0.558375,-0.83671 -2.043512,-2.49143 -9.073009,-11.80505 -6.471122,-19.31672 0.384607,-1.11717 1.561595,-4.52009 4.321032,-4.52009 2.546281,0 4.256158,3.08273 4.840019,4.30975 1.492088,1.91881 5.440098,6.66327 7.539215,7.91132 0.518988,0.29682 1.107482,0.45575 1.751582,0.45575 1.037975,0 1.936935,-0.39265 2.379464,-0.65675 -2.467506,-1.87908 -7.256553,-9.32765 -5.718127,-15.79693 0.681171,-2.87472 3.074536,-4.16251 5.143534,-4.16251 1.012488,0 1.911448,0.29682 2.532379,0.84372 0.234008,0.20334 0.720558,0.73387 1.376243,1.46541 1.823406,2.0123 6.086515,6.74507 8.635109,7.65891 0.49582,0.17529 0.94762,0.26877 1.36003,0.26877 0.95688,0 1.5894,-0.48847 2.20106,-1.12651 -0.16913,-0.13089 -0.38461,-0.28514 -0.66264,-0.47211 -1.1515,-0.78529 -6.895111,-6.72872 -4.52955,-14.16326 0.86189,-2.71813 2.78261,-3.01027 3.56804,-3.01027 1.84194,0 3.51706,1.3649 4.21445,2.1759 1.23955,1.42334 6.20005,5.62557 7.45118,5.71439 0.92908,-0.16594 0.5213,-0.63338 1.92535,-2.42365 1.15845,-2.68775 -2.42812,-2.8233 -5.82471,-3.92411 -1.85584,-0.60065 -5.98457,-5.11139 -9.70784,-3.30943 -3.720953,1.79728 -39.904091,26.56895 -23.942918,6.94607 6.716714,-8.25489 15.449137,-11.76766 14.80272,-13.89448 -0.987003,-3.23231 -11.167493,-3.43331 -14.075211,-5.56247 -1.51294,-1.10548 -2.817359,1.25974 -3.72327,3.43564 -9.038254,35.74469 -40.726593,54.64773 -43.740889,56.67172 0,0 -8.329281,5.15112 -6.146754,5.06699 2.184843,-0.0795 6.260283,-0.85074 7.013277,6.27997"
         inkscape:connector-curvature="0"
         transform="matrix(0.64,0,0,0.64,-0.8,0)" />
      <path
         id="path94"
         style="fill:#5d802f;fill-opacity:1;fill-rule:nonzero;stroke:none;stroke-width:0.232702"
         d="m 104.59395,285.00479 c -14.482991,4.672 -27.589734,2.6597 -27.589734,2.6597 -5.1389,-0.12153 -5.555944,-6.43657 -6.318206,-11.68118 -0.778481,-5.37549 5.113414,5.49235 12.323629,7.1237 6.864996,1.57525 9.452981,1.06808 8.757909,-4.29806 -0.743727,-5.62323 6.441001,0.85307 10.778252,1.66874 0,0 0.53289,0.3459 2.78029,0.22437 2.24276,-0.12387 6.36686,1.61498 -0.73214,4.30273"
         inkscape:connector-curvature="0"
         transform="matrix(0.64,0,0,0.64,-0.8,0)" />
    </g>
  </g>
</svg>
