<?xml version="1.0" encoding="UTF-8" standalone="no"?>
<!-- Generator: Adobe Illustrator 22.1.0, SVG Export Plug-In . SVG Version: 6.00 Build 0) -->

<svg
   x="0px"
   y="0px"
   viewBox="0 0 480 399.99999"
   xml:space="preserve"
   version="1.1"
   id="svg39"
   sodipodi:docname="nixos.svg"
   width="480"
   height="400"
   inkscape:version="1.4.2 (ebf0e940d0, 2025-05-08)"
   xmlns:inkscape="http://www.inkscape.org/namespaces/inkscape"
   xmlns:sodipodi="http://sodipodi.sourceforge.net/DTD/sodipodi-0.dtd"
   xmlns:xlink="http://www.w3.org/1999/xlink"
   xmlns="http://www.w3.org/2000/svg"
   xmlns:svg="http://www.w3.org/2000/svg"
   xmlns:rdf="http://www.w3.org/1999/02/22-rdf-syntax-ns#"
   xmlns:cc="http://creativecommons.org/ns#"
   xmlns:dc="http://purl.org/dc/elements/1.1/"><metadata
   id="metadata45"><rdf:RDF><cc:Work
       rdf:about=""><dc:format>image/svg+xml</dc:format><dc:type
         rdf:resource="http://purl.org/dc/dcmitype/StillImage" /></cc:Work></rdf:RDF></metadata><defs
   id="defs43">                <linearGradient
   gradientUnits="userSpaceOnUse"
   id="linear-gradient-f683afeaafe0676dd2d738a2ab63a1d7"
   x1="-320"
   x2="128"
   y1="-554.25629"
   y2="221.7025"><stop
     offset="0%"
     stop-color="#6d9bbc"
     id="stop4" /><stop
     offset="25%"
     stop-color="#72a9cf"
     id="stop5" /><stop
     offset="100%"
     stop-color="#77b6e1"
     id="stop6" /></linearGradient><linearGradient
   gradientUnits="userSpaceOnUse"
   id="linear-gradient-2554fbbc168494bd92c970521b88236e"
   x1="-320"
   x2="128"
   y1="-554.25629"
   y2="221.7025"><stop
     offset="0%"
     stop-color="#3e5993"
     id="stop1" /><stop
     offset="25%"
     stop-color="#4564a5"
     id="stop2" /><stop
     offset="100%"
     stop-color="#4d6fb7"
     id="stop3" /></linearGradient><linearGradient
   inkscape:collect="always"
   xlink:href="#linear-gradient-2554fbbc168494bd92c970521b88236e"
   id="linearGradient19"
   gradientUnits="userSpaceOnUse"
   x1="-320"
   y1="-554.25629"
   x2="128"
   y2="221.7025" /><linearGradient
   inkscape:collect="always"
   xlink:href="#linear-gradient-f683afeaafe0676dd2d738a2ab63a1d7"
   id="linearGradient20"
   gradientUnits="userSpaceOnUse"
   x1="-320"
   y1="-554.25629"
   x2="128"
   y2="221.7025" /><linearGradient
   inkscape:collect="always"
   xlink:href="#linear-gradient-2554fbbc168494bd92c970521b88236e"
   id="linearGradient1"
   gradientUnits="userSpaceOnUse"
   x1="-320"
   y1="-554.25629"
   x2="128"
   y2="221.7025" /><linearGradient
   inkscape:collect="always"
   xlink:href="#linear-gradient-f683afeaafe0676dd2d738a2ab63a1d7"
   id="linearGradient2"
   gradientUnits="userSpaceOnUse"
   x1="-320"
   y1="-554.25629"
   x2="128"
   y2="221.7025" /><linearGradient
   inkscape:collect="always"
   xlink:href="#linear-gradient-2554fbbc168494bd92c970521b88236e"
   id="linearGradient3"
   gradientUnits="userSpaceOnUse"
   x1="-320"
   y1="-554.25629"
   x2="128"
   y2="221.7025" /><linearGradient
   inkscape:collect="always"
   xlink:href="#linear-gradient-f683afeaafe0676dd2d738a2ab63a1d7"
   id="linearGradient4"
   gradientUnits="userSpaceOnUse"
   x1="-320"
   y1="-554.25629"
   x2="128"
   y2="221.7025" /></defs><sodipodi:namedview
   pagecolor="#ffffff"
   bordercolor="#666666"
   borderopacity="1"
   objecttolerance="10"
   gridtolerance="10"
   guidetolerance="10"
   inkscape:pageopacity="0"
   inkscape:pageshadow="2"
   inkscape:window-width="1920"
   inkscape:window-height="980"
   id="namedview41"
   showgrid="true"
   inkscape:zoom="0.6066571"
   inkscape:cx="-33.791742"
   inkscape:cy="-25.549853"
   inkscape:window-x="0"
   inkscape:window-y="0"
   inkscape:window-maximized="1"
   inkscape:current-layer="layer1"
   inkscape:showpageshadow="2"
   inkscape:pagecheckerboard="0"
   inkscape:deskcolor="#d1d1d1"
   showguides="true"><inkscape:grid
     id="grid1"
     units="px"
     originx="0"
     originy="0"
     spacingx="9.9999999"
     spacingy="9.9999999"
     empcolor="#0099e5"
     empopacity="0.30196078"
     color="#0099e5"
     opacity="0.14902"
     empspacing="5"
     enabled="true"
     visible="true"
     dotted="false" /><sodipodi:guide
     position="240,199.99999"
     orientation="1,0"
     id="guide1"
     inkscape:locked="false" /><sodipodi:guide
     position="240,199.99999"
     orientation="0,-1"
     id="guide2"
     inkscape:locked="false" /></sodipodi:namedview> <style
   type="text/css"
   id="style2"> .st0{fill:#064F8C;} .st1{fill:#249847;} .st2{fill:#BE2128;} .st3{fill:#172C36;} .st4{fill:#CDCDCE;} </style>   <g
   inkscape:groupmode="layer"
   id="layer1"
   inkscape:label="Mark"><g
     id="g922"
     transform="matrix(13.945883,0,0,13.945883,937.9194,603.96233)"
     inkscape:label="Icon"
     sodipodi:insensitive="true"><polygon
       fill="url(#linear-gradient-2554fbbc168494bd92c970521b88236e)"
       points="-304,-304.84094 -176,-526.54345 384,443.40501 128,443.40501 -4.0726089e-14,221.7025 -128,443.40501 -256,443.40501 -320,332.55376 -128,0 "
       transform="matrix(0.01437477,0,0,0.01437477,-54.644759,-20.999115)"
       id="polygon6"
       style="fill:url(#linearGradient1)" /><polygon
       fill="url(#linear-gradient-f683afeaafe0676dd2d738a2ab63a1d7)"
       points="-304,-304.84094 -176,-526.54345 384,443.40501 128,443.40501 -4.0726089e-14,221.7025 -128,443.40501 -256,443.40501 -320,332.55376 -128,0 "
       transform="matrix(0.00718739,0.01244891,-0.01244891,0.00718739,-59.244685,-28.966421)"
       id="polygon7"
       style="fill:url(#linearGradient2)" /><polygon
       fill="url(#linear-gradient-2554fbbc168494bd92c970521b88236e)"
       points="-304,-304.84094 -176,-526.54345 384,443.40501 128,443.40501 -4.0726089e-14,221.7025 -128,443.40501 -256,443.40501 -320,332.55376 -128,0 "
       transform="matrix(-0.00718739,0.01244891,-0.01244891,-0.00718739,-54.644759,-36.933726)"
       id="polygon8"
       style="fill:url(#linearGradient3)" /><polygon
       fill="url(#linear-gradient-f683afeaafe0676dd2d738a2ab63a1d7)"
       points="-304,-304.84094 -176,-526.54345 384,443.40501 128,443.40501 -4.0726089e-14,221.7025 -128,443.40501 -256,443.40501 -320,332.55376 -128,0 "
       transform="matrix(-0.01437477,0,0,-0.01437477,-45.444907,-36.933726)"
       id="polygon9"
       style="fill:url(#linearGradient4)" /><polygon
       fill="url(#linear-gradient-2554fbbc168494bd92c970521b88236e)"
       points="-304,-304.84094 -176,-526.54345 384,443.40501 128,443.40501 -4.0726089e-14,221.7025 -128,443.40501 -256,443.40501 -320,332.55376 -128,0 "
       transform="matrix(-0.00718739,-0.01244891,0.01244891,-0.00718739,-40.844982,-28.966421)"
       id="polygon10"
       style="fill:url(#linearGradient19)" /><polygon
       fill="url(#linear-gradient-f683afeaafe0676dd2d738a2ab63a1d7)"
       points="-304,-304.84094 -176,-526.54345 384,443.40501 128,443.40501 -4.0726089e-14,221.7025 -128,443.40501 -256,443.40501 -320,332.55376 -128,0 "
       transform="matrix(0.00718739,-0.01244891,0.01244891,0.00718739,-45.444908,-20.999115)"
       id="polygon11"
       style="fill:url(#linearGradient20)" /></g></g></svg>
