<?xml version="1.0" encoding="UTF-8" standalone="no"?>
<svg
   viewBox="0 0 380 400"
   version="1.1"
   id="svg8"
   sodipodi:docname="numpy.svg"
   width="380"
   height="400"
   inkscape:version="1.4.2 (ebf0e940d0, 2025-05-08)"
   xmlns:inkscape="http://www.inkscape.org/namespaces/inkscape"
   xmlns:sodipodi="http://sodipodi.sourceforge.net/DTD/sodipodi-0.dtd"
   xmlns="http://www.w3.org/2000/svg"
   xmlns:svg="http://www.w3.org/2000/svg">
  <sodipodi:namedview
     id="namedview8"
     pagecolor="#ffffff"
     bordercolor="#000000"
     borderopacity="0.25"
     inkscape:showpageshadow="2"
     inkscape:pageopacity="0.0"
     inkscape:pagecheckerboard="0"
     inkscape:deskcolor="#d1d1d1"
     showgrid="true"
     inkscape:zoom="1.0620744"
     inkscape:cx="105.92478"
     inkscape:cy="241.50851"
     inkscape:window-width="1920"
     inkscape:window-height="980"
     inkscape:window-x="0"
     inkscape:window-y="0"
     inkscape:window-maximized="1"
     inkscape:current-layer="layer1">
    <inkscape:grid
       id="grid8"
       units="px"
       originx="0"
       originy="0"
       spacingx="10"
       spacingy="10"
       empcolor="#0099e5"
       empopacity="0.30196078"
       color="#0099e5"
       opacity="0.14902"
       empspacing="5"
       enabled="true"
       visible="true" />
  </sodipodi:namedview>
  <defs
     id="defs1">
    <style
       id="style1">.cls-1{fill:#4DABCF;}.cls-2{fill:#4D77CF;}</style>
  </defs>
  <g
     inkscape:groupmode="layer"
     id="layer1"
     inkscape:label="Mark">
    <g
       id="Layer_1"
       data-name="Layer 1"
       inkscape:label="Icon"
       transform="matrix(0.96641701,0,0,0.96641701,-51.942498,-41.604252)"
       sodipodi:insensitive="true">
      <polygon
         class="cls-1"
         points="146.9,165.78 220.93,127.14 151.77,92.23 75.87,130.11 "
         id="polygon1" />
      <polygon
         class="cls-1"
         points="178.77,181.79 252.63,143.14 325.14,179.74 249.91,217.52 "
         id="polygon2" />
      <polygon
         class="cls-1"
         points="284.68,126.92 349.47,92.76 423.96,130.11 357.34,163.57 "
         id="polygon3" />
      <polygon
         class="cls-1"
         points="253.11,111 317.41,76.67 250.35,43.05 184.01,76.15 "
         id="polygon4" />
      <polygon
         class="cls-1"
         points="346.13,324.86 264.98,365.44 264.98,456.95 346.22,416.41 "
         id="polygon5" />
      <polygon
         class="cls-1"
         points="264.98,333.22 346.1,292.91 346.01,202.32 264.98,242.6 "
         id="polygon6" />
      <polygon
         class="cls-1"
         points="374.29,310.93 443.63,275.93 443.63,367.8 374.34,402.38 "
         id="polygon7" />
      <polygon
         class="cls-1"
         points="374.27,279.07 443.63,243.81 443.63,153.79 374.21,188.3 "
         id="polygon8" />
      <path
         class="cls-2"
         d="M 236.3,242.6 181.58,215.09 V 334 c 0,0 -66.92,-142.39 -73.12,-155.18 -0.8,-1.65 -4.09,-3.46 -4.93,-3.9 -12,-6.3 -47.16,-24.11 -47.16,-24.11 v 210.08 l 48.64,26 V 277.08 c 0,0 66.21,127.23 66.88,128.62 0.67,1.39 7.32,14.8 14.42,19.51 9.46,6.26 50,30.64 50,30.64 z"
         id="path8" />
    </g>
  </g>
</svg>
