<?xml version="1.0" encoding="UTF-8" standalone="no"?>
<!-- Generator: Adobe Illustrator 22.1.0, SVG Export Plug-In . SVG Version: 6.00 Build 0) -->

<svg
   x="0px"
   y="0px"
   viewBox="0 0 420 399.99999"
   xml:space="preserve"
   version="1.1"
   id="svg39"
   sodipodi:docname="pooch.svg"
   width="420"
   height="400"
   inkscape:version="1.4.2 (ebf0e940d0, 2025-05-08)"
   inkscape:export-filename="pooch.png"
   inkscape:export-xdpi="96"
   inkscape:export-ydpi="96"
   xmlns:inkscape="http://www.inkscape.org/namespaces/inkscape"
   xmlns:sodipodi="http://sodipodi.sourceforge.net/DTD/sodipodi-0.dtd"
   xmlns="http://www.w3.org/2000/svg"
   xmlns:svg="http://www.w3.org/2000/svg"
   xmlns:rdf="http://www.w3.org/1999/02/22-rdf-syntax-ns#"
   xmlns:cc="http://creativecommons.org/ns#"
   xmlns:dc="http://purl.org/dc/elements/1.1/"><metadata
   id="metadata45"><rdf:RDF><cc:Work
       rdf:about=""><dc:format>image/svg+xml</dc:format><dc:type
         rdf:resource="http://purl.org/dc/dcmitype/StillImage" /></cc:Work></rdf:RDF></metadata><defs
   id="defs43">                </defs><sodipodi:namedview
   pagecolor="#ffffff"
   bordercolor="#666666"
   borderopacity="1"
   objecttolerance="10"
   gridtolerance="10"
   guidetolerance="10"
   inkscape:pageopacity="0"
   inkscape:pageshadow="2"
   inkscape:window-width="1920"
   inkscape:window-height="980"
   id="namedview41"
   showgrid="true"
   inkscape:zoom="1.2133142"
   inkscape:cx="162.77729"
   inkscape:cy="127.33717"
   inkscape:window-x="0"
   inkscape:window-y="0"
   inkscape:window-maximized="1"
   inkscape:current-layer="layer1"
   inkscape:showpageshadow="2"
   inkscape:pagecheckerboard="0"
   inkscape:deskcolor="#d1d1d1"
   showguides="true"><inkscape:grid
     id="grid1"
     units="px"
     originx="0"
     originy="0"
     spacingx="9.9999999"
     spacingy="9.9999999"
     empcolor="#0099e5"
     empopacity="0.30196078"
     color="#0099e5"
     opacity="0.14902"
     empspacing="5"
     enabled="true"
     visible="true"
     dotted="false" /><sodipodi:guide
     position="210,199.99999"
     orientation="1,0"
     id="guide1"
     inkscape:locked="false" /><sodipodi:guide
     position="210,199.99999"
     orientation="0,-1"
     id="guide2"
     inkscape:locked="false" /></sodipodi:namedview> <style
   type="text/css"
   id="style2"> .st0{fill:#064F8C;} .st1{fill:#249847;} .st2{fill:#BE2128;} .st3{fill:#172C36;} .st4{fill:#CDCDCE;} </style>   <g
   inkscape:groupmode="layer"
   id="layer1"
   inkscape:label="Mark"><g
     id="g922"
     transform="matrix(11.180021,0,0,11.180021,-8.8416052,-159.71395)"
     inkscape:label="Icon"
     sodipodi:insensitive="true"><path
       style="color:#000000;font-style:normal;font-variant:normal;font-weight:normal;font-stretch:normal;font-size:medium;line-height:normal;font-family:sans-serif;font-variant-ligatures:normal;font-variant-position:normal;font-variant-caps:normal;font-variant-numeric:normal;font-variant-alternates:normal;font-feature-settings:normal;text-indent:0;text-align:start;text-decoration:none;text-decoration-line:none;text-decoration-style:solid;text-decoration-color:#000000;letter-spacing:normal;word-spacing:normal;text-transform:none;writing-mode:lr-tb;direction:ltr;text-orientation:mixed;dominant-baseline:auto;baseline-shift:baseline;text-anchor:start;white-space:normal;shape-padding:0;clip-rule:nonzero;display:inline;overflow:visible;visibility:visible;isolation:auto;mix-blend-mode:normal;color-interpolation:sRGB;color-interpolation-filters:linearRGB;solid-color:#000000;solid-opacity:1;vector-effect:none;fill:#3180bd;fill-opacity:1;fill-rule:nonzero;stroke:none;stroke-width:7.84244;stroke-linecap:round;stroke-linejoin:miter;stroke-miterlimit:4;stroke-dasharray:none;stroke-dashoffset:0;stroke-opacity:1;color-rendering:auto;image-rendering:auto;shape-rendering:auto;text-rendering:auto;enable-background:accumulate"
       d="m 178.18359,-19.150392 -91.14257,46.546875 2.54687,15.642578 c -0.53303,0.09286 -1.04108,0.295016 -1.49219,0.59375 -9.44829,6.101708 -14.09057,5.108952 -20.38867,3.933594 C 61.72817,46.450651 54.01741,45.180802 44.29102,50.15039 L 30.789062,47.839843 c -5.234174,-1.002395 -6.596656,6.926049 -1.328124,7.728515 l 9.013671,1.542969 -5.115234,8.710938 c -2.804929,4.547927 4.15642,8.635859 6.761715,3.970703 L 47.42188,57.36914 c 8.08538,-4.35224 12.53324,-3.265932 18.8457,-2.087891 6.25182,1.166718 14.31974,1.961595 24.63281,-4.173828 l 2.49805,15.292969 101.04297,14.208989 23.43554,-30.761724 c 55.07949,-9.163653 97.30543,-0.490622 125.88282,21.259766 28.57734,21.750388 46.58779,57.999239 48.09375,114.300779 2.05209,76.71954 -39.74218,125.22738 -100.36524,162.61719 -59.82714,36.76668 -131.95845,55.77826 -204.42578,71.30078 -0.02,0.004 -0.0387,0.0118 -0.0586,0.0156 -44.22213,9.14229 -98.509505,12.31649 -146.8789,12.28323 l -0.0293,48.18164 c 50.480076,0.0344 107.205047,-3.0377 156.835937,-13.31836 l 0.082,-0.0215 0.0801,-0.0156 C 170.9535,450.63241 248.61848,430.9319 316.75,389.05273 l 0.0156,-0.0156 0.0137,-0.008 C 385.71784,346.51082 442.57222,279.77673 440.01367,184.12305 438.23469,117.613 414.77741,64.613058 372.94141,32.771483 341.56441,8.890274 301.58154,-2.288258 256.55078,-1.892579 241.54053,-1.760674 225.97137,-0.339808 209.9707,2.322265 Z"
       id="path1395-9"
       transform="matrix(0.07170575,0,0,0.07170575,5.9433529,15.658851)" /><path
       style="fill:none;stroke:#000000;stroke-width:1.23088px;stroke-linecap:butt;stroke-linejoin:miter;stroke-opacity:1"
       d="M 226.05717,388.08391 Z"
       id="path1076-4"
       inkscape:connector-curvature="0"
       transform="matrix(0.07170575,0,0,0.07170575,5.9433529,15.658851)" /><path
       id="path900"
       style="fill:#ffd21d;fill-opacity:1;stroke-width:3.79347"
       d="m 202.87672,430.79068 c 4.52702,-7.00516 58.81598,-26.42321 68.55186,-24.11354 13.76339,3.26521 -13.73678,28.44375 -27.09268,33.1417 -13.35589,4.69803 -49.21702,2.97634 -41.45918,-9.02816 z m 49.65453,-321.40789 c -9.2265,0.0646 -18.45068,0.79933 -27.63477,2.39259 l -2.69336,0.51171 c 39.91671,47.57881 77.51182,98.58271 129.82421,132.65628 -3.01957,-41.39456 -12.11289,-81.97398 -17.37498,-123.0762 -26.73655,-6.83297 -54.44159,-12.67785 -82.1211,-12.48438 z m -38.91602,15.67189 c -24.65023,4.06794 -51.21952,10.48123 -71.60937,16.70313 l -0.0449,-0.13871 c -20.25159,7.42927 -46.132072,18.7903 -68.882821,30.86914 -1.644098,27.18172 -2.63972,54.67363 -5.037097,81.89257 -0.103597,1.20926 -0.212977,2.41682 -0.322281,3.62502 -0.05159,0.55533 -0.105297,1.11092 -0.158211,1.66602 -1.88821,20.33787 -4.629588,40.50595 -9.152349,60.13867 l 37.509771,54.10742 c 37.036688,39.53609 77.050408,67.09338 127.011718,18.14256 69.0266,8.88204 84.8335,-37.57935 91.17773,-91.83201 l -1.87498,-66.15621 c -15.19796,-12.9645 -29.28454,-27.44308 -42.78906,-42.57619 -0.3696,-0.41223 -0.73854,-0.82318 -1.10742,-1.23632 -0.79996,-0.90078 -1.60035,-1.80204 -2.39649,-2.70705 -17.96979,-20.33208 -34.97945,-41.7371 -52.32422,-62.49804 z m -154.9414,42.43944 -2.458991,1.2305 c -33.169497,17.26447 -58.7514484,45.90562 -81.919917,74.90427 20.0242569,36.11063 36.672059,74.13596 58.664061,109.11526 C 54.748402,293.61435 54.772288,229.88929 58.67383,167.49412 Z M 226.64648,294.7617 211.45703,356.66405 162.7168,316.28906 c 21.06874,-8.11801 42.43737,-14.65221 63.92968,-21.52736 z"
       transform="matrix(0.07170575,0,0,0.07170575,5.9433529,15.658851)" /></g></g></svg>
