<?xml version="1.0" encoding="UTF-8" standalone="no"?>
<!-- Generator: Adobe Illustrator 22.1.0, SVG Export Plug-In . SVG Version: 6.00 Build 0) -->

<svg
   x="0px"
   y="0px"
   viewBox="0 0 420 399.99999"
   xml:space="preserve"
   version="1.1"
   id="svg39"
   sodipodi:docname="qeme.svg"
   width="420"
   height="400"
   inkscape:version="1.4.2 (ebf0e940d0, 2025-05-08)"
   xmlns:inkscape="http://www.inkscape.org/namespaces/inkscape"
   xmlns:sodipodi="http://sodipodi.sourceforge.net/DTD/sodipodi-0.dtd"
   xmlns:xlink="http://www.w3.org/1999/xlink"
   xmlns="http://www.w3.org/2000/svg"
   xmlns:svg="http://www.w3.org/2000/svg"
   xmlns:rdf="http://www.w3.org/1999/02/22-rdf-syntax-ns#"
   xmlns:cc="http://creativecommons.org/ns#"
   xmlns:dc="http://purl.org/dc/elements/1.1/"><metadata
   id="metadata45"><rdf:RDF><cc:Work
       rdf:about=""><dc:format>image/svg+xml</dc:format><dc:type
         rdf:resource="http://purl.org/dc/dcmitype/StillImage" /></cc:Work></rdf:RDF></metadata><defs
   id="defs43">                <radialGradient
   inkscape:collect="always"
   xlink:href="#linearGradient4467"
   id="radialGradient3262"
   gradientUnits="userSpaceOnUse"
   gradientTransform="matrix(0.97442557,1.5088911,-0.83559154,0.53961599,147.30051,-16.14455)"
   cx="116.51958"
   cy="98.282051"
   fx="116.51958"
   fy="98.282051"
   r="55.859375" /><linearGradient
   id="linearGradient4467"><stop
     style="stop-color:#000000;stop-opacity:1;"
     offset="0"
     id="stop4469" /><stop
     style="stop-color:#000000;stop-opacity:0.8974359;"
     offset="1"
     id="stop4471" /></linearGradient><linearGradient
   inkscape:collect="always"
   xlink:href="#linearGradient4431"
   id="linearGradient3264"
   gradientUnits="userSpaceOnUse"
   x1="142.81854"
   y1="831.52283"
   x2="142.81854"
   y2="878.90735"
   gradientTransform="matrix(1.0465082,0,0,1.2920463,36.01766,-902.72053)" /><linearGradient
   id="linearGradient4431"><stop
     style="stop-color:#ffffff;stop-opacity:1;"
     offset="0"
     id="stop4433" /><stop
     style="stop-color:#ffffff;stop-opacity:0;"
     offset="1"
     id="stop4435" /></linearGradient></defs><sodipodi:namedview
   pagecolor="#ffffff"
   bordercolor="#666666"
   borderopacity="1"
   objecttolerance="10"
   gridtolerance="10"
   guidetolerance="10"
   inkscape:pageopacity="0"
   inkscape:pageshadow="2"
   inkscape:window-width="1920"
   inkscape:window-height="980"
   id="namedview41"
   showgrid="true"
   inkscape:zoom="0.85794273"
   inkscape:cx="230.20185"
   inkscape:cy="293.14311"
   inkscape:window-x="0"
   inkscape:window-y="0"
   inkscape:window-maximized="1"
   inkscape:current-layer="layer1"
   inkscape:showpageshadow="2"
   inkscape:pagecheckerboard="0"
   inkscape:deskcolor="#d1d1d1"
   showguides="true"><inkscape:grid
     id="grid1"
     units="px"
     originx="0"
     originy="0"
     spacingx="9.9999999"
     spacingy="9.9999999"
     empcolor="#0099e5"
     empopacity="0.30196078"
     color="#0099e5"
     opacity="0.14902"
     empspacing="5"
     enabled="true"
     visible="true"
     dotted="false" /><sodipodi:guide
     position="210,199.99999"
     orientation="1,0"
     id="guide1"
     inkscape:locked="false" /><sodipodi:guide
     position="210,199.99999"
     orientation="0,-1"
     id="guide2"
     inkscape:locked="false" /></sodipodi:namedview> <style
   type="text/css"
   id="style2"> .st0{fill:#064F8C;} .st1{fill:#249847;} .st2{fill:#BE2128;} .st3{fill:#172C36;} .st4{fill:#CDCDCE;} </style>   <g
   inkscape:groupmode="layer"
   id="layer1"
   inkscape:label="Mark"><g
     id="g922"
     transform="matrix(50.198879,0,0,50.198908,-757.35942,-1397.9808)"
     inkscape:label="Icon"
     sodipodi:insensitive="true"><path
       inkscape:connector-curvature="0"
       style="fill:url(#radialGradient3262);fill-opacity:1;stroke:none"
       d="M 185.875,170 C 155.02418,170 130,194.87043 130,225.5625 c 0,30.69207 25.02418,55.56249 55.875,55.56249 10.09495,0 19.54624,-2.6525 27.71875,-7.3125 l 2.90624,7.3125 h 2.40625 20 0.125 l -8.8125,-21.78124 c 7.21537,-9.3622 11.5,-21.07236 11.5,-33.78125 C 241.71874,194.87043 216.72581,170 185.875,170 Z"
       id="path3834-7-7-2-5-5-0-5-4"
       transform="matrix(0.07170575,0,0,0.07170575,5.9433529,15.658851)" /><ellipse
       style="fill:url(#linearGradient3264);fill-opacity:1;stroke:none;stroke-width:1.16281"
       id="path3661"
       cx="185.14508"
       cy="203.64679"
       rx="37.001541"
       ry="31.839712"
       transform="matrix(0.07170575,0,0,0.07170575,5.9433529,15.658851)" /><circle
       style="fill:#000000;fill-opacity:1;stroke:none"
       id="path4442"
       cx="190.99139"
       cy="192.92973"
       r="6.5659914"
       transform="matrix(0.07170575,0,0,0.07170575,5.9433529,15.658851)" /><rect
       style="fill:#000000;fill-opacity:1;stroke:none"
       id="rect4444"
       width="37.643608"
       height="5.5005069"
       x="213.19685"
       y="168.67999"
       transform="matrix(0.0709707,0.01024084,-0.01360447,0.07040336,5.9433529,15.658851)" /><rect
       style="fill:#000000;fill-opacity:1;stroke:none"
       id="rect4446"
       width="6.5659914"
       height="2.9041886"
       x="212.5834"
       y="203.15756"
       transform="matrix(0.07170575,0,0,0.07170575,5.9433529,15.658851)" /><path
       style="fill:#ff6600;fill-opacity:1"
       d="m 171.04686,179.15121 c -0.057,2.18531 -3.86575,0.28296 -4.03124,2.78125 -4.22387,-1.88052 0.32884,2.87188 -0.0937,3.3125 h -0.0312 l -0.3125,-0.0312 c -0.20386,-0.0728 -0.49977,-0.19904 -0.9375,-0.46875 -2.9499,2.35025 -3.02157,7.23369 -6.0625,9.9375 -1.99467,4.30504 -2.47977,8.98337 -3.9375,13.46875 -0.71796,4.30292 -1.34881,8.59786 -0.28125,12.90625 0.32053,3.50159 -0.68919,8.25865 2.5,10.71875 4.72728,3.88304 8.65575,8.79543 12.62499,13.46875 6.21914,7.65333 11.72948,15.86251 16.59375,24.4375 0.32431,-2.11756 1.10954,4.26459 2.53125,4.6875 -0.4916,-3.19231 -1.13213,-8.26328 -1.4375,-12.1875 -1.5814,-10.2909 -6.65305,-19.64903 -8.5625,-29.84375 -0.0587,-0.43037 -0.12808,-0.87203 -0.1875,-1.3125 v -1.28125 h -0.15625 c -0.62551,-5.04297 -0.85039,-10.46546 2.8125,-14.40625 3.73968,-3.7721 9.30633,-4.72245 13.8125,-7.34375 1.00194,-0.59119 2.04922,-1.07174 3.125,-1.40625 0.009,-0.003 0.0228,0.003 0.0312,0 3.117,-0.96341 6.44862,-0.93323 9.6875,-0.40625 0.0479,0.008 0.1084,0.0233 0.15625,0.0312 0.29454,0.0493 0.61388,0.099 0.90625,0.15625 2.37135,0.21133 7.14462,1.13687 7.99999,-0.5 -3.27225,-2.78631 -7.98526,-2.59211 -11.96875,-3.6875 -0.63059,-0.11469 -1.41182,-0.24041 -2.1875,-0.3125 l -3.90625,-0.875 -0.96875,-0.25 v 0.0312 l -13.96875,-2.71875 c -0.22212,-0.20226 -0.46434,-0.40933 -0.6875,-0.5625 l 13.625,1.6875 v -0.0625 c 0.48011,0.10699 0.95576,0.19361 1.4375,0.25 v 0.0312 l 9.625,1.78125 c 1.66103,0.61952 3.4322,1.08374 5.09375,1.1875 2.74263,0.39907 6.22526,4.49092 7.125,4.6875 -0.44096,-4.307 -4.7422,-6.23586 -8.3125,-7.5 -4.1712,-2.02803 -10.4023,-1.95417 -11.0625,-7.5625 -0.1756,-0.39076 -0.34902,-0.78118 -0.5625,-1.15625 l -1.625,-2.15625 0.0625,-0.0312 c -2.21724,-2.61691 -5.34011,-4.52196 -8.65625,-5.25 -3.2914,-1.13611 -6.98773,-2.2671 -10.46875,-2.71875 -1.18132,3.47826 -2.5031,-2.75561 -5.34375,-0.90625 -2.48996,0.29488 -2.14614,0.95256 -4,-0.625 z m 17.90625,10.15625 c 0.90187,-0.0238 1.93277,0.14208 2.96875,0.5 2.7626,0.95447 4.56151,2.96523 4.03125,4.5 -0.53026,1.53477 -3.20615,1.98572 -5.96875,1.03125 -2.76259,-0.95447 -4.5615,-2.93398 -4.03125,-4.46875 0.33141,-0.95923 1.49689,-1.52281 3,-1.5625 z"
       id="path3499-9-7"
       inkscape:connector-curvature="0"
       transform="matrix(0.07170575,0,0,0.07170575,5.9433529,15.658851)" /></g></g></svg>
