<?xml version="1.0" encoding="UTF-8" standalone="no"?>
<svg
   id="svg4006"
   width="320"
   height="400"
   version="1.1"
   viewBox="0 0 160 200"
   sodipodi:docname="rtd-dark.svg"
   inkscape:version="1.4.2 (ebf0e940d0, 2025-05-08)"
   xmlns:inkscape="http://www.inkscape.org/namespaces/inkscape"
   xmlns:sodipodi="http://sodipodi.sourceforge.net/DTD/sodipodi-0.dtd"
   xmlns="http://www.w3.org/2000/svg"
   xmlns:svg="http://www.w3.org/2000/svg"
   xmlns:rdf="http://www.w3.org/1999/02/22-rdf-syntax-ns#"
   xmlns:cc="http://creativecommons.org/ns#"
   xmlns:dc="http://purl.org/dc/elements/1.1/">
  <defs
     id="defs1" />
  <sodipodi:namedview
     id="namedview1"
     pagecolor="#ffffff"
     bordercolor="#000000"
     borderopacity="0.25"
     inkscape:showpageshadow="2"
     inkscape:pageopacity="0.0"
     inkscape:pagecheckerboard="0"
     inkscape:deskcolor="#d1d1d1"
     inkscape:zoom="0.73755166"
     inkscape:cx="-69.825617"
     inkscape:cy="404.71741"
     inkscape:window-width="1920"
     inkscape:window-height="980"
     inkscape:window-x="0"
     inkscape:window-y="0"
     inkscape:window-maximized="1"
     inkscape:current-layer="layer2"
     showgrid="true">
    <inkscape:grid
       id="grid1"
       units="px"
       originx="0"
       originy="0"
       spacingx="5"
       spacingy="5"
       empcolor="#0099e5"
       empopacity="0.30196078"
       color="#0099e5"
       opacity="0.14901961"
       empspacing="5"
       enabled="true"
       visible="true" />
  </sodipodi:namedview>
  <metadata
     id="metadata4011">
    <rdf:RDF>
      <cc:Work
         rdf:about="">
        <dc:format>image/svg+xml</dc:format>
        <dc:type
           rdf:resource="http://purl.org/dc/dcmitype/StillImage" />
      </cc:Work>
    </rdf:RDF>
  </metadata>
  <g
     inkscape:groupmode="layer"
     id="layer2"
     inkscape:label="Mark">
    <path
       id="path3929-8"
       d="m 70.030572,96.383695 a 4.7969249,4.7969249 0 0 0 -0.64998,9.378135 c 0,0 11.682402,3.86571 31.570448,5.47855 15.97004,1.29488 34.07825,-1.11425 34.07825,-1.11425 a 4.7969249,4.7969249 0 1 0 -1.2071,-9.47114 c 0,0 -17.71392,2.19009 -32.12609,1.0214 C 82.714611,100.13736 72.354157,96.662258 72.354157,96.662258 A 4.7969249,4.7969249 0 0 0 70.0328,96.383695 Z m 0,-23.770688 a 4.7969249,4.7969249 0 0 0 -0.64998,9.378131 c 0,0 11.682402,3.865708 31.570448,5.478549 15.97004,1.294878 34.07825,-1.114251 34.07825,-1.114251 a 4.7969249,4.7969249 0 1 0 -1.2071,-9.471134 c 0,0 -17.71392,2.190083 -32.12609,1.021397 C 82.714611,76.366666 72.354157,72.89157 72.354157,72.89157 A 4.7969249,4.7969249 0 0 0 70.0328,72.613007 Z m 0,-23.770688 a 4.7969249,4.7969249 0 0 0 -0.64998,9.37813 c 0,0 11.682402,3.865709 31.570448,5.47855 15.97004,1.294878 34.07825,-1.114251 34.07825,-1.114251 a 4.7969249,4.7969249 0 1 0 -1.2071,-9.471134 c 0,0 -17.71392,2.190083 -32.12609,1.021397 -18.981489,-1.539033 -29.341943,-5.01413 -29.341943,-5.01413 A 4.7969249,4.7969249 0 0 0 70.0328,48.842319 Z m 0,-23.770688 a 4.7969249,4.7969249 0 0 0 -0.64998,9.37813 c 0,0 11.682402,3.865708 31.570448,5.47855 15.97004,1.294878 34.07825,-1.114251 34.07825,-1.114251 a 4.7969249,4.7969249 0 1 0 -1.2071,-9.471134 c 0,0 -17.71392,2.190083 -32.12609,1.021397 C 82.714611,28.82529 72.354157,25.350193 72.354157,25.350193 A 4.7969249,4.7969249 0 0 0 70.0328,25.071631 Z M 36.727838,0.00246862 C 11.747221,0.16904172 2.4415911,7.8619496 2.4415911,7.8619496 V 194.41431 c 0,0 9.0881289,-7.84878 38.3480629,-6.65014 29.259935,1.19863 35.293529,11.45539 71.252636,12.17772 35.95911,0.72233 44.99792,-5.52758 44.99792,-5.52758 l 0.5182,-190.1803617 c 0,0 -16.18219,4.5800173 -47.67509,4.8364436 C 78.390129,9.3269371 70.822136,1.0593729 41.914008,0.08834023 40.107198,0.02766555 38.397432,-0.00911959 36.731998,0.0019635 Z M 57.628513,12.180192 c 0,0 15.137174,5.00373 43.096257,6.391047 23.63104,1.172548 47.32744,-2.331905 47.32744,-2.331905 V 185.25784 c 0,0 -11.99439,6.28705 -41.97309,4.14561 C 82.84535,187.74396 57.280866,178.95297 57.280866,178.95297 L 57.626343,12.177815 Z m -14.595797,4.404709 a 4.8365922,4.8365922 0 0 1 0,9.673184 c 0,0 -7.829471,0.0402 -12.609459,0.518201 -8.025578,0.802558 -13.473226,3.713873 -13.473226,3.713873 a 4.8290414,4.8290414 0 1 1 -4.491174,-8.550317 c 0,0 7.106247,-3.759334 17.014167,-4.750275 5.72517,-0.572576 13.559692,-0.604577 13.559692,-0.604577 z m -4.663809,23.837246 c 2.673548,-0.06772 4.663809,0 4.663809,0 a 4.828421,4.828421 0 0 1 0,9.586718 c 0,0 -7.829471,0.04017 -12.609459,0.518201 -8.025578,0.802558 -13.473226,3.713873 -13.473226,3.713873 a 4.8290414,4.8290414 0 0 1 -4.491174,-8.550316 c 0,0 7.106247,-3.759335 17.014167,-4.750275 2.862585,-0.286289 6.222275,-0.450485 8.895883,-0.518201 z m 4.663809,23.75078 a 4.8365922,4.8365922 0 0 1 0,9.673184 c 0,0 -7.829471,-0.04617 -12.609459,0.431825 -8.025578,0.802557 -13.473226,3.713872 -13.473226,3.713872 a 4.8290414,4.8290414 0 0 1 -4.491174,-8.550316 c 0,0 7.106247,-3.759334 17.014167,-4.750275 5.72517,-0.572576 13.559692,-0.518201 13.559692,-0.518201 z"
       color="#000000"
       fill="#32322a"
       style="text-indent:0;text-transform:none;stroke-width:2.97134"
       inkscape:label="Icon"
       sodipodi:insensitive="true" />
  </g>
</svg>
