<?xml version="1.0" encoding="UTF-8" standalone="no"?>
<svg
   id="svg4006"
   width="320"
   height="400"
   version="1.1"
   viewBox="0 0 160 200"
   sodipodi:docname="rtd-light.svg"
   inkscape:version="1.4.2 (ebf0e940d0, 2025-05-08)"
   xmlns:inkscape="http://www.inkscape.org/namespaces/inkscape"
   xmlns:sodipodi="http://sodipodi.sourceforge.net/DTD/sodipodi-0.dtd"
   xmlns="http://www.w3.org/2000/svg"
   xmlns:svg="http://www.w3.org/2000/svg"
   xmlns:rdf="http://www.w3.org/1999/02/22-rdf-syntax-ns#"
   xmlns:cc="http://creativecommons.org/ns#"
   xmlns:dc="http://purl.org/dc/elements/1.1/">
  <defs
     id="defs1" />
  <sodipodi:namedview
     id="namedview1"
     pagecolor="#ffffff"
     bordercolor="#000000"
     borderopacity="0.25"
     inkscape:showpageshadow="2"
     inkscape:pageopacity="0.0"
     inkscape:pagecheckerboard="0"
     inkscape:deskcolor="#d1d1d1"
     inkscape:zoom="1.0430556"
     inkscape:cx="359.99998"
     inkscape:cy="359.99998"
     inkscape:window-width="1920"
     inkscape:window-height="980"
     inkscape:window-x="0"
     inkscape:window-y="0"
     inkscape:window-maximized="1"
     inkscape:current-layer="layer3"
     showgrid="true">
    <inkscape:grid
       id="grid1"
       units="px"
       originx="0"
       originy="0"
       spacingx="5"
       spacingy="5"
       empcolor="#0099e5"
       empopacity="0.30196078"
       color="#0099e5"
       opacity="0.14901961"
       empspacing="5"
       enabled="true"
       visible="true" />
  </sodipodi:namedview>
  <metadata
     id="metadata4011">
    <rdf:RDF>
      <cc:Work
         rdf:about="">
        <dc:format>image/svg+xml</dc:format>
        <dc:type
           rdf:resource="http://purl.org/dc/dcmitype/StillImage" />
      </cc:Work>
    </rdf:RDF>
  </metadata>
  <g
     inkscape:groupmode="layer"
     id="layer3"
     inkscape:label="Mark">
    <path
       id="path3929-8"
       d="m 70.030476,96.383705 a 4.7969248,4.7969248 0 0 0 -0.649979,9.378135 c 0,0 11.682403,3.86571 31.570443,5.47855 15.97004,1.29487 34.07825,-1.11426 34.07825,-1.11426 a 4.7969248,4.7969248 0 1 0 -1.2071,-9.47113 c 0,0 -17.71391,2.19009 -32.12608,1.0214 -18.981491,-1.53904 -29.341945,-5.01413 -29.341945,-5.01413 a 4.7969248,4.7969248 0 0 0 -2.321358,-0.278555 z m 0,-23.770685 a 4.7969248,4.7969248 0 0 0 -0.649979,9.378126 c 0,0 11.682403,3.86571 31.570443,5.478549 15.97004,1.29488 34.07825,-1.114247 34.07825,-1.114247 a 4.7969248,4.7969248 0 1 0 -1.2071,-9.471136 c 0,0 -17.71391,2.190084 -32.12608,1.021399 C 82.714519,76.366679 72.354065,72.89158 72.354065,72.89158 a 4.7969248,4.7969248 0 0 0 -2.321358,-0.278555 z m 0,-23.770691 a 4.7969248,4.7969248 0 0 0 -0.649979,9.378132 c 0,0 11.682403,3.86571 31.570443,5.478549 15.97004,1.294879 34.07825,-1.114252 34.07825,-1.114252 a 4.7969248,4.7969248 0 1 0 -1.2071,-9.471131 c 0,0 -17.71391,2.190084 -32.12608,1.021394 C 82.714519,52.595989 72.354065,49.120895 72.354065,49.120895 A 4.7969248,4.7969248 0 0 0 70.032707,48.84234 Z m 0,-23.770685 a 4.7969248,4.7969248 0 0 0 -0.649979,9.378132 c 0,0 11.682403,3.865705 31.570443,5.478549 15.97004,1.294874 34.07825,-1.114252 34.07825,-1.114252 a 4.7969248,4.7969248 0 1 0 -1.2071,-9.471136 c 0,0 -17.71391,2.190083 -32.12608,1.021399 C 82.714519,28.825304 72.354065,25.350205 72.354065,25.350205 A 4.7969248,4.7969248 0 0 0 70.032707,25.07165 Z M 36.727745,0.00248188 C 11.74713,0.16903269 2.4415,7.8619642 2.4415,7.8619642 V 194.41432 c 0,0 9.088126,-7.84878 38.348062,-6.65015 29.259935,1.19864 35.293526,11.45539 71.252638,12.17772 35.9591,0.72234 44.99791,-5.52757 44.99791,-5.52757 L 157.55832,4.2339592 c 0,0 -16.18219,4.5800174 -47.67508,4.8364474 C 78.390053,9.3269666 70.822058,1.0593854 41.913933,0.088352 40.107119,0.02766989 38.397355,-0.00909296 36.73192,0.0019827 Z M 57.628421,12.180206 c 0,0 15.13717,5.003726 43.096259,6.391043 23.63103,1.172553 47.32744,-2.331904 47.32744,-2.331904 V 185.25785 c 0,0 -11.9944,6.28705 -41.9731,4.14561 -23.233761,-1.6595 -48.798245,-10.45049 -48.798245,-10.45049 L 57.626252,12.17783 Z m -14.5958,4.404705 a 4.836593,4.836593 0 0 1 0,9.673186 c 0,0 -7.829469,0.04004 -12.609456,0.518216 -8.025581,0.802558 -13.473228,3.713875 -13.473228,3.713875 A 4.8290416,4.8290416 0 1 1 12.458764,21.93987 c 0,0 7.10625,-3.759332 17.014167,-4.750275 5.725172,-0.572575 13.55969,-0.604575 13.55969,-0.604575 z m -4.663808,23.837248 c 2.673549,-0.0677 4.663808,0 4.663808,0 a 4.8284209,4.8284209 0 0 1 0,9.586718 c 0,0 -7.829469,0.04004 -12.609456,0.518216 -8.025581,0.802558 -13.473228,3.713875 -13.473228,3.713875 A 4.8290416,4.8290416 0 0 1 12.458764,45.69065 c 0,0 7.10625,-3.759337 17.014167,-4.750275 2.862583,-0.286303 6.222277,-0.450462 8.895882,-0.518216 z m 4.663808,23.75078 a 4.836593,4.836593 0 0 1 0,9.673186 c 0,0 -7.829469,-0.04628 -12.609456,0.431794 -8.025581,0.802559 -13.473228,3.713876 -13.473228,3.713876 a 4.8290416,4.8290416 0 0 1 -4.491173,-8.550318 c 0,0 7.10625,-3.759332 17.014167,-4.750275 5.725172,-0.572575 13.55969,-0.518216 13.55969,-0.518216 z"
       color="#000000"
       fill="#fafafa"
       style="text-indent:0;text-transform:none;stroke-width:2.97134"
       inkscape:label="Icon"
       sodipodi:insensitive="true" />
  </g>
</svg>
