<?xml version="1.0" encoding="UTF-8" standalone="no"?>
<!-- Generator: Adobe Illustrator 22.1.0, SVG Export Plug-In . SVG Version: 6.00 Build 0) -->

<svg
   x="0px"
   y="0px"
   viewBox="0 0 580 399.99999"
   xml:space="preserve"
   version="1.1"
   id="svg39"
   sodipodi:docname="sphinx-light.svg"
   width="580"
   height="400"
   inkscape:version="1.4.2 (ebf0e940d0, 2025-05-08)"
   xmlns:inkscape="http://www.inkscape.org/namespaces/inkscape"
   xmlns:sodipodi="http://sodipodi.sourceforge.net/DTD/sodipodi-0.dtd"
   xmlns="http://www.w3.org/2000/svg"
   xmlns:svg="http://www.w3.org/2000/svg"
   xmlns:rdf="http://www.w3.org/1999/02/22-rdf-syntax-ns#"
   xmlns:cc="http://creativecommons.org/ns#"
   xmlns:dc="http://purl.org/dc/elements/1.1/"><metadata
   id="metadata45"><rdf:RDF><cc:Work
       rdf:about=""><dc:format>image/svg+xml</dc:format><dc:type
         rdf:resource="http://purl.org/dc/dcmitype/StillImage" /></cc:Work></rdf:RDF></metadata><defs
   id="defs43">                </defs><sodipodi:namedview
   pagecolor="#ffffff"
   bordercolor="#666666"
   borderopacity="1"
   objecttolerance="10"
   gridtolerance="10"
   guidetolerance="10"
   inkscape:pageopacity="0"
   inkscape:pageshadow="2"
   inkscape:window-width="1920"
   inkscape:window-height="980"
   id="namedview41"
   showgrid="true"
   inkscape:zoom="1.2133142"
   inkscape:cx="353.16491"
   inkscape:cy="275.69116"
   inkscape:window-x="0"
   inkscape:window-y="0"
   inkscape:window-maximized="1"
   inkscape:current-layer="g922"
   inkscape:showpageshadow="2"
   inkscape:pagecheckerboard="0"
   inkscape:deskcolor="#d1d1d1"
   showguides="true"><inkscape:grid
     id="grid1"
     units="px"
     originx="0"
     originy="0"
     spacingx="9.9999999"
     spacingy="9.9999999"
     empcolor="#0099e5"
     empopacity="0.30196078"
     color="#0099e5"
     opacity="0.14902"
     empspacing="5"
     enabled="true"
     visible="true"
     dotted="false" /><sodipodi:guide
     position="210,199.99999"
     orientation="1,0"
     id="guide1"
     inkscape:locked="false" /><sodipodi:guide
     position="210,199.99999"
     orientation="0,-1"
     id="guide2"
     inkscape:locked="false" /></sodipodi:namedview> <style
   type="text/css"
   id="style2"> .st0{fill:#064F8C;} .st1{fill:#249847;} .st2{fill:#BE2128;} .st3{fill:#172C36;} .st4{fill:#CDCDCE;} </style>   <g
   inkscape:groupmode="layer"
   id="layer1"
   inkscape:label="Mark"><g
     id="g922"
     transform="matrix(796.9076,0,0,796.9076,-16160.707,-12478.657)"
     inkscape:label="Icon"
     style="fill:#ffffff;fill-opacity:1;stroke-width:1;stroke-dasharray:none"
     sodipodi:insensitive="true"><path
       d="m 208.12,3.27 c 0.45,-0.32 1.06,-0.46 1.78,-0.73 l -0.31,-0.7 c -1.28,0.23 -2.43,-0.53 -3.68,-0.7 -1.91,-0.39 -3.67,0.76 -5.55,0.9 V 2.8 c 1.87,0.41 3.64,1.26 5.6,1.02 -1.21,1.21 -2.84,2.64 -4.69,2.07 -0.64,-0.12 -0.92,-1.02 -0.31,-1.29 0.27,1.04 1.57,0.3 1,-0.52 -0.39,-0.48 -1.42,-0.26 -1.72,0.22 -0.87,1.65 0.84,2.56 2.31,2.32 1.86,-0.25 3.29,-1.71 4.53,-3.02 -0.02,0.61 0.18,1.96 -0.41,2.5 l 0.01,0.9 c 0.43,-0.34 0.8,-1.07 0.92,-1.56 0.16,-0.63 0.04,-1.02 0.1,-1.53 0.05,-0.23 0.1,-0.41 0.42,-0.64 z M 201.9,2.39 c 0.77,-0.23 1.58,-0.58 2.39,-0.66 -0.42,1.38 1.81,1.54 1.56,0 0.64,0.16 1,0.3 1.94,0.7 -2.06,1.02 -4.05,0.56 -5.89,-0.04 z"
       id="path1"
       transform="matrix(0.07170575,0,0,0.07170575,5.9433529,15.658851)"
       style="fill:#ffffff;fill-opacity:1;stroke-width:13.9459;stroke-dasharray:none" /><path
       d="m 200.36,1.81 v -0.8 c 0.23,0 0.84,-0.18 1.44,-0.35 1,-0.3 2.25,-0.66 3.15,-0.66 1,0 2.05,0.34 2.82,0.58 l 0.91,0.25 c 0.62,0.07 0.98,-0.08 0.98,-0.08 L 210,1.48 c -0.06,0.02 -0.56,0.24 -1.41,0.15 -0.27,-0.03 -0.62,-0.14 -1.06,-0.29 -0.76,-0.24 -1.71,-0.54 -2.58,-0.54 -0.79,0 -1.97,0.35 -2.92,0.63 -0.74,0.21 -1.32,0.38 -1.67,0.38 z"
       id="path2"
       transform="matrix(0.07170575,0,0,0.07170575,5.9433529,15.658851)"
       style="fill:#ffffff;fill-opacity:1;stroke-width:13.9459;stroke-dasharray:none" /></g></g></svg>
